<?xml version="1.0" encoding="utf-8" ?>
<svg xmlns="http://www.w3.org/2000/svg" xmlns:xlink="http://www.w3.org/1999/xlink" width="1024" height="1024">
	<path fill="#3AB8D4" d="M157.361 1024L-0 1024L0 -0L1024 0L1024 1024L867.663 1024L157.361 1024Z"/>
	<path fill="#1B3348" d="M442.146 624.468C442.674 625.133 442.758 625.406 443.544 625.733C445.457 626.531 447.215 628.05 449.024 629.099C453.18 631.509 457.522 633.719 461.932 635.626C478.186 642.657 496.473 648.181 514.25 649.017C531.418 649.825 548.557 646.457 564.631 640.541L580.664 634.016C580.917 643.377 580.002 658.902 587.378 666.09C589.858 668.507 596.951 672.742 600.338 672.942C604.032 674.237 607.534 676.64 610.91 678.629L627.395 688.362C633.593 692.004 642.525 695.594 647.564 700.657L682.996 719.704L746.848 758.279C760.801 767.556 775.045 777.25 787.37 788.634C819.714 818.509 837.824 860.89 848.726 902.795C852.514 917.354 854.357 932.454 856.644 947.304L867.663 1024L157.361 1024L164.36 966.24C168.077 936.922 171.852 908.661 180.984 880.452C193.085 843.071 214.938 808.765 244.542 782.854C264.957 764.986 288.118 750.697 311.449 737.019L376.642 700.888L423.681 674.028C427.725 672.129 432.087 670.16 435.328 667.016C441.938 660.606 441.85 649.841 441.986 641.269L442.146 624.468Z"/>
	<path fill="#248DA1" d="M442.146 624.468C442.674 625.133 442.758 625.406 443.544 625.733C445.457 626.531 447.215 628.05 449.024 629.099C453.18 631.509 457.522 633.719 461.932 635.626C478.186 642.657 496.473 648.181 514.25 649.017C531.418 649.825 548.557 646.457 564.631 640.541L580.664 634.016C580.917 643.377 580.002 658.902 587.378 666.09C589.858 668.507 596.951 672.742 600.338 672.942C604.032 674.237 607.534 676.64 610.91 678.629L627.395 688.362C633.593 692.004 642.525 695.594 647.564 700.657C643.473 706.396 638.528 711.53 633.81 716.75C626.097 725.282 618.416 733.764 609.69 741.291C596.078 753.031 581.327 763.102 564.673 770.019C544.602 778.355 521.664 781.316 500.056 779.652C467.392 777.138 437.859 762.61 413.75 740.791C400.244 728.568 388.485 714.676 376.642 700.888L423.681 674.028C427.725 672.129 432.087 670.16 435.328 667.016C441.938 660.606 441.85 649.841 441.986 641.269L442.146 624.468Z"/>
	<path fill="#F9C69F" d="M442.146 624.468C442.674 625.133 442.758 625.406 443.544 625.733C445.457 626.531 447.215 628.05 449.024 629.099C453.18 631.509 457.522 633.719 461.932 635.626C478.186 642.657 496.473 648.181 514.25 649.017C531.418 649.825 548.557 646.457 564.631 640.541L580.664 634.016C580.917 643.377 580.002 658.902 587.378 666.09C589.858 668.507 596.951 672.742 600.338 672.942C592.048 695.401 573.189 713.304 551.703 723.258C530.042 733.293 502.452 734.999 479.999 726.59C461.697 719.735 445.351 708.11 433.653 692.367C430.643 688.315 427.688 684.106 425.619 679.48L423.681 674.028C427.725 672.129 432.087 670.16 435.328 667.016C441.938 660.606 441.85 649.841 441.986 641.269L442.146 624.468Z"/>
	<path fill="#FEFEFE" d="M343.793 474.453C311.577 468.754 282.408 451.369 263.435 424.43C232.841 380.994 233.013 322.612 263.331 279.101C265.709 275.687 268.324 272.354 271.099 269.25L280.953 258.872C281.385 258.415 283.368 256.679 283.495 256.193C283.689 255.451 283.211 253.188 283.16 252.328L282.998 243.555C283.079 237.9 283.577 232.155 284.564 226.587C287.456 210.276 292.939 193.969 301.553 179.74C319.269 150.473 350.22 130.232 383.024 122.183C388.971 120.724 395.051 119.813 401.155 119.371C402.396 119.281 408.204 119.56 408.902 119.111C409.934 118.447 412.02 114.382 412.832 113.202C414.747 110.417 416.905 107.776 419.149 105.25C425.015 98.6454 431.961 92.7603 439.207 87.7195C466.131 68.9879 500.506 60.7679 532.903 66.6112C567.185 72.7944 594.99 90.2649 614.826 118.89L619.079 118.778C630.579 119.005 642.427 121.725 653.277 125.451C672.634 132.098 690.704 142.477 704.962 157.352C726.142 179.448 739.601 207.084 742.251 237.722C742.878 244.968 742.588 252.287 742.423 259.548L748.199 264.917C771.319 287.482 783.987 319.511 784.413 351.61C784.823 382.514 773.006 414.232 751.353 436.453C733.314 454.966 707.591 468.496 681.519 470.228C678.151 485.889 672.5 501.152 665.662 515.609C650.478 547.709 627.33 578.757 597.25 598.352L581.136 607.665L580.664 634.016L564.631 640.541C548.557 646.457 531.418 649.825 514.25 649.017C496.473 648.181 478.186 642.657 461.932 635.626C457.522 633.719 453.18 631.509 449.024 629.099C447.215 628.05 445.457 626.531 443.544 625.733C442.758 625.406 442.674 625.133 442.146 624.468L441.746 609.941L441.501 606.5C439.774 604.5 436.329 603.271 434 601.942C421.825 594.996 410.78 585.673 400.914 575.79C372.706 547.531 354.373 512.725 343.793 474.453Z"/>
	<path fill="#F9C69F" d="M343.793 474.453C343.155 470.122 341.853 465.876 340.949 461.588L336.716 436.794C333.684 412.031 334.718 387.298 334.992 362.442L343.797 357.975C375.056 339.633 396.47 311.33 412.219 279.215C416.875 269.721 421.69 259.142 424.358 248.89C473.696 269.184 551.791 268.104 601.206 248.573L616.545 284.553C624.932 300.443 634.451 314.642 646.559 327.97C653.906 336.057 661.345 343.269 670.516 349.286C676.206 353.019 681.56 356.241 688.121 358.275C688.611 359.991 688.298 362.15 688.278 363.953L688.168 376.872C688.121 394.433 688.792 411.964 687.466 429.5C686.428 443.224 683.933 456.699 681.519 470.228C678.151 485.889 672.5 501.152 665.662 515.609C650.478 547.709 627.33 578.757 597.25 598.352L581.136 607.665L580.664 634.016L564.631 640.541C548.557 646.457 531.418 649.825 514.25 649.017C496.473 648.181 478.186 642.657 461.932 635.626C457.522 633.719 453.18 631.509 449.024 629.099C447.215 628.05 445.457 626.531 443.544 625.733C442.758 625.406 442.674 625.133 442.146 624.468L441.746 609.941L441.501 606.5C439.774 604.5 436.329 603.271 434 601.942C421.825 594.996 410.78 585.673 400.914 575.79C372.706 547.531 354.373 512.725 343.793 474.453Z"/>
	<path fill="#BF503E" d="M536.291 520.25C537.321 520.067 538.204 520.248 539.064 520.9C540.031 521.632 540.284 522.627 540.479 523.75C540.075 524.429 539.695 524.926 539.002 525.337C536.397 526.884 532.791 527.552 529.847 528.245C515.146 531.705 503.027 530.14 488.603 526.398C486.524 525.654 485.678 525.522 484.25 523.783L484.49 522.5C487.497 520.156 494.354 521.995 497.945 522.762C500.947 523.403 504.006 524.267 507.073 524.502C517.133 525.271 526.752 523.208 536.291 520.25Z"/>
	<path fill="#FEFEFE" d="M428.067 354.682C437.322 353.783 446.345 355.438 454.779 359.263C457.464 360.481 463.766 363.546 464.831 366.344C463.831 367.176 463.124 367.772 461.75 367.636C459.375 367.401 456.396 365.768 454.009 365.091C445.478 362.672 437.268 361.74 428.377 362.198C419.36 362.773 410.914 365.643 403.428 370.768C401.119 372.349 399.012 374.58 396.889 376.439L398.356 373.447C399.252 371.592 400.185 369.98 401.422 368.319C407.927 359.582 417.695 356.122 428.067 354.682Z"/>
	<path fill="#FEFEFE" d="M589.463 353.707C595.373 353.323 601.414 354.025 607.001 356.036C618.077 360.022 624.104 365.883 629.109 376.392C627.349 375.329 625.798 372.827 624.168 371.417C619.233 367.151 611.629 364.839 605.522 362.884C593.751 360.335 582.434 360.692 570.83 364.061C567.92 364.906 564.201 366.921 561.256 366.981C560.121 367.004 560.011 366.526 559.216 365.791L559.574 364.75C565.224 360.588 571.805 357.355 578.58 355.504C582.146 354.529 585.795 354.083 589.463 353.707Z"/>
	<path fill="#2B6389" d="M433 392.597C435.774 392.803 438.295 393.103 440.791 394.468C444.247 396.358 446.734 399.588 447.715 403.405C448.595 406.83 447.951 410.809 446.122 413.835C443.808 417.661 440.309 419.426 436.179 420.573C432.845 420.595 430.239 420.367 427.25 418.755C423.974 416.988 421.528 413.985 420.515 410.409C419.456 406.674 419.955 402.552 422.008 399.25C424.68 394.954 428.315 393.578 433 392.597Z"/>
	<path fill="#2B6389" d="M587.915 392.579C590.632 392.424 593.028 392.612 595.559 393.695C599.688 395.462 602.411 398.62 603.854 402.828C605.024 406.239 604.668 409.334 603.082 412.548C600.871 417.025 597.316 419.099 592.786 420.652C589.189 420.91 585.798 420.589 582.591 418.805C579.284 416.965 576.436 412.981 575.706 409.25C575.011 405.698 575.98 401.679 577.923 398.654C580.226 395.071 583.953 393.504 587.915 392.579Z"/>
	<path fill="#F4AA75" d="M441.746 609.941L441.997 607C443.468 606.433 445.957 608.561 447.36 609.365C454.06 613.206 461.585 616.032 468.931 618.382C507.583 630.748 545.304 626.102 581.136 607.665L580.664 634.016L564.631 640.541C548.557 646.457 531.418 649.825 514.25 649.017C496.473 648.181 478.186 642.657 461.932 635.626C457.522 633.719 453.18 631.509 449.024 629.099C447.215 628.05 445.457 626.531 443.544 625.733C442.758 625.406 442.674 625.133 442.146 624.468L441.746 609.941Z"/>
</svg>
