<?xml version="1.0" encoding="utf-8" ?>
<svg xmlns="http://www.w3.org/2000/svg" xmlns:xlink="http://www.w3.org/1999/xlink" width="1024" height="1024">
	<path fill="#02B2DB" d="M-0 -0L1024 0L1024 1024L-0 1024L0 -0Z"/>
	<path fill="#FEFDFE" d="M339.624 418.168C350.698 411.068 361.117 402.216 371.542 394.178L423.657 354.121C425.692 352.551 435.789 345.892 436.431 344.543C437.131 343.069 436.628 338.417 436.646 336.565L436.842 307.884C436.962 285.529 436.668 263.061 438.627 240.777C442.283 199.195 457.015 128.668 484.972 97.4199C491.447 90.1818 500.954 83.4097 511 83.1064C519.787 82.8411 528.087 87.6074 534.269 93.465C567.659 125.106 583.41 205.669 586.621 250.716L587.49 283.99L588.481 343.18L687.707 420.005L687.523 387.848C687.502 383.335 686.783 377.392 687.77 373.061L689.536 373.046L733.012 372.63L734.95 372.583C735.827 374.322 735.395 377.183 735.387 379.163L735.28 396.106L735.328 446.694L735.372 455.11C735.366 455.486 735.189 457.125 735.325 457.453C736.314 459.841 855.093 548.474 867.141 557.585L940.308 613.571L962.534 630.503C964.167 631.736 968.631 634.352 969.59 635.879C970.037 636.592 969.547 674.132 969.558 678.189L769.451 610.803L677.59 578.911L591.739 549.681C590.686 549.306 587.484 547.752 586.609 548.086L561.019 791.759L690.65 906.22L690.59 938.422L543.678 895.357C540.368 907.534 536.268 920.863 528.648 931.118C526.372 934.182 523.158 937.586 519.75 939.367C515.775 941.445 510.726 942.04 506.504 940.473C497.174 937.011 490.816 925.845 487.148 917.247L479.773 895.042L332.99 939.936L333.295 905.44L463.849 791.979L437.377 549.851L53.7749 678.288L53.891 636.684L286.488 458.826L286.402 408.326L286.233 386.541C286.231 382.634 285.839 378.291 286.863 374.492C287.789 373.61 287.739 373.579 289.007 373.526C293.65 372.886 298.901 373.344 303.615 373.299L335.898 373.002L336.87 372.894L337.578 373.556C339.269 375.187 339.517 376.209 339.569 378.517L339.624 418.168Z"/>
	<path fill="#EF3E2D" d="M337.578 373.556C339.269 375.187 339.517 376.209 339.569 378.517L339.624 418.168L338.584 418.75C336.581 414.47 337.582 380.906 337.578 373.556Z"/>
	<path fill="#EF3E2D" d="M689.536 373.046L733.012 372.63L733.467 456.026L698.625 428.53C696.931 427.214 689.917 422.641 689.492 420.891L689.536 373.046Z"/>
	<path fill="#EF3E2D" d="M289.007 373.526C293.65 372.886 298.901 373.344 303.615 373.299L335.898 373.002L336.187 420.975L289.004 457.071L289.007 373.526Z"/>
	<path fill="#EF3E2D" d="M511.354 96.1996C514.077 96.3747 516.526 96.7485 519.093 97.7347C523.135 99.2872 526.54 102.333 529.433 105.476C537.07 113.772 542.867 124.371 547.371 134.645C561.803 167.574 569.628 203.919 573.075 239.624C574.935 258.885 574.653 278.423 575.07 297.75L576.462 407.436L576.563 492.177L576.484 535.75C575.906 549.035 573.668 562.759 572.112 575.997L565.509 636.25L552.319 756.613L548.254 795.762L536.586 869.6C533.943 883.443 531.67 897.861 526.405 911C523.73 917.676 520.235 924.621 513.25 927.541L512.377 927.776C509.895 928.02 507.438 926.248 505.673 924.749C498.531 918.684 494.896 906.222 492.635 897.399C486.913 875.074 483.78 852.03 480.625 829.235L466.945 710.124L454.443 598.695L448.777 547.727C447.457 532.441 448.137 516.366 448.1 501.011L448.039 419.44L449.123 296.088C449.664 271.225 449.449 246.586 452.888 221.877C456.71 194.424 462.955 167.668 473.054 141.826C477.735 129.846 483.555 116.904 491.973 107.044C497.359 100.735 502.88 96.871 511.354 96.1996Z"/>
	<path fill="#FEFDFE" d="M506.902 156.611C511.104 156.121 516.166 155.922 520.228 157.225L525.25 159.066C536.006 164.041 542.768 174.287 546.606 185.082C537.171 180.667 528.479 178.482 518.123 177.503C503.616 176.408 490.343 178.476 477.118 184.485C478.584 180.663 480.186 176.938 482.431 173.5C488.236 164.608 496.56 158.852 506.902 156.611Z"/>
</svg>
