<?xml version="1.0" encoding="utf-8" ?>
<svg xmlns="http://www.w3.org/2000/svg" xmlns:xlink="http://www.w3.org/1999/xlink" width="1024" height="1024">
	<path fill="#234879" d="M0 691.93L-0 -0L1024 0L1024 221.178L1024 381.024L1024 1024L-0 1024L0 905.19L0 691.93Z"/>
	<path fill="#F3AE1C" d="M1024 381.024L982.109 367.818C959.849 361.027 916.948 346.5 894.909 355.074C887.043 358.135 881.973 364.83 877.12 371.418C863.094 390.462 850.005 409.178 830.878 423.634C819.404 432.307 807.371 440.379 794.796 447.366L761.577 465.63C753.685 470.133 745.282 474.936 738.604 481.119C734.618 484.81 731.008 488.781 727.773 493.145L714.294 513.264C710.54 518.593 706.13 523.59 701.587 528.258C698.831 531.089 696.117 534.126 692.491 535.823C691.875 535.752 691.414 535.8 690.89 535.446C686.208 532.275 684.05 525.337 682.976 520.015C678.367 497.163 689.465 474.432 704.98 458.193C713.677 449.09 724.29 440.869 731.163 430.245C735.863 422.981 738.079 412.923 736.005 404.422C732.275 389.137 712.94 386.435 701.296 379.12C690.66 389.776 674.704 398.43 659.832 400.802C658.425 413.013 652.407 425.466 645.507 435.5C643.973 437.731 640.402 441.524 639.595 443.923C639.315 444.754 639.573 446.836 639.568 447.799L639.48 457.11C639.169 473.079 636.435 492.057 627.355 505.602C622.451 512.917 615.711 518.001 607.029 519.699L606.637 519.347C604.854 513.058 604.611 506.572 604.173 500.091L602.609 474.195C602.01 463.004 600.49 451.683 601.642 440.467C602.853 428.671 606.5 416.825 609.565 405.421L596.081 416.408C591.892 419.736 587.554 422.976 584.183 427.177C578.871 433.796 575.126 441.605 571.031 449C565.992 458.101 560.158 467.08 552.815 474.491C544.441 482.943 532.846 491.519 520.395 491.433C516.905 491.409 513.979 490.597 511.552 487.998C510.673 487.057 510.19 486.186 510.298 484.876C510.587 481.344 513.294 477.171 514.854 473.964L527.759 448.303L548.246 406.771C551.642 400.018 554.774 392.007 559.68 386.25C566.559 378.177 576.173 371.621 584.75 365.417C596.162 357.163 608.86 349.813 619.605 340.802C608.064 340.062 595.348 338.21 583.906 340.132C576.599 341.359 569.091 346.839 562.822 350.687C552.041 357.304 541.416 364.773 530.004 370.25C520.147 374.981 509.45 377.227 498.854 373.41C492.616 371.164 489.813 368.906 486.945 362.905C488.181 361.467 489.398 360.2 490.927 359.065C501.4 351.287 513.205 344.859 524 337.451L555.449 315.25C562.531 310.266 569.8 304.649 577.754 301.157C582.848 298.92 588.869 298.144 594.325 297.274C616.032 293.809 639.227 295.151 660.174 288.047C668.128 285.349 675.671 281.496 683.233 277.873L711.191 265.074L759.905 245.365L808.545 225.747L831.058 216.858C839.39 213.586 847.594 210.409 856.522 209.199C874.581 206.75 892.837 207.117 910.998 208.032L990.226 215.901L1024 221.178L1024 381.024Z"/>
	<path fill="#EE8F47" d="M0 691.93L89.6547 642.039L154.3 607.794C168.524 599.746 182.536 591.74 195.487 581.701C208.75 571.419 220.988 560.018 232.462 547.772C245.228 534.148 256.818 520.104 271.465 508.37C281.463 500.36 291.845 492.909 303.101 486.753C308.104 484.016 313.442 481.969 318.531 479.405C327.223 475.026 335.685 469.509 342.988 463.064C347.877 458.75 352.609 453.866 356.68 448.783L364.285 438.25C366.929 434.266 369.365 429.597 372.599 426.077C373.044 425.592 374.147 424.29 374.75 424.038C375.245 423.83 375.8 423.82 376.325 423.711C379.186 424.765 380.803 426.599 382.085 429.339C387.338 440.559 386.216 456.232 381.83 467.598C377.96 477.626 371.02 485.611 363.973 493.551C359.205 498.922 352.186 504.996 350.084 512C348.981 515.676 349.751 519.504 351.248 522.948C354.49 530.402 361.568 534.923 368.964 537.605C380.332 541.728 393.415 542.288 405.399 541.693C419.002 541.018 432.095 539.276 445.283 535.75C460.157 531.773 474.366 525.73 488.424 519.531L515.695 507.387C532.276 499.507 556.275 486.568 575.114 493.321C578.627 494.58 582.034 496.73 583.567 500.282C583.976 501.229 584.108 501.979 583.75 503.02C583.074 504.985 580.352 506.949 578.715 508.186L534 538.951C519.337 549.399 505.692 561.223 490.248 570.533C484.474 574.015 478.307 577.04 472.086 579.639C468.506 581.134 463.988 582.345 460.75 584.377C463.003 584.188 465.367 583.06 467.49 582.276L478.442 578.372C487.816 575.145 497.728 573.386 506.904 569.63C515.429 566.14 523.455 561.131 531.799 557.186C539.997 553.309 548.168 550.605 557.146 549.307C561.735 548.644 566.487 548.799 571 549.841L571.893 550.041C577.488 551.344 582.835 554.359 586.007 559.268C586.959 560.74 587.712 562.208 587.41 563.997C587.227 565.08 586.152 565.932 585.244 566.486C581.181 568.964 575.798 570.2 571.343 572.036C565.152 574.587 559.112 577.803 553.287 581.101C532.855 592.671 514.692 608.371 494.001 619.42C479.302 627.268 463.379 632.738 447.737 638.365C442.412 640.281 436.962 641.933 431.747 644.129L466.591 641.079C478.789 639.979 491.582 638.064 503.788 639.482C509.992 640.203 516.661 641.855 521.586 645.876C525.518 649.087 528.712 654.788 529.066 659.915L529.018 660.895L500.933 667.128L457.609 677.686L408.141 686.759L369.068 696.305C359.661 698.224 349.645 699.029 340.062 699.426C321.474 700.196 302.953 697.875 284.501 695.963C271.65 694.631 257.83 692.637 244.976 694.419C231.715 696.256 219.299 701.73 208.085 708.899C178.917 727.545 154.338 754.054 129.765 778.191L35.8422 869.898L-0 905.19L0 691.93Z"/>
</svg>
