<?xml version="1.0" encoding="utf-8" ?>
<svg xmlns="http://www.w3.org/2000/svg" xmlns:xlink="http://www.w3.org/1999/xlink" width="1024" height="1024">
	<path fill="#F6775C" d="M-0 -0L1024 0L1024 1024L-0 1024L0 -0Z"/>
	<path fill="#CA0565" d="M564.327 49.9755L564.974 49.75C580.683 64.4488 591.772 83.3277 592.472 105.25C592.566 108.208 593.368 115.515 591.934 117.933C575.234 108.171 556.519 102.333 537.544 99.0578C546.562 90.7235 553.099 81.4549 558.013 70.2126L564.327 49.9755Z"/>
	<path fill="#3851A8" d="M319.382 262.099C323.075 263.591 326.587 269.487 329.199 272.588C338.329 283.425 349.213 294.975 362.5 300.532C366.046 302.015 369.561 303.172 373.446 303.075L379.387 352C381.573 364.959 383.961 376.851 389.189 388.984C388.265 388.794 378.349 377.488 376.682 375.739C366.358 363.037 357.141 349.876 348.567 335.934C334.349 312.815 323.192 289.237 319.382 262.099Z"/>
	<path fill="#3FA6CD" d="M353.914 250.355C359.821 249.774 365.49 247.367 371.077 245.485C372.979 252.302 376.15 258.01 382.5 261.537C385.366 263.129 388.278 264.034 391.5 264.553L392.241 264.68C398.159 265.605 405.155 265.067 410.995 263.709L401.156 275.898L394.245 283.224L383.292 296.045C380.214 298.979 377.261 301.155 373.446 303.075C369.561 303.172 366.046 302.015 362.5 300.532C349.213 294.975 338.329 283.425 329.199 272.588C326.587 269.487 323.075 263.591 319.382 262.099L319.564 260.483C320.147 258.234 321.81 256.245 323.412 254.622C328.848 249.116 334.282 250.258 341.406 250.273L353.914 250.355Z"/>
	<path fill="#2F358F" d="M319.564 260.483C330.869 268.715 341.596 277.59 353.5 284.99C362.484 290.575 372.446 295.956 383.292 296.045C380.214 298.979 377.261 301.155 373.446 303.075C369.561 303.172 366.046 302.015 362.5 300.532C349.213 294.975 338.329 283.425 329.199 272.588C326.587 269.487 323.075 263.591 319.382 262.099L319.564 260.483Z"/>
	<path fill="#3851A8" d="M353.914 250.355C359.821 249.774 365.49 247.367 371.077 245.485C372.979 252.302 376.15 258.01 382.5 261.537C385.366 263.129 388.278 264.034 391.5 264.553L392.241 264.68C398.159 265.605 405.155 265.067 410.995 263.709L401.156 275.898L394.245 283.224C383.208 279.797 372.842 274.961 365.037 266.158C360.77 261.346 357.421 255.722 353.914 250.355Z"/>
	<path fill="#CA0565" d="M650.32 163.011C655.803 165.584 658.782 170.701 662.066 175.547C669.655 186.746 676.227 198.855 680.839 211.597C685.942 225.698 688.842 239.279 689.175 254.311L646.685 246.722L646.296 236.673C646.606 233.814 646.917 230.866 646.497 228C645.436 220.769 639.838 215.791 634.269 211.75C636.41 198.442 638.914 186.394 643.894 173.799C645.645 169.881 647.662 166.381 650.32 163.011Z"/>
	<path fill="#3851A8" d="M645.475 306.105C654.828 303.206 663.531 298.743 672.291 294.431L699.257 280.9C692.595 310.168 681.743 338.144 662.978 361.943C658.153 368.063 652.689 373.425 647.522 379.211C643.125 382.583 639.245 386.55 635.948 390.998L633.511 394.265C632.645 395.536 631.276 396.812 629.962 397.61C640.322 367.919 643.905 337.379 645.475 306.105Z"/>
	<path fill="#3851A8" d="M646.685 246.722L689.175 254.311C692.312 254.788 700.225 255.149 702.011 257.453C701.973 265.328 700.709 273.174 699.257 280.9L672.291 294.431C663.531 298.743 654.828 303.206 645.475 306.105C642 304.076 638.805 300.822 635.829 298.121C630.077 292.565 625.994 285.55 620.084 280.12C610.013 270.869 597.89 263.588 588.391 253.642C591.604 253.44 594.334 256.128 597.011 257.7C600.845 259.951 604.918 262.374 609.231 263.564L609.818 263.72C611.195 264.104 612.516 264.392 613.941 264.577C622.488 265.69 634.331 264.578 641.211 258.913C644.647 256.084 646.265 251.012 646.685 246.722Z"/>
	<path fill="#2F358F" d="M635.829 298.121C643.838 297.632 650.982 293.755 657.856 289.913C669.309 283.51 680.681 275.789 690.753 267.362C693.548 265.023 698.821 258.357 702.011 257.453C701.973 265.328 700.709 273.174 699.257 280.9L672.291 294.431C663.531 298.743 654.828 303.206 645.475 306.105C642 304.076 638.805 300.822 635.829 298.121Z"/>
	<path fill="#3FA6CD" d="M376.682 375.739C378.349 377.488 388.265 388.794 389.189 388.984C391.192 391.637 392.653 394.834 394.363 397.699L403.593 412.419C403.348 416.508 403.344 420.844 402.649 424.871C400.713 436.078 395.392 445.949 386.75 453.413L381.788 456.939C373.908 462.029 361.116 464.458 351.908 462.503C350.922 462.294 350.383 462.055 349.75 461.183C348.145 458.97 348.5 452.613 348.384 449.872C348.356 446.211 346.685 442.24 345.955 438.601C343.162 424.678 342.153 409.297 349.153 396.373C355.172 385.261 364.877 379.25 376.682 375.739Z"/>
	<path fill="#355CB4" d="M647.522 379.211C659.055 380.751 669.133 386.17 676.355 395.44C682.669 403.547 686.289 415.128 684.808 425.392C683.877 431.844 680.871 440.554 676.389 445.372C675.075 446.526 674.128 448.148 673.006 449.5C669.085 454.223 664.047 457.214 658.151 458.829C649.581 461.177 639.429 459.95 631.75 455.451C623.762 450.771 618.231 441.461 615.915 432.75C615.041 429.462 615.175 426.382 614.902 423.021C620.596 414.825 625.628 406.607 629.962 397.61C631.276 396.812 632.645 395.536 633.511 394.265L635.948 390.998C639.245 386.55 643.125 382.583 647.522 379.211Z"/>
	<path fill="#3851A8" d="M614.902 423.021C615.175 426.382 615.041 429.462 615.915 432.75C618.231 441.461 623.762 450.771 631.75 455.451C639.429 459.95 649.581 461.177 658.151 458.829C664.047 457.214 669.085 454.223 673.006 449.5C674.128 448.148 675.075 446.526 676.389 445.372C680.839 448.6 681.782 452.396 682.651 457.731C685.296 473.964 680.388 491.129 670.696 504.295C660.885 517.624 644.839 527.516 628.375 529.815C623.874 530.443 619.535 530.521 614.993 530.492C610.981 523.443 608.087 515.971 605.55 508.287C598.728 487.624 596.463 468.028 597.416 446.344L597.806 444.426L614.902 423.021Z"/>
	<path fill="#355CB4" d="M348.384 449.872C348.5 452.613 348.145 458.97 349.75 461.183C350.383 462.055 350.922 462.294 351.908 462.503C361.116 464.458 373.908 462.029 381.788 456.939L386.75 453.413C395.392 445.949 400.713 436.078 402.649 424.871C403.344 420.844 403.348 416.508 403.593 412.419L425.072 439.14L427.124 444.555L427.292 446.243L427.406 468.871C426.413 489.95 423.838 511.286 414.198 530.401C404.839 530.488 395.076 529.271 386.238 526.127C369.962 520.337 357.301 507.853 350.055 492.316C345.81 483.215 343.315 472.437 344.761 462.388C345.379 458.094 346.901 453.93 348.384 449.872Z"/>
	<path fill="#FBAA37" d="M438.757 97.8519C439.08 90.9985 440.759 84.3922 443.296 78.0337C450.618 59.6784 464.734 46.2818 482.764 38.5845C503.477 29.7418 526.483 31.3116 547.027 39.6897C551.574 41.5439 555.767 43.8688 559.965 46.3925C561.814 47.5038 563.47 47.9417 564.327 49.9755L558.013 70.2126C553.099 81.4549 546.562 90.7235 537.544 99.0578C508.771 95.4194 482.605 97.2211 454.937 106.529C449.678 108.298 444.697 110.625 439.561 112.694C438.569 108.302 437.754 102.231 438.757 97.8519Z"/>
	<path fill="#FB7026" d="M438.757 97.8519L444.393 92.8742C449.923 88.7403 456.52 85.5764 462.83 82.8136C478.053 76.148 494.547 72.4932 510.99 70.4197C526.908 68.4124 542.105 67.8864 558.013 70.2126C553.099 81.4549 546.562 90.7235 537.544 99.0578C508.771 95.4194 482.605 97.2211 454.937 106.529C449.678 108.298 444.697 110.625 439.561 112.694C438.569 108.302 437.754 102.231 438.757 97.8519Z"/>
	<path fill="#355CB4" d="M792.442 901.04L873.441 901.297C882.336 901.294 891.113 900.024 898.105 906.75C901.026 909.56 902.955 913.043 903.669 917.039C904.79 923.309 903.972 930.736 903.978 937.176L903.96 983.221L903.906 989.749L792.504 989.751L792.442 901.04Z"/>
	<path fill="#ECDFBF" d="M775.617 617.821C778.672 618.008 783.118 620.718 785.975 622.022C806.399 631.348 825.021 642.931 839.987 659.913C858.044 680.402 869.953 704.811 872.655 732.146C874.334 749.124 873.314 766.793 873.217 783.873L873.03 819.806L872.996 839.874C851.821 820.604 829.206 803.369 811.923 780.177C790.925 751.998 777.344 720.611 774.884 685.312C774.141 674.657 774.534 663.809 774.64 653.131C774.754 641.653 773.974 629.141 775.617 617.821Z"/>
	<path fill="#D58" d="M774.589 617.206L775.617 617.821C773.974 629.141 774.754 641.653 774.64 653.131C774.534 663.809 774.141 674.657 774.884 685.312C777.344 720.611 790.925 751.998 811.923 780.177C829.206 803.369 851.821 820.604 872.996 839.874L873.441 901.297L792.442 901.04L724.674 900.999L704.08 900.988C699.701 900.981 695.263 901.171 690.919 900.568L697.5 896.563C710.917 887.937 722.749 876.191 732.429 863.576C746.966 844.634 756.881 821.718 761.186 798.235C764.178 781.912 764.423 764.995 764.401 748.448L764.08 700.228L764.263 673.602C764.366 665.938 764.351 658.532 765.975 650.994C766.339 649.304 766.475 647.687 766.555 645.963L774.589 617.206Z"/>
	<path fill="#FBAA37" d="M439.561 112.694C444.697 110.625 449.678 108.298 454.937 106.529C482.605 97.2211 508.771 95.4194 537.544 99.0578C556.519 102.333 575.234 108.171 591.934 117.933L592.304 118.195C595.731 120.591 599.524 122.564 603.081 124.775C610.545 129.414 617.862 134.198 624.756 139.663C631.017 144.626 636.93 150.046 642.702 155.566C645.223 157.977 647.605 160.857 650.32 163.011C647.662 166.381 645.645 169.881 643.894 173.799C638.914 186.394 636.41 198.442 634.269 211.75C624.253 206.946 615.479 204.789 604.355 207.27L604.963 200.385C604.997 196.466 605.22 192.56 604.174 188.75L603.92 187.782C601.84 180.015 595.92 173.906 589.039 170.056C579.025 164.454 567.812 162.8 556.697 166.025L548.664 168.942C542.395 157.891 533.529 150.745 521.135 147.412C509.891 144.389 497.081 146.426 487.119 152.39C480.305 156.469 475.191 162.558 471.686 169.617C460.095 164.465 448.447 162.264 436.201 166.972C427.914 170.158 421.205 175.69 417.526 183.866C415.085 189.292 414.655 195.771 416.193 201.516C416.504 204.432 417.037 207.031 417.897 209.835C404.899 206.866 391.744 204.414 379.706 212.167C373.913 215.898 369.811 221.592 368.646 228.438C367.802 233.399 368.616 238.222 371.626 242.344C372.055 242.931 372.424 243.329 372.965 243.822L371.077 245.485C365.49 247.367 359.821 249.774 353.914 250.355L341.406 250.273C340.825 249.742 332.428 250.088 331 250.085L330.488 249.467C331.469 242.463 333.843 235.432 335.973 228.704C349.865 184.833 380.063 147.716 419 123.556C425.664 119.421 432.625 116.286 439.561 112.694Z"/>
	<path fill="#F5BF77" d="M439.561 112.694C444.697 110.625 449.678 108.298 454.937 106.529C482.605 97.2211 508.771 95.4194 537.544 99.0578C556.519 102.333 575.234 108.171 591.934 117.933L592.304 118.195C595.731 120.591 599.524 122.564 603.081 124.775C610.545 129.414 617.862 134.198 624.756 139.663C631.017 144.626 636.93 150.046 642.702 155.566C645.223 157.977 647.605 160.857 650.32 163.011C647.662 166.381 645.645 169.881 643.894 173.799L643.435 173.494C639.611 170.893 636.303 167.367 632.748 164.386C626.619 159.244 620.002 154.39 613.312 150.007C583.163 130.252 549.666 120.783 513.758 120.239C502.404 120.066 491.362 120.448 480.154 122.507C428.744 131.953 385.025 163.239 355.597 206.073C350.035 214.17 344.694 222.328 340.054 231C338.297 234.284 332.549 248.23 330.488 249.467C331.469 242.463 333.843 235.432 335.973 228.704C349.865 184.833 380.063 147.716 419 123.556C425.664 119.421 432.625 116.286 439.561 112.694Z"/>
	<path fill="#3FA6CD" d="M416.193 201.516C414.655 195.771 415.085 189.292 417.526 183.866C421.205 175.69 427.914 170.158 436.201 166.972C448.447 162.264 460.095 164.465 471.686 169.617C475.191 162.558 480.305 156.469 487.119 152.39C497.081 146.426 509.891 144.389 521.135 147.412C533.529 150.745 542.395 157.891 548.664 168.942L556.697 166.025C567.812 162.8 579.025 164.454 589.039 170.056C595.92 173.906 601.84 180.015 603.92 187.782L604.174 188.75C605.22 192.56 604.997 196.466 604.963 200.385L604.355 207.27C615.479 204.789 624.253 206.946 634.269 211.75C639.838 215.791 645.436 220.769 646.497 228C646.917 230.866 646.606 233.814 646.296 236.673L646.685 246.722C646.265 251.012 644.647 256.084 641.211 258.913C634.331 264.578 622.488 265.69 613.941 264.577C612.516 264.392 611.195 264.104 609.818 263.72L609.231 263.564C604.918 262.374 600.845 259.951 597.011 257.7C594.334 256.128 591.604 253.44 588.391 253.642C586.863 252.365 585.473 251.387 583.666 250.544C569.973 236.957 551.602 236.122 534.242 230.274C525.889 227.461 518.902 223.666 511.51 218.915C507.881 221.42 504.295 223.87 500.307 225.775C487.504 231.894 473.66 234.203 459.937 237.26C454.701 238.915 450.032 240.936 445.147 243.433L443.999 244.088C438.063 246.628 432.558 251.125 427.061 254.554L410.995 263.709C405.155 265.067 398.159 265.605 392.241 264.68L391.5 264.553C388.278 264.034 385.366 263.129 382.5 261.537C376.15 258.01 372.979 252.302 371.077 245.485L372.965 243.822C372.424 243.329 372.055 242.931 371.626 242.344C368.616 238.222 367.802 233.399 368.646 228.438C369.811 221.592 373.913 215.898 379.706 212.167C391.744 204.414 404.899 206.866 417.897 209.835C417.037 207.031 416.504 204.432 416.193 201.516Z"/>
	<path fill="#2F358F" d="M416.193 201.516C417.858 203.693 419.47 205.854 421.432 207.78C431.228 217.395 448.982 220.31 462.201 220.205C480.47 220.06 497.974 215.69 511.036 202.32L519.357 208.742C535.613 219.378 557.265 222.693 576.174 218.771C588.758 216.16 597.827 211.137 604.963 200.385L604.355 207.27C615.479 204.789 624.253 206.946 634.269 211.75C639.838 215.791 645.436 220.769 646.497 228C646.917 230.866 646.606 233.814 646.296 236.673L646.685 246.722C646.265 251.012 644.647 256.084 641.211 258.913C634.331 264.578 622.488 265.69 613.941 264.577C612.516 264.392 611.195 264.104 609.818 263.72L609.231 263.564C604.918 262.374 600.845 259.951 597.011 257.7C594.334 256.128 591.604 253.44 588.391 253.642C586.863 252.365 585.473 251.387 583.666 250.544C569.973 236.957 551.602 236.122 534.242 230.274C525.889 227.461 518.902 223.666 511.51 218.915C507.881 221.42 504.295 223.87 500.307 225.775C487.504 231.894 473.66 234.203 459.937 237.26C454.701 238.915 450.032 240.936 445.147 243.433L443.999 244.088C438.063 246.628 432.558 251.125 427.061 254.554L410.995 263.709C405.155 265.067 398.159 265.605 392.241 264.68L391.5 264.553C388.278 264.034 385.366 263.129 382.5 261.537C376.15 258.01 372.979 252.302 371.077 245.485L372.965 243.822C372.424 243.329 372.055 242.931 371.626 242.344C368.616 238.222 367.802 233.399 368.646 228.438C369.811 221.592 373.913 215.898 379.706 212.167C391.744 204.414 404.899 206.866 417.897 209.835C417.037 207.031 416.504 204.432 416.193 201.516Z"/>
	<path fill="#355CB4" d="M445.147 243.433C445.212 241.84 445.217 240.129 446.343 238.873C451.651 232.949 462.23 231.463 469.716 230.836C466.409 232.585 462.761 234.044 459.679 236.143L459.937 237.26C454.701 238.915 450.032 240.936 445.147 243.433Z"/>
	<path fill="#3FA6CD" d="M604.355 207.27C615.479 204.789 624.253 206.946 634.269 211.75C639.838 215.791 645.436 220.769 646.497 228C646.917 230.866 646.606 233.814 646.296 236.673L645.008 239.24C641.78 244.765 636.118 247.939 630.031 249.433L629.25 249.619C626.841 250.215 624.553 250.482 622.078 250.614C615.956 250.943 609.23 250.754 603.297 249.074C592.059 245.893 582.78 237.342 574.236 229.739C578.509 228.517 582.791 227.19 586.734 225.104C593.215 221.676 602.135 215.066 604.208 207.814L604.355 207.27Z"/>
	<path fill="#3FA6CD" d="M372.965 243.822C372.424 243.329 372.055 242.931 371.626 242.344C368.616 238.222 367.802 233.399 368.646 228.438C369.811 221.592 373.913 215.898 379.706 212.167C391.744 204.414 404.899 206.866 417.897 209.835C424.669 220.795 433.686 225.133 445.829 228.256C440.115 233.231 434.322 238.583 427.935 242.677C418.429 248.77 406.438 252.143 395.139 251.359C390.975 251.071 386.691 250.516 382.79 248.99C381.321 248.415 373.773 243.753 372.965 243.822Z"/>
	<path fill="#ECDFBF" d="M148.563 900.085L148.856 793.95L148.89 762.054C148.9 752.4 148.82 742.802 150.11 733.209C152.025 718.966 156.045 705.06 162.245 692.078C179.449 656.055 208.86 631.897 246.187 618.736L246.319 619.232L254.71 645.211C261.509 670.495 264.566 696.577 263.916 722.75L262.068 748.449C261.184 758.251 260.399 768.238 260.7 778.088C261.338 798.909 265.881 819.101 274.102 838.235C277.394 845.898 281.331 854.083 286.51 860.64L286.554 860.649C288.809 864.676 291.659 868.128 294.441 871.781C302.916 882.913 312.574 892.259 323.921 900.47L148.563 900.085Z"/>
	<path fill="#ECDFBF" d="M459.937 237.26C473.66 234.203 487.504 231.894 500.307 225.775C504.295 223.87 507.881 221.42 511.51 218.915C518.902 223.666 525.889 227.461 534.242 230.274C551.602 236.122 569.973 236.957 583.666 250.544C585.473 251.387 586.863 252.365 588.391 253.642C597.89 263.588 610.013 270.869 620.084 280.12C625.994 285.55 630.077 292.565 635.829 298.121C638.805 300.822 642 304.076 645.475 306.105C643.905 337.379 640.322 367.919 629.962 397.61C625.628 406.607 620.596 414.825 614.902 423.021L597.806 444.426C576.956 465.682 546.512 485.734 515.75 486.519C491.528 487.137 467.747 477.969 448.5 463.456C440.886 457.715 434.06 451.074 427.124 444.555L425.072 439.14L403.593 412.419L394.363 397.699C392.653 394.834 391.192 391.637 389.189 388.984C383.961 376.851 381.573 364.959 379.387 352L373.446 303.075C377.261 301.155 380.214 298.979 383.292 296.045L394.245 283.224L401.156 275.898L410.995 263.709L427.061 254.554C432.558 251.125 438.063 246.628 443.999 244.088L445.147 243.433C450.032 240.936 454.701 238.915 459.937 237.26Z"/>
	<path fill="#D58" d="M410.995 263.709L427.061 254.554C432.558 251.125 438.063 246.628 443.999 244.088C441.808 247.419 437.753 250.123 434.678 252.639C426.76 259.119 418.676 265.352 410.043 270.86C407.175 272.69 404.428 274.85 401.156 275.898L410.995 263.709Z"/>
	<path fill="#F7908E" d="M477.068 420.108L486.402 414.683C491.674 411.264 497.894 406.192 504.555 408.25C506.35 408.804 508.227 409.806 510.123 409.906C514.352 410.129 519.692 406.353 523.635 407.537C529.473 409.29 534.875 413.797 540 417.013C542.009 418.273 544.265 419.855 546.57 420.466L502.516 420.583C494.296 420.549 485.163 421.258 477.068 420.108Z"/>
	<path fill="#3FA6CD" d="M567.698 314.662C580.185 313.606 590.12 315.343 601.687 319.87C595.681 327.826 589.024 333.893 579.717 337.724C576.127 338.854 571.484 338.906 567.828 338.054C558.898 335.972 550.565 328.65 545.836 320.986C553.092 318.244 560.019 315.889 567.698 314.662Z"/>
	<path fill="#3FA6CD" d="M442.314 314.213C453.744 313.41 464.527 316.746 474.979 320.982C469.663 329.422 462.083 335.519 452.564 338.407C449.967 338.596 447.004 338.762 444.44 338.323C434.164 336.565 425.018 328.179 419.089 320.088C426.945 317.147 433.865 314.848 442.314 314.213Z"/>
	<path fill="#CA0565" d="M443.887 280.211C463.311 278.479 478.754 290.366 494.444 299.711L484.061 310.287C474.257 301.412 464.456 295.712 451.614 292.59L451.023 292.483C448.491 292.046 446.074 291.631 443.496 291.547C426.317 290.983 411.383 297.152 398.955 308.745C400.26 306.338 401.71 304.128 403.463 302.021C413.993 289.361 427.525 281.86 443.887 280.211Z"/>
	<path fill="#F7908E" d="M477.068 420.108C485.163 421.258 494.296 420.549 502.516 420.583L546.57 420.466C547.926 420.641 548.492 420.427 549.441 421.5L549.25 422.377L547.34 422.975C541.911 429.431 538.758 437.495 531.365 442.304L530.659 442.75C523.584 447.3 517.456 449.046 509 448.433C499.472 447.741 490.305 441.995 484.611 434.511C481.86 430.895 479.686 426.86 476.724 423.406L476.396 423.03C475.444 422.975 474.661 422.779 473.75 422.505L473.402 421.5C474.364 420.17 475.491 420.377 477.068 420.108Z"/>
	<path fill="#CA0565" d="M477.068 420.108C485.163 421.258 494.296 420.549 502.516 420.583L546.57 420.466C547.926 420.641 548.492 420.427 549.441 421.5L549.25 422.377L547.34 422.975C540.696 422.821 533.175 422.423 526.617 423.281C521.488 423.952 515.737 425.968 510.658 425.793C506.848 425.661 503.237 424.332 499.529 423.626C492.825 422.35 483.163 422.07 476.396 423.03C475.444 422.975 474.661 422.779 473.75 422.505L473.402 421.5C474.364 420.17 475.491 420.377 477.068 420.108Z"/>
	<path fill="#CA0565" d="M536.851 385.272L544.746 384.323L524.241 398.659C519.319 401.593 513.754 404.824 507.837 403.221L507.25 403.053C500.78 401.253 495.897 397.497 490.579 393.57L478.767 384.888C482.608 384.497 487.973 386.21 491.952 386.603C493.392 386.745 496.732 386.63 497.845 387.143C498.91 387.634 500.393 389.686 501.35 390.565C503.682 392.707 506.389 393.788 509.332 394.769C513.184 393.685 515.401 392.771 518.17 389.75C519.588 388.203 521.028 386.241 521.415 384.135C521.939 381.289 521.715 378.029 521.736 375.131L521.812 358.296L521.803 301.514L534.575 293.725C548.447 285.295 566.981 276.92 583.602 281.217L584.5 281.463C597.806 284.986 606.891 292.939 617.976 300.371C618.955 301.694 618.996 301.693 618.934 303.328C610.963 300.802 603.657 297.039 595.795 294.381C582.02 289.726 566.875 291.232 554.016 297.908C548.129 300.964 543.244 304.75 538.229 309.064C537.546 310.359 537.102 311.516 537.014 313L536.819 330.907L536.569 365.488L536.505 378.607C536.498 380.383 536.13 383.244 536.678 384.891L536.851 385.272Z"/>
	<path fill="#D58" d="M536.851 385.272L528.832 386.227L528.491 341.943C528.468 333.385 528.015 324.525 528.539 315.999C528.64 314.344 528.91 311.524 530.15 310.297C532.079 308.388 535.748 308.977 538.229 309.064C537.546 310.359 537.102 311.516 537.014 313L536.819 330.907L536.569 365.488L536.505 378.607C536.498 380.383 536.13 383.244 536.678 384.891L536.851 385.272Z"/>
	<path fill="#D58" d="M583.666 250.544C585.473 251.387 586.863 252.365 588.391 253.642C597.89 263.588 610.013 270.869 620.084 280.12C625.994 285.55 630.077 292.565 635.829 298.121C638.805 300.822 642 304.076 645.475 306.105C643.905 337.379 640.322 367.919 629.962 397.61C625.628 406.607 620.596 414.825 614.902 423.021L597.806 444.426C576.956 465.682 546.512 485.734 515.75 486.519C491.528 487.137 467.747 477.969 448.5 463.456C440.886 457.715 434.06 451.074 427.124 444.555L425.072 439.14C426.947 440.109 428.389 441.798 429.915 443.232L437.436 449.85C451.294 461.604 466.986 472.326 484.478 477.809C494.627 480.99 505.688 482.798 516.312 481.319C524.235 480.216 532.415 476.691 539.457 472.999C571.839 456.023 595.646 423.724 606.352 389.172C613.518 366.042 616.81 341.132 618.844 317.077C619.132 313.665 620.478 306.264 618.934 303.328C618.996 301.693 618.955 301.694 617.976 300.371L617.9 299.905C615.267 280.79 601.358 271.414 589.738 257.918C587.648 255.49 585.263 253.356 583.666 250.544Z"/>
	<path fill="#3FA6CD" d="M792.504 989.751L120.275 989.622L120.47 917C120.944 912.165 123.975 907.183 127.735 904.196C133.941 899.269 141.157 899.9 148.563 900.085L323.921 900.47C332.857 901.303 342.086 900.815 351.063 900.814L395.986 900.905L546.9 901.054L655.311 900.883L679.847 900.826C683.148 900.825 687.758 901.396 690.919 900.568C695.263 901.171 699.701 900.981 704.08 900.988L724.674 900.999L792.442 901.04L792.504 989.751Z"/>
	<path fill="#ECDFBF" d="M427.124 444.555C434.06 451.074 440.886 457.715 448.5 463.456C467.747 477.969 491.528 487.137 515.75 486.519C546.512 485.734 576.956 465.682 597.806 444.426L597.416 446.344C596.463 468.028 598.728 487.624 605.55 508.287C608.087 515.971 610.981 523.443 614.993 530.492C624.334 545.476 635.225 558.167 651.08 566.442C656.649 569.348 662.51 571.431 668.246 573.949L648.313 607.03C638.897 621.075 628.826 635.278 617.377 647.75C603.936 662.392 588.829 675.306 573.033 687.325C540.022 712.441 503.359 732.939 464.362 747.175C448.823 752.848 433.098 757.091 417.052 760.992C392.617 766.964 366.384 770.353 341.219 768.792C324.086 767.73 307.345 764.346 290.925 759.435C281.275 756.548 270.893 753.306 262.068 748.449L263.916 722.75C264.566 696.577 261.509 670.495 254.71 645.211L246.319 619.232L246.187 618.736L295.297 600L359.758 575.733L377.886 568.827C381.241 567.544 385.009 566.508 387.931 564.379C399.105 556.235 407.834 542.359 414.198 530.401C423.838 511.286 426.413 489.95 427.406 468.871L427.292 446.243L427.124 444.555Z"/>
	<path fill="#FBAA37" d="M246.187 618.736L295.297 600L417.052 760.992C392.617 766.964 366.384 770.353 341.219 768.792C324.086 767.73 307.345 764.346 290.925 759.435C281.275 756.548 270.893 753.306 262.068 748.449L263.916 722.75C264.566 696.577 261.509 670.495 254.71 645.211L246.319 619.232L246.187 618.736Z"/>
	<path fill="#D58" d="M427.124 444.555C434.06 451.074 440.886 457.715 448.5 463.456C467.747 477.969 491.528 487.137 515.75 486.519C546.512 485.734 576.956 465.682 597.806 444.426L597.416 446.344C596.463 468.028 598.728 487.624 605.55 508.287C608.087 515.971 610.981 523.443 614.993 530.492C624.334 545.476 635.225 558.167 651.08 566.442C656.649 569.348 662.51 571.431 668.246 573.949L648.313 607.03C632.964 609.77 616.162 610.077 600.662 608.73C571.807 606.223 542.39 593.942 528.166 567.271L518.958 548.35C514.4 539.928 508.429 532.105 501.32 525.682C491.945 517.213 480.105 511.87 469.308 505.533C452.853 495.876 439.626 483.37 427.406 468.871L427.292 446.243L427.124 444.555Z"/>
	<path fill="#CA0565" d="M427.124 444.555C434.06 451.074 440.886 457.715 448.5 463.456C467.747 477.969 491.528 487.137 515.75 486.519C546.512 485.734 576.956 465.682 597.806 444.426L597.416 446.344C590.691 458.685 580.482 469.504 569.41 478.073C548.81 494.016 523.606 500.637 497.835 497.205C473.949 494.024 452.059 476.942 436.879 459.175C433.388 455.089 430.54 450.519 427.292 446.243L427.124 444.555Z"/>
	<defs>
		<linearGradient id="gradient_0" gradientUnits="userSpaceOnUse" x1="261.74075" y1="791.25037" x2="787.04401" y2="691.3396">
			<stop offset="0" stop-color="#F76538"/>
			<stop offset="1" stop-color="#FD9331"/>
		</linearGradient>
	</defs>
	<path fill="url(#gradient_0)" d="M668.246 573.949C671.129 574.639 673.917 576.2 676.666 577.316L694.069 584.349L747.784 606.1L765.833 613.611C768.702 614.814 771.838 615.769 774.589 617.206L766.555 645.963C766.475 647.687 766.339 649.304 765.975 650.994C764.351 658.532 764.366 665.938 764.263 673.602L764.08 700.228L764.401 748.448C764.423 764.995 764.178 781.912 761.186 798.235C756.881 821.718 746.966 844.634 732.429 863.576C722.749 876.191 710.917 887.937 697.5 896.563L690.919 900.568C687.758 901.396 683.148 900.825 679.847 900.826L655.311 900.883L546.9 901.054L395.986 900.905L351.063 900.814C342.086 900.815 332.857 901.303 323.921 900.47C312.574 892.259 302.916 882.913 294.441 871.781C291.659 868.128 288.809 864.676 286.554 860.649L286.51 860.64C281.331 854.083 277.394 845.898 274.102 838.235C265.881 819.101 261.338 798.909 260.7 778.088C260.399 768.238 261.184 758.251 262.068 748.449C270.893 753.306 281.275 756.548 290.925 759.435C307.345 764.346 324.086 767.73 341.219 768.792C366.384 770.353 392.617 766.964 417.052 760.992C433.098 757.091 448.823 752.848 464.362 747.175C503.359 732.939 540.022 712.441 573.033 687.325C588.829 675.306 603.936 662.392 617.377 647.75C628.826 635.278 638.897 621.075 648.313 607.03L668.246 573.949Z"/>
	<path fill="#CA0565" d="M286.554 860.649C290.866 861.568 295.009 864.065 299.131 865.637C306.171 868.323 313.364 870.342 320.694 872.049C364.849 882.332 413.1 875.265 455.312 859.991C538.359 829.942 608.993 762.702 653.457 687.407C662.241 672.533 670.65 657.197 677.929 641.525L692.213 608.933L686.286 629.106C669.51 680.17 647.941 730.369 616.524 774.295C607.011 787.596 596.396 800.046 585.279 812.017C570.232 828.22 554.393 842.808 536.25 855.487C525.881 862.735 514.603 869.548 503.366 875.345L489.75 881.694L490 881.858C495.282 880.618 500.406 878.459 505.536 876.708C521.15 871.377 536.921 865.755 551.72 858.42C576.074 846.35 600.076 830.374 620.115 811.99C662.971 772.671 694.021 720.54 715.515 666.95L728.45 630.176L728.526 630.813C728.512 636.019 726.69 642.369 725.469 647.445L719 673.25C710.342 706.416 699.366 739.118 685.561 770.5C672.635 799.885 657.421 828.29 636.019 852.47C630.1 859.157 623.44 864.811 616.75 870.684L617.25 870.833C633.275 859.728 648.954 849.366 663.225 835.941C676.427 823.521 687.52 809.643 697.965 794.886C729.853 749.837 750.484 698.487 766.555 645.963C766.475 647.687 766.339 649.304 765.975 650.994C764.351 658.532 764.366 665.938 764.263 673.602L764.08 700.228L764.401 748.448C764.423 764.995 764.178 781.912 761.186 798.235C756.881 821.718 746.966 844.634 732.429 863.576C722.749 876.191 710.917 887.937 697.5 896.563L690.919 900.568C687.758 901.396 683.148 900.825 679.847 900.826L655.311 900.883L546.9 901.054L395.986 900.905L351.063 900.814C342.086 900.815 332.857 901.303 323.921 900.47C312.574 892.259 302.916 882.913 294.441 871.781C291.659 868.128 288.809 864.676 286.554 860.649Z"/>
</svg>
