<?xml version="1.0" encoding="utf-8" ?>
<svg xmlns="http://www.w3.org/2000/svg" xmlns:xlink="http://www.w3.org/1999/xlink" width="1024" height="1024">
	<path fill="#6ABECD" d="M-0 -0L1024 0L1024 1024L-0 1024L0 -0Z"/>
	<path fill="#C4E1E5" d="M304.291 316.941C301.651 326.058 301.025 335.833 300.628 345.274C299.749 366.24 301.223 386.642 306.639 406.97C307.935 411.832 309.275 417.356 311.278 421.949C307.311 422.119 303.863 421.952 300 421.028C293.94 419.579 288.254 417.066 283.027 413.677C271.364 406.114 262.901 393.634 260.09 380.035C257.155 365.836 260.139 351.793 268.078 339.75C276.538 326.916 289.642 320 304.291 316.941Z"/>
	<path fill="#C4E1E5" d="M719.414 318.773C734.686 321.131 745.416 328.143 754.491 340.527C761.704 350.37 765.155 365.134 763.192 377.207L762.664 379.75C759.604 393.927 751.959 406.623 739.724 414.764C730.464 420.925 721.26 423.245 710.297 423.937C715.617 407.734 719.647 391.572 721.25 374.548C723.014 355.816 721.805 337.369 719.414 318.773Z"/>
	<path fill="#FEFEFE" d="M679.833 792.089C693.469 778.971 707.692 771.032 727 771.45C740.387 771.74 753.362 778.324 762.462 787.97C776.527 802.879 783.659 822.811 782.865 843.274C781.825 870.077 771.883 894.134 752.07 912.59C740.26 923.593 724.341 930.691 708.037 929.926L699.881 928.853C692.321 926.888 685.813 923.001 679.786 918.134C665.33 906.461 657.489 886.724 655.673 868.662C653.44 846.464 657.915 824.298 669.801 805.292C672.727 800.613 676.32 796.334 679.833 792.089Z"/>
	<path fill="#FEFEFE" d="M323.389 928.923C319.942 929.625 316.207 929.949 312.689 929.947C295.879 929.936 278.919 920.199 267.388 908.478C250.039 890.843 241.279 865.476 241.434 841.044C241.563 820.824 248.287 801.587 262.986 787.312C273.949 776.665 287.823 771.2 303.035 771.446C321.67 771.748 336.028 782.889 348.371 795.671C351.965 800.67 355.599 805.56 358.502 811.008C368.729 830.198 372.348 852.249 368.864 873.703C365.837 892.348 356.47 910.295 340.72 921.253C335.499 924.885 329.51 927.29 323.389 928.923Z"/>
	<path fill="#FEFEFE" d="M470.409 146.259C470.383 145.417 471.075 143.897 471.336 143.065C473.161 137.244 476.078 131.107 479.611 126.122C489.759 111.804 504.642 101.425 522 98.3377C531.214 96.6987 540.165 97.3488 549.36 98.6031L543.005 101.629C538.784 103.751 534.546 106.071 530.884 109.08C520.766 117.39 513.091 130.411 508.974 142.779C526.952 142.997 544.592 144.667 562.135 148.826C600.055 157.815 636.061 178.578 663.212 206.466C693.132 237.198 712.25 276.664 719.414 318.773C721.805 337.369 723.014 355.816 721.25 374.548C719.647 391.572 715.617 407.734 710.297 423.937L710.143 424.416C692.907 476.571 651.931 522.037 603 546.444L588.094 553.001C599.848 558.965 609.538 567.169 618.75 576.501C643.153 601.22 659.985 632.322 670.754 665.172C684.264 706.384 686.671 756.175 669.119 796.54L679.833 792.089C676.32 796.334 672.727 800.613 669.801 805.292C657.915 824.298 653.44 846.464 655.673 868.662C657.489 886.724 665.33 906.461 679.786 918.134C685.813 923.001 692.321 926.888 699.881 928.853C694.148 929.574 688.267 929.371 682.497 929.391L654.692 929.42L566.604 929.418L409.583 929.4L323.389 928.923C329.51 927.29 335.499 924.885 340.72 921.253C356.47 910.295 365.837 892.348 368.864 873.703C372.348 852.249 368.729 830.198 358.502 811.008C355.599 805.56 351.965 800.67 348.371 795.671C350.243 795.577 351.67 795.245 353.439 794.634L352.246 792.014C332.486 747.995 338.203 699.908 354.993 655.922C365.48 628.45 381.343 602.024 401.133 580.288C411.381 569.033 422.65 558.864 436.672 552.569C436.329 552.034 418.572 544.415 416.516 543.338C377.74 523.017 346.599 493.744 325.672 455.07C319.929 444.456 314.889 433.482 311.278 421.949C309.275 417.356 307.935 411.832 306.639 406.97C301.223 386.642 299.749 366.24 300.628 345.274C301.025 335.833 301.651 326.058 304.291 316.941C309.678 289.742 318.443 263.516 333.652 240.104C365.494 191.087 413.262 158.568 470.409 146.259Z"/>
	<path fill="#69596E" d="M464.196 428.75L465.507 428.399C467.712 430.007 468.862 433.325 470.364 435.625C472.466 438.841 474.733 441.704 477.578 444.305C488.579 454.362 503.049 457.214 517.5 456.51C530.545 455.874 543.88 448.857 551.9 438.596C554.418 435.376 556.011 431.425 558.75 428.449C560.619 428.726 560.823 428.809 562.25 430.044C562.592 431.987 561.953 432.873 561.227 434.679L560.977 435.15C554.241 447.503 543.537 456.047 530.062 460.095C515.226 464.551 497.291 463.291 483.623 455.823C474.484 450.83 464.484 441.506 461.522 431.25C462.027 429.919 463.047 429.458 464.196 428.75Z"/>
	<path fill="#69596E" d="M605.955 325.165C610.635 324.855 615.45 325.656 619.497 328.106C624.618 331.206 628.53 336.599 629.871 342.444C631.107 347.835 630.099 353.614 627.072 358.257C623.585 363.606 617.615 367.085 611.498 368.427C605.833 368.548 601.748 367.787 596.861 364.652C592.149 361.63 588.561 356.361 587.573 350.858C586.55 345.165 587.915 338.978 591.158 334.216C594.656 329.077 599.94 326.269 605.955 325.165Z"/>
	<path fill="#69596E" d="M411.592 325.579C414.545 325.505 417.392 325.225 420.249 326.148L421 326.409C422.489 326.912 423.851 327.466 425.207 328.274C430.291 331.301 434.072 336.294 435.492 342.025C436.932 347.836 435.787 353.994 432.592 359.008C429.115 364.465 423.935 367.132 417.754 368.482C412.037 368.628 408.109 368.421 403.05 365.284C398.07 362.197 394.56 357.217 393.25 351.5C391.963 345.885 393.239 339.771 396.36 334.979C399.972 329.432 405.351 326.921 411.592 325.579Z"/>
	<path fill="#DAAFB4" d="M470.409 146.259C470.383 145.417 471.075 143.897 471.336 143.065C473.161 137.244 476.078 131.107 479.611 126.122C489.759 111.804 504.642 101.425 522 98.3377C531.214 96.6987 540.165 97.3488 549.36 98.6031L543.005 101.629C538.784 103.751 534.546 106.071 530.884 109.08C520.766 117.39 513.091 130.411 508.974 142.779C501.177 163.679 503.882 187.993 513.003 208.03C519.439 222.169 528.44 234.961 540.039 245.326C514.898 238.216 492.261 221.72 479.323 198.753C469.886 182.002 467.751 165.064 470.409 146.259Z"/>
	<path fill="#C4E1E5" d="M389.697 717.584C388.693 705.601 388.017 693.85 388.54 681.802C390.121 645.412 400.557 609.339 419.277 578.038C424.354 569.549 430.236 561.282 436.911 553.981C437.303 553.553 437.744 552.914 438.397 552.885C438.925 552.861 440.627 553.712 441.178 553.916L448.5 556.587C455.092 558.83 461.87 560.723 468.645 562.325C499.874 569.711 533.928 568.822 564.949 560.77C569.787 559.514 574.561 557.898 579.244 556.158C581.799 555.209 584.448 553.896 587.077 553.235L593.633 560.888C604.488 574.255 612.748 590.332 618.992 606.309C632.926 641.967 637.913 679.415 634.012 717.464L389.697 717.584Z"/>
	<path fill="#DAAFB4" d="M389.697 717.584L634.012 717.464C632.624 727.112 631.039 736.714 628.306 746.088C619.193 777.347 600.829 805.59 574.628 825.151C570.684 828.096 566.587 830.899 562.222 833.191C550.266 839.47 537.829 843.768 535.683 859.25C534.675 866.524 536.646 874.231 541.341 879.911C546.488 886.139 553.944 889.932 561.983 890.377C568.973 890.763 575.585 887.536 581.732 884.612C597.879 876.931 613.366 866.629 626.42 854.381C640.256 841.399 652.116 826.862 661.759 810.506L669.119 796.54L679.833 792.089C676.32 796.334 672.727 800.613 669.801 805.292C657.915 824.298 653.44 846.464 655.673 868.662C657.489 886.724 665.33 906.461 679.786 918.134C685.813 923.001 692.321 926.888 699.881 928.853C694.148 929.574 688.267 929.371 682.497 929.391L654.692 929.42L566.604 929.418L409.583 929.4L323.389 928.923C329.51 927.29 335.499 924.885 340.72 921.253C356.47 910.295 365.837 892.348 368.864 873.703C372.348 852.249 368.729 830.198 358.502 811.008C355.599 805.56 351.965 800.67 348.371 795.671C350.243 795.577 351.67 795.245 353.439 794.634L357.958 804.045C374.57 836.123 401.412 862.667 432.852 880.163C438.517 883.316 444.329 886.935 450.556 888.853L451.5 889.14C455.316 890.32 459.496 890.655 463.468 890.239C470.364 889.516 477.894 885.799 482.192 880.265C486.24 875.051 488.526 868.28 487.677 861.667L487.548 860.75L487.332 859.109C484.918 843.585 472.326 839.069 460.097 832.626C456.086 830.513 452.352 827.975 448.673 825.333C423.588 807.322 405.142 778.59 396.286 749.25C393.146 738.847 391.454 728.282 389.697 717.584Z"/>
</svg>
