<?xml version="1.0" encoding="utf-8" ?>
<svg xmlns="http://www.w3.org/2000/svg" xmlns:xlink="http://www.w3.org/1999/xlink" width="1024" height="1024">
	<path fill="#93D4C7" d="M-0 -0L1024 0L1024 1024L-0 1024L0 -0Z"/>
	<path d="M456.223 444.784L400.505 348.422C355.6 264.509 323.893 162.052 352.483 67.6565L511.12 351.02C509.918 354.889 506.978 358.834 504.908 362.338L492.876 382.833L456.223 444.784Z"/>
	<path d="M512.379 350.565L534.932 310.948L560.426 265.599L647.009 111.5L664.235 81.0114L669.418 71.775C670.077 70.6462 670.842 68.9591 671.887 68.1856C676.889 81.3737 679.47 95.0709 681.22 109.034C684.76 137.268 683.206 165.847 678.779 193.876C672.231 235.338 659.474 275.114 642.212 313.331L568.659 445.317C567.157 443.675 566.032 441.126 564.895 439.162L557.657 426.51L526.982 374.514C522.319 366.68 518.036 357.693 512.379 350.565Z"/>
	<defs>
		<linearGradient id="gradient_0" gradientUnits="userSpaceOnUse" x1="178.73117" y1="593.14886" x2="914.06281" y2="815.63098">
			<stop offset="0" stop-color="#F48425"/>
			<stop offset="1" stop-color="#DF3A55"/>
		</linearGradient>
	</defs>
	<path fill="url(#gradient_0)" d="M512.379 350.565C518.036 357.693 522.319 366.68 526.982 374.514L557.657 426.51L564.895 439.162C566.032 441.126 567.157 443.675 568.659 445.317L723.327 690.47L731.021 687.75C765.534 676.914 804.253 681.554 836.074 698.259C867.475 714.745 892.146 743.758 902.563 777.765C913.471 813.377 909.387 849.402 891.891 882.133C874.242 915.148 844.203 937.757 808.651 948.405C775.329 958.385 736.654 954.361 706.092 937.717C673.113 919.755 648.499 889.835 637.942 853.691C630.859 829.438 630.882 802.955 638.249 778.748C641.643 767.597 646.459 757.519 652.046 747.335L511.728 524.677L426.25 660.487L394.564 710.799C386.789 723.116 378.225 735.698 371.823 748.768L376.504 757.008C392.205 788.267 396.142 824.532 384.963 857.952C373.483 892.272 348.26 922.092 315.793 938.274C283.315 954.461 245.011 957.525 210.552 945.801C175.78 933.97 146.158 909.472 129.875 876.332C114.069 844.162 112.096 807.169 123.787 773.369C135.673 739.001 162.072 710.932 194.712 695.288C228.331 679.175 267.42 678.184 302.336 690.525L456.223 444.784L492.876 382.833L504.908 362.338C506.978 358.834 509.918 354.889 511.12 351.02L512.379 350.565Z"/>
	<path d="M507.278 433.673C515.847 432.125 527.128 435.038 534.274 439.955C541.63 445.017 547.18 453.191 548.703 462.039C550.178 470.61 547.848 479.259 542.778 486.24C536.233 495.253 527.645 499.689 516.793 501.446C506.768 501.689 497.712 500.183 489.429 494.146C481.798 488.586 476.035 480.37 474.631 470.898C473.395 462.552 475.7 454.28 480.753 447.611C487.338 438.921 496.749 435.055 507.278 433.673Z"/>
	<path fill="#FEFEFE" d="M509.498 443.665C516.425 443.326 522.89 443.978 528.585 448.298C533.838 452.282 537.551 458.677 538.351 465.23C539.089 471.277 537.077 477.077 533.259 481.758C528.205 487.956 522.035 490.174 514.264 490.909C507.535 490.801 501.053 489.403 495.478 485.457C489.947 481.542 486.64 476.393 485.49 469.707C484.573 464.371 486.05 459.114 489.18 454.743C494.16 447.79 501.261 444.892 509.498 443.665Z"/>
	<path fill="#93D4C7" d="M765.781 729.709C788.079 728.754 809.857 735.827 827.107 750.02C844.728 764.52 856.25 785.741 858.287 808.53C860.266 830.657 852.899 854.297 838.435 871.2C827.213 884.312 811.599 895.183 794.955 899.978C788.127 901.946 781.226 902.726 774.163 903.284L774.142 903.292C751.644 904.538 729.839 897.198 712.42 882.971C695.64 869.266 683.678 846.556 681.662 825C679.536 802.282 686.664 779.053 701.388 761.631C718.579 741.289 739.529 731.83 765.781 729.709Z"/>
	<path fill="#93D4C7" d="M246.368 729.703L246.386 729.696C266.6 728.226 287.464 733.11 304.134 744.923C323.795 758.855 336.478 778.583 340.679 802.25L341.337 806.75C343.589 831.675 336.454 854.485 320.174 873.57C305.005 891.353 283.521 901.274 260.454 903.151L259.629 903.272C254.782 903.929 249.101 903.591 244.25 903.042C227.451 901.143 211.371 894.995 198 884.504C180.189 870.529 168.211 849.116 165.536 826.67C162.726 803.09 170.349 779.619 185.073 761.17C199.848 742.655 223.281 732.316 246.368 729.703Z"/>
</svg>
