<?xml version="1.0" encoding="utf-8" ?>
<svg xmlns="http://www.w3.org/2000/svg" xmlns:xlink="http://www.w3.org/1999/xlink" width="1024" height="1024">
	<path fill="#042F34" d="M-0 -0L1024 0L1024 1024L-0 1024L0 -0Z"/>
	<path fill="#042F34" d="M878.393 235.189L855.758 215.01L930.551 182.691L911.632 263.289L891.902 246.47C890.062 248.315 888.467 250.145 886.905 252.23C884.48 250.774 881.908 249.19 879.75 247.364C877.555 245.506 875.852 242.976 873.318 241.585L878.393 235.189Z"/>
	<path fill="#F95038" d="M878.393 235.189L891.902 246.47C890.062 248.315 888.467 250.145 886.905 252.23C884.48 250.774 881.908 249.19 879.75 247.364C877.555 245.506 875.852 242.976 873.318 241.585L878.393 235.189Z"/>
	<path fill="#F95038" d="M873.318 241.585C875.852 242.976 877.555 245.506 879.75 247.364C881.908 249.19 884.48 250.774 886.905 252.23L884.387 255.584L617.352 600.54L575.392 548.543L545.811 511.272L539.554 503.573C538.714 502.56 537.897 501.206 536.697 500.639L409.762 659.678L330.922 559.927L107.04 848.953L93.4826 833.938L331.038 529.161C332.289 529.564 334.342 532.862 335.253 534.037L350.058 553.565L409.46 629.308L536.898 470.566L617.304 571.734L871.247 244.082L873.318 241.585Z"/>
	<path fill="#F95038" d="M873.318 241.585C875.852 242.976 877.555 245.506 879.75 247.364C881.908 249.19 884.48 250.774 886.905 252.23L884.387 255.584C880.282 253.371 876.825 252.69 873.25 249.312C873.047 247.317 872.767 246.122 871.558 244.486L871.247 244.082L873.318 241.585Z"/>
</svg>
