<?xml version="1.0" encoding="utf-8" ?>
<svg xmlns="http://www.w3.org/2000/svg" xmlns:xlink="http://www.w3.org/1999/xlink" width="1024" height="1024">
	<path fill="#252323" d="M-0 -0L1024 0L1024 1024L-0 1024L0 -0Z"/>
	<path fill="#E32F1B" d="M636.973 94.0071C635.705 87.0852 636.584 78.4644 636.58 71.3398L636.651 22.4762L644.586 22.5099L644.53 70.7583C644.519 78.6656 645.151 87.218 644.27 95.0476C643.552 94.3113 642.566 93.1082 641.534 92.8325C639.622 92.3217 638.621 93.1912 636.973 94.0071Z"/>
	<path fill="#EE7425" d="M363.771 504.603L253.564 504.567L253.53 485.341L323.861 485.404L417.949 485.447C417.96 489.093 418.865 501.938 417.563 504.462L363.771 504.603Z"/>
	<path d="M323.633 368.866L323.566 349.925L366.985 350.006L476.645 350.063L515.218 350.072L515.267 364.033C515.272 365.317 514.968 367.842 515.357 368.947L515.248 398.609L463.743 398.395C455.481 398.377 446.394 397.567 438.272 398.598L358.196 398.621C354.162 398.132 349.818 398.454 345.735 398.461L323.667 398.514L323.633 368.866Z"/>
	<path fill="#EE7425" d="M323.633 368.866L323.566 349.925L366.985 350.006L476.645 350.063L515.218 350.072L515.267 364.033C515.272 365.317 514.968 367.842 515.357 368.947L323.633 368.866Z"/>
	<path fill="#E32F1B" d="M366.985 350.006L367.018 263.124L476.446 263.02L476.645 350.063L366.985 350.006Z"/>
	<path fill="#E32F1B" d="M746.077 526.107L942.935 324.615L942.538 512.526L942.661 548.196C942.68 551.623 941.988 557.887 943.022 561.024L746.038 561.027L746.077 526.107Z"/>
	<path fill="#E32F1B" d="M438.272 398.598L514.772 398.954C515.283 400.565 515.031 402.649 515.021 404.349L514.972 413.593L514.798 453.383L515.006 572.896L515.089 645.328C507.156 652.6 497.078 658.509 488.403 664.941L418.035 716.225L417.991 556.002L417.963 520.04C417.958 515.595 418.748 509.289 417.744 505.034L417.563 504.462C418.865 501.938 417.96 489.093 417.949 485.447L323.861 485.404L323.922 398.89L358.196 398.621L438.272 398.598Z"/>
	<path fill="#EE7425" d="M85.8213 910.127L85.9247 691.549L85.9874 644.009L86.0105 633.5C86.0206 632.226 85.7973 630.075 86.1061 628.858C86.4234 627.609 88.9482 625.401 89.8666 624.467L100.878 613.339L148.5 565.171L165.21 547.673L242.891 626.685L242.947 910.228C237.208 910.845 231.186 910.501 225.412 910.505L193.893 910.503L193.853 895.868L193.579 910.222L136.947 910.141L136.868 864.242L136.812 864.836L136.64 910.065L103.298 910.221L91.7336 910.33C89.7865 910.351 87.7114 910.593 85.8213 910.127Z"/>
	<path d="M136.868 864.242L136.962 768.981L193.76 768.945L193.853 895.868L193.579 910.222L136.947 910.141L136.868 864.242Z"/>
	<path fill="#E32F1B" d="M85.8213 910.127C87.7114 910.593 89.7865 910.351 91.7336 910.33L103.298 910.221L136.64 910.065L136.812 864.836L136.868 864.242L136.947 910.141L193.579 910.222L193.853 895.868L193.893 910.503L225.412 910.505C231.186 910.501 237.208 910.845 242.947 910.228L254.361 910.062L415.584 910.048L456.135 910.208C461.692 910.246 468.761 909.501 474.116 910.667C477.756 911.343 481.904 910.982 485.614 910.99L507.479 911.02L535.436 911.02C540.162 911.011 545.46 911.458 550.092 910.58L597.076 910.526L597.339 898.748L597.29 911.001L673.949 911.141C688.126 911.137 702.858 911.931 716.943 910.435L943.968 910.073L995.54 909.968L995.488 992.952L30.4372 993.067L30.4801 909.96L85.8213 910.127Z"/>
	<path fill="#EE7425" d="M636.973 94.0071C638.621 93.1912 639.622 92.3217 641.534 92.8325C642.566 93.1082 643.552 94.3113 644.27 95.0476L644.496 95.7126C645.306 97.9269 647.663 100.436 649.092 102.344L660.93 117.939L700.27 169.584L709.884 181.863C711.052 183.39 712.799 185.189 713.595 186.886C714.048 187.851 713.815 189.547 713.812 190.6L713.783 200.292L713.695 240.045L713.729 420.888L745.844 420.737L746.077 526.107L746.038 561.027L746.018 721.576L612.463 623.852L588.667 606.648L579.267 599.533L540.711 626.934L540.881 420.82L567.99 420.645L567.981 234.764L567.959 197.09L567.954 189.298C567.954 188.78 567.788 187.257 567.953 186.779C568.333 185.677 570.281 183.662 571.015 182.713L579.587 171.663L598.343 146.628L626.124 110.009L633.688 99.7143C634.742 98.2172 636.126 96.5742 636.718 94.825L636.973 94.0071Z"/>
	<path fill="#FED829" d="M588.667 606.648L588.724 605.959L588.96 588.109L621.281 588.096L621.127 623.037L612.463 623.852L588.667 606.648Z"/>
	<path d="M602.072 200.457L625.12 200.494L625.131 242.057L602.154 242.129L602.072 200.457Z"/>
	<path d="M656.205 200.552L679.409 200.521L679.358 242.262L656.269 242.452L656.205 200.552Z"/>
	<path d="M656.252 268.005L679.319 268.065L679.265 310.862L656.42 310.844L656.252 268.005Z"/>
	<path d="M602.113 267.902L625.236 267.983L625.227 310.812L602.243 310.866L602.113 267.902Z"/>
	<path fill="#FED829" d="M658.436 519.489L690.532 519.415L690.493 554.849L658.408 554.615L658.436 519.489Z"/>
	<path fill="#FED829" d="M588.918 447.985L621.497 448.012L621.361 484.032L588.941 484.142L588.918 447.985Z"/>
	<path fill="#FED829" d="M588.928 518.495L621.569 518.693L621.525 554.548L588.837 554.592L588.928 518.495Z"/>
	<path fill="#FED829" d="M658.069 448.003L690.464 447.997L690.431 484.646L658.177 484.517L658.069 448.003Z"/>
	<path d="M417.563 504.462L417.744 505.034C418.748 509.289 417.958 515.595 417.963 520.04L417.991 556.002L418.035 716.225L488.403 664.941C497.078 658.509 507.156 652.6 515.089 645.328L540.711 626.934L579.267 599.533L588.667 606.648L612.463 623.852L746.018 721.576L746.038 561.027L943.022 561.024C943.731 562.717 943.553 564.664 943.582 566.476L943.744 577.503L943.979 625.178L943.645 799.404L943.968 910.073L716.943 910.435C702.858 911.931 688.126 911.137 673.949 911.141L597.29 911.001L597.339 898.748L597.076 910.526L550.092 910.58C545.46 911.458 540.162 911.011 535.436 911.02L507.479 911.02L485.614 910.99C481.904 910.982 477.756 911.343 474.116 910.667C468.761 909.501 461.692 910.246 456.135 910.208L415.584 910.048L254.361 910.062L254.722 505.765L254.66 505.072L330.738 505.035L351.758 505.006C355.531 504.997 359.641 505.347 363.362 504.684L363.771 504.603L417.563 504.462Z"/>
	<path fill="#EE7425" d="M354.192 637.75L391.914 637.611L391.909 657.174L315.75 656.984L277.504 657.014L277.515 637.905L354.192 637.75Z"/>
	<path fill="#EE7425" d="M277.524 592.525L392.024 592.49L392.007 612.002L277.495 612.002L277.524 592.525Z"/>
	<path fill="#EE7425" d="M277.503 548.047L391.844 548.04L391.855 567.503L277.454 567.637L277.503 548.047Z"/>
	<path fill="#EE7425" d="M312.182 773.25L391.957 773.02L391.951 793.007L357.75 792.993L277.253 792.98L277.295 773.601C279.116 772.679 283.705 773.28 285.985 773.277L312.182 773.25Z"/>
	<path fill="#EE7425" d="M277.564 727.978L391.942 727.788L391.918 747.913L277.522 747.838L277.564 727.978Z"/>
	<path fill="#EE7425" d="M341.462 818.25L392.014 818.108L391.977 838.495L328.25 838.543L277.366 838.578L277.371 818.626L341.462 818.25Z"/>
	<path fill="#EE7425" d="M277.338 683.217L391.952 682.867L391.873 703.202L277.309 703.302L277.338 683.217Z"/>
	<path fill="#EE7425" d="M774.572 791.594L804.492 791.531L804.349 881.678L774.42 881.671L774.572 791.594Z"/>
	<path fill="#EE7425" d="M776.763 589.245L795.737 589.204C798.48 589.2 801.763 588.817 804.423 589.443L804.358 679.25L803.25 680.05L774.486 679.989L774.494 611.379C774.495 607.783 773.62 591.719 775 589.407L776.763 589.245Z"/>
	<path fill="#A3CAB4" d="M861.255 589.25L881.135 589.353L881.075 680.091L870.75 680.084L850.783 680.089L850.976 589.359L861.255 589.25Z"/>
	<path fill="#A3CAB4" d="M850.935 791.475L881.059 791.416L881.195 881.922L850.7 881.979L850.935 791.475Z"/>
	<path fill="#EE7425" d="M888.757 791.44L919.586 791.468L919.314 881.641L888.829 881.668L888.757 791.44Z"/>
	<path fill="#EE7425" d="M888.689 589.364L919.768 589.339L919.554 679.996L888.897 680.022L888.689 589.364Z"/>
	<path fill="#A3CAB4" d="M818.153 589.256L843.134 589.32L843.044 680.162L836.75 680.134L812.349 680.123L812.364 589.335L818.153 589.256Z"/>
	<path fill="#A3CAB4" d="M812.167 791.433L843.335 791.418L843.397 882.184L812.135 882.188L812.167 791.433Z"/>
	<path fill="#EE7425" d="M774.493 687.41L796.34 687.409C798.788 687.41 802.284 686.936 804.587 687.7L804.453 783.7L774.53 783.588L774.493 687.41Z"/>
	<path fill="#EE7425" d="M840.674 687.741L842.311 687.728C842.551 687.985 842.923 688.165 843.032 688.5C843.337 689.438 843.033 691.825 843.033 692.879L843.036 707.3L843.059 783.837L815.375 783.674C814.035 783.657 813.722 783.835 812.707 782.993L812.508 687.822L840.674 687.741Z"/>
	<path fill="#A3CAB4" d="M850.924 687.53L881.237 687.478L881.076 783.947L850.603 783.992L850.924 687.53Z"/>
	<path fill="#EE7425" d="M888.939 687.863L919.588 687.858L919.595 783.607L888.66 783.653L888.939 687.863Z"/>
	<path fill="#FFFEFE" d="M474.116 910.667L474.23 752.933L550.134 752.965L550.092 910.58C545.46 911.458 540.162 911.011 535.436 911.02L507.479 911.02L485.614 910.99C481.904 910.982 477.756 911.343 474.116 910.667Z"/>
	<path fill="#FFFEFE" d="M597.339 898.748L597.482 792.022L716.816 792.088L716.943 910.435C702.858 911.931 688.126 911.137 673.949 911.141L597.29 911.001L597.339 898.748Z"/>
</svg>
