<?xml version="1.0" encoding="utf-8" ?>
<svg xmlns="http://www.w3.org/2000/svg" xmlns:xlink="http://www.w3.org/1999/xlink" width="1024" height="1024">
	<path fill="#38747C" d="M-0 -0L1024 0L1024 1024L-0 1024L0 -0Z"/>
	<path fill="#C72018" d="M515.963 62.7347L516.151 62.7342C563.774 63.3795 612 71.4802 657.034 87.1069C720.048 108.972 778.143 145.881 825.359 192.907C852.666 220.103 876.767 250.305 896.692 283.338C938.047 351.9 960.964 432.444 961.067 512.57C961.163 586.841 942.56 660.417 906.867 725.572C885.955 763.744 859.357 798.332 828.642 829.1C804.043 853.743 776.916 874.865 747.355 893.229C731.734 902.934 715.47 912.308 698.79 920.076C638.874 947.978 574.003 960.391 508.184 960.501C485.505 960.571 462.702 958.309 440.346 954.595C417.975 950.879 395.83 945.747 374.255 938.71C309.062 917.445 248.746 879.733 199.575 832.164C147.637 781.919 108.764 719.081 85.7874 650.694C79.2517 631.242 73.7306 611.448 70.0358 591.25C65.8026 568.109 63.719 543.934 63.3254 520.427C61.3384 401.765 107.431 286.545 189.973 201.352C259.578 129.511 350.985 81.4481 450.25 67.2564C472.048 64.14 493.974 63.0901 515.963 62.7347Z"/>
	<path fill="#C72018" d="M501.65 159.219C514.747 158.634 527.955 159.282 541.011 160.337C617.838 166.546 692.848 199.16 749.925 251.047C818.029 312.957 859.684 402.379 863.826 494.25C866.779 559.76 852.178 626.918 820.036 684.282C806.932 707.669 790.886 729.129 772.754 748.851C730.287 795.044 675.39 830.783 615.149 848.936C585.405 857.899 554.635 862.655 523.625 863.966C461.464 865.653 399.832 851.717 345.145 821.84C318.897 807.5 294.885 789.833 272.73 769.801C205.908 709.382 163.726 620.253 159.634 530.25C155.306 435.044 189.069 342.608 253.288 272.322C304.574 216.19 376.477 177.479 451.207 164.227C467.897 161.268 484.735 159.971 501.65 159.219Z"/>
</svg>
