<?xml version="1.0" encoding="utf-8" ?>
<svg xmlns="http://www.w3.org/2000/svg" xmlns:xlink="http://www.w3.org/1999/xlink" width="1024" height="1024">
	<path fill="#3B3B98" d="M-0 -0L1024 0L1024 1024L-0 1024L0 -0Z"/>
	<path fill="#CC1940" d="M841.942 485.773L876.199 560.554L774.708 613.329L737.586 535.174L790.354 509.928L825.693 492.616C831.097 490.112 836.118 487.224 841.942 485.773Z"/>
	<path fill="#CC1940" d="M181.776 485.136L253.192 519.576C263.992 524.907 275.502 529.222 285.767 535.574L250.026 612.497C248.331 612.166 246.296 610.551 244.736 609.731L232.219 603.393L177.404 576.698L145.26 560.782L181.776 485.136Z"/>
	<path fill="#EA403F" d="M649.561 221.858L720.338 221.577L841.942 485.773C836.118 487.224 831.097 490.112 825.693 492.616L790.354 509.928L737.586 535.174L705.598 467.824L705.744 510.976L705.592 563.688L705.553 750.848L705.515 792.088C705.51 795.358 706.351 802.219 705.184 805.108L532.9 805.183L491.953 805.144L318.636 805.097L318.933 463.484C317.236 466.101 316.208 469.314 314.991 472.183L308.301 487.578L285.767 535.574C275.502 529.222 263.992 524.907 253.192 519.576L181.776 485.136L306.068 221.588L416.52 221.67L439.51 221.658C443.438 221.657 447.703 221.314 451.577 221.756L572.656 221.672L649.561 221.858Z"/>
	<path fill="#CC1940" d="M572.656 221.672L649.561 221.858C644.79 222.392 639.607 222.006 634.793 222.002L607.559 221.968C605.942 239.894 597.005 258.75 585.548 272.407C569.053 292.07 545.159 304.755 519.506 306.797C495.067 308.743 469.36 300.475 450.549 284.9L448.354 283.044C431.639 268.149 417.739 244.363 416.52 221.67L439.51 221.658C443.438 221.657 447.703 221.314 451.577 221.756L572.656 221.672Z"/>
	<path fill="#FEFEFE" d="M451.577 221.756L572.656 221.672C570.545 231.119 567.132 240.075 561.644 248.108C552.661 261.256 538.391 271.317 522.611 274.176C506.949 277.014 491.023 273.123 478.052 263.956C463.745 253.845 454.476 238.958 451.577 221.756Z"/>
	<path fill="#CC1940" d="M491.953 805.144L492.082 443.938L532.833 443.883L532.9 805.183L491.953 805.144Z"/>
</svg>
