<?xml version="1.0" encoding="utf-8" ?>
<svg xmlns="http://www.w3.org/2000/svg" xmlns:xlink="http://www.w3.org/1999/xlink" width="1024" height="1024">
	<path fill="#44A1D0" d="M-0 -0L1024 0L1024 1024L-0 1024L0 -0Z"/>
	<path fill="#3484AD" d="M774.719 747.384L787.512 754.665C795.67 759.951 803.93 767.577 805.837 777.488C806.928 783.158 805.064 789.045 801.944 793.759L801.444 794.5C797.297 800.764 790.708 805.649 784.467 809.677C771.424 818.094 756.946 824.034 742.398 829.302C690.736 848.008 635.292 854.845 580.75 858.469L505.75 860.955C451.013 860.32 394.764 856.047 341.168 844.71C309.005 837.907 275.138 829.043 246.348 812.71C238.513 808.265 229 802.003 224.148 794.247L223.75 793.582C221.897 790.537 220.289 787.224 219.652 783.688C218.596 777.822 220.301 771.984 223.585 767.103L223.996 766.5C228.654 759.507 236.755 753.54 243.899 749.25C246.64 747.604 249.247 745.907 252.285 744.847L245.949 759.089C244.631 761.98 242.673 765.522 242.501 768.75C242.386 770.901 243.13 773.03 243.913 775C249.007 787.819 265.667 795.98 277.651 800.952C297.925 809.363 320.02 814.36 341.5 818.536C397.304 829.387 454.279 833.027 511.051 833.028C565.959 833.031 620.331 829.813 674.513 820.455C701.17 815.851 728.993 809.82 753.649 798.361C763.585 793.743 777.764 788.125 781.607 776.761C782.687 773.566 783.394 769.523 782.812 766.135C781.784 760.161 777.352 752.94 774.719 747.384Z"/>
	<path fill="#EFEEEE" d="M510.947 168.434L511.62 166.75C514.673 168.561 551.623 253.232 555.846 262.6L584.833 326.626C592.602 343.611 600.992 360.76 607.524 378.252L539.707 448.048L521.592 467.04C518.709 470.053 515.358 474.178 511.941 476.509C510.322 475.928 509.042 474.226 507.837 473L500.633 465.562L469.073 431.983L416.996 378.263C422.214 364.207 429.239 350.478 435.29 336.728L477.28 242.588L496.362 199.971L505.559 179.593C507.291 175.872 508.791 171.93 510.947 168.434Z"/>
	<path fill="#EFAA26" d="M416.996 378.263L469.073 431.983L500.633 465.562L507.837 473C509.042 474.226 510.322 475.928 511.941 476.509C511.657 477.083 511.514 477.29 511.396 478C510.899 480.998 511.298 484.794 511.277 487.864L511.245 509.938L511.266 571.259L511.051 833.028C454.279 833.027 397.304 829.387 341.5 818.536C320.02 814.36 297.925 809.363 277.651 800.952C265.667 795.98 249.007 787.819 243.913 775C243.13 773.03 242.386 770.901 242.501 768.75C242.673 765.522 244.631 761.98 245.949 759.089L252.285 744.847L416.996 378.263Z"/>
	<path fill="#E97A20" d="M607.524 378.252L774.719 747.384C777.352 752.94 781.784 760.161 782.812 766.135C783.394 769.523 782.687 773.566 781.607 776.761C777.764 788.125 763.585 793.743 753.649 798.361C728.993 809.82 701.17 815.851 674.513 820.455C620.331 829.813 565.959 833.031 511.051 833.028L511.266 571.259L511.245 509.938L511.277 487.864C511.298 484.794 510.899 480.998 511.396 478C511.514 477.29 511.657 477.083 511.941 476.509C515.358 474.178 518.709 470.053 521.592 467.04L539.707 448.048L607.524 378.252Z"/>
</svg>
