<?xml version="1.0" encoding="utf-8" ?>
<svg xmlns="http://www.w3.org/2000/svg" xmlns:xlink="http://www.w3.org/1999/xlink" width="1024" height="1024">
	<path fill="#F1181E" d="M511.565 1024L-0 1024L0 -0L511.708 0L1024 0L1024 1024L511.565 1024Z"/>
	<path d="M146.836 148.529L222.296 226.187C225.438 220.403 229.806 215.06 234.743 210.706C246.13 200.663 262.505 194.741 277.734 195.762C294.335 196.875 308.959 204.389 319.844 216.979C330.695 229.531 335.173 246.834 333.809 263.156C332.402 279.988 323.959 294.107 311.202 304.846C299.301 314.197 285.043 318.893 269.899 317.787C254.098 316.632 239.162 309.526 228.805 297.387C216.972 283.52 211.741 265.851 214.954 247.812C215.452 245.017 216.13 242.194 217.031 239.5C217.578 237.863 218.639 235.97 218.765 234.276L109.554 213.259L146.836 148.529Z"/>
	<path d="M511.46 569.977L52.3668 890.062C50.8022 889.257 49.3241 887.133 48.0759 885.802C44.7164 882.221 41.4454 878.394 37.6021 875.329L37.0102 874.865L146.52 800.123L139.875 799.868L211.731 396.405L211.412 396.317L174.486 412.19L160.847 417.894C159.454 418.497 157.186 419.154 155.992 420.032C155.224 420.597 154.78 421.955 154.398 422.816L150.551 432L134.489 471.77L119.71 505.682L123.177 506.036C134.57 507.375 144.718 514.192 151.72 523.097C158.781 532.077 162.621 544.635 161.221 556.024C160.088 565.233 157.291 572.92 151.459 580.209C143.295 590.415 131.716 596.744 118.766 598.154C107.21 599.412 94.8494 594.926 85.9903 587.599C76.7572 579.964 70.5146 568.78 69.5209 556.797C68.4906 544.374 71.9691 531.766 80.1459 522.169C89.3712 511.341 100.84 506.518 114.832 505.435L130.67 406.221L261.185 320.432C263.582 325.421 266.86 329.951 269.884 334.573L282.828 354.544L327.602 423.553L337.186 438.028C337.755 438.833 338.926 440.976 339.689 441.495C340.687 442.174 343.355 442.594 344.599 442.915L357.539 446.326L420.968 464.308L442.657 470.327C446.117 471.307 449.544 471.806 452.798 473.423C451.798 473.644 450.778 473.821 449.75 473.816C439.6 473.773 429.197 472.446 419.034 471.893L351.234 468.082L334.243 467.105C333.031 467.077 328.816 467.443 327.899 466.996C327.33 466.719 326.083 465.174 325.576 464.672L319.006 458.348L281.35 422.703L261.013 487.246L346.79 669.17L502 561.468L445.836 522.377L457.62 513.881L511.505 552.429L512.489 552.732C519.254 549.07 525.826 543.845 532.149 539.402L568.273 513.713L580.821 522.326L524.194 560.208L705.016 683.528L729.798 700.626L766.475 724.977L824.277 764.18L847.37 779.827C850.091 781.62 853.049 784.066 855.939 785.452C861.082 788.177 865.88 791.844 870.614 795.226C874.873 798.268 879.404 801.214 883.444 804.529L884.04 804.854L885 804.485L886.504 805.75C897.207 814.846 910.032 822.201 921.61 830.185L986.888 874.717L972.25 888.926L512.424 569.655L511.46 569.977Z"/>
	<path fill="#F1181E" d="M231.764 548.046L315.402 684.135C311.846 687.28 307.439 689.832 303.475 692.451L284.564 705.097L220.884 748.473L171.027 782.453L231.764 548.046Z"/>
	<path fill="#2D1B1A" d="M511.708 0L1024 0L1024 1024L511.565 1024L511.548 883.781L434.25 929.331L577.896 710.381L512.221 736.864C511.527 734.571 511.971 730.961 511.974 728.488L511.981 708.563L511.942 603.068L511.91 581.575C511.924 578.365 512.674 572.897 511.46 569.977L512.424 569.655L972.25 888.926L986.888 874.717L921.61 830.185C910.032 822.201 897.207 814.846 886.504 805.75L885 804.485L884.04 804.854L883.444 804.529C879.404 801.214 874.873 798.268 870.614 795.226C865.88 791.844 861.082 788.177 855.939 785.452C853.049 784.066 850.091 781.62 847.37 779.827L824.277 764.18L766.475 724.977L729.798 700.626L705.016 683.528L524.194 560.208L580.821 522.326L568.273 513.713L532.149 539.402C525.826 543.845 519.254 549.07 512.489 552.732L511.505 552.429C512.6 550.825 512.029 546.419 512.029 544.48L512.016 520.976L511.977 415.617L511.949 392.877C511.946 390.495 511.466 386.761 511.994 384.494C512.225 383.501 513.876 381.514 514.456 380.604L523.731 366.336L579.131 280.555L511.883 302.05L643.558 95.1456L511.586 175.351L511.708 0Z"/>
	<path d="M906.549 506.078C909.421 505.907 912.399 506.135 915.25 506.519C927.413 508.157 939.053 514.754 946.423 524.58C953.379 533.853 956.494 546.27 954.668 557.727L954.536 558.5L952.47 566.842C948.108 579.202 939.395 588.506 927.626 594.157C922.05 596.834 916.597 597.777 910.495 598.353C900.387 598.78 890.757 596.162 882.342 590.529C874.153 585.047 865.347 572.68 863.519 562.79C861.276 550.648 862.589 538.114 869.596 527.653C875.919 518.213 884.99 510.718 896.215 507.958C899.35 507.187 903.123 507.241 906.067 506.276L906.549 506.078Z"/>
	<path fill="#FEFEFE" d="M755.716 198.221C770.179 198.616 783.519 202.513 794.817 211.937C807.56 222.565 815.536 236.792 816.919 253.429C818.172 268.516 813.597 283.697 803.822 295.279C791.834 309.484 776.634 316.902 758.24 318.451C742.796 318.689 728.093 313.185 716.49 303.007C704.345 292.354 696.853 277.278 695.907 261.126C695.045 246.42 700.736 230.144 710.658 219.184C722.603 205.987 738.013 198.982 755.716 198.221Z"/>
	<path fill="#FEFEFE" d="M705.016 683.528L728.46 623.557L697.93 623.574L716.902 575.752L738.226 521.192L752.914 484.015C753.724 481.896 755.517 478.901 755.866 476.757C756.057 475.583 755.374 473.396 755.135 472.213L752.664 460.469C749.703 446.526 746.208 432.371 744.298 418.244C737.899 422.845 732.047 428.763 726.157 434.01L706.991 450.518L698.564 457.841C697.953 458.347 696.72 459.618 696.04 459.906C694.186 460.691 689.865 460.526 687.701 460.741L660.459 463.589L614.047 468.815L577 472.815C576.963 472.255 586.146 469.917 589 469.052L657.68 447.589L676 442.036C679.496 441.009 683.024 440.18 686.37 438.709C688.262 437.877 708.859 405.09 711.73 400.827L765.235 322.325L880.948 406.665C881.741 407.289 883.163 408.1 883.722 408.86C884.252 409.58 884.666 412.373 884.907 413.33L888.398 427.648L901.439 481.809C903.255 489.813 905.574 497.924 906.549 506.078C906.037 505.885 905.441 505.841 905.014 505.5C903.908 504.615 901.997 499.956 901.21 498.503L867.468 431.191L863.183 422.891C862.735 422.025 862.121 420.281 861.479 419.609C859.959 418.02 855.523 416.327 853.363 415.116L804.293 388.617L838.156 507.651C842.295 521.043 845.595 535.328 850.724 548.343C853.662 555.799 857.489 562.886 861.083 570.038L879.262 606.376C882.051 612.127 885.069 617.851 887.324 623.836L851.703 623.358L868.128 711.065L879.118 774.435L883.117 797.707C883.329 799.044 884.19 802.22 883.95 803.471C883.876 803.855 883.613 804.176 883.444 804.529C879.404 801.214 874.873 798.268 870.614 795.226C865.88 791.844 861.082 788.177 855.939 785.452C853.049 784.066 850.091 781.62 847.37 779.827L824.277 764.18L766.475 724.977L729.798 700.626L705.016 683.528Z"/>
	<path fill="#2D1B1A" d="M729.798 700.626L768.586 623.498L814.575 623.551L855.939 785.452C853.049 784.066 850.091 781.62 847.37 779.827L824.277 764.18L766.475 724.977L729.798 700.626Z"/>
</svg>
