<?xml version="1.0" encoding="utf-8" ?>
<svg xmlns="http://www.w3.org/2000/svg" xmlns:xlink="http://www.w3.org/1999/xlink" width="1024" height="1024">
	<path fill="#1E3260" d="M-0 -0L1024 0L1024 1024L-0 1024L0 -0Z"/>
	<path fill="#59D6EA" d="M256.544 332.09C259.492 329.498 263.055 327.537 266.368 325.437L283.289 314.691L344.928 275.439L511.994 169.179L702.121 289.349L747.663 318.325C751.204 320.573 765.959 328.589 767.395 331.374L767.44 331.976L512.009 492.013C508.181 490.319 504.172 486.747 500.595 484.417L474.745 468.238L334.502 380.904L267.608 339.365C264.375 337.287 259.017 334.915 256.544 332.09Z"/>
	<path fill="#2C97B1" d="M256.544 332.09C259.017 334.915 264.375 337.287 267.608 339.365L334.502 380.904L474.745 468.238L500.595 484.417C504.172 486.747 508.181 490.319 512.009 492.013L512.451 855.896C510.906 855.491 509.168 853.936 507.814 853.023L495.539 844.765L439.644 809.228L314.303 730.729L282.413 710.423C273.801 705.085 264.337 700.102 256.35 693.896C255.905 691.303 256.124 688.523 256.12 685.894L256.114 671.415L256.138 618.936L256.043 431.64L256.042 360.573L256.064 340.949C256.072 338.177 255.621 334.71 256.544 332.09Z"/>
	<path fill="#19698A" d="M512.009 492.013L767.44 331.976L767.253 398.753L767.245 556.226L767.36 650.188L767.472 679.596C767.491 684.346 767.961 689.601 767.38 694.275C752.497 705.004 736.285 714.171 720.863 724.124L589.141 807.515L531.515 844.333L518.564 852.359C516.63 853.556 514.624 855.228 512.451 855.896L512.009 492.013Z"/>
</svg>
