<?xml version="1.0" encoding="utf-8" ?>
<svg xmlns="http://www.w3.org/2000/svg" xmlns:xlink="http://www.w3.org/1999/xlink" width="1024" height="1024">
	<path fill="#1A3F7F" d="M-0 -0L1024 0L1024 1024L-0 1024L0 -0Z"/>
	<path fill="#F45316" d="M966.515 72.7145L966.344 75C965.294 76.6094 961.944 76.1727 960.032 76.3376C928.469 79.0592 896.769 88.1855 866.996 98.6646L841.287 109.046C835.074 111.679 828.686 114.131 822.662 117.179C758.76 149.505 705.813 202.179 668.189 262.682C646.796 297.085 630.095 335.204 617.458 373.62L586.111 483.297L573.966 519.033C565.975 541.617 557.355 564.202 546.989 585.814C535.472 609.826 523.292 633.82 509.33 656.512C433.516 779.727 318.84 879.018 185.307 935.039C159.154 946.011 132.675 955.63 105.453 963.592L77.7181 971.114C72.8391 972.396 67.7813 973.395 63.0348 975.097L62.4809 975.302L60.7755 945.899L76.6106 941.953C111.252 932.645 145.609 921.089 178.472 906.683C283.97 860.438 378.492 785.751 447.763 693.71C470.616 663.344 490.983 630.076 508.258 596.233C523.105 567.148 535.368 536.349 546.158 505.561C560.771 463.864 570.601 420.853 583.383 378.614C596.426 335.518 613.472 293.523 636.058 254.5C671.104 193.946 720.4 141.132 780.398 104.75C815.001 83.7673 852.756 68.4345 891.813 58.0733C909.096 53.4883 926.374 50.7676 943.964 47.7847C948.035 47.0943 963.077 43.9746 965.75 45.5277L965.902 50.5342L966.153 65.4441C966.194 67.7151 965.934 70.5341 966.515 72.7145Z"/>
	<path fill="#CD0625" d="M966.515 72.7145L950.766 74.0498C919.119 78.6896 886.806 86.9152 856.952 98.4704C838.972 105.43 821.832 114.035 805.065 123.489C790.455 131.727 776.047 140.714 762.801 151.029C747.084 163.268 731.772 177.251 718.12 191.762L710.44 200.655C701.858 210.13 692.936 219.687 685.322 229.95L685 229.5L685.625 228.625C686.299 227.329 685.608 228.111 686.648 227.07L687.25 226.5L687.255 225.75L688.75 224.5L688.755 223.75L690.75 222C691.238 220.307 693.457 218.714 694.75 217.5L694.755 216.75L698.75 213L698.755 212.25L701.25 210C701.727 208.348 703.54 207.479 704.5 206C705.91 203.83 708.124 202.625 709.625 200.625C710.317 199.703 710.456 199.132 711.392 198.281L712.5 197.25C713.358 196.042 713.604 195.524 714.75 194.5L714.755 193.75L715.75 193C715.756 192.102 715.676 192.428 715.962 191.636C716.453 190.277 716.504 189.071 716.883 187.777C717.239 186.563 718.433 185.583 718.866 184.385C719.178 183.521 719.098 182.928 719.727 182.208L720.09 181.862C720.154 181.055 720.216 180.538 720.589 179.802L720.97 179.096C721.958 176.661 723.694 176.064 724.991 174.005C726.145 172.174 728.578 169.205 730.475 168.136C731.487 167.565 732.026 167.404 732.935 166.567L733.259 166.264C733.779 166.392 734.039 166.604 734.501 166.326L735.838 165.291C737.401 164.45 737.995 164.11 739.25 162.755C739.506 161.647 739.802 161.369 739.308 160.304L737.241 161.736L736.392 161.457L737.253 158.517L736.428 157.488L737.195 155.329C736.911 154.166 736.649 153.312 736.953 152.117C737.201 151.143 737.251 151.581 737.105 150.575L736.98 150C738.067 147.586 739.166 145.125 739.349 142.457L739.37 142.031L740.467 141.203C740.58 140.816 740.7 140.337 740.904 139.992C741.557 138.886 742.123 138.679 742.195 137.298L729.788 147.435C726.81 149.632 723.897 152.636 721.406 155.386C720.118 156.808 718.974 158.614 717.378 159.68C714.687 161.478 712.384 164.596 710.012 166.835C708.525 168.238 706.64 169.369 705.361 170.956C702.193 174.886 698.417 177.878 694.877 181.413C693.269 183.019 690.666 186.487 688.55 187.12C692.008 182.219 697.679 177.607 701.947 173.321L729.199 146.604C739.904 137.088 751.484 128.558 763.06 120.158C769.244 115.67 775.209 110.902 781.934 107.21C797.006 98.9344 812.631 90.7388 828.355 83.8185L846.315 76.75C854.831 73.1209 863.898 69.3297 872.75 66.6342C893.622 60.2789 915.111 55.3473 936.689 52.079C943.896 50.9876 951.013 49.9206 958.32 50.0282C960.239 50.0564 962.545 49.8639 964.353 50.4379L964.946 50.6554L965.902 50.5342L966.153 65.4441C966.194 67.7151 965.934 70.5341 966.515 72.7145Z"/>
</svg>
