<?xml version="1.0" encoding="utf-8" ?>
<svg xmlns="http://www.w3.org/2000/svg" xmlns:xlink="http://www.w3.org/1999/xlink" width="1024" height="1024">
	<path fill="#282469" d="M-0 -0L1024 0L1024 1024L-0 1024L0 -0Z"/>
	<path fill="#FCD255" d="M511.965 204.976C486.38 205.006 460.676 202.535 435.462 198.31C413.497 194.629 392.415 189.888 371.54 181.941C358.775 177.081 345.814 171.177 335.045 162.637C327.043 156.292 319.326 147.466 318.623 136.75C318.07 128.324 323.044 120.116 328.681 114.283C339.521 103.064 354.487 95.9237 368.847 90.3119C414.279 72.5574 463.549 67.6382 511.93 66.7527L511.965 204.976Z"/>
	<path fill="#F29C17" d="M511.93 66.7527C542.457 67.1956 572.248 69.369 602.326 74.8454C624.542 78.8905 646.77 84.7051 667.358 94.1061C678.569 99.2252 689.118 104.858 697.75 113.808C703.931 120.216 708.286 127.579 708.037 136.703C707.99 138.41 707.774 140.023 707.409 141.694C700.588 159.581 682.764 170.229 665.996 177.687C644.613 187.198 621.951 192.895 599 197.09C570.432 202.313 541.021 205.079 511.965 204.976L511.93 66.7527Z"/>
	<path fill="#F29C17" d="M512.15 957.563C462.642 957.64 409.825 951.287 363.67 932.712C349.401 926.969 334.828 919.816 323.485 909.23C317.03 903.206 309.463 894.465 308.528 885.282C307.885 878.956 308.447 871.961 308.456 865.579L308.477 824.266L308.496 690.258L308.43 345.783L308.468 224.209L308.188 156.891C311.061 162.486 313.356 167.042 317.738 171.716C326.938 181.53 339.474 188.718 351.525 194.418C401.03 217.83 457.705 222.573 511.687 224.004C512.702 229.037 511.978 235.386 511.964 240.555L511.997 274.021L512.051 416.469L512.282 815.404L512.15 957.563Z"/>
	<path fill="#E36C18" d="M707.409 141.694C710.288 142.992 711.644 145.958 712.685 148.835C713.705 151.65 713.653 157.391 715.148 159.361C716.408 165.257 715.63 172.36 715.622 178.431L715.57 213.456L715.465 352.418L715.177 711.884L715.196 825.416L715.021 881.352C714.853 887.206 712.555 893.003 709.443 897.915C704.34 905.971 695.881 912.791 688 917.975C665.262 932.932 637.495 941.946 611.008 947.619C578.874 954.5 545.015 957.517 512.15 957.563L512.282 815.404L512.051 416.469L511.997 274.021L511.964 240.555C511.978 235.386 512.702 229.037 511.687 224.004L512.039 223.876L511.965 204.976C541.021 205.079 570.432 202.313 599 197.09C621.951 192.895 644.613 187.198 665.996 177.687C682.764 170.229 700.588 159.581 707.409 141.694Z"/>
	<path fill="#190B4A" d="M707.409 141.694C710.288 142.992 711.644 145.958 712.685 148.835C713.705 151.65 713.653 157.391 715.148 159.361C707.78 177.98 686.743 189.162 669.347 196.732C629.228 214.191 584.212 220.007 540.898 222.769C531.562 223.364 521.365 224.542 512.039 223.876L511.965 204.976C541.021 205.079 570.432 202.313 599 197.09C621.951 192.895 644.613 187.198 665.996 177.687C682.764 170.229 700.588 159.581 707.409 141.694Z"/>
</svg>
