<?xml version="1.0" encoding="utf-8" ?>
<svg xmlns="http://www.w3.org/2000/svg" xmlns:xlink="http://www.w3.org/1999/xlink" width="1024" height="1024">
	<path fill="#6ABBC1" d="M1023.5 1024L-0 1024L0 -0L1023.5 0C1024.98 3.26715 1024.04 10.539 1024.03 14.4145L1024.04 51.385L1024.05 175.891L1024.05 846.013L1024.04 981.31L1024.03 1011.98C1024.03 1015.32 1024.75 1020.44 1023.75 1023.45L1023.5 1024Z"/>
	<path fill="#FEFEFE" d="M220.988 411.574L256.887 411.534L256.979 828.318L767.561 828.052L767.542 412.24C770.079 411.387 774.148 411.974 776.947 411.978L802.198 412.059L802.31 413.5L802.332 442.76L802.109 508.243L802.303 676.218L802.323 790.846L802.399 824.709C802.427 830.683 802.891 836.967 802.331 842.892C801.833 848.169 799.786 852.383 796.207 856.22C791.711 861.04 785.947 864.321 779.25 864.468L739.08 864.499L660.699 864.517L426.737 864.5L299.219 864.42L262.86 864.233C256.833 864.194 250.347 864.612 244.372 863.925C238.639 863.265 233.527 860.674 229.415 856.652C225.18 852.511 222.226 846.722 221.57 840.805C221.074 836.324 221.405 831.514 221.396 827L221.335 800.15L221.419 707.412L220.988 411.574Z"/>
	<path fill="#E35743" d="M664.646 207.392L664.581 189.585C664.573 180.897 663.59 171.458 669.823 164.468C673.688 160.133 679.176 157.547 685 157.334C690.949 157.116 696.882 159.088 701.105 163.394C703.698 166.038 705.405 169.051 706.337 172.626C707.363 176.558 707.062 180.892 707.087 184.934L706.958 206.967L761.462 207.417C767.558 207.435 775.572 206.517 781.498 207.806C786.367 208.866 791.849 212.42 795.214 216.079C797.857 218.952 799.694 222.351 801.039 226L801.332 226.782C803.081 231.88 802.283 239.237 802.324 244.679L802.425 278.124L802.441 352.426L802.184 411.539L256.887 411.534L220.988 411.574L220.89 352.044L221.006 268.867L220.995 245.421C220.998 241.189 220.647 236.62 221.297 232.453L221.416 231.75C222.437 225.47 225.439 220.403 229.893 215.927C233.553 212.249 238.685 209.291 243.748 208.119C247.194 207.322 250.65 207.468 254.157 207.454L269.223 207.409L318.282 207.363L318.153 204.444L318.091 188.582C318.103 179.631 317.147 170.64 324.073 163.75C328.141 159.704 333.908 157.519 339.611 157.473C345.884 157.422 350.741 159.185 355.169 163.755C357.637 166.301 359.643 169.732 360.46 173.191C361.348 176.953 360.985 181.193 361.004 185.051L361.043 207.161L490.608 207.381C490.124 203.821 490.566 199.567 490.567 195.943C490.57 187.677 489.086 175.553 493.103 168.087C495.626 163.396 500.44 159.931 505.512 158.53L506.25 158.333C511.041 157.017 516.627 157.11 521.062 159.575L521.75 159.975C523.481 160.965 524.906 162.03 526.314 163.435C528.706 165.823 530.572 168.774 531.592 172.012C532.939 176.295 532.706 181.047 532.792 185.497L532.936 207.015L664.646 207.392Z"/>
	<path fill="#3A7485" d="M490.608 207.381C490.124 203.821 490.566 199.567 490.567 195.943C490.57 187.677 489.086 175.553 493.103 168.087C495.626 163.396 500.44 159.931 505.512 158.53L506.25 158.333C511.041 157.017 516.627 157.11 521.062 159.575L521.75 159.975C523.481 160.965 524.906 162.03 526.314 163.435C528.706 165.823 530.572 168.774 531.592 172.012C532.939 176.295 532.706 181.047 532.792 185.497L532.936 207.015L532.984 233.501C532.987 238.712 533.412 244.302 532.42 249.421C531.703 253.126 529.975 256.633 527.346 259.346C523.25 263.575 517.705 265.63 511.891 265.586C506.41 265.545 500.736 263.187 496.889 259.263C494.034 256.351 492.214 253.052 491.282 249.076C490.188 244.405 490.68 238.713 490.664 233.922L490.608 207.381Z"/>
	<path fill="#3A7485" d="M664.646 207.392L664.581 189.585C664.573 180.897 663.59 171.458 669.823 164.468C673.688 160.133 679.176 157.547 685 157.334C690.949 157.116 696.882 159.088 701.105 163.394C703.698 166.038 705.405 169.051 706.337 172.626C707.363 176.558 707.062 180.892 707.087 184.934L706.958 206.967L706.951 234.936C706.97 239.505 707.443 244.607 706.585 249.106C705.833 253.045 703.805 256.948 700.882 259.711C696.732 263.634 690.795 265.755 685.108 265.456C679.086 265.14 672.995 262.47 669.124 257.75C667.109 255.293 665.389 251.982 664.791 248.844C664.026 244.835 664.561 239.884 664.569 235.778L664.646 207.392Z"/>
	<path fill="#3A7485" d="M318.282 207.363L318.153 204.444L318.091 188.582C318.103 179.631 317.147 170.64 324.073 163.75C328.141 159.704 333.908 157.519 339.611 157.473C345.884 157.422 350.741 159.185 355.169 163.755C357.637 166.301 359.643 169.732 360.46 173.191C361.348 176.953 360.985 181.193 361.004 185.051L361.043 207.161L361.049 234.443C361.039 239.143 361.576 244.665 360.486 249.25C359.535 253.247 357.597 256.751 354.698 259.653C350.603 263.754 345.072 266.013 339.25 265.828C333.243 265.638 327.241 262.989 323.233 258.489C321.143 256.142 319.829 253.511 318.945 250.5L318.771 249.92C317.849 246.568 318.375 241.825 318.375 238.302C318.375 228.09 318.891 217.537 318.282 207.363Z"/>
	<path fill="#F99838" d="M220.89 352.044L802.441 352.426L802.184 411.539L256.887 411.534L220.988 411.574L220.89 352.044Z"/>
	<path fill="#F9DFAC" d="M256.887 411.534L802.184 411.539L802.198 412.059L776.947 411.978C774.148 411.974 770.079 411.387 767.542 412.24L767.561 828.052L256.979 828.318L256.887 411.534Z"/>
	<path fill="#F6AF99" d="M540.54 684.21L591.132 684.409L591.143 718.988L540.512 718.988L540.54 684.21Z"/>
	<path fill="#F6AF99" d="M564.976 590.75L591.417 590.56L591.387 625.28L567.75 625.137L540.396 625.101C540.422 620.108 539.587 593.065 540.654 590.793L564.976 590.75Z"/>
	<path fill="#F6AF99" d="M434.022 684.433L485.146 684.464L485.157 718.975L434.047 718.898L434.022 684.433Z"/>
	<path fill="#F6AF99" d="M434.013 590.575L485.435 590.506L485.367 625.253L434.215 625.106C433.34 623.258 433.947 618.793 433.952 616.52L434.013 590.575Z"/>
	<path fill="#F6AF99" d="M326.015 684.513L378.427 684.495L378.487 719.016L326.127 718.981L326.015 684.513Z"/>
	<path fill="#F6AF99" d="M326.022 590.585L378.537 590.499L378.523 625.068L326.074 625.041L326.022 590.585Z"/>
	<path fill="#F6AF99" d="M540.369 494.979L591.05 494.909L591.031 532.032L540.468 532.026L540.369 494.979Z"/>
	<path fill="#F6AF99" d="M700.15 590.25L700.945 591L701.01 625.115L647.25 625.066C646.4 624.721 646.832 624.968 646 624.25L645.994 590.549L700.15 590.25Z"/>
	<path fill="#F6AF99" d="M461.478 495.245L485.045 495.156L485.03 533.067L459.125 533.046L433.924 533.066L433.912 495.353L461.478 495.245Z"/>
	<path fill="#F6AF99" d="M646.072 495.224L700.968 495.052L700.61 531.558L646.049 531.721L646.072 495.224Z"/>
</svg>
