<?xml version="1.0" encoding="utf-8" ?>
<svg xmlns="http://www.w3.org/2000/svg" xmlns:xlink="http://www.w3.org/1999/xlink" width="1024" height="1024">
	<path fill="#DF6718" d="M-0 -0L1024 0L1024 1024L-0 1024L0 -0Z"/>
	<path d="M487.417 51.2138L491.58 51.082C534.156 50.1331 575.704 67.6939 606.219 97.0385C635.993 125.672 654.374 164.354 657.371 205.649C657.895 212.867 657.611 220.284 657.623 227.521L657.751 264.183L658.025 374.237L769.955 264.14L806.181 361.58C824.345 416.549 838.798 472.043 848.938 529.042C858.895 585.012 864.706 641.503 861.762 698.407L859.311 732.116C858.674 738.391 858.132 744.919 856.717 751.06L855.33 723.984C846.097 613.613 817.114 503.016 764.205 405.304C755.571 389.358 747.085 372.622 736.624 357.801C733.496 359.986 730.694 362.866 727.906 365.469L712.778 380.042L667.432 423.861C687.191 452.917 700.507 483.943 708.213 518.25C715.149 549.129 716.22 580.669 718.474 612.093L726.134 683.012C732.445 726.537 742.077 772.315 766.253 809.751C779.045 827.377 795.036 843.276 813.301 855.249L813.14 855.679C799.536 867.521 785.42 879.324 770.584 889.602C694.326 942.431 601.65 968.966 509.422 971.728C388.874 975.339 265.098 939.505 176.065 855.707C198.9 842.049 215.344 821.567 228.141 798.581C256.229 748.127 264.638 689.261 269.881 632.551L274.357 572.153C279.129 520.434 290.073 464.084 323.409 422.639C284.129 384.479 253.277 341.365 231.069 291.229C261.63 323.294 294.562 353.449 331.025 378.77L330.663 276.148L330.638 233.698C330.645 222.847 330.466 212.068 331.516 201.25C334.833 167.047 348.242 134.147 370.911 108.214C393.103 82.8257 421.582 64.4229 454.419 56.0432C465.313 53.2631 476.229 51.9268 487.417 51.2138Z"/>
	<path fill="#FEFEFE" d="M483.827 138.699L483.921 138.665C510.291 135.818 538.344 143.933 560.375 158.215C586.583 175.205 604.314 201.424 610.83 231.897C618.858 269.44 605.681 311.005 574.475 334.231C570.526 337.17 566.29 339.694 561.891 341.898C561.235 342.227 556.617 344.074 556.42 344.4C555.891 345.273 556.431 353.783 556.432 355.272L556.373 405.778C556.339 413.088 557.127 421.71 555.836 428.893C554.229 437.838 549.906 446.814 544.976 454.38C534.831 469.948 518.647 480.928 500.563 484.74L496.269 388.376L495.321 377.464L488.395 484.629C476.354 481.865 464.375 474.491 455.512 466.035C446.3 457.246 437.443 443.726 434.75 431.121C432.928 422.59 434.026 412.187 434.01 403.396L433.8 344.33C426.63 341.301 420.071 337.37 413.977 332.517C392.984 315.798 380.162 292.713 377.186 266.063C373.931 236.908 382.221 206.536 400.757 183.603C421.571 157.852 450.97 142.146 483.827 138.699Z"/>
	<path d="M498.026 295.75C498.748 295.888 499.387 295.998 500.026 296.386C501.968 297.562 503.666 300.222 504.975 302.041C508.988 307.619 513.193 314.104 514.306 321.026C514.967 325.137 514.131 327.116 511.849 330.409C511.039 330.978 510.282 331.491 509.356 331.858C507.366 332.646 505.403 332.784 503.465 331.762C501.189 330.562 500.277 328.018 499.577 325.686C497.477 318.69 497.489 310.822 497.43 303.571C497.411 301.232 496.93 297.851 498.026 295.75Z"/>
	<path d="M489.724 295.75L490.923 296.018C491.872 298.253 491.523 301.055 491.517 303.452C491.499 310.671 491.7 319.319 489.242 326.175C488.356 328.649 486.939 330.729 484.459 331.781C481.944 332.849 480.524 332.232 478.077 331.322C476.813 330.165 475.638 328.848 474.989 327.235C473.086 322.504 475.445 316.613 477.432 312.281C479.666 307.411 484.565 297.648 489.724 295.75Z"/>
	<path d="M564.205 223.317C570.203 227.314 575.225 232.117 578.022 238.896C580.969 246.036 580.802 255.009 577.765 262.125C574.402 270.005 567.782 277.127 559.791 280.387C551.083 283.94 541.613 283.153 533.07 279.629C529.279 277.58 525.577 275.077 522.713 271.824C514.932 262.984 512.758 253.599 513.409 242.055C531.888 239.869 548.597 233.243 564.205 223.317Z"/>
	<path d="M424.925 222.477C440.618 232.977 456.792 239.368 475.51 242.033C475.672 246.132 475.95 250.749 474.982 254.75C472.388 265.478 466.358 273.282 457.054 278.971C450.594 282.364 443.601 283.51 436.373 282.401C428.337 281.168 420.14 276.43 415.391 269.798C410.276 262.655 407.881 253.47 409.404 244.766C411.195 234.526 416.585 228.274 424.925 222.477Z"/>
</svg>
