<?xml version="1.0" encoding="utf-8" ?>
<svg xmlns="http://www.w3.org/2000/svg" xmlns:xlink="http://www.w3.org/1999/xlink" width="1024" height="1024">
	<path fill="#F3C15C" d="M-0 -0L1024 0L1024 1024L-0 1024L0 -0Z"/>
	<path fill="#405046" d="M511.675 98.25C513.619 97.8006 515.224 99.5161 516.789 100.624C539.192 116.49 562.18 130.634 586.476 143.444C619.57 160.894 654.673 174.486 690.5 185.107C739.054 199.501 789.916 208.236 840.605 209.15L840.931 362.309L840.954 423.902L839.611 481.379C837.323 513.366 831.592 545.738 822.54 576.5C804.125 639.079 773.861 697.352 733.432 748.551C674.499 823.182 596.434 881.334 513.25 926.435C512.821 926.505 512.446 926.593 512 926.535C510.436 926.335 508.248 924.718 506.807 923.913L490.916 914.721C435.009 881.908 381.869 843.876 335.831 798.044C301.795 764.161 271.005 726.254 246.755 684.73C213.484 627.759 191.936 562.763 185.401 497.089C183.571 478.691 183.568 460.417 183.545 441.963L183.48 385.758L183.579 208.406C211.595 209.191 240.086 206.441 267.716 201.947C326.901 192.319 383.524 172.823 436.592 144.943C462.625 131.267 487.698 115.24 511.675 98.25Z"/>
	<path fill="#F3C15C" d="M512.494 168.991C518.655 174.044 525.709 177.975 532.59 181.957L557.324 195.69C607.742 221.676 660.33 241.007 715.75 253.227C737.745 258.077 760.15 262.043 782.592 264.065L782.513 391.2L782.546 438.998L782.327 468.081C779.865 518.454 768.08 568.719 748.432 615.135C709.926 706.108 636.803 778.52 556.102 833.106L526.033 852.874C521.688 855.644 517.01 859.185 512.25 861.108L510.75 860.278C506.134 856.914 501.001 854.087 496.116 851.122L474.531 837.375C439.733 813.822 407.034 788.336 377.118 758.75C309.717 692.091 257.586 606.967 243.958 511.91C238.707 475.277 240.237 437.921 240.246 401.001L239.77 263.589C255.856 263.075 272.351 260.644 288.191 257.928C332.708 250.296 375.114 237.231 416.714 219.783C449.898 205.866 482.616 189.096 512.494 168.991Z"/>
	<path fill="#E76846" d="M298.438 395.327L298.509 309.963C310.411 308.678 322.248 306.107 333.918 303.483C380.491 293.008 423.528 275.201 466.871 255.681C463.324 259.331 458.821 262.384 454.859 265.599L429.968 285.906L343.468 357.25L313.283 382.551C308.375 386.704 302.882 390.721 298.438 395.327Z"/>
	<path fill="#E76846" d="M717.709 534.477C701.419 609.14 656.272 678.178 600.527 729.559C574.461 753.584 545.04 774.62 515.219 793.724L512.542 795.318L451.816 753.383L717.709 534.477Z"/>
	<path fill="#EFB67A" d="M466.871 255.681C469.343 252.98 475.367 251.027 478.791 249.228L501.431 236.469L508.898 232.046C509.944 231.407 511.225 230.358 512.423 230.178C513.024 230.087 513.426 230.524 513.917 230.814C530.382 240.536 547.201 250.28 564.442 258.56L585.863 268.321C589.238 269.803 592.79 271.011 596.033 272.755L569.732 294.433L540.177 319.25L441.487 402.25L409.538 428.603L328.534 495.693L310.963 510.216C308.223 512.408 305.335 515.04 302.266 516.743C296.525 476.523 299.059 435.815 298.438 395.327C302.882 390.721 308.375 386.704 313.283 382.551L343.468 357.25L429.968 285.906L454.859 265.599C458.821 262.384 463.324 259.331 466.871 255.681Z"/>
	<path fill="#EFB67A" d="M384.757 689.193C388.441 686.932 391.712 683.561 395.005 680.75L410.951 667.407L476.853 612.046L645.505 469.628L729.885 398.4C729.995 444.318 727.613 489.516 717.709 534.477L451.816 753.383C435.376 741.999 420.642 727.021 406.551 712.912C399.069 705.42 390.957 697.787 384.757 689.193Z"/>
	<path fill="#E76846" d="M596.033 272.755C622.527 283.462 649.189 293.372 676.943 300.36C683.57 302.028 690.166 303.908 696.898 305.112L332.148 610.77C326.877 600.69 322.721 590.178 318.793 579.518C311.15 558.773 305.738 538.581 302.266 516.743C305.335 515.04 308.223 512.408 310.963 510.216L328.534 495.693L409.538 428.603L441.487 402.25L540.177 319.25L569.732 294.433L596.033 272.755Z"/>
	<path fill="#9B5440" d="M696.898 305.112L729.966 311.732L729.885 398.4L645.505 469.628L476.853 612.046L410.951 667.407L395.005 680.75C391.712 683.561 388.441 686.932 384.757 689.193C364.253 666.048 345.824 638.496 332.148 610.77L696.898 305.112Z"/>
</svg>
