<?xml version="1.0" encoding="utf-8" ?>
<svg xmlns="http://www.w3.org/2000/svg" xmlns:xlink="http://www.w3.org/1999/xlink" width="1024" height="1024">
	<path fill="#15A9B2" d="M-0 -0L1024 0L1024 1024L-0 1024L0 -0Z"/>
	<path fill="#011F38" d="M496.06 102.707C501.436 102.082 507.334 102.318 512.753 102.362C534.024 102.531 554.81 105.643 575.25 111.513C634.292 128.472 681.32 170.141 710.621 223.483C736.403 270.42 749.867 324.615 751.851 378.006C752.753 402.282 750.981 426.249 747.995 450.312C743.818 483.982 736.956 517.413 727.488 550C705.013 627.352 672.061 703.166 627.14 770.231C612.613 791.919 596.649 812.377 579.908 832.375C567.534 847.156 554.69 860.727 540.558 873.834C527.68 885.778 513.69 897.311 498.284 905.83C483.747 914.166 466.836 920.812 450.052 922.392C420.748 925.152 391.393 915.02 368.91 896.207C314.802 850.931 299.445 772.538 309.254 705.457L316.872 666.06C318.861 656.588 320.994 646.769 321.507 637.078C321.999 627.783 321.072 618.666 319.775 609.469C314.278 570.488 300.534 534.149 289.873 496.5C281.018 465.228 275.613 433.944 272.928 401.573C272.029 390.73 272.184 379.61 272.344 368.734C273.331 301.695 291.625 233.316 335.729 181.532C353.42 160.762 375.032 142.729 399.159 129.853C429.286 113.774 462.174 105.447 496.06 102.707Z"/>
	<path fill="#F5B75A" d="M502.223 128.22C521.525 127.403 540.184 130.061 558.985 134.066C598.146 142.406 633.797 165.173 660.03 195.151C668.197 204.484 675.136 214.549 681.853 224.942C692.864 241.978 700.951 261.079 707.587 280.178C722.9 324.254 728.65 372.715 725.322 419.222C723.295 447.548 718.069 475.772 712.088 503.5C706.078 531.365 697.988 558.712 688.747 585.664C660.03 669.417 616.868 750.126 559.06 817.457C539.078 840.73 517.041 863.531 491.153 880.249C476.301 889.285 460.022 895.839 442.547 896.822C418.309 898.186 396.118 886.975 378.574 871.071C354.831 849.547 343.018 818.605 337.144 787.787C331.339 757.328 332.712 725.411 338.396 695.06C342.137 675.082 347.711 654.484 348.38 634.121C348.553 628.827 347.989 623.273 347.484 618C342.857 569.667 325.076 524.973 312.414 478.535C305.037 451.481 299.937 422.543 298.655 394.5C296.23 341.446 304.123 284.455 328.492 236.848C336.119 221.946 345.843 206.985 357.227 194.651C371.816 178.845 388.84 164.63 407.583 153.998C436.407 137.648 469.241 129.443 502.223 128.22Z"/>
	<path fill="#011F38" d="M472.512 358.236C495.056 356.224 516.375 362.896 533.75 377.582C549.25 390.683 559.871 410.146 561.417 430.5C563.674 460.235 550.47 486.19 531.389 508.167C516.981 524.762 499.931 538.872 484.893 554.853C441.399 601.074 420.796 654.862 425.447 718.544C425.603 720.686 425.989 722.427 426.75 724.431L427.081 725.33C429.444 731.511 433.918 736.322 440 738.998C445.553 741.442 452.505 741.287 458.038 738.92C464.36 736.216 469.333 730.271 471.713 723.895C474.633 716.076 472.411 705.489 472.66 697.181C472.852 690.758 473.569 684.262 474.679 677.938L483.758 678.527L498.199 679.856C497.512 701.988 503.303 724.186 490.258 743.994C483.17 754.755 471.9 763.38 459.102 765.948L458.25 766.114L452.815 766.982C440.177 768.264 427.46 763.994 417.75 755.859C406.215 746.195 399.998 732.808 398.858 717.977C395.403 673.025 405.327 627.543 427.345 588.203C437.332 570.358 450.231 553.559 464.083 538.561C473.945 527.881 485.057 518.65 495.397 508.495C500.677 503.308 505.569 497.685 510.351 492.041C525.569 474.08 538.8 455.206 536.596 430.385C535.251 415.247 526.4 402.249 514.919 392.792C501.47 381.714 482.396 375.375 464.922 377.198C450.062 378.748 435.111 383.978 423.461 393.532C418.676 397.457 414.583 402.178 410.701 406.973C412.397 402.646 414.266 398.702 416.725 394.748C425.712 380.297 439.654 368.982 455.525 362.919C461.029 360.817 466.788 359.572 472.512 358.236Z"/>
	<path fill="#011F38" d="M384.774 469.135L394.121 494.133C388.423 488.175 384.489 480.67 381.091 473.216C376.784 463.769 373.931 454.036 371.409 444C365.463 420.347 362.992 395.061 363.531 370.683C364.569 323.671 378.667 271.452 413.539 238.053C441.673 211.108 478.027 195.653 517.172 196.551C559.142 197.514 602.213 218.719 631.005 248.856C663.417 282.783 674.195 326.518 672.945 372.25C671.724 416.953 659.225 464.074 637.115 502.97C621.725 530.045 601.519 554.293 578.91 575.62L544.831 605.294C532.053 615.807 518.793 625.637 508.249 638.567C503.406 644.505 499.659 650.855 496.103 657.622C493.994 656.329 491.946 655.145 489.671 654.152C486.987 653.117 484.553 652.018 482.065 650.567C484.484 644.159 488.295 638.157 491.991 632.418C513.682 598.736 546.055 574.452 573.125 545.417C588.373 529.063 602.358 509.958 613.23 490.433C641.838 439.052 654.028 376.546 637.509 319.25C627.21 283.526 602.406 255.197 570.073 237.476C539.7 220.83 504.96 215.626 471.5 225.531C438.749 235.225 414.085 257.972 397.97 287.619C368.41 342.003 367.58 410.794 384.774 469.135Z"/>
	<path fill="#EB6129" d="M384.774 469.135C367.58 410.794 368.41 342.003 397.97 287.619C414.085 257.972 438.749 235.225 471.5 225.531C504.96 215.626 539.7 220.83 570.073 237.476C602.406 255.197 627.21 283.526 637.509 319.25C654.028 376.546 641.838 439.052 613.23 490.433C602.358 509.958 588.373 529.063 573.125 545.417C546.055 574.452 513.682 598.736 491.991 632.418C488.295 638.157 484.484 644.159 482.065 650.567C484.553 652.018 486.987 653.117 489.671 654.152C486.32 661.4 484.579 670.598 483.758 678.527L474.679 677.938C473.569 684.262 472.852 690.758 472.66 697.181C472.411 705.489 474.633 716.076 471.713 723.895C469.333 730.271 464.36 736.216 458.038 738.92C452.505 741.287 445.553 741.442 440 738.998C433.918 736.322 429.444 731.511 427.081 725.33L426.75 724.431C425.989 722.427 425.603 720.686 425.447 718.544C420.796 654.862 441.399 601.074 484.893 554.853C499.931 538.872 516.981 524.762 531.389 508.167C550.47 486.19 563.674 460.235 561.417 430.5C559.871 410.146 549.25 390.683 533.75 377.582C516.375 362.896 495.056 356.224 472.512 358.236C470.739 357.039 468.437 356.889 466.353 356.648C460.304 355.949 454.013 355.994 448.025 357.165C429.569 360.774 413.2 372.135 402.721 387.679C390.405 405.948 384.013 426.604 383.899 448.601C383.875 453.133 383.776 457.898 384.573 462.37C385.044 465.011 385.502 466.444 384.774 469.135Z"/>
</svg>
