<?xml version="1.0" encoding="utf-8" ?>
<svg xmlns="http://www.w3.org/2000/svg" xmlns:xlink="http://www.w3.org/1999/xlink" width="1024" height="1024">
	<path fill="#FDD05C" d="M-0 -0L1024 0L1024 1024L-0 1024L0 -0Z"/>
	<path fill="#9CC036" d="M498.38 439.627L511.684 454.718L524.555 439.755L525.671 582.4C516.738 581.07 506.417 581.742 497.405 582.429L498.38 439.627Z"/>
	<path fill="#499F2C" d="M261.781 355.354C261.556 354.218 261.382 353.772 261.75 352.644C264.422 352.476 267.115 353.107 269.75 353.509L286.346 356.487C332.622 366.23 375.015 387.669 410.442 418.915C423.336 430.287 434.64 443.007 445.099 456.626C466.846 484.943 483.165 515.975 492.015 550.697C488.274 548.429 485.387 543.466 482.505 540.153L469.187 525.46C458.853 514.597 447.931 504.77 435.809 495.941C415.76 481.339 393.144 469.061 371.433 457.123C350.05 445.365 328.827 433.653 310.539 417.282C300.927 408.676 292.321 399.368 284.708 388.942C278.866 380.941 272.991 372.791 267.988 364.235C266.83 362.254 263.993 355.429 262.27 354.33L261.781 355.354Z"/>
	<path fill="#499F2C" d="M531.04 551.066C533.536 538.184 538.563 525.156 544.012 513.25C554.193 491.004 566.738 470.763 582.199 451.79C613.95 412.828 655.968 381.968 704.021 366.254C722.265 360.288 740.772 356.883 759.825 354.929L759.095 362.323L758.454 362.979C756.839 364.719 755.969 367.465 754.924 369.612C753.436 372.669 751.75 375.623 749.982 378.527C742.138 391.413 732.641 402.558 721.738 412.938C710.493 423.642 696.689 432.906 683.5 440.997C649.347 461.948 611.452 477.476 579.531 501.908C569.702 509.431 560.349 518.774 551.93 527.871L538.864 542.94C536.583 545.608 534.058 549.255 531.04 551.066Z"/>
	<path fill="#108B27" d="M531.04 551.066C534.058 549.255 536.583 545.608 538.864 542.94L551.93 527.871C560.349 518.774 569.702 509.431 579.531 501.908C611.452 477.476 649.347 461.948 683.5 440.997C696.689 432.906 710.493 423.642 721.738 412.938C732.641 402.558 742.138 391.413 749.982 378.527C751.75 375.623 753.436 372.669 754.924 369.612C755.969 367.465 756.839 364.719 758.454 362.979L759.095 362.323C758.332 373.248 756.089 384.34 753.512 394.968C743.365 436.809 721.302 477.058 688.473 505.416C655.703 533.723 614.252 550.755 571.296 555.146C557.315 556.576 543.009 556.491 528.965 556.417L531.04 551.066Z"/>
	<path fill="#108B27" d="M261.781 355.354L262.27 354.33C263.993 355.429 266.83 362.254 267.988 364.235C272.991 372.791 278.866 380.941 284.708 388.942C292.321 399.368 300.927 408.676 310.539 417.282C328.827 433.653 350.05 445.365 371.433 457.123C393.144 469.061 415.76 481.339 435.809 495.941C447.931 504.77 458.853 514.597 469.187 525.46L482.505 540.153C485.387 543.466 488.274 548.429 492.015 550.697L494.038 556.058C485.69 556.78 476.988 556.406 468.619 556.038C424.207 554.084 379.703 540.734 344.476 512.847C295.821 474.329 269.004 416.137 261.781 355.354Z"/>
	<path fill="#9CC036" d="M444.356 232.666C452.185 194.94 468.937 159.388 490.396 127.525C497.023 117.684 503.881 107.983 512.082 99.3768C524.383 112.797 534.579 128.141 543.761 143.821C559.871 171.332 573.551 201.648 579.312 233.153L578.921 233.239C576.785 234.154 574.769 236 572.97 237.449L562.159 247.054C545.161 263.411 530.577 283.232 521.8 305.262C517.747 315.434 514.914 325.808 511.626 336.21C509.104 325.72 506.729 315.466 502.582 305.461C499.523 298.083 495.409 291.117 491.253 284.313C479.456 265.003 463.615 245.065 444.356 232.666Z"/>
	<path fill="#108B27" d="M444.356 232.666C463.615 245.065 479.456 265.003 491.253 284.313C495.409 291.117 499.523 298.083 502.582 305.461C506.729 315.466 509.104 325.72 511.626 336.21C514.914 325.808 517.747 315.434 521.8 305.262C530.577 283.232 545.161 263.411 562.159 247.054L572.97 237.449C574.769 236 576.785 234.154 578.921 233.239L579.312 233.153C592.512 298.624 575.845 364.224 539.231 419.433L524.555 439.755L511.684 454.718L498.38 439.627C492.151 430.603 485.508 421.678 479.874 412.268C457.368 374.676 442.253 331.161 440.619 287.153C439.938 268.795 441.552 250.786 444.356 232.666Z"/>
	<path fill="#B05C1B" d="M497.405 582.429C506.417 581.742 516.738 581.07 525.671 582.4C535.624 582.599 545.853 584.215 555.62 586.091C607.23 596.005 654.398 623.729 690.141 661.982C698.266 670.679 706.042 680.062 712.724 689.907C713.58 691.168 719.973 701.926 720.807 702.157C721.746 702.418 725.153 701.534 726.255 701.387L742.245 699.692C773.936 697.615 807.524 705.041 834.935 721.209C867.966 740.691 892.75 772.89 901.998 810.241C907.928 834.188 907.921 860.896 900.953 884.629C896.585 899.506 889.648 913.377 881.579 926.572L141.398 926.316L136.366 918.556C117.482 886.049 112.654 847.011 122.271 810.746C132.866 770.792 157.012 738.528 192.788 717.786C225.855 698.614 264.705 693.821 301.487 703.525L327.658 668.445C371.194 619.819 431.526 586.124 497.405 582.429Z"/>
	<path fill="#762F06" d="M276.596 792.178L281.342 792.539C287.187 793.316 291.9 796.658 295.335 801.355C298.391 805.533 300.012 811.123 299.179 816.289L299.052 817C298.626 819.462 297.878 821.824 296.593 823.984C292.985 830.054 286.985 832.933 280.372 834.508C275.843 834.579 271.843 834.369 267.688 832.292C262.667 829.784 259.342 825.759 257.532 820.474L257.29 819.75C256.944 818.738 256.674 817.822 256.553 816.75C255.859 810.589 257 804.451 261.018 799.599C265.029 794.756 270.553 792.837 276.596 792.178Z"/>
	<path fill="#762F06" d="M613.687 724.609C618.419 724.32 624.023 725.346 628.089 727.87C632.384 730.536 635.792 735.172 636.962 740.116L637.104 740.75C638.127 745.116 638.321 749.522 636.828 753.818L636.58 754.5C636.15 755.708 635.725 756.844 635.046 757.941C631.489 763.68 626.247 766.444 619.914 768.07C614.77 768.648 609.921 768.389 605.331 765.729C600.31 762.819 596.454 757.353 595.009 751.783C593.436 745.719 594.681 739.604 598.004 734.359C601.637 728.625 607.245 725.942 613.687 724.609Z"/>
	<path fill="#762F06" d="M406.598 840.1C411.624 839.657 416.443 839.944 421.051 842.182C426.342 844.752 429.992 848.944 431.802 854.556C433.713 860.478 433.147 866.561 430.266 872.062C427.189 877.94 422.299 881.017 416.122 882.908C413.031 883.687 409.255 883.778 406.141 883.006C400.953 881.721 395.327 877.968 392.629 873.232L392.323 872.672C391.214 870.718 390.339 868.882 389.778 866.689C388.329 861.027 388.978 855.262 392.006 850.215C395.445 844.481 400.248 841.659 406.598 840.1Z"/>
	<path fill="#762F06" d="M405.757 724.13C410.946 723.793 415.92 724.884 420.246 727.868C424.766 730.985 428.106 736.043 429.117 741.438C430.255 747.509 428.986 753.654 425.44 758.727C421.63 764.178 415.646 766.81 409.283 767.889C404.585 768.277 399.843 767.016 395.803 764.641C390.714 761.648 387.335 756.775 386.013 751.069C384.666 745.255 385.97 738.684 389.333 733.771C393.308 727.964 399.042 725.377 405.757 724.13Z"/>
	<path fill="#762F06" d="M561.598 820.579C567.134 820.149 572.66 820.659 577.35 823.973C581.804 827.12 585.494 832.133 586.538 837.517L586.672 838.25C587.767 844.03 586.803 849.517 583.61 854.5C580.403 859.504 575.598 862.464 569.887 863.842C564.077 864.843 559.2 864.511 554 861.524C549.08 858.698 545.337 853.388 543.945 847.941C542.497 842.273 543.451 835.514 546.491 830.53C549.927 824.894 555.371 822.11 561.598 820.579Z"/>
	<path fill="#762F06" d="M509.476 645.13C514.39 644.791 519.537 645.71 523.812 648.229C529.29 651.457 532.494 656.447 533.965 662.542C535.316 668.141 533.951 674.158 530.945 679C527.484 684.575 522.018 687.521 515.816 688.959C510.504 689.575 505.706 688.787 501.03 686.085C495.643 682.973 492.34 677.542 490.972 671.593C489.651 665.847 490.949 659.926 494.085 655C497.628 649.433 503.232 646.552 509.476 645.13Z"/>
	<path fill="#762F06" d="M743.015 792.147C748.271 791.928 752.953 792.049 757.749 794.595C763.081 797.424 766.842 801.838 768.487 807.69L768.677 808.394C770.285 814.234 769.509 821.02 766.416 826.25C762.918 832.165 757.542 834.939 751.178 836.689C744.679 837.488 739.181 836.473 733.723 832.694C728.567 829.125 725.146 823.391 724.225 817.223C723.358 811.416 724.515 805.391 728.077 800.654C731.947 795.505 736.751 793.098 743.015 792.147Z"/>
</svg>
