<?xml version="1.0" encoding="utf-8" ?>
<svg xmlns="http://www.w3.org/2000/svg" xmlns:xlink="http://www.w3.org/1999/xlink" width="1024" height="1024">
	<path fill="#C12F31" d="M-0 -0L1024 0L1024 1024L-0 1024L0 -0Z"/>
	<path fill="#529BA7" d="M483.422 908.088L513.86 907.996L513.933 927.75C513.765 928.248 513.515 928.641 513.25 929.091L483.472 929.053L483.422 908.088Z"/>
	<path fill="#529BA7" d="M572.529 908.235C573.894 908.178 574.457 907.929 575.584 908.75L575.596 929.203L547.875 929.088L545 929.001C543.93 927.737 544.359 924.955 544.357 923.261L544.335 908.468L572.529 908.235Z"/>
	<path fill="#529BA7" d="M422.399 908.493L453.922 908.237L453.918 929.063L422.405 929.044L422.399 908.493Z"/>
	<path fill="#461941" d="M760.947 734.699L763.42 734.363C764.239 732.106 763.765 728.486 763.777 725.999L763.905 699.764C763.921 696.18 763.4 691.399 764.188 687.941C764.613 686.073 766.029 684.284 767.75 683.487C769.545 682.656 772.279 683.059 774.018 683.881C775.671 684.663 776.786 686.108 777.322 687.838C778.244 690.823 777.503 696.53 777.495 699.773L777.357 735.034L764.614 734.956C763.295 735.048 762.238 734.932 760.947 734.699Z"/>
	<path fill="#461941" d="M831.52 735.078L831.51 702.934C831.517 698.445 830.983 693.084 831.764 688.697C832.053 687.073 832.726 685.733 833.883 684.555C835.081 683.336 836.5 682.957 838.176 683.01C840.128 683.072 841.861 683.462 843.22 684.94C844.114 685.914 844.757 686.935 844.988 688.25C845.803 692.878 845.291 698.243 845.288 702.974L845.268 735.199C840.843 734.682 835.993 735.077 831.52 735.078Z"/>
	<path fill="#EF9124" d="M413.504 187.729L425.285 187.765L425.324 298.048L413.789 298.046L413.504 187.729Z"/>
	<path fill="#F3B52B" d="M413.504 187.729C407.761 186.263 403.148 184.137 398.896 179.851C393.704 174.618 390.328 167.329 390.389 159.918C390.452 152.239 393.398 145.231 398.878 139.873C404.788 134.092 412.435 131.203 420.681 131.509C428.719 131.807 435.516 135.601 440.834 141.519C445.695 146.928 448.399 154.675 447.92 161.937C447.428 169.386 443.328 176.294 437.763 181.138C433.805 184.583 429.775 185.491 425.285 187.765L413.504 187.729Z"/>
	<path fill="#461941" d="M417.668 150.544C419.625 150.476 421.466 150.655 423.279 151.458C425.642 152.503 427.622 154.463 428.524 156.906C429.278 158.951 429.231 161.708 428.305 163.69C426.836 166.837 424.503 168.006 421.353 169.117C419.588 169.129 417.857 169.148 416.174 168.543C413.636 167.629 411.317 165.649 410.281 163.121C409.327 160.79 409.484 158.522 410.535 156.25C412 153.082 414.57 151.731 417.668 150.544Z"/>
	<path fill="#EF9124" d="M493.145 700L505.928 699.961L505.891 905.435L493.378 905.432L493.145 700Z"/>
	<path fill="#EF9124" d="M551.578 699.88L564.327 699.919L564.234 905.76L551.971 905.672C550.911 903.413 551.667 897.546 551.675 894.762L551.716 862.397L551.578 699.88Z"/>
	<path fill="#EF9124" d="M433.085 700.497L446.281 700.502L446.169 906.09L433.199 905.975L433.085 700.497Z"/>
	<path fill="#F3B52B" d="M801.929 267.626C793.036 265.004 785.993 260.054 781.536 251.75C778.011 245.182 777.282 237.582 779.641 230.5C782.122 223.048 787.64 216.342 794.716 212.836C801.293 209.577 809.536 208.532 816.591 210.829C824.284 213.334 831.364 219.292 834.908 226.593C837.746 232.439 838.154 239.496 836.629 245.75L836.449 246.504C834.574 254.033 829.312 260.557 822.63 264.416C819.729 266.091 816.593 266.999 813.371 267.839C809.482 268.037 805.805 268.018 801.929 267.626Z"/>
	<path fill="#040104" d="M805.559 230.572C807.233 230.405 809.102 230.313 810.75 230.685C812.707 231.128 814.718 233.08 815.657 234.788C816.736 236.752 816.734 239.162 816.036 241.25C815.086 244.088 813.035 245.389 810.497 246.721C809.195 246.898 807.932 247.012 806.625 246.796C804.223 246.4 802.069 244.892 800.75 242.851C799.667 241.177 799.315 238.707 799.824 236.797C800.667 233.628 802.837 232.127 805.559 230.572Z"/>
	<path fill="#EF9124" d="M639.089 123.914C637.945 127.637 637.432 130.907 637.351 134.804L576.211 135.056L561.5 135.072C559.074 135.076 556.21 134.828 553.842 135.388C550.756 136.118 547.631 138.175 545.445 140.457C543.987 141.98 542.903 143.59 542.025 145.5L541.735 146.118C540.79 148.334 540.951 151.009 540.929 153.375L540.913 165.326L540.886 203.795L540.571 298.02L529.558 298.027L529.539 157.202C529.556 147.492 530.702 139.34 537.969 132.233C541.601 128.681 546.515 125.763 551.486 124.628C556.137 123.566 561.007 123.719 565.75 123.716L584.024 123.73L639.089 123.914Z"/>
	<path fill="#EF9124" d="M801.929 267.626C805.805 268.018 809.482 268.037 813.371 267.839L813.18 377.865L813.077 408.219C813.049 414.157 813.509 420.577 812.465 426.414C811.418 432.268 808.184 438.105 803.93 442.25C800.12 445.964 795.364 448.735 790.11 449.777C785.981 450.597 781.627 450.384 777.437 450.39L758.131 450.407L697.526 450.355L697.516 438.518L760.943 438.58L779.25 438.602C782.32 438.607 786.592 439.138 789.387 437.905L790 437.609C792.38 436.488 794.457 435.2 796.355 433.353C798.822 430.952 800.996 427.749 801.575 424.296C802.323 419.843 801.762 414.643 801.739 410.101L801.611 379.75L801.929 267.626Z"/>
	<path fill="#EF9124" d="M610.968 699.843L623.962 699.963L623.848 796.145L623.767 821.148C623.734 825.495 623.215 830.516 623.994 834.76C624.515 837.602 626.637 840.491 628.655 842.516C630.384 844.249 632.428 845.787 634.868 846.332C638.439 847.128 642.626 846.841 646.277 846.838L664.907 846.777L732.524 846.468L732.529 859.657L663.669 859.565L645.476 859.57C641.518 859.57 637.255 859.84 633.347 859.139C627.9 858.162 622.737 855.287 618.848 851.374C614.987 847.488 612.508 842.869 611.606 837.44C610.692 831.937 611.047 826.162 611.041 820.594L611.029 793.978L610.968 699.843Z"/>
	<path fill="#F3B52B" d="M639.089 123.914C642.358 113.018 649.635 103.772 659.684 98.3201C669.035 93.247 680.337 92.244 690.514 95.3211C701.46 98.6307 710.47 105.996 715.82 116.118C720.767 125.479 721.914 137.144 718.741 147.25C715.442 157.757 707.609 167.051 697.741 171.986C688.282 176.717 675.753 177.732 665.757 174.241C654.15 170.187 645.684 161.045 640.103 150.35C639.643 146.563 638.114 143.026 637.716 139.116L637.351 134.804C637.432 130.907 637.945 127.637 639.089 123.914Z"/>
	<path fill="#529BA7" d="M206.669 561.521L220.49 561.508L220.478 886.495L374.112 886.669L374.045 700.122C378.568 700.134 384.471 700.816 388.838 700.067L389.028 901.971L206.969 901.956L206.669 561.521Z"/>
	<path fill="#C12F31" d="M540.571 298.02L540.886 203.795L540.913 165.326L540.929 153.375C540.951 151.009 540.79 148.334 541.735 146.118L542.025 145.5C542.903 143.59 543.987 141.98 545.445 140.457C547.631 138.175 550.756 136.118 553.842 135.388C556.21 134.828 559.074 135.076 561.5 135.072L576.211 135.056L637.351 134.804L637.716 139.116C638.114 143.026 639.643 146.563 640.103 150.35L624.618 158.691C619.455 161.213 613.225 163.297 608.627 166.673C606.31 168.374 604.538 170.477 603.694 173.262C602.409 177.499 603.008 182.945 603.002 187.36L602.976 211.473L602.946 298.044L591.867 297.995L540.571 298.02Z"/>
	<path fill="#EF9124" d="M637.716 139.116C638.114 143.026 639.643 146.563 640.103 150.35L624.618 158.691C619.455 161.213 613.225 163.297 608.627 166.673C606.31 168.374 604.538 170.477 603.694 173.262C602.409 177.499 603.008 182.945 603.002 187.36L602.976 211.473L602.946 298.044L591.867 297.995L591.722 213.661L591.597 188.876C591.577 183.635 591.183 178.198 592.146 173.031C595.903 152.883 622.742 149.717 636.997 139.642L637.716 139.116Z"/>
	<path fill="#2C9F9B" d="M206.669 561.521L151.193 561.554L151.064 394.582L269.009 394.919L269.069 561.57L220.49 561.508L206.669 561.521Z"/>
	<path fill="#1E2C52" d="M189.382 518.721L228.039 518.491L228.038 529.588L189.328 529.541L189.382 518.721Z"/>
	<path fill="#1E2C52" d="M216.367 422.25L242.468 422.133L242.459 449.032L202.625 449.09L175.671 449.101L175.82 422.692C177.754 421.753 183.453 422.368 185.839 422.359L216.367 422.25Z"/>
	<path fill="#1E2C52" d="M175.75 450.565L242.447 450.429L242.333 490.454L175.702 490.487L175.75 450.565Z"/>
	<path fill="#1E2C52" d="M732.524 846.468L732.542 734.49L760.947 734.699C762.238 734.932 763.295 735.048 764.614 734.956L777.357 735.034L831.52 735.078C835.993 735.077 840.843 734.682 845.268 735.199L845.858 735.242L875.007 735.165L874.869 925.114L732.815 924.823C732.315 922.982 732.587 920.646 732.585 918.743L732.572 907.538L732.529 859.657L732.524 846.468Z"/>
	<path fill="#2C9F9B" d="M782.108 747.244L861.974 747.14L861.843 915.622L825.75 915.519L745.108 915.526L744.736 747.497L782.108 747.244Z"/>
	<path fill="#1E2C52" d="M767.715 773.25C768.974 773.102 770.448 773.172 771.658 773.563C773.473 774.15 775.164 775.966 775.983 777.658C777.067 779.899 777.145 782.305 776.299 784.629C775.301 787.372 773.067 788.887 770.509 790.018C769.307 790.055 768.056 790.102 766.874 789.846C765.089 789.459 763.189 788.253 762.21 786.696L761.946 786.25C761.662 785.783 761.375 785.344 761.187 784.825C760.45 782.782 760.856 780.015 761.824 778.11C763.135 775.53 764.992 774.098 767.715 773.25Z"/>
	<path fill="#1E2C52" d="M833.551 773.586C835.218 773.419 837.098 773.259 838.75 773.509C840.61 773.791 842.602 775.169 843.658 776.701C845.131 778.839 845.571 781.221 844.992 783.75C844.328 786.644 842.107 788.322 839.739 789.841C838.198 790.101 836.65 790.389 835.093 790.098C832.873 789.682 830.422 788.12 829.255 786.163C827.879 783.859 827.37 781.337 828.116 778.718C828.889 776.005 831.237 774.794 833.551 773.586Z"/>
	<path fill="#461941" d="M591.867 297.995L602.946 298.044L654.667 298.148L668.951 298.076C672.069 298.065 675.388 297.858 678.456 298.508C682.924 299.455 687.391 302.288 690.556 305.551C693.586 308.673 695.956 312.637 696.82 316.947C697.572 320.694 697.341 324.861 697.356 328.677L697.402 346.879L697.48 409.35C697.49 418.946 696.884 428.964 697.516 438.518L697.526 450.355L697.52 609.262L697.505 658.374C697.494 665.92 698.18 674.14 697.283 681.594C696.724 686.245 694.82 690.373 691.561 693.738C685.04 700.47 678.402 700.133 669.75 700.12L623.962 699.963L610.968 699.843L564.327 699.919L551.578 699.88L505.928 699.961L493.145 700L388.838 700.067C384.471 700.816 378.568 700.134 374.045 700.122L338.721 700.184C332.811 700.18 325.701 700.887 319.944 699.652C316.257 698.86 312.961 696.785 310.209 694.271C305.862 690.301 303.653 684.558 303.555 678.75L303.682 602.608L303.607 444.685L303.6 359.636L303.547 333.25C303.538 328.719 303.261 323.969 303.66 319.459C304.162 313.795 306.108 309.127 310.127 305.024C313.068 302.021 316.735 299.6 320.881 298.653C325.038 297.704 329.399 298.014 333.634 298.024L352.933 298.085L413.789 298.046L425.324 298.048L529.558 298.027L540.571 298.02L591.867 297.995Z"/>
	<path fill="#9BD63A" d="M432.243 610.75C433.776 610.319 435.69 610.283 437.25 610.621C439.17 611.037 441.242 613.199 442.184 614.836C443.162 616.536 443.319 619.093 442.805 620.961C442.078 623.603 439.999 624.972 437.712 626.17C436.128 626.434 434.813 626.447 433.25 626.005C430.99 625.365 429.123 623.896 428.076 621.784C426.95 619.516 426.862 617.355 427.694 614.977C428.495 612.689 430.162 611.74 432.243 610.75Z"/>
	<path fill="#FFFEFE" d="M371.422 581.604L396.845 581.616C400.737 581.625 405.524 581.128 409.324 582.03C410.924 582.409 412.516 583.938 413.299 585.337C414.195 586.937 414.369 589.125 413.851 590.875C413.075 593.494 410.966 594.74 408.687 595.919L371.59 595.738C369.492 595.466 368.056 594.21 366.932 592.486C365.854 590.834 365.546 588.622 366.104 586.72C366.881 584.072 369.199 582.86 371.422 581.604Z"/>
	<path fill="#FFFEFE" d="M372.436 613.246L398.665 613.118C401.794 613.115 407.019 612.502 409.946 613.689C411.502 614.32 413.364 616.406 413.93 617.985C414.612 619.884 414.683 621.739 413.7 623.551C412.447 625.863 410.498 626.802 408.076 627.508L381.429 627.507C378.253 627.5 373.054 628.188 370.25 626.999C368.603 626.3 366.643 624.207 366.137 622.49C365.579 620.596 365.743 618.957 366.75 617.273C368.102 615.013 369.915 613.808 372.436 613.246Z"/>
	<path fill="#C12F31" d="M615.194 576.148C621.753 575.718 627.903 576.697 633.608 580.141C640.189 584.115 645.823 591.005 647.518 598.579C649.489 607.389 648.253 615.654 643.251 623.238C638.57 630.336 631.09 633.847 622.997 635.521C619.063 635.76 614.7 635.815 610.873 634.791L610 634.543L609.158 634.313C602.084 632.301 595.697 626.892 592.2 620.465C588.556 613.77 586.877 605.211 589.176 597.773L589.428 597C590.352 594.08 591.516 591.342 593.283 588.819C598.582 581.252 606.318 577.582 615.194 576.148Z"/>
	<path fill="#F3B52B" d="M363.944 357.542L633.004 357.509L633.006 536.234L363.91 536.161L363.944 357.542Z"/>
</svg>
