<?xml version="1.0" encoding="utf-8" ?>
<svg xmlns="http://www.w3.org/2000/svg" xmlns:xlink="http://www.w3.org/1999/xlink" width="1024" height="1024">
	<path fill="#1B549B" d="M-0 -0L1024 0L1024 1024L-0 1024L0 -0Z"/>
	<path fill="#F9C271" d="M511.047 379.521C504.64 376.799 499.502 373.465 496.758 366.758C495.916 364.7 495.677 362.573 495.581 360.373L495.477 323.386L495.566 251.629L495.656 216.925C495.673 210.842 494.861 203.64 496.356 197.75L496.546 196.956C497.852 191.698 501.248 187.273 505.842 184.425C509.189 182.35 512.597 181.502 516.499 181.301C526.909 180.766 537.53 181.316 547.965 181.337L608.76 181.383L700.174 181.408L724.848 181.404C729.417 181.406 734.843 180.841 739.238 182.077C744.696 183.613 749.905 187.373 752.481 192.5C753.52 194.567 754.366 196.922 754.483 199.25L754.581 225.228L754.594 274.062L754.579 331.192L754.496 360.605C754.419 362.622 754.057 364.84 753.414 366.75C751.672 371.92 747.796 376.096 742.837 378.324L739.234 379.644C738.741 379.466 739.023 379.538 738.246 379.5L689.029 378.9L597 378.857L574.135 378.955C572.157 378.963 568.602 378.489 566.772 378.985C564.92 379.486 521.026 423.826 514.553 429.587L514.273 394.746L514.251 384.402C514.247 382.81 514.521 381.017 513.75 379.581L511.047 379.521Z"/>
	<path fill="#52307F" d="M569.087 251.486L686.005 251.529L685.924 264.864L569.156 265.029L569.087 251.486Z"/>
	<path fill="#52307F" d="M678.913 292.245L685.752 292.173L685.735 305.611L576.375 305.567L568.939 305.584L568.963 292.393L678.913 292.245Z"/>
	<path fill="#EE614F" d="M511.047 379.521L513.75 379.581C514.521 381.017 514.247 382.81 514.251 384.402L514.273 394.746L514.553 429.587C521.026 423.826 564.92 379.486 566.772 378.985C568.602 378.489 572.157 378.963 574.135 378.955L597 378.857L689.029 378.9L738.246 379.5C739.023 379.538 738.741 379.466 739.234 379.644C743.081 380.553 747.332 380.312 751.268 380.373L773.228 380.517L776.888 380.662C777.079 380.941 777.359 381.177 777.462 381.5C777.731 382.349 777.47 384.55 777.472 385.515L777.496 394.583L777.6 445.918L777.559 701.201L469.452 700.639L352.031 846.359L351.972 701.157L246.27 701.066L246.147 380.918C246.237 380.029 246.104 380.522 246.75 379.509L511.047 379.521Z"/>
	<path fill="#F99A22" d="M511.047 379.521L513.75 379.581C514.521 381.017 514.247 382.81 514.251 384.402L514.273 394.746L514.553 429.587C521.026 423.826 564.92 379.486 566.772 378.985C568.602 378.489 572.157 378.963 574.135 378.955L597 378.857L689.029 378.9L738.246 379.5C739.023 379.538 738.741 379.466 739.234 379.644C743.081 380.553 747.332 380.312 751.268 380.373L773.228 380.517L776.353 381.25C773.74 384.809 770.229 387.477 766.879 390.308L750.608 403.496L710.507 434.75L594.253 525.387L512.69 588.514C510.626 587.636 508.873 586.007 507.111 584.63L497.423 576.991L468.086 554.231L318.615 438.334L264.344 396.02L251.266 385.851C249.84 384.763 247.019 383.128 246.315 381.481L246.147 380.918C246.237 380.029 246.104 380.522 246.75 379.509L511.047 379.521Z"/>
</svg>
