<?xml version="1.0" encoding="utf-8" ?>
<svg xmlns="http://www.w3.org/2000/svg" xmlns:xlink="http://www.w3.org/1999/xlink" width="1024" height="1024">
	<path fill="#E36932" d="M-0 -0L1024 0L1024 1024L-0 1024L0 -0Z"/>
	<path d="M497.202 311.22L514.305 310.91C576.974 310.919 638.818 325.774 696.61 349.332C753.279 372.431 805.724 403.28 853.874 441.09C881.764 462.991 907.131 486.997 932.169 512.048C911.946 533.177 890.552 552.588 868.001 571.175C793.578 632.517 705.321 681.036 610.539 701.605C583.179 707.543 554.582 710.913 526.625 711.978L509.23 712.325C349.151 711.02 200.007 624.021 90.0389 512.701C113.538 487.385 139.713 464.935 167.014 443.849C261.989 370.495 375.784 316.221 497.202 311.22Z"/>
	<path fill="#E8DDD6" d="M556.03 371.929C569.375 373.212 583.136 376.471 596.088 379.809C662.847 397.016 723.042 432.013 777.597 473.366L806.631 496.855C812.325 501.68 818.183 506.456 823.521 511.679C809.841 525.528 794.79 537.841 779.483 549.836C722.661 594.365 658.02 630.082 587.598 647.297L560.874 652.808C555.525 653.739 549.993 654.846 544.555 654.976L544.054 654.977C546.306 653.379 550.877 652.694 553.626 651.885C557.806 650.655 561.911 649.244 565.938 647.576C596.016 635.112 620.864 613.94 637.19 585.718C656.619 552.13 662.039 511.49 651.878 473.991C641.7 436.427 617.247 403.275 583.25 384.035C578.273 381.218 573.074 378.64 567.739 376.569C564.308 375.238 559.755 374.257 556.66 372.342L556.03 371.929Z"/>
	<path fill="#E8DDD6" d="M481.959 655.057C476.525 654.925 470.878 653.848 465.5 653.021C452.758 651.061 440.188 648.462 427.756 645.039C411.951 640.688 396.136 635.892 380.863 629.918C328.679 609.505 280.536 578.292 236.681 543.714C223.765 533.53 210.625 523.445 198.574 512.23L245.646 474.642C275.787 451.653 306.847 430.184 340.549 412.653C380.75 391.742 425.381 376.776 470.492 371.51L469.918 371.918C467.215 373.731 462.962 374.175 459.88 375.421C453.586 377.966 447.542 381.055 441.64 384.403C407.013 404.043 381.296 438.493 372.232 477.234C363.534 514.406 368.182 554.041 388.563 586.784C405.56 614.09 428.655 634.94 458.673 647.242C462.873 648.963 467.161 650.393 471.522 651.644C474.583 652.522 479.43 653.233 481.959 655.057Z"/>
	<path fill="#289ABA" d="M470.492 371.51C495.851 368.206 520.116 367.677 545.533 370.529C548.235 370.832 553.785 370.8 556.03 371.929L556.66 372.342C559.755 374.257 564.308 375.238 567.739 376.569C573.074 378.64 578.273 381.218 583.25 384.035C617.247 403.275 641.7 436.427 651.878 473.991C662.039 511.49 656.619 552.13 637.19 585.718C620.864 613.94 596.016 635.112 565.938 647.576C561.911 649.244 557.806 650.655 553.626 651.885C550.877 652.694 546.306 653.379 544.054 654.977C540.947 655.693 537.262 655.684 534.04 655.976C522.411 657.031 510.872 657.274 499.203 656.683C493.528 656.396 487.546 656.116 481.959 655.057C479.43 653.233 474.583 652.522 471.522 651.644C467.161 650.393 462.873 648.963 458.673 647.242C428.655 634.94 405.56 614.09 388.563 586.784C368.182 554.041 363.534 514.406 372.232 477.234C381.296 438.493 407.013 404.043 441.64 384.403C447.542 381.055 453.586 377.966 459.88 375.421C462.962 374.175 467.215 373.731 469.918 371.918L470.492 371.51Z"/>
	<path d="M575.735 456.632C576.773 456.994 576.412 456.696 576.982 457.44C591.038 475.793 598.961 498.887 595.756 522.136C592.572 545.238 580.988 566 562.235 580.006C543.934 593.672 520.898 599.271 498.324 595.908C476.807 592.703 457.194 580.33 444.38 562.865C431.13 544.806 425.636 520.823 429.232 498.717C433.11 474.879 444.984 454.495 464.696 440.294C481.604 428.112 504.961 423.689 525.416 427.075C538.055 429.167 551.098 434.442 561.41 442.104C562.908 443.217 565.116 444.587 566.107 446.182L566.358 446.707C570.52 449.585 572.875 452.523 575.735 456.632Z"/>
	<path fill="#E8DDD6" d="M575.735 456.632C578.87 463.936 580.412 471.306 577.829 479.024C575.586 485.725 570.836 491.511 564.422 494.595C557.644 497.854 549.742 498.034 542.722 495.483C536.258 493.135 530.645 487.466 527.764 481.308C524.724 474.81 524.417 466.456 527.012 459.75C529.651 452.93 534.569 448.242 541.238 445.42C549.873 441.767 557.944 443.228 566.358 446.707C570.52 449.585 572.875 452.523 575.735 456.632Z"/>
</svg>
