<?xml version="1.0" encoding="utf-8" ?>
<svg xmlns="http://www.w3.org/2000/svg" xmlns:xlink="http://www.w3.org/1999/xlink" width="1024" height="1024">
	<path fill="#096B7B" d="M-0 -0L1024 0L1024 1024L-0 1024L0 -0Z"/>
	<path fill="#D63F1F" d="M293.027 487.597C295.603 493.494 298.08 499.127 302.134 504.206C315.431 520.563 330.161 535.099 346.013 548.991L360.858 561.861C363.94 564.492 367.273 566.954 370.081 569.875L364.776 570.21C341.354 572.127 333.279 595.241 319.868 610.931C307.557 625.334 291.173 634.807 271.943 634.963C262.925 635.036 254.045 633.963 244.989 634.736C220.298 636.841 194.828 647.535 176.114 663.827C170.362 668.834 165.502 674.576 160.614 680.399C163.315 671.377 165.483 662.35 168.806 653.493C187.2 604.466 218.775 562.238 255.443 525.383L274.408 507.087C280.494 501.438 288.51 495.354 292.712 488.152L293.027 487.597Z"/>
	<path fill="#D63F1F" d="M730.525 491.439C739.08 497.651 747.062 504.67 754.986 511.657C798.793 550.285 834.801 599.63 856.861 653.821C860.262 662.177 862.816 670.804 865.571 679.384C857.191 670.63 848.846 661.884 839.126 654.58C822.481 642.072 800.667 634.354 779.821 633.923L755.894 634.1C736.934 633.495 720.031 628.321 706.6 614.402C690.902 598.132 679.918 575.336 657.732 566.542L730.525 491.439Z"/>
	<path fill="#F49D20" d="M278.096 457.322L270.275 449.5C258.436 435.749 254.012 418.813 255.477 400.93C256.354 390.232 259.851 378.916 264.829 369.41C268.222 362.932 272.598 356.87 276.282 350.533C280.159 343.865 283.582 336.997 286.727 329.955C290.684 321.096 293.833 312.07 296.163 302.651L299.708 285.658C306.75 290.216 312.997 295.769 319.716 300.763C329.052 307.704 338.84 314.093 348.777 320.135C375.534 336.403 404.903 349.961 435.069 358.483C478.024 370.617 525.949 372.862 569.633 363.5C615.75 353.617 657.72 332.879 696.942 307.163L729.206 284.809C729.912 300.649 732.259 315.15 738.75 329.775C742.788 338.875 748.667 346.379 753.727 354.827C765.298 374.146 771.623 398.096 768.458 420.499C764.765 446.64 746.178 471.022 730.525 491.439L657.732 566.542L611.77 611.427C589.46 634.157 568.068 657.531 549.413 683.415C537.527 699.907 527.186 717.099 517.661 735.039C506.797 714.188 494.55 694.368 480.24 675.692C457.246 645.682 428.97 618.402 400.059 594.142C390.298 585.952 380.485 577.217 370.081 569.875C367.273 566.954 363.94 564.492 360.858 561.861L346.013 548.991C330.161 535.099 315.431 520.563 302.134 504.206C298.08 499.127 295.603 493.494 293.027 487.597C293.935 483.621 294.32 479.827 294.009 475.75C293.385 467.59 283.901 462.233 278.096 457.322Z"/>
	<path fill="#DA661F" d="M278.096 457.322C301.086 458.945 324.042 461.939 347.127 461.408C390.268 460.416 433.259 453.076 474.5 440.439C493.646 434.573 512.296 427.264 530.8 419.655C569.328 403.811 606.749 384.594 642.104 362.55C655.411 354.253 668.437 345.714 680.654 335.853C681.625 335.07 682.006 334.105 683.245 334.75C627.411 384.793 559.776 420.414 490.584 448.3C457.136 461.78 423.651 473.514 389 483.525L332 498.186C322.187 500.411 312.108 502.908 302.134 504.206C298.08 499.127 295.603 493.494 293.027 487.597C293.935 483.621 294.32 479.827 294.009 475.75C293.385 467.59 283.901 462.233 278.096 457.322Z"/>
</svg>
