<?xml version="1.0" encoding="utf-8" ?>
<svg xmlns="http://www.w3.org/2000/svg" xmlns:xlink="http://www.w3.org/1999/xlink" width="1024" height="1024">
	<path fill="#F47112" d="M-0 -0L1024 0L1024 1024L-0 1024L0 -0Z"/>
	<path fill="#0A0503" d="M636.839 156.981C633.493 147.848 631.286 138.453 628.989 129.017L621.405 94.5C620.183 87.6986 618.338 80.0379 618.558 73.16C618.635 70.7407 619.443 68.2512 620.317 66.0085C626.521 68.0134 632.028 71.0969 637.67 74.3146C656.042 84.7932 670.138 97.7025 684.25 113.263C702.965 133.899 718.164 156.268 730.847 181.078C747.082 212.837 760.031 246.281 770.81 280.248C774.046 290.448 777.63 300.871 780.065 311.291L762.519 315.639L755.35 302.455L740.062 277.576C730.217 262.414 719.274 247.874 708.109 233.665C694.613 216.488 680.567 199.754 665.309 184.104L636.839 156.981Z"/>
	<path fill="#0A0503" d="M239.585 735.819C261.788 756.275 286.862 766.538 317.066 767.603C309.138 782.973 293.304 794.075 278.301 801.885C269.415 806.511 255.787 810.523 250.866 819.766C239.914 822.892 228.392 824.615 217.127 826.247C207.411 827.654 196.763 828.598 187.661 832.49C168.749 840.576 161.186 859.628 151.54 876.208C140.667 894.897 127.283 914.889 108.113 925.881C98.7096 931.273 85.8296 935.411 75.042 932.294L74.25 932.053C72.4567 931.52 70.6906 930.996 69.0968 929.983C65.8298 927.908 63.7444 924.937 62.9833 921.151C61.8479 915.503 65.7283 909.447 68.8708 905.028C75.6078 895.555 85.0907 887.485 93.1034 879.083C102.59 869.136 111.405 858.49 120.056 847.816C126.597 839.746 132.167 831.014 137.871 822.348C142.36 815.527 147.08 808.232 153.189 802.75C160.833 795.889 170.703 793.784 180.064 790.256C195.364 784.489 208.493 775.402 219.361 763.206C226.996 754.639 233.103 745.245 239.585 735.819Z"/>
	<path fill="#FEFEFE" d="M239.585 735.819L228.61 722.625C207.046 693.615 200.091 657.42 205.218 622.104L192.789 625.554C167.428 630.233 136.165 621.537 115.37 606.832C102.561 597.775 89.2085 582.006 86.5234 566.145C84.9375 556.777 85.6637 548.03 89.8653 539.366C94.6457 529.508 103.3 521.083 113.797 517.548C126.818 513.163 140.174 516.898 152.027 522.869C169.719 531.781 184.609 545.98 194.707 563.006C201.559 574.558 206.323 587.05 210.495 599.767L215.709 585.191C221.833 570.32 230.094 555.624 240.495 543.29C256.982 523.741 276.678 508.047 299.292 496.068C322.02 484.029 346.58 476.296 371.421 470.029C403.041 462.051 434.855 457.278 467.199 453.49L550.073 445.708L621.413 440.904C631.553 440.003 641.341 438.165 650.586 433.685C668.599 424.956 681.468 407.193 691.25 390.313L704.504 366.434C709.307 358.688 715.088 351.694 720.916 344.715C684.499 333.085 648.689 319.539 615.688 299.954C608.9 295.925 602.381 291.276 595.938 286.719C574.953 271.879 555.594 255.011 538.595 235.714C511.077 204.476 492.078 167.432 480.729 127.5L477.338 113.259C476.859 110.878 476.148 107.938 476.496 105.5C476.718 103.944 477.558 103.495 478.75 102.635C483.259 102.223 488.549 103.675 492.954 104.694C504.778 107.431 515.629 111.036 526.883 115.552C525.462 112.797 522.509 110.09 520.436 107.727C514.47 100.929 507.548 94.1573 502.526 86.6403C514.715 86.1022 525.987 89.5568 537.25 93.9925C573.845 108.404 605.024 134.449 636.839 156.981L665.309 184.104C680.567 199.754 694.613 216.488 708.109 233.665C719.274 247.874 730.217 262.414 740.062 277.576L755.35 302.455L762.519 315.639L780.065 311.291C811.521 306.556 843.069 317.112 868.353 335.66C893.181 353.872 911.518 379.069 923.862 407.034C928.059 416.545 931.988 426.919 933.485 437.25C933.796 439.397 934.1 441.684 933.977 443.853C933.688 448.189 933.259 455.544 930.391 458.865C928.422 462.216 926.466 465.659 923.954 468.64C913.811 480.677 899.047 488.629 883.965 492.594C866.225 497.257 848.351 498.013 830.25 495.29C820.312 493.795 810.27 491.814 800.922 488.028C800.474 487.847 796.469 486.023 796.396 486.043C795.329 486.333 771.044 523.203 768.635 527.279C760.97 540.247 751.451 557.643 755.361 573.253C759.723 590.67 777.597 604.33 792.373 612.993C807.566 621.9 824.482 627.539 841.719 630.862C864.886 635.328 890.537 636.623 911.621 648.026C921.302 653.263 929.741 661.177 938.02 668.349C946.222 675.454 955.069 682.766 957.917 693.75C959.599 700.236 959.156 707.307 955.662 713.131C953.628 716.523 950.272 719.561 946.344 720.48C938.862 722.229 930.017 717.97 923.885 713.883C919.552 710.994 916 707.316 912.321 703.67C906.619 698.021 900.999 692.161 894.944 686.889C887.704 690.414 879.76 692.544 872 694.588C858.367 698.178 844.805 700.827 830.854 702.818C810.709 705.691 789.868 707.599 769.5 707.364C731.861 706.929 693.449 699.303 658.979 684.143C644.238 677.66 630.398 670.396 617.472 660.698L599.817 670.155C581.705 679.21 563.208 687.609 544.285 694.83L499.02 710.028L473.941 717.745L436.531 727.516C427.7 759.247 408.336 787.361 381.938 807.142C376.053 811.552 369.656 815.301 363.257 818.908C354.121 824.059 344.352 828.379 334.45 831.826L310.688 839.588C300.609 842.65 289.349 844.446 280.995 851.348C273.725 857.355 269.841 867.485 264.992 875.444C256.996 888.567 248.908 901.222 239.787 913.604C232.407 923.622 224.747 933.29 215.318 941.481C210.974 945.256 206.003 949.278 200.686 951.58C196.845 953.243 192.168 954.041 187.967 953.778C186.458 953.683 184.957 953.409 183.505 952.993C178.592 951.583 174.379 948.706 171.863 944.177C169.377 939.701 169.021 934.885 170.663 930.058C173.746 920.996 183.485 912.278 189.792 905.318L225.155 864.166C236.078 850.241 246.244 837.128 250.866 819.766C255.787 810.523 269.415 806.511 278.301 801.885C293.304 794.075 309.138 782.973 317.066 767.603C286.862 766.538 261.788 756.275 239.585 735.819Z"/>
	<path fill="#0A0503" d="M930.391 458.865L915.242 442.712C921.554 443.339 927.612 443.98 933.977 443.853C933.688 448.189 933.259 455.544 930.391 458.865Z"/>
	<path fill="#0A0503" d="M829.733 368.095C834.829 368.063 839.319 369.078 843.801 371.472C849.391 374.457 855.862 380.731 857.649 386.989C854.069 391.287 850.954 394.178 846.113 396.995L841.219 398.901C837.201 400.162 832.568 399.769 828.903 397.73C824.117 395.069 821.19 390.557 819.853 385.328C818.912 381.652 819.358 376.787 821.438 373.577C823.579 370.273 826.054 369.003 829.733 368.095Z"/>
	<path fill="#FEFEFE" d="M827.699 373.25C828.457 373.285 829.266 373.315 830 373.522C831.25 373.874 832.236 374.981 832.736 376.143C833.329 377.524 833.313 380.157 832.567 381.5C831.671 383.114 830.36 383.136 828.75 383.575C827.648 383.648 826.937 383.744 825.875 383.357C824.952 383.021 824.01 381.959 823.657 381.029C823.065 379.472 823.092 376.934 823.937 375.5C824.836 373.976 826.16 373.71 827.699 373.25Z"/>
	<path fill="#0A0503" d="M617.472 660.698C633.861 651.074 651.601 640.11 665.459 627.004C674.268 633.358 682.942 639.77 692.312 645.294C736.71 671.469 786.709 680.211 837.692 678.986L857.641 678.161L874.16 676.994C875.405 676.928 877.91 676.451 878.956 676.745C880.139 677.079 881.844 678.313 882.944 678.943C887.115 681.329 891.038 684.1 894.944 686.889C887.704 690.414 879.76 692.544 872 694.588C858.367 698.178 844.805 700.827 830.854 702.818C810.709 705.691 789.868 707.599 769.5 707.364C731.861 706.929 693.449 699.303 658.979 684.143C644.238 677.66 630.398 670.396 617.472 660.698Z"/>
	<path fill="#FA7E62" d="M526.307 143.457C558.417 149.261 588.497 166.164 614.56 185.289C658.869 217.803 695.359 260.669 728.432 304.209L739.494 319.253C740.668 320.931 742.617 323.222 742.928 325.25L740.384 326.905L736.688 329.488C731.287 327.729 726.028 325.148 720.766 322.97C697.698 313.423 675.07 302.325 653.535 289.688C611.021 264.739 567.879 231.927 543.596 188.067C535.708 173.82 530.386 159.159 526.307 143.457Z"/>
</svg>
