<?xml version="1.0" encoding="utf-8" ?>
<svg xmlns="http://www.w3.org/2000/svg" xmlns:xlink="http://www.w3.org/1999/xlink" width="1024" height="1024">
	<path fill="#CF3528" d="M-0 -0L1024 0L1024 1024L-0 1024L0 -0Z"/>
	<path fill="#50191B" d="M448.921 527.014C452.532 529.375 455.774 532.225 459.318 534.685C473.027 544.199 487.342 552.617 504.057 555.173C527.347 558.734 551.579 547.398 569.715 533.842C571.613 532.424 573.46 530.659 575.513 529.496L575.427 572.275C575.989 599.007 584.067 622.101 603.684 640.906C611.013 647.93 619.616 653.13 628.983 656.987L692.444 678.744C696.33 679.977 701.156 682.398 705.139 682.581L730.93 691.775C750.997 699.666 769.642 710.814 784.912 726.14C804.779 746.081 817.144 775.038 819.523 802.968C820.756 817.441 819.973 832.48 819.975 847.016L819.969 914.954L205.236 915.007L205.31 853.75C205.336 839.663 204.629 825.063 205.643 811.026C207.162 790.022 213.227 769.069 223.803 750.794C237.287 727.492 257.682 707.421 282.027 695.567C292.769 690.337 304.706 686.597 316.228 683.492L316.616 681.94L317.18 683.238C318.504 683.691 320.041 682.82 321.36 682.357L332.867 678.156L368.752 665.846L384.173 660.278C387.699 659.002 391.22 657.477 394.942 656.893C398.257 656.223 401.573 654.405 404.511 652.784C410.996 649.205 417.223 644.821 422.621 639.734C440.076 623.288 447.819 601.378 448.602 577.782L448.921 527.014Z"/>
	<path fill="#F5D4B4" d="M448.921 527.014C452.532 529.375 455.774 532.225 459.318 534.685C473.027 544.199 487.342 552.617 504.057 555.173C527.347 558.734 551.579 547.398 569.715 533.842C571.613 532.424 573.46 530.659 575.513 529.496L575.427 572.275C575.989 599.007 584.067 622.101 603.684 640.906C611.013 647.93 619.616 653.13 628.983 656.987L624.615 667.096C618.689 679.973 610.879 692.325 602.745 703.898C586.197 727.441 566.091 749.444 543.25 767.051C535.215 773.245 526.163 779.866 516.531 783.33C515.326 783.763 513.174 784.78 511.961 784.867C509.833 785.018 504.982 782.564 503.039 781.628C494.032 777.292 486.043 771.384 478.194 765.263C453.387 745.921 431.981 721.463 414.819 695.173C406.976 683.158 399.665 670.497 394.942 656.893C398.257 656.223 401.573 654.405 404.511 652.784C410.996 649.205 417.223 644.821 422.621 639.734C440.076 623.288 447.819 601.378 448.602 577.782L448.921 527.014Z"/>
	<path fill="#DFB78A" d="M448.921 527.014C452.532 529.375 455.774 532.225 459.318 534.685C473.027 544.199 487.342 552.617 504.057 555.173C527.347 558.734 551.579 547.398 569.715 533.842C571.613 532.424 573.46 530.659 575.513 529.496L575.427 572.275L574.75 568.547C572.363 569.385 569.704 572.082 567.5 573.454C563.057 576.219 558.239 578.356 553.363 580.236C523.74 591.658 485.595 589.249 457.107 575.721L449.242 571.857C449.109 573.809 449.14 575.901 448.602 577.782L448.921 527.014Z"/>
	<path fill="#251411" d="M316.616 681.94C309.481 653.171 304.516 623.74 300.474 594.391C288.607 508.236 287.107 420.907 301.76 334.971C309.077 292.064 320.63 247.517 343.276 209.971C351.069 197.051 359.54 184.806 369.537 173.48C395.852 143.664 429.935 122.642 468.534 113.11C502.084 104.825 540.61 106.754 573.251 117.961C586.057 122.358 598.447 128.598 610.027 135.585C619.313 141.189 627.821 147.987 635.924 155.167C678.403 192.806 702.636 246.595 715.775 300.897C724.312 336.18 727.588 372.117 729.673 408.263C733.976 482.893 731.891 558.145 717.771 631.73C714.496 648.796 711.189 666.251 705.139 682.581C701.156 682.398 696.33 679.977 692.444 678.744L628.983 656.987C619.616 653.13 611.013 647.93 603.684 640.906C584.067 622.101 575.989 599.007 575.427 572.275L575.513 529.496C573.46 530.659 571.613 532.424 569.715 533.842C551.579 547.398 527.347 558.734 504.057 555.173C487.342 552.617 473.027 544.199 459.318 534.685C455.774 532.225 452.532 529.375 448.921 527.014L448.602 577.782C447.819 601.378 440.076 623.288 422.621 639.734C417.223 644.821 410.996 649.205 404.511 652.784C401.573 654.405 398.257 656.223 394.942 656.893C391.22 657.477 387.699 659.002 384.173 660.278L368.752 665.846L332.867 678.156L321.36 682.357C320.041 682.82 318.504 683.691 317.18 683.238L316.616 681.94Z"/>
	<path fill="#DFB78A" d="M366.919 353.221C373.434 348.756 381.931 345.673 389.028 342.074L424.477 323.764C426.819 322.581 431.796 319.305 434.278 319.207L444.258 319.933C442.594 320.051 439.92 319.812 438.641 320.814C435.167 323.537 429.534 325.512 425.5 327.536L400.889 340.076L382.311 348.023C377.972 349.852 371.577 353.445 366.919 353.221Z"/>
	<path fill="#DFB78A" d="M561.183 210.887C562.318 215.473 559.729 222.205 557.345 226.135C547.373 242.566 532.08 257.701 517.685 270.296C514.015 273.508 510.383 277.06 506.331 279.766C495.467 287.02 485.26 294.937 473.844 301.431C468.755 304.326 463.394 306.806 458.123 309.349C455.682 310.527 452.565 311.499 450.698 313.509C449.034 313.353 447.202 312.707 445.564 312.31C477.947 292.261 509.175 272.862 535.847 245.186C545.89 234.765 554.923 224.024 561.183 210.887Z"/>
	<path fill="#F5D4B4" d="M561.183 210.887C561.639 209.486 562.03 208.1 562.791 206.827C604.528 226.178 637.175 262.548 653.012 305.692C657.942 319.121 661.802 332.789 664.308 346.877C666.142 357.189 667.33 367.492 666.251 377.981C665.397 386.28 663.131 394.264 660.623 402.194C657.024 413.576 652.657 424.771 647.615 435.591C634.884 462.91 616.84 488.649 595.829 510.296C589.348 516.974 581.901 522.805 575.513 529.496C573.46 530.659 571.613 532.424 569.715 533.842C551.579 547.398 527.347 558.734 504.057 555.173C487.342 552.617 473.027 544.199 459.318 534.685C455.774 532.225 452.532 529.375 448.921 527.014L442.347 521.668C432.626 513.298 423.031 504.656 414.624 494.94C391.202 467.875 374.167 436.074 363.278 402.065C358.872 388.304 355.182 373.517 354.12 359.084L366.919 353.221C371.577 353.445 377.972 349.852 382.311 348.023L400.889 340.076L425.5 327.536C429.534 325.512 435.167 323.537 438.641 320.814C439.92 319.812 442.594 320.051 444.258 319.933C451.985 319.936 457.824 323.347 465 325.319C466.806 324.847 466.786 324.921 467.824 323.382C467.892 322.621 468.195 321.449 467.831 320.767C465.86 317.075 454.486 314.503 450.698 313.509C452.565 311.499 455.682 310.527 458.123 309.349C463.394 306.806 468.755 304.326 473.844 301.431C485.26 294.937 495.467 287.02 506.331 279.766C510.383 277.06 514.015 273.508 517.685 270.296C532.08 257.701 547.373 242.566 557.345 226.135C559.729 222.205 562.318 215.473 561.183 210.887Z"/>
	<path fill="#DFB78A" d="M496.109 431.25C497.948 430.956 501.966 432.938 503.904 433.656C507.074 434.831 510.711 435.14 514.058 434.734L515 434.61C519.922 434.041 524.488 432.006 529.071 430.197L524.9 434.714C522.964 436.393 520.955 438.225 518.741 439.526C515.676 441.328 512.174 442.141 508.674 441.169C504.066 439.888 498.571 435.286 496.109 431.25Z"/>
	<path fill="#251411" d="M578.874 313.198L579.031 313.154C591.259 311.994 605.435 315.472 615.67 322.326C617.632 323.64 625.3 329.405 625.75 331.699C620.184 327.561 614.912 324.796 608.414 322.383C599.556 319.838 590.18 318.632 580.979 319.822C576.357 320.419 572.01 321.143 567.555 322.557C564.716 323.458 561.934 324.91 559 325.405C558.574 325.165 557.865 324.795 557.529 324.456C556.357 323.276 556.656 322.337 556.75 320.873C557.233 320.032 557.621 319.628 558.488 319.173C564.752 315.894 571.884 313.969 578.874 313.198Z"/>
	<path fill="#251411" d="M583.231 342.557C586.232 342.443 588.922 342.303 591.75 343.547C595.762 345.311 598.967 348.714 600.481 352.834C601.878 356.639 601.363 359.935 599.666 363.53C597.572 367.967 594.191 370.518 589.665 372.139C586.605 372.587 583.686 372.38 580.773 371.269C577.214 369.911 574.203 366.937 572.687 363.461C571.243 360.149 570.694 355.539 572.136 352.152C574.318 347.026 578.221 344.417 583.231 342.557Z"/>
	<path fill="#251411" d="M436.153 342.57C439.381 342.216 442.528 342.198 445.567 343.47C449.459 345.1 452.479 348.764 453.91 352.656C455.318 356.487 454.606 361.099 452.794 364.641C450.74 368.658 447.327 370.684 443.176 372.012L442.563 372.092C439.813 372.471 437.564 372.463 434.91 371.521C431.049 370.15 427.798 367.18 426.207 363.385C424.689 359.762 424.609 354.486 426.317 350.922C428.432 346.511 431.703 344.241 436.153 342.57Z"/>
	<path fill="#CF3528" d="M503.943 466.651C506.534 466.271 509.589 466.686 512.25 466.63C516.101 466.549 520.174 465.884 524 466.504C527.005 466.991 530.059 468.516 532.867 469.68C538.334 471.944 543.709 474.327 549.557 475.407L550.49 475.576C542.069 482.289 531.542 487.031 521.212 489.834C518.291 490.533 515.169 490.695 512.175 490.818C497.812 491.405 485.182 484.244 474.882 474.792C484.701 472.598 494.089 468.357 503.943 466.651Z"/>
</svg>
