<?xml version="1.0" encoding="utf-8" ?>
<svg xmlns="http://www.w3.org/2000/svg" xmlns:xlink="http://www.w3.org/1999/xlink" width="1024" height="1024">
	<path fill="#003554" d="M-0 -0L1024 0L1024 1024L-0 1024L0 -0Z"/>
	<path fill="#C4B68B" d="M373.22 416.626C376.653 421.654 379.191 427.602 382.31 432.888L400.862 462.522C402.177 464.646 404.124 467.198 404.711 469.591C402.548 473.057 400.862 477.05 399.072 480.736L389.203 502.335C387.161 507.148 373.428 539.6 373.817 541.277C374.38 543.71 377.422 547.626 378.762 549.918C381.941 555.352 384.976 560.95 386.648 567.058C388.554 574.017 386.966 581.411 387.068 588.5C387.238 600.308 391.65 610.865 396.008 621.629C392.631 620.551 389.393 618.43 386.504 616.409C378.445 610.773 371.353 603.394 365.483 595.516C357.41 584.685 351.025 570.383 349.485 556.864C346.772 533.063 354.546 507.555 359.61 484.417C364.518 461.997 369.857 439.328 373.22 416.626Z"/>
	<path fill="#D65726" d="M373.891 177.876C360.574 161.438 348.485 137.573 349.596 115.913C350.238 103.373 355.989 88.3429 365.519 79.8993C370.399 75.5747 377.184 72.5958 383.821 73.3106C385.628 73.5053 387.161 74.1516 388.785 74.9289C394.303 63.2151 402.222 55.3588 414.5 50.989C437.777 42.7045 469.855 49.8302 491.586 60.2781C504.489 66.4817 516.295 75.0267 526.026 85.5366C536.121 96.4406 543.192 109.602 552.631 121.007C572.588 145.119 604.579 161.319 635.909 150.33C647.237 146.358 656.727 139.85 661.948 128.75C663.51 125.43 664.554 121.975 665.53 118.449C669.922 126.414 670.846 136.718 668.321 145.426C662.539 165.371 642.848 181.351 625.329 190.786C615.737 195.952 605.79 199.817 595.208 202.4C617.012 213.575 643.79 216.73 667.247 209.127C680.856 204.716 693.122 195.92 699.682 182.968C702.373 177.653 704.59 171.57 705.39 165.656C715.067 190.662 715.942 219.971 705.007 244.769C694.909 267.668 674.83 283.823 651.781 292.589L629.049 298.886C654.757 309.848 685.759 311.485 711.892 301.05C720.38 297.661 728.931 293.075 735.971 287.195C739.916 283.9 743.252 280.131 746.797 276.433C738.48 318.531 716.029 357.674 679.923 381.92C653.63 399.577 621.862 412.62 589.686 406.147L573.674 401.509C568.932 392.22 565.28 381.934 561.181 372.309L535.988 312.42C529.536 296.708 523.399 280.318 514.345 265.878C511.649 261.577 508.35 257.453 504.158 254.526C494.755 247.96 481.811 243.671 470.803 240.75C465.796 239.421 459.412 238.896 455.02 236.053C451.62 233.852 449.258 230.362 448.424 226.407L448.25 225.518C447.411 221.37 447.463 217.193 447.514 212.978C447.654 201.348 449.744 190.052 453.899 179.203C456.765 178.67 459.694 177.936 462.342 176.686C466.988 174.494 470.573 170.143 472.04 165.241C473.799 159.363 471.913 153.647 467.077 149.88C465.144 148.375 462.386 147.52 460.1 146.665L447.453 141.952C430.123 134.571 413.152 123.193 402.025 107.746C398.081 102.27 395.079 96.3093 391.933 90.36C390.123 91.5367 388.477 92.9371 386.872 94.3779C375.151 104.902 372.529 122.165 371.689 137.112C370.916 150.868 372.821 164.217 373.891 177.876Z"/>
	<path fill="#14C395" d="M373.891 177.876C372.821 164.217 370.916 150.868 371.689 137.112C372.529 122.165 375.151 104.902 386.872 94.3779C388.477 92.9371 390.123 91.5367 391.933 90.36C395.079 96.3093 398.081 102.27 402.025 107.746C413.152 123.193 430.123 134.571 447.453 141.952L460.1 146.665C462.386 147.52 465.144 148.375 467.077 149.88C471.913 153.647 473.799 159.363 472.04 165.241C470.573 170.143 466.988 174.494 462.342 176.686C459.694 177.936 456.765 178.67 453.899 179.203C449.744 190.052 447.654 201.348 447.514 212.978C447.463 217.193 447.411 221.37 448.25 225.518L448.424 226.407C449.258 230.362 451.62 233.852 455.02 236.053C459.412 238.896 465.796 239.421 470.803 240.75C481.811 243.671 494.755 247.96 504.158 254.526C508.35 257.453 511.649 261.577 514.345 265.878C523.399 280.318 529.536 296.708 535.988 312.42L561.181 372.309C565.28 381.934 568.932 392.22 573.674 401.509C577.508 410.596 580.818 420.614 585.536 429.219C633.258 440.731 677.211 466.662 709.585 503.583C717.146 512.206 724.318 521.14 730.306 530.953C766.884 590.898 777.348 665.003 760.678 733.038C745.228 796.092 696.294 848.946 641.743 881.799C621.511 893.984 600.591 904.071 578.64 912.758L562.285 918.542C559.393 919.448 555.124 920.109 552.574 921.634C549.404 923.532 546.463 927.752 543.545 930.248C536.862 935.968 529.723 940.909 522.228 945.486C486.039 967.584 440.778 978.825 398.464 976.362C385.316 975.597 371.996 973.201 359.226 970.046C321.056 960.615 287.604 941.849 255.639 919.405C277.577 925.375 299.472 928.327 322.072 924.158C333.225 922.101 344.368 918.255 354.946 914.218C365.136 910.329 375.859 906.022 385.492 900.892C354.804 888.656 336.438 857.588 317.529 832.176C312.082 824.855 306.731 817.328 300.02 811.097C286.042 798.117 266.759 788.43 248.75 782.495C236.725 778.532 223.722 774.314 211.012 773.69C223.099 769.839 236.53 768.121 249.069 766.231C272.853 762.647 297.214 760.738 321.25 762.675C348.51 764.872 376.139 772.737 400.412 785.315C426.5 798.832 446.616 818.42 465.568 840.495C475.021 851.505 483.95 862.949 495.796 871.552C507.458 880.023 521.319 884.745 534.36 890.596C557.077 875.304 578.657 857.934 596.751 837.286C609.962 822.21 621.042 806.264 624.996 786.312C628.742 767.41 623.337 746.764 612.578 731.014C595.635 706.211 566.605 689.962 541.818 674.07C527.895 665.143 513.812 655.833 500.881 645.507C455.326 609.127 417.867 560.817 408.965 501.797C407.468 491.871 407.92 482.396 407.591 472.465L404.711 469.591C404.124 467.198 402.177 464.646 400.862 462.522L382.31 432.888C379.191 427.602 376.653 421.654 373.22 416.626L353.455 367.986C352.694 367.381 352.964 367.531 352.234 367.149L345.474 363.24C335.154 356.165 328.953 345.956 326.862 333.694C325.437 325.338 326.626 314.901 332.131 308.19C336.035 303.432 340.922 299.421 344.422 294.332L344.673 293.957L343.641 277.049C343.889 271.034 344.742 264.734 347.294 259.231C354.838 242.966 374.692 236.301 391.021 233.234C396.508 232.203 401.871 233.09 406.211 229.004L406.671 228.56C407.421 226.418 408.074 224.269 408.301 222C408.622 218.808 407.957 215.573 405.98 213.022L405.587 212.869L404.927 212.628C401.965 211.477 399.696 211.855 396.688 211.338C393.921 210.862 391.281 209.656 388.952 208.117C379.771 202.049 375.922 188 373.891 177.876Z"/>
	<path fill="#F8E5B2" d="M373.891 177.876C372.821 164.217 370.916 150.868 371.689 137.112C372.529 122.165 375.151 104.902 386.872 94.3779C388.477 92.9371 390.123 91.5367 391.933 90.36C395.079 96.3093 398.081 102.27 402.025 107.746C413.152 123.193 430.123 134.571 447.453 141.952L460.1 146.665C462.386 147.52 465.144 148.375 467.077 149.88C471.913 153.647 473.799 159.363 472.04 165.241C470.573 170.143 466.988 174.494 462.342 176.686C459.694 177.936 456.765 178.67 453.899 179.203C449.744 190.052 447.654 201.348 447.514 212.978C447.463 217.193 447.411 221.37 448.25 225.518L448.424 226.407C449.258 230.362 451.62 233.852 455.02 236.053C459.412 238.896 465.796 239.421 470.803 240.75C481.811 243.671 494.755 247.96 504.158 254.526C508.35 257.453 511.649 261.577 514.345 265.878C523.399 280.318 529.536 296.708 535.988 312.42L561.181 372.309C565.28 381.934 568.932 392.22 573.674 401.509C577.508 410.596 580.818 420.614 585.536 429.219L605.766 475.533L615.193 496.729C616.12 498.719 617.142 501.901 618.446 503.592C618.99 504.298 622.26 505.57 623.174 506.041L652.412 520.437C655.617 522.055 660.936 524.008 663.231 526.686C666.534 530.539 668.97 537.3 671.239 541.868L693.919 590.607C692.612 590.286 690.003 587.579 688.852 586.608L663.012 563.364C659.796 560.403 655.875 555.749 652.149 553.584C650.406 552.571 647.482 552.398 645.5 552.027L634.67 549.508C626.465 547.162 619.153 544.459 612.741 538.599C602.832 529.544 596.269 517.237 589.352 505.872L542.625 421.97C528.588 418.808 514.551 416.231 501.217 410.726C487.641 435.417 470.967 462.56 468.569 491.186C468.119 496.556 468.623 501.84 469.049 507.187L426.239 482.78C420.273 479.428 413.838 475.094 407.591 472.465L404.711 469.591C404.124 467.198 402.177 464.646 400.862 462.522L382.31 432.888C379.191 427.602 376.653 421.654 373.22 416.626L353.455 367.986C352.694 367.381 352.964 367.531 352.234 367.149L345.474 363.24C335.154 356.165 328.953 345.956 326.862 333.694C325.437 325.338 326.626 314.901 332.131 308.19C336.035 303.432 340.922 299.421 344.422 294.332L344.673 293.957L343.641 277.049C343.889 271.034 344.742 264.734 347.294 259.231C354.838 242.966 374.692 236.301 391.021 233.234C396.508 232.203 401.871 233.09 406.211 229.004L406.671 228.56C407.421 226.418 408.074 224.269 408.301 222C408.622 218.808 407.957 215.573 405.98 213.022L405.587 212.869L404.927 212.628C401.965 211.477 399.696 211.855 396.688 211.338C393.921 210.862 391.281 209.656 388.952 208.117C379.771 202.049 375.922 188 373.891 177.876Z"/>
	<path fill="#C4B68B" d="M405.98 213.022C409.816 210.855 414.19 210.069 418.255 208.441C423.841 206.203 429.554 203.627 434.575 200.291C438.746 197.52 442.512 194.062 446.341 190.845C439.993 204.083 427.458 214.491 415.723 222.918C412.841 224.988 410.048 227.362 406.671 228.56C407.421 226.418 408.074 224.269 408.301 222C408.622 218.808 407.957 215.573 405.98 213.022Z"/>
	<path fill="#D65726" d="M486.692 317.198L533.405 403.923L542.625 421.97C528.588 418.808 514.551 416.231 501.217 410.726L489.365 403.341C478.818 395.253 473.09 383.568 471.409 370.516C471.436 363.842 471.602 357.266 472.65 350.657C478.278 340.127 483.282 328.658 486.692 317.198Z"/>
	<path fill="#003554" d="M471.409 370.516L500.384 387.312C511.17 393.704 521.195 400.494 533.405 403.923L542.625 421.97C528.588 418.808 514.551 416.231 501.217 410.726L489.365 403.341C478.818 395.253 473.09 383.568 471.409 370.516Z"/>
	<path fill="#14C395" d="M344.673 293.957L353.563 282.482C367.515 289.548 377.761 299.771 384.247 314.131C385.479 316.86 386.762 321.839 388.708 323.904C403.053 307.11 421.635 294.941 444.102 293.114C454.287 292.285 466.808 294.14 474.824 301.084C480.003 305.569 483.366 311.303 486.692 317.198C483.282 328.658 478.278 340.127 472.65 350.657C469.516 354.281 466.423 358.184 462.85 361.38C455.587 367.876 445.299 372.687 435.5 373.426C431.957 373.693 428.269 373.663 424.75 373.163C415.355 371.825 406.046 368.788 397.939 363.78C396.074 362.627 392.64 359.626 390.68 359.066C390.563 359.033 388.962 359.625 388.8 359.677L378.25 363C370.588 365.278 362.796 367.191 354.796 367.644C353.93 367.693 354.264 367.632 353.455 367.986C352.694 367.381 352.964 367.531 352.234 367.149L345.474 363.24C335.154 356.165 328.953 345.956 326.862 333.694C325.437 325.338 326.626 314.901 332.131 308.19C336.035 303.432 340.922 299.421 344.422 294.332L344.673 293.957Z"/>
	<path fill="#F8E5B2" d="M472.65 350.657C471.602 357.266 471.436 363.842 471.409 370.516C473.09 383.568 478.818 395.253 489.365 403.341L501.217 410.726C487.641 435.417 470.967 462.56 468.569 491.186C468.119 496.556 468.623 501.84 469.049 507.187L426.239 482.78C420.273 479.428 413.838 475.094 407.591 472.465L404.711 469.591C404.124 467.198 402.177 464.646 400.862 462.522L382.31 432.888C379.191 427.602 376.653 421.654 373.22 416.626L353.455 367.986C354.264 367.632 353.93 367.693 354.796 367.644C362.796 367.191 370.588 365.278 378.25 363L388.8 359.677C388.962 359.625 390.563 359.033 390.68 359.066C392.64 359.626 396.074 362.627 397.939 363.78C406.046 368.788 415.355 371.825 424.75 373.163C428.269 373.663 431.957 373.693 435.5 373.426C445.299 372.687 455.587 367.876 462.85 361.38C466.423 358.184 469.516 354.281 472.65 350.657Z"/>
</svg>
