<?xml version="1.0" encoding="utf-8" ?>
<svg xmlns="http://www.w3.org/2000/svg" xmlns:xlink="http://www.w3.org/1999/xlink" width="1024" height="1024">
	<path fill="#661C17" d="M-0 -0L1024 0L1024 1024L-0 1024L0 -0Z"/>
	<path fill="#EB4225" d="M490.428 888.065C477.985 887.502 465.159 884.671 453.189 881.33C407.765 868.654 366.789 842.943 335.044 808.107C303.057 773.008 282.737 728.251 276.633 681.214C274.651 665.943 274.478 650.526 275.217 635.161C277.261 592.687 290.644 549.89 306.817 510.851C313.676 494.294 321.098 477.65 329.886 462.01C337.985 447.598 347.659 434.518 356.72 420.754C358.804 439.557 361.832 458.131 366.007 476.588C369.108 490.296 372.73 503.964 378.139 516.961C380.857 523.491 384.295 529.85 387.715 536.034C386.419 492.152 402.196 449.336 419.839 409.887L439.497 367.617L456.503 332C460.34 323.577 464.231 315.1 466.99 306.25C470.92 293.646 473.312 280.295 475.135 267.231C478.305 244.505 479.376 221.363 477.957 198.453C476.558 175.858 474.749 151.883 467.985 130.177L504.309 175.966C541.465 225.316 574.333 279.463 593.522 338.5C601.074 361.733 606.217 385.561 609.519 409.75C612.789 433.697 614.1 458.974 612.206 483.108L609.877 503.927L627.698 459.852C636.779 434.755 644.212 408.967 646.259 382.237C673.114 421.553 697.418 462.588 715.851 506.578L725.599 532.5C737.363 564.961 745.46 597.821 747.83 632.384C749.255 653.16 748.87 674.123 744.987 694.639C738.61 728.338 726.098 760.359 706.204 788.466C689.903 811.495 668.225 831.758 644.981 847.562C618.072 865.858 588.37 878.146 556.5 884.532C546.864 886.462 536.53 888.279 526.662 888.352L502.406 888.734C498.451 888.649 494.313 888.814 490.428 888.065Z"/>
	<path fill="#FDCD2B" d="M490.428 888.065C474.873 878.014 458.557 869.172 443.365 858.489C430.922 849.739 418.546 839.246 408.17 828.127C397.74 816.95 389.424 805.414 386.021 790.25C381.099 768.32 388.013 745.284 399.925 726.801C414.297 704.501 432.166 684.091 448.603 663.301C462.903 645.213 477.258 627.231 488.474 607C505.969 575.44 511.511 542.271 511.406 506.544C511.369 494.149 510.888 481.843 509.396 469.532L503.393 433.499C511.117 442.748 517.282 453.479 523.512 463.755C555.86 517.106 576.894 580.455 571.217 643.416C569.069 667.24 563.393 690.333 554.067 712.362L572.966 692.768C591.549 672.492 610.598 648.058 614.762 620.129C632.575 659.534 640.359 706.907 636.669 749.876C635.485 763.667 633.181 777.458 628.25 790.445C615.262 824.65 590.774 848.247 560.397 867.623L526.662 888.352L502.406 888.734C498.451 888.649 494.313 888.814 490.428 888.065Z"/>
</svg>
