<?xml version="1.0" encoding="utf-8" ?>
<svg xmlns="http://www.w3.org/2000/svg" xmlns:xlink="http://www.w3.org/1999/xlink" width="1024" height="1024">
	<path fill="#F4D2BF" d="M-0 -0L1024 0L1024 1024L-0 1024L0 -0Z"/>
	<path fill="#006169" d="M297.941 840.498C300.556 840.89 304.752 839.749 307.405 839.245L315.25 886.048L305.747 887.761L297.941 840.498Z"/>
	<path fill="#03827E" d="M699.871 914.162C716.941 908.611 737.103 907.477 753.468 915.858C762.732 920.603 771.285 928.647 776.405 937.75C778.448 941.381 779.722 945.157 781.394 948.937L756.265 948.802C752.074 947.888 746.634 948.488 742.303 948.482L712.28 948.466C711.661 947.582 711.702 945.44 711.57 944.304C711.236 941.42 710.717 938.558 709.973 935.75C707.916 927.976 704.652 920.644 699.871 914.162Z"/>
	<path fill="#0ACBB5" d="M778.641 660.059L779.407 659.421C781.4 657.7 782.97 654.971 784.506 652.836L793.75 640.345C808.501 622.07 826.722 603.349 848 592.947C854.735 589.654 862.698 586.8 870.292 587.067C874.746 587.223 878.859 588.276 881.979 591.633C884.055 593.867 885.443 596.64 885.374 599.75C885.189 608.036 878.034 615.487 872.113 620.542C861.773 629.369 849.488 635.931 837.499 642.243C824.652 649.008 811.7 655.663 799.445 663.467C792.737 667.739 786.326 672.334 780.133 677.324C776.02 680.637 771.812 685.104 767.227 687.621C768.18 683.903 769.975 680.227 771.438 676.671C773.74 671.078 775.955 665.485 778.641 660.059Z"/>
	<path fill="#0ACBB5" d="M762.837 670.608C760.92 664.9 760.663 657.767 759.506 651.75C756.876 638.068 753.714 624.831 749.026 611.688C746.203 603.774 743.032 596.056 739.396 588.482C732.439 573.99 724.545 560.879 723.236 544.44C722.806 539.048 723.377 532.385 727.213 528.214C729.688 525.523 733.285 524.097 736.891 523.981C741.804 523.824 746.113 526.232 749.647 529.485C762.107 540.953 767.068 561.271 770.427 577.261C772.672 587.949 774.456 598.885 774.945 609.811C775.428 620.564 774.24 631.418 774.802 642.089L774.829 642.534L762.837 670.608Z"/>
	<path fill="#F4573E" d="M828.951 524.149C822.591 518.75 816.844 511.921 814.496 503.75L814.239 502.876C811.224 492.334 812.394 480.664 817.75 471.067C823.452 460.851 832.775 453.507 844.035 450.381C854.879 447.37 866.496 449.568 876.113 455.131C886.054 460.882 892.878 470.5 895.748 481.542C898.462 491.982 896.72 503.97 891.262 513.262C885.967 522.275 876.571 529.35 866.378 531.797L862 532.623L861.214 532.751C853.042 533.991 844.612 532.107 837.068 529.02C834.122 527.87 831.561 525.91 828.951 524.149Z"/>
	<path fill="#006169" d="M506.774 293.411L515.237 291.37L536.037 513.035L535.891 514.584L533.25 645.454L521.497 757.369C517.831 783.231 514.084 809.612 507.633 834.943L493.207 888.143C486.357 885.332 478.094 883.944 470.738 883.39L484.691 834.979L491.419 807.472L510.463 703L518.332 621.892L518.542 621.827L518.451 620.192L506.774 293.411Z"/>
	<path fill="#EB183D" d="M433.246 187.585L432.732 183.662C431.814 175.575 431.211 167.21 431.575 159.071C432.998 127.224 445.846 97.1936 465.558 72.4124L471.301 76.2015C502.576 97.8587 529.662 132.541 536.598 170.509C536.599 171.173 536.744 171.852 536.601 172.5C536.418 173.331 534.715 175.304 534.193 176.084L527.709 186.252C522.018 195.757 517.043 206.243 513.497 216.75C506.859 236.422 504.202 259.049 504.564 279.708L495.75 259.326C485.419 238.249 471.987 219.74 454.226 204.281L441.759 194.273C439.185 192.36 435.024 190.197 433.246 187.585Z"/>
	<path fill="#03827E" d="M315.25 886.048C321.406 885.971 327.631 885.746 333.75 886.547C350.281 888.711 364.731 896.152 377.884 906.057C379.921 902.912 381.248 898.881 382.94 895.475C387.465 886.368 393.38 878.003 400.426 870.657C417.639 852.715 441.142 840.321 465.72 836.355C472.02 835.339 478.327 835.123 484.691 834.979L470.738 883.39C451.281 881.474 432.473 889.924 417.662 902.057C407.581 910.316 399.157 921.006 393.146 932.54C391.032 936.596 389.359 940.889 387.988 945.249C387.863 945.646 387.041 948.457 387.032 948.461C386.666 948.666 383.664 948.471 383.074 948.473C379.949 948.482 362.093 947.842 360.605 948.855L229.818 948.78L233.546 941.913C244.486 923.538 260.086 907.484 279.16 897.495C287.589 893.08 296.55 890.099 305.747 887.761L315.25 886.048Z"/>
	<path fill="#082F4D" d="M828.951 524.149C831.561 525.91 834.122 527.87 837.068 529.02L778.641 660.059C775.955 665.485 773.74 671.078 771.438 676.671C769.975 680.227 768.18 683.903 767.227 687.621C764.102 693.84 761.821 700.553 759.264 707.028L742.827 751.2C739.483 760.669 735.181 770.468 732.729 780.183C751.647 753.631 771.752 724.146 800.689 707.647C807.596 703.709 815.334 700.238 823.25 699.011C829.006 698.119 835.818 698.294 840.614 702.008C843.365 704.138 845.201 707.267 845.501 710.75C846.077 717.423 842.378 723.539 838.146 728.438C832.143 735.385 824.146 738.918 816.124 743.007L794.66 754.091C771.708 766.43 751.827 783.29 733.982 802.136C730.648 805.657 726.484 809.462 723.865 813.491C722.677 815.318 722.094 817.929 721.441 820L716.694 837.122L704.306 884.438C702.098 893.825 699.73 903.199 699.091 912.853L688.94 901.302L708.255 828.201L713.67 810.426C714.607 807.524 716.343 803.7 716.554 800.733C716.676 799.012 716.132 796.922 715.819 795.228L712.8 782.041C708.704 765.94 703.053 750.531 695.965 735.5L684.485 714C678.757 704.238 672.289 694.917 667.975 684.388C666.083 679.773 664.491 675.288 664.425 670.254C664.35 664.641 665.427 659.214 669.609 655.112C672.245 652.527 675.114 651.43 678.736 651.399C685.564 651.341 690.665 653.829 695.448 658.623C702.752 665.943 708.005 676.296 711.962 685.741C722.162 710.09 727.41 736.218 727.57 762.576L749.849 702.728L757.788 683.075C759.496 679.001 761.96 674.946 762.837 670.608L774.829 642.534L828.951 524.149Z"/>
	<path fill="#0ACBB5" d="M493.207 888.143L507.633 834.943C531.248 837.122 554.605 844.8 573.846 858.874C579.497 863.007 585.168 867.703 589.618 873.132L592.498 876.905C623.038 872.973 654.803 874.726 680.191 894.293L688.94 901.302L699.091 912.853L699.871 914.162C704.652 920.644 707.916 927.976 709.973 935.75C710.717 938.558 711.236 941.42 711.57 944.304C711.702 945.44 711.661 947.582 712.28 948.466L742.303 948.482C746.634 948.488 752.074 947.888 756.265 948.802L360.605 948.855C362.093 947.842 379.949 948.482 383.074 948.473C383.664 948.471 386.666 948.666 387.032 948.461C387.041 948.457 387.863 945.646 387.988 945.249C389.359 940.889 391.032 936.596 393.146 932.54C399.157 921.006 407.581 910.316 417.662 902.057C432.473 889.924 451.281 881.474 470.738 883.39C478.094 883.944 486.357 885.332 493.207 888.143Z"/>
	<path fill="#03827E" d="M493.207 888.143L507.633 834.943C531.248 837.122 554.605 844.8 573.846 858.874C579.497 863.007 585.168 867.703 589.618 873.132L592.498 876.905C571.347 881.531 548.675 889.398 536.366 908.519L532.329 915.905C521.269 901.87 509.999 894.07 493.207 888.143Z"/>
	<path fill="#03827E" d="M536.037 513.035L536.437 512.681C537.618 511.337 538.134 508.304 538.766 506.576L543.182 495.908L565.087 452.816C598.593 394.151 647.828 349.096 709.113 320.66C732.006 310.038 756.528 301.739 781.549 297.96L783.641 297.712C764.351 370.226 723.234 442.143 656.804 480.8C629.146 496.894 598.657 505.97 567.257 511.162C557.062 512.848 546.241 514.545 535.891 514.584L536.037 513.035Z"/>
	<path fill="#03827E" d="M518.332 621.892C517.107 620.445 503.883 620.041 501.102 619.63C460.02 613.558 421.088 599.357 386.348 576.483C323.36 535.01 287.029 467.681 272.139 395.122C285.152 397.741 297.859 402.265 310.359 406.665C385.94 433.268 448.677 484.612 488.538 554.272C494.306 564.352 499.881 574.533 504.533 585.187L511.234 601.538L515.35 613.274C516.017 615.243 516.596 617.844 517.882 619.499L518.451 620.192L518.542 621.827L518.332 621.892Z"/>
	<path fill="#F4573E" d="M536.598 170.509L537.398 171.25C542.306 165.444 546.905 159.376 552.249 153.955C564.492 141.534 578.199 131.713 593.229 122.94C602.704 117.41 613.34 111.866 623.798 108.403C633.621 145.717 629.719 183.318 609.993 216.75C593.718 244.333 569.506 266.278 540.838 280.482L525.276 287.363C521.988 288.656 518.332 289.699 515.237 291.37L506.774 293.411C474.611 295.49 442.616 289.221 413.391 275.757C402.406 270.697 391.894 264.867 382.318 257.442C351.848 233.814 331.269 201.608 326.317 163.031C354.898 157.161 385.547 164.644 411.594 176.719L425 183.554C427.302 184.808 429.953 186.816 432.475 187.418L433.246 187.585C435.024 190.197 439.185 192.36 441.759 194.273L454.226 204.281C471.987 219.74 485.419 238.249 495.75 259.326L504.564 279.708C504.202 259.049 506.859 236.422 513.497 216.75C517.043 206.243 522.018 195.757 527.709 186.252L534.193 176.084C534.715 175.304 536.418 173.331 536.601 172.5C536.744 171.852 536.599 171.173 536.598 170.509Z"/>
	<path fill="#0ACBB5" d="M297.941 840.498C291.806 840.542 285.547 840.788 279.426 840.463C253.4 839.08 226.798 829.739 204.941 815.768C161.839 788.217 140.808 744.169 130.202 695.584C139.924 695.113 149.495 694.355 159.25 694.564C180.846 695.028 203.192 699.327 222.808 708.568C250 721.378 271.603 746.048 283.744 773.25C288.198 783.228 291.191 793.814 294.866 804.091C295.159 781.77 298.712 760.882 307.833 740.431C323.264 705.83 353.614 681.56 388.529 668.287C394.435 666.042 418.281 657.526 423.225 659.75C423.505 660.34 423.762 660.844 423.857 661.5C424.732 667.521 424.483 674.211 424.495 680.29C424.564 714.368 417.295 748.245 398.76 777.207C380.88 805.144 355.485 824.714 323.937 835.125C318.548 836.904 312.94 838.025 307.405 839.245C304.752 839.749 300.556 840.89 297.941 840.498Z"/>
</svg>
