<?xml version="1.0" encoding="utf-8" ?>
<svg xmlns="http://www.w3.org/2000/svg" xmlns:xlink="http://www.w3.org/1999/xlink" width="1024" height="1024">
	<path fill="#157AAE" d="M-0 -0L1024 0L1024 1024L-0 1024L0 -0Z"/>
	<path fill="#CA2318" d="M511.446 271.131C516.193 271.74 520.611 272.657 523.76 276.637C524.806 277.959 525.949 279.693 526.302 281.366C527.287 286.031 526.445 292.63 526.433 297.463L526.259 340.389L526.016 375.189L499.492 375.212L499.05 323.905L498.896 288.143C498.979 284.771 499.066 280.452 500.772 277.453C502.942 273.638 507.524 272.29 511.446 271.131Z"/>
	<path fill="#34B947" d="M499.05 323.905C483.552 324.223 468.259 324.406 452.828 322.528C415.95 318.039 379.855 301.707 350.907 278.612C320.213 254.124 296.996 219.567 284.666 182.403C279.364 166.424 276.213 149.667 274.339 132.968L300.484 132.708C373.571 137.585 439.822 181.074 477.109 243.514C482.719 252.908 487.673 262.501 491.88 272.608L495.653 282.219C496.341 283.999 496.906 286.149 498.26 287.54L498.896 288.143L499.05 323.905Z"/>
	<path fill="#34B947" d="M511.446 271.131C511.274 265.338 513.019 258.866 514.178 253.193C521.486 217.441 539.35 182.832 564.412 156.31C586.639 132.788 614.589 114.225 644.873 102.83C654.977 99.0287 665.333 96.2358 675.67 93.176C688.822 145.521 680.625 202.841 652.824 249.201C631.857 284.166 601.31 310.884 564.068 327.394C551.734 332.862 539.223 336.793 526.259 340.389L526.433 297.463C526.445 292.63 527.287 286.031 526.302 281.366C525.949 279.693 524.806 277.959 523.76 276.637C520.611 272.657 516.193 271.74 511.446 271.131Z"/>
	<path fill="#E9D431" d="M229.16 758.061L785.93 758.616C789.129 759.319 792.573 759.053 795.844 759.056L812.333 759.108L874.277 759.166C874.711 760.173 874.534 761.512 874.536 762.614C874.578 800.702 858.869 838.514 831.853 865.466C813.313 883.961 788.597 897.813 763.071 903.778C747.196 907.488 730.923 906.777 714.742 906.792L669.112 906.811L511.645 906.796L358.374 906.575L312.786 906.563C296.389 906.546 280.273 907.172 264.154 903.501C235.526 896.981 209.362 883.233 188.585 862.384C169.314 843.045 155.976 817.108 151.159 790.25C149.268 779.705 148.981 769.078 148.985 758.398L205.325 758.306C212.917 758.262 221.201 759.059 228.692 758.125L229.16 758.061Z"/>
	<path fill="#EB7C20" d="M526.016 375.189L572.408 378.361C661.359 388.818 753.659 420 814.33 489.071C851.507 531.396 874.338 587.65 874.596 644.16L806.872 643.972L793.413 657.438C807.444 661.124 818.306 668.462 825.764 681.128C832.455 692.491 835.255 706.975 831.806 719.86C828.344 732.792 819.594 745.784 807.889 752.584C803.949 754.873 799.597 756.368 795.12 757.157C792.035 757.701 788.965 757.76 785.93 758.616L229.16 758.061C226.961 756.799 224.579 756.301 222.25 755.352C214.183 752.061 207.325 746.789 202.122 739.784C194.001 728.851 190.192 714.275 192.288 700.768C193.285 694.337 194.954 688.419 198.073 682.681C205.291 669.403 216.75 662.706 230.813 658.509C228.061 656.92 224.589 656.008 221.587 654.956L205.227 648.978C201.321 647.497 197.016 645.974 193.535 643.631L147.047 643.448C146.921 627.978 149.299 612.258 152.934 597.255C163.347 554.274 185.311 516.278 215.182 483.871C229.279 468.578 245.436 455.513 262.598 443.813C318.8 405.497 387.135 385.501 454.25 378.21L499.492 375.212L526.016 375.189Z"/>
	<path fill="#CA2318" d="M422.979 425.177C426.155 425.331 428.816 425.647 431.71 427.056C436.224 429.254 439.702 432.923 441.358 437.695L441.627 438.5L442.278 440.649C443.108 444.892 442.192 449.333 439.875 452.958C436.279 458.587 431.452 460.716 425.176 462.081C421.18 462.097 417.686 461.766 414.134 459.766C410.283 457.599 406.746 452.985 405.505 448.809L405.346 448.25L404.804 446.255C403.911 441.924 404.988 436.832 407.61 433.25C411.37 428.115 416.903 425.911 422.979 425.177Z"/>
	<path fill="#CA2318" d="M238.367 519.209C242.574 519.089 246.49 519.098 250.244 521.24C255.306 524.127 258.194 529.033 259.612 534.575C260.708 538.856 259.613 543.537 257.341 547.25C254.026 552.668 248.866 555.216 242.905 556.518C238.921 556.626 235.522 555.991 232 554.089C227.471 551.643 222.757 546.442 221.657 541.242C220.749 536.945 221.81 532.165 224.15 528.504C227.618 523.081 232.211 520.406 238.367 519.209Z"/>
	<path fill="#CA2318" d="M302.816 462.592C306.585 462.265 310.375 462.238 313.906 463.759C319.286 466.077 322.708 470.132 324.815 475.541C326.45 479.739 326.123 484.187 324.256 488.25C321.543 494.156 317.021 497.399 311.088 499.559C307.047 500.36 302.315 500.025 298.556 498.271C293.881 496.089 290.471 492.27 288.761 487.42C286.968 482.337 287.379 476.721 289.903 471.947C292.715 466.628 297.325 464.271 302.816 462.592Z"/>
	<path fill="#34B947" d="M193.535 643.631L806.872 643.972L793.413 657.438L768.88 679.365C761.343 685.936 754.226 693.186 745.383 698.046C737.023 702.641 727.208 704.355 717.75 704.094C699.646 703.593 685.655 694.855 669.81 687.354C654.782 680.241 639.254 675.511 622.505 676.343C601.827 677.371 582.557 687.03 563.282 693.781C508.684 712.905 450.41 724.046 392.59 715.25C352.707 709.183 314.099 693.851 277.303 677.828L249.618 665.645C243.65 663.044 237.222 659.758 230.813 658.509C228.061 656.92 224.589 656.008 221.587 654.956L205.227 648.978C201.321 647.497 197.016 645.974 193.535 643.631Z"/>
	<path fill="#CA2318" d="M793.413 657.438C807.444 661.124 818.306 668.462 825.764 681.128C832.455 692.491 835.255 706.975 831.806 719.86C828.344 732.792 819.594 745.784 807.889 752.584C803.949 754.873 799.597 756.368 795.12 757.157C792.035 757.701 788.965 757.76 785.93 758.616L229.16 758.061C226.961 756.799 224.579 756.301 222.25 755.352C214.183 752.061 207.325 746.789 202.122 739.784C194.001 728.851 190.192 714.275 192.288 700.768C193.285 694.337 194.954 688.419 198.073 682.681C205.291 669.403 216.75 662.706 230.813 658.509C237.222 659.758 243.65 663.044 249.618 665.645L277.303 677.828C314.099 693.851 352.707 709.183 392.59 715.25C450.41 724.046 508.684 712.905 563.282 693.781C582.557 687.03 601.827 677.371 622.505 676.343C639.254 675.511 654.782 680.241 669.81 687.354C685.655 694.855 699.646 703.593 717.75 704.094C727.208 704.355 737.023 702.641 745.383 698.046C754.226 693.186 761.343 685.936 768.88 679.365L793.413 657.438Z"/>
</svg>
