<?xml version="1.0" encoding="utf-8" ?>
<svg xmlns="http://www.w3.org/2000/svg" xmlns:xlink="http://www.w3.org/1999/xlink" width="1024" height="1024">
	<path fill="#0D184D" d="M-0 -0L1024 0L1024 1024L-0 1024L0 -0Z"/>
	<path fill="#FEC616" d="M805.897 202.546C808.295 202.462 810.672 202.612 812.913 203.561C816.489 205.075 818.726 208.024 820.01 211.611C821.235 215.034 820.64 219.219 818.956 222.365C816.946 226.117 813.271 227.82 809.347 228.867C806.964 228.725 804.677 228.633 802.458 227.647C798.998 226.111 795.874 222.779 794.746 219.125C793.766 215.95 794.497 211.764 796.2 208.987C798.488 205.256 801.823 203.576 805.897 202.546Z"/>
	<path fill="#24D5E8" d="M350.168 105.139C352.02 105.013 353.828 105.103 355.666 105.348C361.044 106.063 365.705 109.481 368.902 113.75C371.822 117.651 373.504 123.12 372.703 127.999L372.566 128.75C372.081 131.53 371.067 134.005 369.523 136.363C365.966 141.795 361.286 144.162 355.078 145.384C349.936 145.658 345.375 144.962 341.002 142.007C336.491 138.959 333.449 134.118 332.432 128.79C331.38 123.286 332.787 118.244 335.99 113.721C339.683 108.507 343.995 106.228 350.168 105.139Z"/>
	<path fill="#FA9515" d="M777.702 456.139C778.265 461.397 778.012 466.815 778.013 472.099L777.887 494.6C776.76 494.772 775.079 497.195 774.25 498.08C770.447 502.138 755.707 519.323 751.319 519.873C747.803 520.314 744.134 517.558 741.614 515.367C738.762 512.888 733.977 508.495 733.867 504.481C733.814 502.523 734.985 501.09 736.132 499.623C739.86 494.852 744.728 490.649 748.88 486.222L777.702 456.139Z"/>
	<path fill="#24D5E8" d="M900.565 655.194C904.919 655.357 908.265 655.966 912.053 658.232C917.083 661.242 921.55 666.963 922.76 672.753C923.828 677.864 922.762 684.145 919.915 688.5C915.919 694.613 910.183 697.23 903.237 698.634C900.998 698.608 898.514 698.753 896.335 698.199L895.75 698.038C893.15 697.337 890.931 696.463 888.708 694.913C883.778 691.475 880.548 685.934 879.668 680C878.843 674.438 880.528 668.053 884.038 663.66C888.391 658.211 893.821 655.98 900.565 655.194Z"/>
	<path fill="#FA9515" d="M832.892 457.807L864.363 487.855C869.009 492.273 874.93 496.829 878.864 501.785C879.539 502.635 879.944 503.387 880.022 504.5C880.33 508.846 876.728 514.771 873.711 517.63C872.21 519.052 870.913 519.885 869 520.604L868.366 520.857C866.545 521.532 861.753 522.095 859.931 521.239C855.972 519.379 851.776 513.997 848.733 510.899L832.586 494.406C833.165 490.591 832.765 486.14 832.772 482.25L832.892 457.807Z"/>
	<path fill="#24D5E8" d="M727.798 809.008C730.365 808.064 734.077 808.681 736.825 808.753L752.434 808.897L806.109 808.765L806.43 860.47C806.44 869.888 807.631 880.948 805.667 890.115L780.368 832.066C780.059 831.221 780.363 831.527 779.496 831.204L743.241 815.953C738.366 813.841 732.624 812.059 728.151 809.239L727.798 809.008Z"/>
	<path fill="#24D5E8" d="M805.156 725.759C805.689 724.254 806.193 722.901 807.04 721.542C813.065 733.277 817.501 745.7 822.592 757.843L829.295 774.374C829.994 776.203 831.234 778.487 831.57 780.383C829.356 782.523 827.598 785.006 825.5 787.25L813.151 799.964C811.201 802.03 809.227 804.755 807.05 806.516L806.328 806.698C804.958 803.966 801.721 801.214 799.575 798.924C793.907 792.874 788.209 786.447 782.019 780.95L805.156 725.759Z"/>
	<path fill="#8DEBF4" d="M805.156 725.759C807.49 729.642 806.747 787.417 806.919 796.824C806.96 799.068 806.223 804.66 807.05 806.516L806.328 806.698C804.958 803.966 801.721 801.214 799.575 798.924C793.907 792.874 788.209 786.447 782.019 780.95L805.156 725.759Z"/>
	<path fill="#F8F9F9" d="M123.212 371.888L145.082 371.904L145.08 391.996L165.511 391.983L165.509 414.077L144.712 414.068L144.66 434.959L123.483 435.032L123.5 413.984L103.213 413.996L103.25 392.005L123.162 392.012L123.212 371.888Z"/>
	<path fill="#11939B" d="M889.656 807.918L891.25 808.339L891.467 808.906C884.409 812.476 876.845 815.579 869.5 818.525C865.381 820.177 835.392 830.93 834.026 832.741C833.487 833.455 833.072 835.192 832.729 836.062L829.091 844.8L807.54 893.873C806.845 892.634 806.118 891.468 805.667 890.115C807.631 880.948 806.44 869.888 806.43 860.47L806.109 808.765C816.689 808.693 885.813 809.93 889.656 807.918Z"/>
	<path fill="#F8F9F9" d="M831.57 780.383L872.444 799.29C877.839 801.835 884.892 804.405 889.656 807.918C885.813 809.93 816.689 808.693 806.109 808.765L752.434 808.897L736.825 808.753C734.077 808.681 730.365 808.064 727.798 809.008C726.775 808.755 727.261 808.987 726.371 808.25C732.68 803.796 740.548 800.604 747.509 797.271L782.019 780.95C788.209 786.447 793.907 792.874 799.575 798.924C801.721 801.214 804.958 803.966 806.328 806.698L807.05 806.516C809.227 804.755 811.201 802.03 813.151 799.964L825.5 787.25C827.598 785.006 829.356 782.523 831.57 780.383Z"/>
	<path fill="#F8F9F9" d="M649.143 857.467L665.166 857.335C667.506 857.322 670.735 856.905 672.942 857.579L672.679 878.633L694.486 878.553L694.458 902.199L672.928 902.092L672.898 921.67L649.497 921.921L649.442 901.968L628.28 902.086L628.365 878.207L649.081 878.388L649.143 857.467Z"/>
	<path fill="#D8ECEC" d="M652.348 341.426C665.173 343.013 677.06 347.552 685.342 358.039C693.381 368.218 696.681 380.167 695.061 393.058C693.624 404.501 687.113 415.443 677.98 422.443C669.311 429.087 657.287 433.633 646.241 432.31L644.939 432.031C647.309 431.749 649.824 431.899 652.215 431.882C652.884 430.429 652.228 427.164 652.17 425.435L652.04 409.769L652.348 341.426Z"/>
	<path fill="#F02745" d="M326.362 460.064C319.452 460.099 310.399 455.286 304.825 451.54C295.441 445.233 288.643 435.352 286.487 424.178L286.316 423.25L285.669 419C284.637 406.418 288.572 393.771 296.903 384.243C305.923 373.928 317.379 369.383 330.795 368.444L330.563 389.071C332.649 392.102 333.838 395.169 333.09 398.89C332.69 400.884 331.812 402.738 330.826 404.506L330.879 449.25L330.931 457.214C330.935 457.558 331.075 458.934 330.952 459.25C330.822 459.584 330.484 459.793 330.25 460.065L326.362 460.064Z"/>
	<path fill="#F8F9F9" d="M330.826 404.506C329.321 405.876 327.278 407.365 325.272 407.835C322.311 408.531 318.952 407.891 316.432 406.235C313.793 404.499 311.934 401.608 311.375 398.502C310.887 395.797 311.433 392.982 313.066 390.75C314.853 388.307 317.708 386.416 320.75 386.04C324.69 385.552 327.504 386.629 330.563 389.071C332.649 392.102 333.838 395.169 333.09 398.89C332.69 400.884 331.812 402.738 330.826 404.506Z"/>
	<path fill="#D90F3D" d="M330.795 368.444C344.695 368.879 356.494 373.138 366.186 383.453C374.556 392.362 378.771 404.519 378.253 416.704C377.711 429.473 372.276 440.555 362.75 449.019C353.244 457.467 340.836 461.087 328.275 460.375C327.615 460.338 327.001 460.229 326.362 460.064L330.25 460.065C330.484 459.793 330.822 459.584 330.952 459.25C331.075 458.934 330.935 457.558 330.931 457.214L330.879 449.25L330.826 404.506C331.812 402.738 332.69 400.884 333.09 398.89C333.838 395.169 332.649 392.102 330.563 389.071L330.795 368.444Z"/>
	<path fill="#F8F9F9" d="M644.939 432.031C635.791 432.15 624.695 426.575 618.133 420.427C608.874 411.752 603.804 399.993 603.555 387.303C603.318 375.269 608.865 363.442 617.219 355.012C626.844 345.301 638.969 341.557 652.348 341.426L652.04 409.769L652.17 425.435C652.228 427.164 652.884 430.429 652.215 431.882C649.824 431.899 647.309 431.749 644.939 432.031Z"/>
	<path fill="#F8F9F9" d="M502.991 519.311L503.002 328.233L521.111 328.293L521.529 519.433C519.16 519.799 516.544 519.587 514.143 519.596C510.455 519.608 506.635 519.858 502.991 519.311Z"/>
	<path fill="#F02745" d="M777.539 579.435L832.534 579.546L846.998 579.329L847.013 601.731L858.493 601.648L858.381 622.469L755.126 622.818L755.098 601.495L766.02 601.457L765.951 579.214L776.857 579.37L777.539 579.435Z"/>
	<path fill="#FA9515" d="M838.062 229.519L901.246 229.45C897.688 253.235 885.018 273.537 866.32 288.401C852.78 299.07 837.984 304.306 821.201 307.246L821.013 251.642C821.01 251.095 820.867 246.751 820.983 246.608C821.442 246.042 824.203 244.936 824.988 244.491C831.208 240.972 834.908 235.744 838.062 229.519Z"/>
	<path fill="#FEC616" d="M715.079 229.494L766.893 229.474L774.891 229.473C775.208 229.473 777.054 229.391 777.214 229.472C777.386 229.56 778.257 231.571 778.475 231.993C779.643 234.255 780.943 236.573 782.628 238.491C786.168 242.522 789.984 244.614 794.925 246.52L794.734 307.624C789.407 306.548 783.946 305.575 778.75 303.972C768.567 300.83 758.439 295.298 750.008 288.832C731.056 274.301 718.204 253.211 715.079 229.494Z"/>
	<path fill="#FEC616" d="M793.292 118.75C794.148 118.869 793.698 118.735 794.61 119.25L794.578 184.068L793.528 184.468C785.966 187.528 780.413 193.9 777.322 201.33L777.052 202L716.25 201.964L715.13 201.467C714.874 197.695 715.858 193.433 716.673 189.738C719.37 177.522 723.981 166.583 731.34 156.438C741.984 141.764 758.299 128.678 775.459 122.73C781.133 120.763 787.378 119.715 793.292 118.75Z"/>
	<path fill="#FA9515" d="M820.467 118.913C836.742 120.455 852.562 126.926 865.43 137.002C886.178 153.251 898.446 175.737 901.674 201.769C895.817 201.777 838.646 202.264 838.187 201.93C837.682 201.563 836.766 199.211 836.475 198.605C832.866 191.106 827.869 187.277 820.505 183.69L820.467 118.913Z"/>
	<path fill="#FA9515" d="M196.135 576.368L287.444 576.374L287.452 606.003C287.442 610.077 288.011 615.291 287.121 619.223C286.441 622.227 284.75 624.883 282.532 626.996C280.69 628.75 278.397 630.265 275.814 630.584C271.012 631.177 265.745 630.81 260.899 630.819L233.29 630.848L136.724 630.814C141.424 629.475 148.948 630.399 153.998 630.397L196.438 630.553L196.135 576.368Z"/>
	<path fill="#FEC616" d="M136.724 630.814L132.402 630.851C123.649 630.921 113.781 632.77 107.101 625.909C105.428 624.191 103.937 621.86 103.352 619.52C102.338 615.464 102.972 609.858 102.96 605.629L102.939 576.363L196.135 576.368L196.438 630.553L153.998 630.397C148.948 630.399 141.424 629.475 136.724 630.814Z"/>
	<path fill="#FA9515" d="M116.359 497.399C127.484 496.68 138.891 497.157 150.045 497.143L211.366 497.126L253.197 497.141C260.263 497.136 267.778 496.572 274.772 497.349C277.49 497.651 279.82 498.721 281.863 500.538C285.432 503.712 287.184 507.996 287.368 512.722L287.391 555.809L196.085 555.577L196.102 497.503L116.359 497.399Z"/>
	<path fill="#0D184D" d="M250.617 517.57C252.949 517.443 254.951 517.379 257.184 518.138C260.04 519.108 262.05 521.043 263.353 523.75C264.756 526.662 264.913 529.953 263.739 532.973C262.217 536.887 259.318 538.651 255.672 540.224C253.56 540.519 251.673 540.421 249.666 539.616C246.508 538.349 244.082 536.23 242.757 533.047C241.707 530.525 241.644 526.956 242.717 524.439C244.334 520.642 246.981 519.043 250.617 517.57Z"/>
	<path fill="#FEC616" d="M196.085 555.577L102.891 555.678L102.888 523.734C102.894 518.833 102.355 513.176 103.095 508.351C103.473 505.878 104.998 503.61 106.673 501.832C109.585 498.74 112.152 497.522 116.359 497.399L196.102 497.503L196.085 555.577Z"/>
	<path fill="#0D184D" d="M136.054 518.093C137.996 517.984 140.023 517.775 141.926 518.267C145.307 519.141 147.707 520.916 149.373 524.026C150.846 526.777 150.818 529.989 149.805 532.89C148.431 536.825 145.514 538.579 141.891 540.262C139.451 540.505 137.537 540.64 135.185 539.831C132.282 538.833 130.055 536.528 128.793 533.776C127.633 531.247 127.634 527.778 128.613 525.19C130.063 521.356 132.442 519.702 136.054 518.093Z"/>
	<path fill="#FEC616" d="M777.702 456.139L777.802 437.205C777.879 426.195 777.847 417.399 786.134 409.076C791.564 403.621 798.469 401.37 806.076 401.394C813.901 401.419 819.731 404.27 825.153 409.772C828.249 412.913 830.656 416.515 831.944 420.75C833.303 425.218 832.877 430.93 832.889 435.575L832.892 457.807L832.772 482.25C832.765 486.14 833.165 490.591 832.586 494.406L832.534 579.546L777.539 579.435L777.887 494.6L778.013 472.099C778.012 466.815 778.265 461.397 777.702 456.139Z"/>
	<path fill="#0D184D" d="M804.912 416.61C807.267 416.649 809.99 417.267 812 418.539C814.778 420.296 816.928 423.206 817.556 426.462C818.097 429.263 817.416 432.562 815.793 434.912C813.409 438.365 810.222 439.632 806.281 440.507C803.9 440.358 801.459 439.866 799.367 438.661C796.458 436.987 794.583 434.237 793.838 431C793.12 427.877 794.001 424.735 795.682 422.071C797.85 418.635 801.12 417.407 804.912 416.61Z"/>
	<path fill="#F02745" d="M802.915 457.064C805.339 456.983 807.676 456.846 809.999 457.69C814.069 459.166 817.15 461.972 818.785 466.007C820.308 469.765 819.925 474.049 818.167 477.665C816.142 481.829 812.767 483.778 808.537 485.138C805.299 485.058 802.313 485.263 799.28 483.853C795.667 482.173 793.015 479.444 791.778 475.615C790.516 471.71 791.022 467.299 793.051 463.735C795.285 459.807 798.712 458.097 802.915 457.064Z"/>
	<path fill="#FA9515" d="M208.008 729.104L248.598 729.097L248.577 772.521L290.6 772.494L290.427 859.643L248.673 859.569L248.611 903.108L208.061 903.056L208.008 729.104Z"/>
	<path fill="#FEC616" d="M208.061 903.056L168.461 903.051L168.456 859.542L123.525 859.57L123.453 772.529L168.036 772.606C169.069 770.533 168.39 764.414 168.396 761.906L168.473 729.359C170.824 728.395 176.283 729.062 179.006 729.064L208.008 729.104L208.061 903.056Z"/>
	<path fill="#F02745" d="M447.937 692.588L511.544 692.482L511.168 817.15C511.2 828.714 512.248 922.412 510.933 924.589C509.347 923.617 507.633 921.521 506.289 920.201L496.946 910.994L447.539 861.275L447.497 747.639L447.432 706.908C447.429 703.335 446.464 695.719 447.937 692.588Z"/>
	<path fill="#D90F3D" d="M511.544 692.482L575.67 692.485C576.535 697.824 576.017 703.905 576.024 709.353L576.031 742.301L575.807 861.845L512.25 925.383L511.381 925.262L510.933 924.589C512.248 922.412 511.2 828.714 511.168 817.15L511.544 692.482Z"/>
	<path fill="#12AEAA" d="M511.46 299.036C488.772 299.168 464.736 289.436 447.796 274.521C427.82 256.934 415.11 232.292 413.572 205.572C411.99 178.094 420.361 150.739 438.884 130.153C456.033 111.094 480.325 99.3158 505.931 97.9335L510.97 98.1816C512.282 100.505 511.424 123.813 511.422 127.991L511.398 182.617L511.442 195.25C511.457 197.147 511.745 199.561 511.36 201.403L511.25 201.791C509.443 202.447 507.595 202.128 505.741 202.415L487.749 202.454C485.532 202.466 482.359 202.11 480.25 202.588C479.546 202.747 478.557 203.525 478.069 204.042C476.211 206.008 475.235 208.529 475.557 211.25C475.729 212.698 476.832 214.229 477.975 215.091C481.478 217.735 505.447 216.51 511.128 216.505L511.46 299.036Z"/>
	<path fill="#0D184D" d="M464.943 141.462L494.545 141.425L494.614 173.913L464.911 173.946L464.943 141.462Z"/>
	<path fill="#11939B" d="M505.931 97.9335C509.75 97.324 513.629 97.6888 517.473 97.8881C535.944 98.8457 554.736 105.349 569.733 116.211C590.707 131.401 606.115 157.041 609.993 182.625C614.159 210.107 607.01 237.954 590.386 260.178C574.952 280.809 550.124 294.634 524.684 298.183L511.46 299.036L511.128 216.505C505.447 216.51 481.478 217.735 477.975 215.091C476.832 214.229 475.729 212.698 475.557 211.25C475.235 208.529 476.211 206.008 478.069 204.042C478.557 203.525 479.546 202.747 480.25 202.588C482.359 202.11 485.532 202.466 487.749 202.454L505.741 202.415C507.595 202.128 509.443 202.447 511.25 201.791L511.36 201.403C511.745 199.561 511.457 197.147 511.442 195.25L511.398 182.617L511.422 127.991C511.424 123.813 512.282 100.505 510.97 98.1816L505.931 97.9335Z"/>
	<path fill="#0D184D" d="M505.741 202.415L531.529 202.43C534.464 202.429 538.374 201.938 541.223 202.507C542.428 202.747 543.461 203.307 544.36 204.142C545.82 205.498 546.537 207.04 546.562 209.023C546.591 211.385 546.095 212.93 544.402 214.59C543.65 215.327 542.802 216.093 541.75 216.321C538.594 217.008 534.531 216.591 531.286 216.588L511.128 216.505C505.447 216.51 481.478 217.735 477.975 215.091C476.832 214.229 475.729 212.698 475.557 211.25C475.235 208.529 476.211 206.008 478.069 204.042C478.557 203.525 479.546 202.747 480.25 202.588C482.359 202.11 485.532 202.466 487.749 202.454L505.741 202.415Z"/>
	<path fill="#0D184D" d="M527.967 141.037L558.049 140.97L558.165 173.947L527.816 173.931L527.967 141.037Z"/>
	<defs>
		<linearGradient id="gradient_0" gradientUnits="userSpaceOnUse" x1="307.92599" y1="212.50385" x2="129.09598" y2="225.79175">
			<stop offset="0" stop-color="#FF8E13"/>
			<stop offset="1" stop-color="#FCAF12"/>
		</linearGradient>
	</defs>
	<path fill="url(#gradient_0)" d="M215.253 128.108C223.567 127.805 230.26 128.752 237.261 133.65C241.72 136.769 245.524 141.754 249.374 145.637L275.599 172.123L290.246 186.715C294.534 190.874 298.952 194.913 302.575 199.689C305.826 203.975 308.505 209.233 309.28 214.582C310.477 222.842 308.403 231.81 303.422 238.552C300.14 242.995 296.036 246.741 292.115 250.607L277.139 265.573L250.148 292.78C245.94 296.994 241.417 302.534 236.493 305.837C232.179 308.732 227.513 310.024 222.433 310.805C214.584 311.46 207.63 310.323 200.925 305.973C196.122 302.858 192.222 298.216 188.269 294.129L170.138 275.547L145.702 251.118C142.111 247.466 138.084 243.839 134.894 239.836C131.987 236.188 129.645 231.755 128.775 227.132C127.177 218.643 128.219 209.653 133.256 202.454C137.185 196.84 142.75 192.053 147.583 187.22L172.164 162.689L189.671 145.124C193.77 140.99 197.798 136.48 202.553 133.093C206.543 130.251 210.509 128.944 215.253 128.108Z"/>
	<path fill="#F8F9F9" d="M219.028 160.529L220 159.51C221.99 160.894 223.562 163.209 225.25 164.97L237.628 177.55L278.507 218.366L220.221 276.861C219.353 277.759 219.278 278.194 218 278.373L160.119 220.146L219.028 160.529Z"/>
	<path fill="#12AEAA" d="M447.426 691.933C446.727 692.382 446.994 692.295 446.28 692.476C440.724 693.888 437.601 696.13 435.628 701.732C435.12 703.173 434.7 704.773 433.605 705.887C432.036 707.483 430.201 708.065 428.024 708.324C424.777 708.711 421.166 708.439 417.881 708.447L397.462 708.465L352.75 708.457C350.054 708.323 347.683 707.031 345.893 705.033C344.601 703.591 343.86 701.851 343.731 699.921C343.14 691.082 343.636 681.885 343.627 673.006L343.592 620.375L343.585 560.759C343.59 550.748 343.143 540.529 343.685 530.545C343.911 526.405 344.698 523.56 347.971 520.777C349.404 519.559 350.886 519.186 352.737 519.072C361.416 518.541 370.439 519.013 379.16 519.014L433.255 519.048L478.704 519.067C486.73 519.074 495.015 518.602 502.991 519.311C506.635 519.858 510.455 519.608 514.143 519.596C516.544 519.587 519.16 519.799 521.529 519.433L617.141 519.491L651.865 519.514C657.534 519.519 663.512 519.121 669.133 519.66C671.354 519.873 673.224 520.957 674.824 522.482C676.756 524.325 677.645 526.272 677.929 528.91C678.529 534.505 677.995 540.725 677.987 546.372L677.89 584.452L677.871 696.015C677.853 699.927 677.846 702.536 674.948 705.451C674.095 706.309 672.058 708.224 670.88 708.509C669.034 708.956 665.814 708.567 663.837 708.584L642.517 708.649L609.57 708.721C604.262 708.744 598.782 709.16 593.5 708.852C591.683 708.746 590.289 708.365 589.031 707C586.396 704.141 586.446 700.106 583.43 697.078C582.129 695.772 580.806 694.754 579.189 693.876C578.753 693.639 575.991 692.362 575.852 692.094C575.467 691.349 575.852 686.832 575.852 685.725L575.869 654.582C575.869 651.924 576.577 645.796 575.418 643.664L575.407 677.466C575.407 682.045 574.707 688.081 575.67 692.485L511.544 692.482L447.937 692.588L447.426 691.933Z"/>
	<path fill="#010101" d="M608.737 545.076C611.507 544.975 613.875 544.835 616.5 545.941C619.88 547.365 622.627 550.195 623.9 553.644C625.025 556.692 624.688 560.282 623.195 563.148C621.199 566.981 618.258 568.611 614.29 569.903C611.515 570.057 608.61 569.994 606 568.919C602.688 567.554 600.233 564.947 599.064 561.561C598.033 558.576 598.253 554.757 599.722 551.968C601.827 547.971 604.651 546.466 608.737 545.076Z"/>
	<path fill="#010101" d="M609.261 599.575C611.644 599.471 614.009 599.766 616.25 600.616C619.62 601.892 622.267 604.414 623.695 607.73C624.937 610.613 624.91 614.321 623.643 617.192C621.663 621.68 618.24 623.664 613.889 625.339C611.162 625.524 608.844 625.578 606.25 624.472C603.027 623.097 600.433 620.206 599.288 616.91C598.027 613.281 598.408 609.436 600.245 606.072C602.286 602.336 605.37 600.802 609.261 599.575Z"/>
	<path fill="#010101" d="M637.29 572.136C639.199 572.066 641.731 572.176 643.548 572.853C646.913 574.109 650.054 577.188 651.25 580.581C652.31 583.589 652.278 587.37 650.842 590.25C648.719 594.508 645.074 596.457 640.776 597.949C637.728 598.139 634.613 597.961 631.964 596.312C629.107 594.533 626.93 590.72 626.25 587.477C625.542 584.099 626.49 580.117 628.461 577.309C630.741 574.061 633.501 572.856 637.29 572.136Z"/>
	<path fill="#010101" d="M581.864 571.584C584.741 571.471 587.477 571.95 590.019 573.372C593.03 575.057 595.397 578.054 596.345 581.366C597.227 584.445 596.53 587.682 594.932 590.392C592.612 594.327 589.755 596.292 585.401 597.473C582.004 597.584 579.051 597.196 576.123 595.362C573.092 593.464 571.119 590.221 570.402 586.75C569.765 583.672 570.738 580.193 572.458 577.606C574.84 574.024 577.841 572.52 581.864 571.584Z"/>
	<path fill="#010101" d="M398.077 551.5L425.092 551.496L425.376 573.921L446.134 573.851L446.17 599.125L425.462 599.065L425.369 621.04L398.46 621.015L398.41 599.029L378.064 599.499L378.035 573.6L398.165 573.829L398.077 551.5Z"/>
	<path fill="#010101" d="M447.426 691.933L447.375 643.879C448.035 643.394 448.556 643.577 449.38 643.575L534.531 643.447L560.193 643.434C565.222 643.434 570.414 643.149 575.418 643.664L575.407 677.466C575.407 682.045 574.707 688.081 575.67 692.485L511.544 692.482L447.937 692.588L447.426 691.933Z"/>
</svg>
