<?xml version="1.0" encoding="utf-8" ?>
<svg xmlns="http://www.w3.org/2000/svg" xmlns:xlink="http://www.w3.org/1999/xlink" width="1024" height="1024">
	<path fill="#99140F" d="M-0 -0L1024 0L1024 1024L-0 1024L0 -0Z"/>
	<path fill="#F12622" d="M354.977 145.125L501.949 145.087L522.415 145.123L666.977 145.086L686.666 145.065L813.594 145.322L850.938 145.265C857.12 145.229 863.641 144.707 869.775 145.25C871.761 145.426 873.537 146.257 874.93 147.688C876.493 149.294 877.623 151.059 877.88 153.321C878.555 159.262 877.999 165.96 878.003 171.968L877.998 210.902L878.005 335.058L877.932 355.309L877.918 501.581C877.769 508.279 876.928 515.962 877.762 522.592L877.81 667.627L877.942 687.494L877.95 812.742L878.002 850.98C878.006 856.588 878.61 862.948 877.894 868.485C877.559 871.081 876.464 873 874.621 874.858C873.638 875.85 871.708 877.586 870.318 877.908C866.977 878.679 861.63 878.012 858.121 878.012L825.383 877.984L687.329 877.926L666.991 877.943L522.371 877.974L501.81 877.937L355.053 877.974L335.203 877.949L212.415 877.951L174.758 877.927C168.525 877.919 161.897 878.422 155.732 877.658C153.171 877.34 151.341 876.442 149.486 874.635C148.273 873.455 146.342 871.2 146.059 869.485C145.288 864.807 145.966 858.762 145.973 853.929L146.015 817.857L145.814 687.157C144.863 681.105 145.667 673.71 145.777 667.533L145.932 521.071L145.961 501.381L145.717 355.091L145.96 335.051L145.982 217.349L145.898 154.567C145.952 153.239 145.903 151.806 146.742 150.699L147.113 150.25L148.85 148.166C150.377 146.562 152.276 145.408 154.5 145.178C160.613 144.545 167.218 145.022 173.39 145.018L211.602 145.005L335.449 145.133L354.977 145.125Z"/>
	<path fill="#FECD15" d="M145.932 521.071L165.308 521.058L165.018 667.556L145.777 667.533L145.932 521.071Z"/>
	<path fill="#FECD15" d="M522.371 877.974L522.371 858.69L667.052 858.496L666.991 877.943L522.371 877.974Z"/>
	<path fill="#FECD15" d="M145.717 355.091L165.117 354.926L165.061 501.424L145.961 501.381L145.717 355.091Z"/>
	<path fill="#FECD15" d="M355.053 877.974L355.006 858.693L501.967 858.531L501.81 877.937L355.053 877.974Z"/>
	<path fill="#FECD15" d="M877.762 522.592L877.81 667.627L858.117 667.549L858.085 522.625L877.762 522.592Z"/>
	<path fill="#FECD15" d="M522.415 145.123L666.977 145.086L667.056 164.997L522.423 165.028L522.415 145.123Z"/>
	<path fill="#FECD15" d="M877.918 501.581L858.41 501.501L858.216 355.369L877.932 355.309L877.918 501.581Z"/>
	<path fill="#FECD15" d="M354.977 145.125L501.949 145.087L501.953 164.906L354.948 165.045L354.977 145.125Z"/>
	<path fill="#FECD15" d="M145.814 687.157L165.016 687.157L164.847 858.693L335.343 858.62L335.203 877.949L212.415 877.951L174.758 877.927C168.525 877.919 161.897 878.422 155.732 877.658C153.171 877.34 151.341 876.442 149.486 874.635C148.273 873.455 146.342 871.2 146.059 869.485C145.288 864.807 145.966 858.762 145.973 853.929L146.015 817.857L145.814 687.157Z"/>
	<path fill="#FECD15" d="M145.96 335.051L145.982 217.349L145.898 154.567C145.952 153.239 145.903 151.806 146.742 150.699L147.113 150.25L148.85 148.166C150.377 146.562 152.276 145.408 154.5 145.178C160.613 144.545 167.218 145.022 173.39 145.018L211.602 145.005L335.449 145.133L335.482 164.988L165.432 164.913C164.393 167.631 165.128 173.319 165.127 176.327L165.099 208.613L165.051 335.128L145.96 335.051Z"/>
	<path fill="#FECD15" d="M687.329 877.926L687.229 858.712C689.587 857.707 695.758 858.483 698.471 858.49L733.03 858.552L858.261 858.509L858.015 687.477L877.942 687.494L877.95 812.742L878.002 850.98C878.006 856.588 878.61 862.948 877.894 868.485C877.559 871.081 876.464 873 874.621 874.858C873.638 875.85 871.708 877.586 870.318 877.908C866.977 878.679 861.63 878.012 858.121 878.012L825.383 877.984L687.329 877.926Z"/>
	<path fill="#FECD15" d="M686.666 145.065L813.594 145.322L850.938 145.265C857.12 145.229 863.641 144.707 869.775 145.25C871.761 145.426 873.537 146.257 874.93 147.688C876.493 149.294 877.623 151.059 877.88 153.321C878.555 159.262 877.999 165.96 878.003 171.968L877.998 210.902L878.005 335.058L858.516 335.042L858.462 164.952L686.677 165.026L686.666 145.065Z"/>
	<path fill="#FECD15" d="M522.196 521.808L667.642 521.982L667.383 666.482L666.25 667.124L522.027 667.501L522.196 521.808Z"/>
	<path fill="#FECD15" d="M657.103 355.258L667.422 355.137L667.394 501.287L531.375 501.432L522.247 501.409L522.351 355.303L657.103 355.258Z"/>
	<path fill="#FECD15" d="M355.001 355.221L502.011 355.112L501.883 501.398L354.953 501.475L355.001 355.221Z"/>
	<path fill="#FECD15" d="M354.931 521.038L502.011 521.39L502.064 667.208L354.901 667.521L354.931 521.038Z"/>
	<path fill="#FECD15" d="M522.482 185.151L667.093 185.319L667.043 335.116L522.226 335.557L522.482 185.151Z"/>
	<path fill="#FECD15" d="M687.108 521.978L838.137 522.388L837.923 667.565L686.996 667.282L687.108 521.978Z"/>
	<path fill="#FECD15" d="M522.051 687.492L667.395 687.655L667.43 838.566L522.034 838.584L522.051 687.492Z"/>
	<path fill="#FECD15" d="M820.347 355.242L838.356 355.063L838.056 501.416L706.75 501.163L687.04 501.097L686.938 355.371L820.347 355.242Z"/>
	<path fill="#FECD15" d="M485.677 185.253L502.001 185.187L501.943 335.398L370.008 335.452L354.952 335.444L354.954 185.442L485.677 185.253Z"/>
	<path fill="#FECD15" d="M317.4 355.249L335.664 354.954L335.431 501.417L201.375 501.45L184.46 501.413L184.09 355.344L317.4 355.249Z"/>
	<path fill="#FECD15" d="M184.231 521.113L335.466 521.082L335.411 666.75L334.25 667.522L184.218 667.516L184.231 521.113Z"/>
	<path fill="#FECD15" d="M354.978 687.786L502.02 687.969L501.996 838.63L354.934 838.572L354.978 687.786Z"/>
	<path fill="#FECD15" d="M184.479 185.286L335.144 185.415L335.306 335.318L184.359 335.408L184.479 185.286Z"/>
	<path fill="#FECD15" d="M686.966 185.134L838.114 185.315L838.055 335.296L687.036 335.143L686.966 185.134Z"/>
	<path fill="#FECD15" d="M184.291 687.651L335.098 687.542L335.2 838.557L184.154 838.552L184.291 687.651Z"/>
	<path fill="#FECD15" d="M687.076 687.635L838.104 687.913L838.06 807.418L838.059 830.58C838.058 832.417 838.557 836.08 838.058 837.75C837.929 838.183 837.519 838.476 837.25 838.839L687.026 838.687L687.076 687.635Z"/>
</svg>
