<?xml version="1.0" encoding="utf-8" ?>
<svg xmlns="http://www.w3.org/2000/svg" xmlns:xlink="http://www.w3.org/1999/xlink" width="1024" height="1024">
	<path fill="#F08631" d="M-0 -0L1024 0L1024 1024L-0 1024L0 -0Z"/>
	<path fill="#F7E6CD" d="M441.732 593.778C448.017 597.736 453.927 601.942 460.5 605.482C474.041 612.774 487.8 616.777 503.004 618.655C530.586 622.063 558.538 610.146 580.623 594.562L580.959 630.493L580.995 673.864C580.988 680.484 580.362 687.811 581.123 694.355L632.157 712.217C629.776 716.658 626.422 720.764 623.374 724.77C612.665 738.848 600.563 751.755 585.761 761.62C555.951 781.486 520.151 788.734 485 781.55C444.716 773.316 413.371 745.868 391.322 712.265C395.224 711.699 400.692 708.948 404.503 707.624L442.01 694.989L441.917 679.137L441.732 593.778Z"/>
	<path fill="#E8C699" d="M441.732 593.778C448.017 597.736 453.927 601.942 460.5 605.482C474.041 612.774 487.8 616.777 503.004 618.655C530.586 622.063 558.538 610.146 580.623 594.562L580.959 630.493L580.382 630.714C579.589 631.071 579.14 631.503 578.493 632.05C575.328 634.73 571.205 636.82 567.582 638.83C547.474 649.989 524.196 655.808 501.173 653.571C479.061 651.423 460.389 644.027 442.022 631.722L442.049 663.5C442.055 668.578 442.558 674.132 441.917 679.137L441.732 593.778Z"/>
	<path fill="#B13F28" d="M423.214 115.288C456.579 87.5728 500.751 75.7665 543.729 79.8441C555.227 80.9351 566.586 82.5905 577.76 85.5865C618.226 96.4366 653.685 120.533 680.077 152.869C716.192 197.117 724.764 255.814 719.015 311.14L714.599 341.372C713.854 345.327 713.289 349.978 711.856 353.701L704.599 377.524L658.745 371.427C635.051 366.189 611.69 358.916 589.703 348.567C550.804 330.257 514.895 301.486 487.897 267.98C478.814 256.708 470.945 244.552 463.181 232.359C441.811 280.089 405.382 320.049 361.732 348.492C348.082 357.387 333.688 364.89 319.285 372.458L312.71 353.164L304.052 317.377C294.557 269.018 300.939 216.317 328.922 174.971C351.098 142.204 384.771 122.652 423.214 115.288Z"/>
	<path fill="#F7E6CD" d="M463.181 232.359C470.945 244.552 478.814 256.708 487.897 267.98C514.895 301.486 550.804 330.257 589.703 348.567C611.69 358.916 635.051 366.189 658.745 371.427L704.599 377.524L711.856 353.701C721.221 363.203 723.667 374.944 723.554 388.006C723.336 413.326 709.869 438.694 692.046 456.048C689.856 458.18 687.063 460.252 685.197 462.643C682.434 466.182 680.515 472.211 678.408 476.367L666.327 498.041C646.925 530.578 623.108 561.788 593.285 585.441L584.225 592.107C583.208 592.814 581.744 594.129 580.623 594.562C558.538 610.146 530.586 622.063 503.004 618.655C487.8 616.777 474.041 612.774 460.5 605.482C453.927 601.942 448.017 597.736 441.732 593.778C436.653 589.46 430.98 585.92 425.91 581.512C401.08 559.917 379.613 534.201 362.85 505.866C356.942 495.881 351.347 485.633 346.463 475.11L341.527 464.211C341.205 463.448 340.473 460.894 339.95 460.393C338.363 458.872 335.43 457.594 333.524 456.349C328.521 453.082 324.517 448.801 320.871 444.101C307.578 426.968 297.091 399.438 300.156 377.5C301.424 368.423 305.254 358.813 312.71 353.164L319.285 372.458C333.688 364.89 348.082 357.387 361.732 348.492C405.382 320.049 441.811 280.089 463.181 232.359Z"/>
	<path fill="#555254" d="M435.774 363.12C439.524 362.721 442.6 362.898 446.131 364.307C450.602 366.09 454.118 369.22 455.932 373.749C457.575 377.853 457.703 382.21 455.809 386.272C453.247 391.766 449.573 394.551 444.047 396.592C439.908 397.52 435.652 397.062 431.819 395.244C427.802 393.34 424.076 389.134 422.799 384.837C421.521 380.537 421.995 375.704 424.074 371.75C426.583 366.979 430.848 364.644 435.774 363.12Z"/>
	<path fill="#F7E6CD" d="M430.048 369.25L431.042 369.177C432.547 369.178 433.611 369.974 434.592 370.996C435.199 372.691 435.669 373.677 434.974 375.5C434.398 377.011 433.129 377.636 431.75 378.255C431.041 378.372 430.217 378.549 429.5 378.483C428.7 378.41 427.796 378.038 427.33 377.384C426.011 375.532 426.191 373.87 426.63 371.75C427.763 370.292 428.314 369.886 430.048 369.25Z"/>
	<path fill="#555254" d="M584.546 362.584C588.288 362.471 591.276 362.414 594.677 364.274C598.754 366.504 602.274 370.564 603.453 375.092C604.76 380.105 603.715 385.279 600.875 389.585C598.077 393.827 593.683 395.844 588.859 396.766L584.25 396.54C579.709 396.077 575.693 393.65 572.857 390.123C569.972 386.534 568.747 381.855 569.325 377.307L569.44 376.5C569.762 374.114 570.735 371.725 572.135 369.75C575.126 365.532 579.652 363.594 584.546 362.584Z"/>
	<path fill="#F7E6CD" d="M577.046 368.75C578.664 368.382 579.703 368.398 581.25 368.988C582.607 370.187 582.858 370.741 583.287 372.5C582.816 374.423 582.253 375.063 580.75 376.324C580.186 376.588 580.12 376.643 579.447 376.828C578.015 377.221 576.946 377.012 575.632 376.356C574.573 374.818 574.17 373.928 574.486 372C574.758 370.336 575.774 369.649 577.046 368.75Z"/>
	<path fill="#4D9772" d="M632.157 712.217C637.386 713.203 642.924 715.975 647.92 717.865L678.085 729.25L743.933 754.651C754.47 758.803 765.26 762.3 775.344 767.509C786.46 773.252 795.866 780.041 804.824 788.745C846.832 829.566 857.638 890.044 858.453 946.229L161.458 946.448L166.988 896.219C170.516 874.289 176.69 852.405 186.655 832.516C202.33 801.227 227.319 776.693 258.961 761.59C276.347 753.291 295.165 747.247 313.209 740.494L391.322 712.265C413.371 745.868 444.716 773.316 485 781.55C520.151 788.734 555.951 781.486 585.761 761.62C600.563 751.755 612.665 738.848 623.374 724.77C626.422 720.764 629.776 716.658 632.157 712.217Z"/>
</svg>
