<?xml version="1.0" encoding="utf-8" ?>
<svg xmlns="http://www.w3.org/2000/svg" xmlns:xlink="http://www.w3.org/1999/xlink" width="1024" height="1024">
	<path fill="#ED3916" d="M-0 -0L1024 0L1024 1024L-0 1024L0 -0Z"/>
	<path fill="#FDFEFD" d="M363.807 264.25C366.837 264.996 369.457 271.964 370.739 274.672C370.988 275.197 371.623 277.038 372.012 277.383C373.073 278.323 375.598 279.013 376.964 279.689C379.915 281.149 382.615 282.822 385.217 284.836C381.303 288.459 375.558 289.775 371.885 293.209C370.707 294.31 369.778 296.584 368.993 297.994L364.075 306.059C362.132 303.403 360.873 300.296 359.41 297.357C358.797 296.125 357.924 294.027 357.015 293.015C356.246 292.159 353.977 291.238 352.936 290.72L343.111 285.53C346.11 282.337 349.221 280.635 353.052 278.569C353.826 278.152 356.453 277.107 356.95 276.5C357.615 275.688 358.203 273.769 358.722 272.75C360.211 269.828 361.717 266.794 363.807 264.25Z"/>
	<path fill="#FDFEFD" d="M675.739 362.75C677.185 362.949 677.444 364.189 678.168 365.41C679.975 368.455 681.553 372.086 683.978 374.687C687.313 378.265 693.512 380.222 697.684 383.022C695.02 385.209 692.221 386.605 689.173 388.168C687.554 388.997 685.055 390.029 683.905 391.448C681.046 394.975 679.441 400.093 676.75 403.931L675.682 404.316C673.77 401.727 672.201 398.831 670.75 395.963C670.027 394.534 669.147 391.755 667.918 390.793L655.342 383.042C657.408 381.259 659.708 379.758 662.143 378.529C663.924 377.63 666.465 376.722 667.81 375.25C670.966 371.796 672.862 366.605 675.739 362.75Z"/>
	<path fill="#FDFEFD" d="M688.21 170.194C692.039 175.72 695.391 183.38 698.25 189.518C698.806 190.713 699.666 193.825 700.461 194.699C701.223 195.537 705.136 196.784 706.298 197.292C712.855 200.159 719.458 202.738 725.725 206.224C719.899 209.752 713.723 212.474 707.649 215.529C705.014 216.855 701.432 218.133 699.75 220.659C695.503 227.035 692.868 235.026 688.972 241.75L688.299 242.688C687.1 242.367 686.801 240.988 686.261 239.909L679.173 224.845C678.165 222.719 677.15 219.875 675.488 218.205C673.85 216.558 670.715 215.435 668.593 214.373L652.617 206.3C657.377 203.011 662.755 200.736 668.01 198.362C670.17 197.386 674.804 195.947 676.321 194.279C678.036 192.394 679.512 187.711 680.616 185.342L688.21 170.194Z"/>
	<path fill="#FBB337" d="M512.244 46.1746C518.127 63.6049 523.805 81.4493 526.174 99.75C527.609 110.835 528.039 122.35 524.802 133.157C543.073 122.648 563.216 120.964 583.835 120.98C591.435 120.987 599.056 120.961 606.61 121.896C600.419 126.939 593.422 130.951 586.663 135.171C569.784 145.711 552.282 157.893 531.927 159.746C556.807 176.186 565.217 208.566 574.037 235.429L557.654 222.707C539.522 208.884 521.889 195.906 511.559 174.909C508.82 180.665 505.931 186.027 501.943 191.035C492.509 202.881 480.032 212.157 468.077 221.313L448.986 235.863C451.274 227.622 454.268 219.801 457.272 211.812C464.71 192.026 472.865 172.891 490.43 159.905C461.972 155.936 439.427 136.342 415.595 122.021C422.552 121.314 429.649 121.358 436.639 121.261C456.776 120.983 480.905 121.545 498.418 132.856C497.776 129.214 496.929 125.709 496.693 122C495.729 106.881 498.851 91.3853 502.655 76.8202C505.348 66.5078 508.406 56.1232 512.244 46.1746Z"/>
	<path fill="#FED796" d="M773.125 690.752C758.205 687.912 743.777 682.906 730.576 675.322C701.528 658.636 680.263 631.092 671.679 598.699C663.442 567.613 667.769 532.061 684.019 504.197C699.434 477.764 726.278 455.865 756.095 448.074C786.767 440.059 821.141 445.957 848.25 462.12C875.34 478.271 895.624 505.522 903.418 535.978C912.004 569.531 907.335 604.902 889.644 634.687C873.426 661.994 845.742 681.342 815.203 689.079C808.474 690.647 801.541 692.416 794.615 692.695L794.83 779.093L840.645 779.135L776.095 779.412C776.417 779.108 776.864 778.896 777.065 778.5C777.245 778.145 777.08 775.94 777.083 775.442L777.108 763.339L777.032 719.7C777.016 710.331 776.742 700.888 777.381 691.54L773.125 690.752Z"/>
	<defs>
		<linearGradient id="gradient_0" gradientUnits="userSpaceOnUse" x1="780.65204" y1="600.13812" x2="829.0014" y2="767.75983">
			<stop offset="0" stop-color="#FA7310"/>
			<stop offset="1" stop-color="#F79715"/>
		</linearGradient>
	</defs>
	<path fill="url(#gradient_0)" d="M773.125 690.752C770.653 687.26 767.372 684.2 764.59 680.938C757.607 672.747 752.964 663.41 750.38 653C749.247 648.437 748.53 642.885 749.509 638.25C750.18 635.069 751.641 631.825 754.593 630.135C757.265 628.606 758.875 628.813 761.75 629.518C775.149 632.804 787.766 646.491 794.353 658.038L796.389 661.187C794.634 639.129 795.792 617.994 808.258 598.933C811.229 594.39 816.864 588.42 822.539 587.531C824.914 587.159 827.021 588.112 828.915 589.467C834.73 593.627 836.857 602.91 837.845 609.666C840.693 629.137 835.653 654.016 826.752 671.536C823.559 677.821 819.406 683.447 815.203 689.079C808.474 690.647 801.541 692.416 794.615 692.695L794.83 779.093L840.645 779.135L776.095 779.412C776.417 779.108 776.864 778.896 777.065 778.5C777.245 778.145 777.08 775.94 777.083 775.442L777.108 763.339L777.032 719.7C777.016 710.331 776.742 700.888 777.381 691.54L773.125 690.752Z"/>
	<path fill="#FED796" d="M230.795 666.187C225.747 664.873 220.552 663.905 215.595 662.281C202.552 658.007 189.872 651.607 178.607 643.782C147.491 622.168 127.756 587.775 121.355 550.847C115.218 515.443 124.136 475.347 144.872 446.01C165.702 416.54 197.774 395.486 233.514 389.574C268.896 383.721 305.121 392.131 334.248 413.083C363.542 434.155 383.197 467.011 388.997 502.462C395.116 539.853 386.845 578.063 364.536 608.903C348.615 630.914 327.259 647.17 302.048 657.154C294.173 660.272 285.887 662.99 277.508 664.338L277.732 663.995C281.28 658.729 286.101 654.454 289.669 649.019C299.946 633.359 303.93 610.537 300.548 592.237C298.964 583.665 295.503 572.515 287.75 567.602C285.047 565.889 281.454 565.356 278.386 566.281C270.655 568.613 265.279 576.56 261.838 583.449C255.371 596.395 252.25 611.069 251.824 625.479C245.377 616.874 233.994 605.978 222.799 604.556C218.811 604.05 214.713 604 211.453 606.693C208.088 609.473 206.374 613.395 206.063 617.704C205.114 630.855 212.538 646.197 221.077 655.846L230.567 665.47L230.795 666.187Z"/>
	<path fill="#FED796" d="M243.168 779.237L772.104 779.351L776.095 779.412L840.645 779.135L890.376 779.152C889.957 780.726 888.496 782.407 887.526 783.726L878.99 794.432C848.873 831.079 812.142 862.892 771.746 887.726C747.494 902.635 722.514 915.841 696.073 926.496C599.352 965.475 490.8 971.326 389.75 947.001C358.698 939.526 328.552 928.2 299.848 914.275C247.561 888.91 199.57 854.466 160.622 811.169C151.592 801.13 141.189 790.694 134.124 779.149L243.168 779.237Z"/>
	<defs>
		<linearGradient id="gradient_1" gradientUnits="userSpaceOnUse" x1="198.55396" y1="525.85913" x2="749.22675" y2="483.43054">
			<stop offset="0" stop-color="#F98212"/>
			<stop offset="1" stop-color="#FFAA14"/>
		</linearGradient>
	</defs>
	<path fill="url(#gradient_1)" d="M261.916 673.444L262.409 771.838C286.16 748.244 316.921 730.497 347.984 718.405L371.732 710.372L384 707.065C385.903 706.612 388.812 706.476 390.25 705.187C383.051 703.333 374.76 702.973 367.354 702.153L320.761 697.443C342.585 678.103 367.546 665.591 395.621 658.075C403.317 656.015 411.448 653.978 419.397 653.241L381.193 624.086C400.238 613.442 419.387 606.671 440.82 602.525L408.12 570.335L478.595 488.378L478.545 488.063L428.883 488.193L511.023 203.233L592.354 487.995L535.4 487.778L611.166 566.57L572.577 603.487C589.98 604.022 609.347 610.401 625.157 617.491C629.177 619.294 634.755 621.685 638.005 624.649L599.471 653.815C609.361 654.493 618.98 656.751 628.522 659.345C647.934 664.62 666.429 671.694 683.611 682.301C688.875 685.551 694.798 689.253 698.923 693.917L700.176 695.447L630.591 706.249C656.924 711.133 680.988 720.812 704.747 732.983C717.886 739.714 730.719 746.932 742.631 755.688L763.691 771.77C766.18 773.831 769.393 778.15 772.104 779.351L243.168 779.237L243.054 672.336C242.465 671.679 242.719 671.804 242.004 671.511L230.795 666.187L230.567 665.47L221.077 655.846C212.538 646.197 205.114 630.855 206.063 617.704C206.374 613.395 208.088 609.473 211.453 606.693C214.713 604 218.811 604.05 222.799 604.556C233.994 605.978 245.377 616.874 251.824 625.479C252.25 611.069 255.371 596.395 261.838 583.449C265.279 576.56 270.655 568.613 278.386 566.281C281.454 565.356 285.047 565.889 287.75 567.602C295.503 572.515 298.964 583.665 300.548 592.237C303.93 610.537 299.946 633.359 289.669 649.019C286.101 654.454 281.28 658.729 277.732 663.995L277.508 664.338C274.864 666.728 271.164 668.463 267.86 669.748C266.932 670.108 262.712 671.133 262.25 671.635C261.835 672.086 262.028 672.841 261.916 673.444Z"/>
	<path fill="#FED796" d="M504.942 584.148C509.556 583.877 513.716 584.256 517.891 586.457C522.849 589.07 526.584 593.84 528.047 599.237L528.25 600.032C529.557 605.009 529.069 610.635 529.13 615.756L529.166 641.058L511.25 641.137L486.707 641.257C485.83 638.335 486.465 633.35 486.465 630.164L486.493 612.113C486.504 608.851 486.258 605.41 486.804 602.197L486.932 601.5C487.428 598.598 488.202 596.107 489.806 593.601C493.285 588.168 498.877 585.554 504.942 584.148Z"/>
</svg>
