<?xml version="1.0" encoding="utf-8" ?>
<svg xmlns="http://www.w3.org/2000/svg" xmlns:xlink="http://www.w3.org/1999/xlink" width="1024" height="1024">
	<path fill="#F2501A" d="M-0 -0L1024 0L1024 1024L-0 1024L0 -0Z"/>
	<path fill="#BF2013" d="M378.488 702.915L645.164 703.19L653.186 704.193C656.777 705.275 660.645 705.4 664.359 705.864L687.679 708.401L729.321 712.095C758.994 714.419 788.304 716.024 817.681 721.231C823.663 722.291 829.573 723.507 835.377 725.327C837.879 726.112 840.853 727.016 843 728.51C844.423 729.5 844.743 730.088 845.077 731.75C844.472 733.563 843.373 734.274 841.777 735.136C837.292 737.56 831.982 738.861 827.048 740.006L804.56 744.204C768.274 749.795 731.633 751.789 695 753.527L620.119 756.832L552.905 757.619L360.434 756.156L275.421 750.138C248.48 747.721 220.423 745.861 194.316 738.385C190.454 737.279 183.13 735.381 181.127 731.75C181.523 730.252 181.767 729.865 182.885 728.784C187.09 724.716 196.791 722.974 202.458 721.599C224.151 716.339 246.111 713.455 268.262 710.994L368.009 702.904C371.384 703.474 375.071 703.065 378.488 702.915Z"/>
	<path fill="#423734" d="M368.009 702.904C361.423 697.943 354.565 693.294 348.345 687.87C305.51 650.519 278.331 600.413 270.491 544.094C261.68 480.813 278.176 414.636 316.957 363.646C356.756 311.317 414.241 276.679 479.698 267.871C543.756 259.251 609.504 276.716 660.888 315.909C711.341 354.392 744.427 413.042 752.753 475.81C761.133 538.986 744.823 603.713 705.805 654.297C691.217 673.209 672.782 690.584 653.186 704.193L645.164 703.19L378.488 702.915C375.071 703.065 371.384 703.474 368.009 702.904Z"/>
	<path fill="#100D0C" d="M378.488 702.915L378.198 600.974L378.185 563.297C378.178 547.391 378.252 531.925 382.086 516.363C387.502 494.382 398.163 474.538 413.94 458.256C439.607 431.767 474.203 416.225 511.25 415.588C546.705 414.978 582.622 430.364 607.725 455.071C630.263 477.255 642.537 504.684 645.21 536.16C645.915 544.453 645.738 552.988 645.791 561.31L645.884 661.671C645.889 667.944 646.876 699.641 645.164 703.19L378.488 702.915Z"/>
</svg>
