<?xml version="1.0" encoding="utf-8" ?>
<svg xmlns="http://www.w3.org/2000/svg" xmlns:xlink="http://www.w3.org/1999/xlink" width="1024" height="1024">
	<path fill="#0E9DAE" d="M-0 -0L1024 0L1024 1024L-0 1024L0 -0Z"/>
	<path fill="#F9B16C" d="M207.276 369.945L207.499 192.281L335.896 192.21L335.851 258.916L207.276 369.945Z"/>
	<path fill="#D61418" d="M335.851 258.916L511.174 108.25L512.165 108.944L911.011 453.247L869.652 453.142C863.335 453.132 856.23 452.514 850.014 453.361C845.712 453.859 841.001 453.568 836.659 453.601L810.545 453.754L801.304 453.745C800.425 453.74 798.505 453.973 797.78 453.721C796.342 453.219 794.361 451.568 793.032 450.706L780.17 442.041L731 409.012L609.251 328.28L549.263 288.541L512.003 264.004L511.891 263.15L472.773 289.655L411.211 331.337L277.806 420.966L243.34 444.25L233.173 451.454C232.395 452.023 230.775 453.562 229.934 453.853C229.308 454.071 227.187 453.788 226.446 453.773L217.11 453.62L174.607 453.442L113.03 453.473L206.825 370.435L207.276 369.945L335.851 258.916Z"/>
	<path fill="#F9B16C" d="M174.607 453.442L217.11 453.62L226.446 453.773C227.187 453.788 229.308 454.071 229.934 453.853C230.775 453.562 232.395 452.023 233.173 451.454L243.34 444.25L277.806 420.966L411.211 331.337L472.773 289.655L511.891 263.15L512.003 264.004L512.013 604.084L512.352 604.095L512.48 914.125L427.074 914.419L175.013 914.559L174.607 453.442Z"/>
	<path fill="#FEFEFE" d="M401.462 429.98L482.611 429.95L482.756 513.523L401.523 513.634L401.462 429.98Z"/>
	<path fill="#D61418" d="M512.013 604.084L512.352 604.095L512.48 914.125L427.074 914.419L426.985 864.48L426.781 767.113L426.663 710.47C426.681 699.04 425.848 686.679 427.975 675.422C430.878 660.058 438.133 645.26 448.644 633.651C465.579 614.946 486.986 605.241 512.013 604.084Z"/>
	<path fill="#F9B16C" d="M450.888 736.063C454.356 735.781 457.56 735.891 460.766 737.382C464.464 739.103 467.423 742.341 468.657 746.245C470.021 750.56 469.535 755.406 467.336 759.378C465.106 763.406 461.052 765.676 456.818 767.048C453.092 767.576 450.228 767.617 446.784 765.869C443.019 763.957 440.022 760.329 438.764 756.286C437.466 752.111 438.039 747.455 440.155 743.652C442.479 739.476 446.472 737.361 450.888 736.063Z"/>
	<path fill="#FEFEFE" d="M243.328 588.922L368.676 588.857L368.796 809.527L243.22 809.567L243.328 588.922Z"/>
	<path fill="#F24030" d="M512.003 264.004L549.263 288.541L609.251 328.28L731 409.012L780.17 442.041L793.032 450.706C794.361 451.568 796.342 453.219 797.78 453.721C798.505 453.973 800.425 453.74 801.304 453.745L810.545 453.754L836.659 453.601C841.001 453.568 845.712 453.859 850.014 453.361L849.898 914.642L597.606 914.433L512.48 914.125L512.352 604.095L512.013 604.084L512.003 264.004Z"/>
	<path fill="#FEFEFE" d="M540.944 429.984L621.893 429.97L621.935 513.56L540.883 513.478L540.944 429.984Z"/>
	<path fill="#453A44" d="M512.352 604.095C533.661 603.45 555.051 612.95 570.515 627.38C586.676 642.46 597.207 663.14 597.949 685.405L597.606 914.433L512.48 914.125L512.352 604.095Z"/>
	<path fill="#FEFEFE" d="M655.098 588.728L779.586 588.64L780 810.936C776.32 811.482 772.055 811.069 768.316 811.069L742.615 811.058L655.442 811.007L655.098 588.728Z"/>
</svg>
