<?xml version="1.0" encoding="utf-8" ?>
<svg xmlns="http://www.w3.org/2000/svg" xmlns:xlink="http://www.w3.org/1999/xlink" width="1024" height="1024">
	<path fill="#21AED3" d="M-0 -0L1024 0L1024 1024L-0 1024L0 -0Z"/>
	<path fill="#04050D" d="M502.758 74.1996C530.57 72.5366 558.343 79.894 580.25 97.5845C599.158 112.854 612.762 134.756 615.183 159.168C617.218 179.683 610.458 202.317 597.259 218.25C578.54 240.847 551.323 252.201 522.623 254.943C493.133 256.816 463.369 250.29 439.902 231.563C423.294 218.31 410.857 198.675 408.699 177.25C406.339 153.818 414.067 130.067 429.043 111.98C447.425 89.781 474.301 76.8952 502.758 74.1996Z"/>
	<path fill="white" d="M455.851 103.582C459.924 103.174 463.997 103.15 467.774 104.899C472.38 107.031 476.068 111.093 477.742 115.879C479.38 120.561 478.97 125.466 476.76 129.902C474.039 135.365 469.981 138.175 464.313 139.994C460.452 140.925 456.14 140.697 452.46 139.16C447.83 137.226 444.113 133.347 442.307 128.668C440.271 123.393 440.481 118.336 442.994 113.27C445.675 107.865 450.34 105.319 455.851 103.582Z"/>
	<path fill="white" d="M559.856 103.58C564.29 103.383 568.214 103.265 572.313 105.284C577.085 107.634 580.398 111.957 581.898 117.004C583.329 121.814 582.341 127.116 579.945 131.455C577.159 136.498 572.845 138.594 567.59 140.158C563.419 140.814 559.428 140.38 555.566 138.623C550.955 136.525 547.302 132.54 545.622 127.75C543.996 123.114 544.309 117.553 546.65 113.212C549.529 107.873 554.316 105.306 559.856 103.58Z"/>
	<path fill="#04050D" d="M405.338 195.25L406.692 195.063L413.074 210.117C425.528 232.946 449.106 248.64 473.701 255.774C498.301 262.908 526.093 263.272 550.653 255.685C559.545 252.939 568.219 248.738 576.337 244.22C595.259 233.689 610.39 215.808 616.374 194.878C622.099 197.259 627.684 200.629 633.1 203.664C659.114 218.244 683.027 236.636 703.664 258.156L716.789 272.849C719.226 275.791 721.474 279.192 724.185 281.849C728.085 285.671 733.176 288.828 737.397 292.372L764.56 316.971C807.129 357.837 842.656 406.82 869.37 459.365C888.433 496.861 902.714 536.534 912.845 577.325C928.243 639.315 935.16 708.768 914.728 770.398C906.802 794.304 891.405 817.745 868.37 829.181C868.051 815.372 868.003 802.003 862.483 789.071L849.633 798.55C839.441 805.427 828.951 810.213 817.318 814.034C819.958 794.921 822.765 775.965 821.99 756.605C808.885 760.194 794.799 763.37 783.376 771.039C781.386 765.549 781.716 757.969 782.001 752.25C782.927 733.684 790.653 716.302 804.465 703.835C802.283 698.719 778.956 633.739 778.982 633.049C779.079 630.387 780.453 626.829 781 624.097L784.353 604.23C787.316 583.168 787.851 562.187 787.477 540.943C787.117 520.554 784.651 500.129 781.54 480C777.023 450.764 770.571 421.717 762.077 393.37L758.516 381.75C757.977 380.053 757.576 377.965 756.272 376.707L765.117 419.179C775.288 474.915 781.564 531.323 777.539 588C775.576 615.647 771.215 643.361 762.1 669.615C756.904 684.582 750.458 699.16 742.491 712.864L734.796 725.067C733.73 726.669 731.708 728.954 731.028 730.695C730.539 731.946 731.174 737.077 731.194 738.681L731.332 770.308L730.809 934.631C739.217 937.964 746.179 943.238 752.997 949.062L559.527 949.004C567.892 942.493 576.75 937.486 586.693 933.827L586.624 920.75L586.65 826.946C557.503 832.128 528.301 833.927 498.713 833.16C478.554 832.636 458.222 831.072 438.473 826.848L438.363 933.823C440.965 936.078 445.4 937.589 448.481 939.276C453.643 942.102 458.402 945.302 463.024 948.936L267.547 948.976C274.823 942.38 283.56 938.883 292.01 934.191L291.764 772.527L291.943 737.755L292.025 729.622C292.034 728.886 292.249 727.392 292.059 726.706C291.864 726 290.745 724.796 290.308 724.198C288.973 722.369 287.776 720.45 286.588 718.525L274.026 696.25C256.025 660.571 247.768 620.534 245.759 580.789C243.197 530.092 249.449 478.593 257.763 428.68L264.618 395.028C265.662 390.248 267.932 384.07 267.86 379.25C266.294 382.628 265.235 386.61 264.109 390.174L257.588 412.839C240.997 474.541 234 538.849 239.671 602.594C240.473 611.617 240.705 622.211 243.47 630.81C244.222 633.15 225.413 684.192 223.086 690.5C222.418 692.313 217.36 704.103 217.516 705.424C217.557 705.768 218.025 705.892 218.279 706.128C224.83 712.204 230.343 719.312 233.942 727.53C239.842 741.002 242.456 757.768 237.024 771.777C225.601 764.672 214.514 758.917 201.511 755.28C201.351 762.594 201.107 770.135 201.713 777.422C202.71 789.416 205.241 801.002 208.023 812.688C189.252 809.678 174.658 801.126 160.617 788.541C157.737 802.083 155.453 815.733 155.879 829.63C139.926 823.274 127.165 806.099 119.538 791.318C105.028 763.197 99.7551 730.571 98.3374 699.265C95.9149 645.77 104.406 591.094 120.761 540.174L136.167 497.031C161.983 434.532 199.298 377.733 247.11 329.841L279.522 299.903C285.122 295.103 291.546 290.768 296.75 285.58C299.503 282.835 301.752 279.538 304.173 276.498L315.173 263.727C335.092 242.527 356.408 223.838 381.146 208.447C388.958 203.588 397.164 199.451 405.338 195.25Z"/>
</svg>
