<?xml version="1.0" encoding="utf-8" ?>
<svg xmlns="http://www.w3.org/2000/svg" xmlns:xlink="http://www.w3.org/1999/xlink" width="1024" height="1024">
	<path fill="#1AB9C3" d="M-0 -0L1024 0L1024 1024L-0 1024L0 -0Z"/>
	<path fill="#073B67" d="M240.397 785.326C239.604 784.694 235.495 785.074 234.271 785.071L233.971 683.411L375.689 683.438L381.946 694.37L244.736 694.632L244.615 785.701L240.397 785.326Z"/>
	<path fill="#073B67" d="M648.243 681.977L790.471 682.634L790.652 785.501C786.256 785.139 782.377 785.244 777.987 785.767L778.025 694.001L641.222 694.022L648.243 681.977Z"/>
	<path fill="#073B67" d="M488.987 383.434L494.858 383.479L529.628 383.493L535.887 383.476L580.936 383.502L581.005 408.029L444.054 408.045C444.021 400.111 443.248 391.373 444.279 383.543L488.987 383.434Z"/>
	<path fill="#FEFEFE" d="M777.987 785.767C782.377 785.244 786.256 785.139 790.652 785.501C796.946 786.041 803.544 788.038 809.026 791.185C819.374 797.127 827.215 807.512 830.354 818.997C833.702 831.248 832.265 844.085 825.898 855.112C819.351 866.449 807.79 874.351 795.229 877.558C783.703 880.5 771.138 878.141 761 872.055C750.021 865.464 741.917 854.333 739.029 841.871C736.471 830.83 739.014 817.755 745.061 808.25C752.858 795.993 763.974 788.835 777.987 785.767Z"/>
	<path fill="#FEFEFE" d="M244.615 785.701C250.61 787.149 256.129 788.814 261.401 792.114C272.617 799.133 280.868 810.012 283.709 823.006C286.297 834.846 283.879 848.005 277.303 858.178C269.775 869.823 258.91 876.681 245.5 879.657C234.668 882.06 223.408 879.429 213.919 873.918C203.122 867.647 194.884 857.027 191.837 844.882C188.817 832.842 190.7 819.378 197.13 808.75C203.503 798.215 214.433 789.54 226.5 786.66C231.082 785.566 235.707 785.31 240.397 785.326L244.615 785.701Z"/>
	<path fill="#073B67" d="M470.534 460.904C467.046 455.258 464.67 449.624 462.438 443.397C457.282 443.886 452.544 444.73 448.278 441.1C445.266 438.536 444.044 435.665 443.86 431.775L443.788 417.497L580.994 417.753L580.986 429.37C580.979 431.15 581.234 433.313 580.927 435.028C580.65 436.576 578.942 438.551 577.878 439.665C573.923 443.806 569.83 443.605 564.585 443.585L562.923 443.576C560.296 449.98 557.874 456.203 553.711 461.811C544.041 472.42 532.055 480.367 517.347 481.676L517.284 571.653L507.276 571.889L507.13 504.503L507.077 482.825C507.077 482.75 507.074 481.686 507.074 481.686C506.773 481.334 497.857 479.659 496.37 479.175C485.356 475.588 477.925 469.617 470.534 460.904Z"/>
	<path fill="#63D0DE" d="M553.711 461.811C590.464 470.539 624.4 495.306 644.165 527.406C666.354 563.444 672.132 605.315 662.082 646.302C659.038 658.718 653.954 670.588 648.243 681.977L641.222 694.022C622.207 718.407 598.321 738.006 569.321 749.33C565.78 750.713 561.212 753.227 557.5 753.856L554.923 753.951L566.974 746.337C588.946 730.054 602.722 705.805 606.519 678.863C609.887 654.965 602.277 628.99 587.81 609.821C573.943 591.449 555.071 579.667 532.819 574.138C527.727 572.873 522.47 572.381 517.284 571.653L517.347 481.676C532.055 480.367 544.041 472.42 553.711 461.811Z"/>
	<path fill="#63D0DE" d="M470.534 460.904C477.925 469.617 485.356 475.588 496.37 479.175C497.857 479.659 506.773 481.334 507.074 481.686C507.074 481.686 507.077 482.75 507.077 482.825L507.13 504.503L507.276 571.889C480.088 573.923 456.453 585.06 438.555 605.884C422.197 624.917 413.624 649.976 415.61 675.071C417.552 699.615 429.188 723.073 448.067 738.907C454.923 744.657 462.487 749.509 470.5 753.477C473.852 755.137 477.476 756.363 480.763 758.12L480.289 758.557C479.478 759.22 478.82 759.467 477.766 759.313C445.066 754.534 414.841 734.331 393.474 709.812C389.193 704.9 385.756 699.616 381.946 694.37L375.689 683.438L364.646 656.32C352.203 616.724 355.807 572.251 375.002 535.463C389.684 507.326 413.72 484.291 442.564 471.008C451.481 466.902 461.168 463.847 470.534 460.904Z"/>
	<path fill="#F1AA4C" d="M517.284 571.653C522.47 572.381 527.727 572.873 532.819 574.138C555.071 579.667 573.943 591.449 587.81 609.821C602.277 628.99 609.887 654.965 606.519 678.863C602.722 705.805 588.946 730.054 566.974 746.337L554.923 753.951C530.101 764.993 506.609 767.086 480.763 758.12C477.476 756.363 473.852 755.137 470.5 753.477C462.487 749.509 454.923 744.657 448.067 738.907C429.188 723.073 417.552 699.615 415.61 675.071C413.624 649.976 422.197 624.917 438.555 605.884C456.453 585.06 480.088 573.923 507.276 571.889L517.284 571.653Z"/>
	<path fill="#073B67" d="M421.014 795.629C435.619 794.793 450.527 795.391 465.165 795.374L540.031 795.144L579.376 795.145C586.653 795.119 594.545 794.39 601.717 795.506L602.167 795.499C616.451 795.417 629.517 799.337 639.787 809.597C647.038 816.841 651.764 826.638 653.975 836.561C654.839 840.441 654.546 844.722 654.55 848.675L654.545 867.758L654.546 938.546L369.088 938.618L369.06 860.854L369.08 837.92C369.091 832.829 368.921 827.678 369.575 822.618C370.045 818.977 371.419 815.272 373.273 812.116C377.678 804.622 385.699 798.624 394.131 796.516L394.944 796.321C402.735 794.357 412.98 795.565 421.014 795.629Z"/>
	<path fill="#FEFEFE" d="M421.014 795.629C435.619 794.793 450.527 795.391 465.165 795.374L540.031 795.144L579.376 795.145C586.653 795.119 594.545 794.39 601.717 795.506L534.779 866.087C534.425 867.324 530.845 870.474 529.794 871.607L512.133 891.005L488.797 866.035L421.014 795.629Z"/>
	<path fill="#E44C42" d="M503.79 824.437L491.726 803.917C506.025 801.999 520.298 802.496 534.696 802.516L519.199 824.377L534.779 866.087C534.425 867.324 530.845 870.474 529.794 871.607L512.133 891.005L488.797 866.035L503.79 824.437Z"/>
	<path fill="#F5CB1E" d="M444.279 383.543L444.253 382.781C443.583 365.748 431.401 349.31 419.332 338.306C391.03 312.501 374.296 274.779 372.591 236.535C370.839 197.272 383.133 159.375 409.863 130.115C434.734 102.89 469.858 85.3511 507 84.0263C543.387 82.7284 579.897 95.9096 606.405 121.024C635.119 148.229 650.93 186.224 651.867 225.633C652.724 261.693 638.299 301.208 613.3 327.375C607.787 333.145 601.358 338.073 595.971 343.896C586.684 353.937 580.796 369.367 580.928 383.047L580.936 383.502L535.887 383.476L529.628 383.493L494.858 383.479L488.987 383.434L444.279 383.543Z"/>
	<path fill="#FEFEFE" d="M488.987 383.434L489.002 246.996C481.615 247.035 467.757 248.965 462.25 243.494C459.821 241.081 458.331 237.586 458.501 234.156C458.675 230.641 460.167 227.338 462.794 224.969C466.568 221.566 471.665 220.803 476.562 221.218C481.445 221.631 485.86 223.649 489.039 227.448C492.711 231.837 493.046 236.057 495.014 241.053L529.713 241.08C531.265 234.027 533.892 227.924 540.25 223.943C545.108 220.901 552.672 220.318 558.214 221.75C561.682 222.647 564.667 224.746 566.345 227.954C568.099 231.308 568.337 235.009 567.037 238.548C565.772 241.991 562.934 244.915 559.501 246.222C557.212 247.093 553.822 246.74 551.381 246.747L535.753 246.763L535.887 383.476L529.628 383.493L529.744 247.019L494.937 247.033L494.858 383.479L488.987 383.434Z"/>
	<path fill="#F5CB1E" d="M473.155 226.685C474.983 226.769 476.968 226.748 478.73 227.282L479.25 227.453C480.132 227.736 480.976 228.027 481.75 228.555C486.329 231.681 487.673 235.833 488.829 240.952L480.25 240.977C476.358 241.006 470.925 241.713 467.507 239.704C466.014 238.827 464.858 237.481 464.496 235.75C464.114 233.921 464.447 231.772 465.564 230.25C467.538 227.563 470.052 227.129 473.155 226.685Z"/>
	<path fill="#F5CB1E" d="M551.142 226.714C553.865 226.844 557.063 226.755 559.25 228.658C560.904 230.097 561.852 232.25 561.943 234.433C562.013 236.133 561.376 237.55 560.194 238.75C557.322 241.668 551.107 240.829 547.25 240.855C543.653 240.89 539.805 241.193 536.25 240.695L536.073 240.149C535.61 237.474 538.089 233.254 539.792 231.316C543.212 227.42 546.277 227.038 551.142 226.714Z"/>
	<path fill="#F5CB1E" d="M494.858 383.479L494.937 247.033L529.744 247.019L529.628 383.493L494.858 383.479Z"/>
</svg>
