<?xml version="1.0" encoding="utf-8" ?>
<svg xmlns="http://www.w3.org/2000/svg" xmlns:xlink="http://www.w3.org/1999/xlink" width="1024" height="1024">
	<path fill="#07A7A7" d="M-0 -0L1024 0L1024 1024L-0 1024L0 -0Z"/>
	<path fill="#436499" d="M110.262 397.013C114.023 400.187 118.469 402.753 122.591 405.434L141.362 417.813L209.497 463.678L205.045 465.291L108.667 421.856L109.25 397.774L110.262 397.013Z"/>
	<path fill="#EC524A" d="M449.027 84.9229C452.119 83.136 455.76 82.0212 459.071 80.6593L474.573 74.155L512.575 57.8213L554.5 76.5002L566.465 81.6652C568.92 82.7237 571.844 83.7602 574.01 85.3458C575.57 88.9086 574.515 136.449 574.5 144.593L574.392 272.997L670.857 242.487L651.511 267.194C649.007 270.336 646.587 274.214 643.769 277.023L580.032 356.655L512.493 440.996C511.003 439.706 509.645 437.339 508.41 435.759L498.107 422.683L464.038 380.379C456.791 371.222 449.799 361.505 441.987 352.835C439.5 350.425 437.382 346.939 435.215 344.169L420.791 326.001L380.899 276.999L354.17 244.075L448.854 273.842L448.879 224.75L448.987 133.288L448.882 100.61C448.842 95.9459 448.072 90.1536 448.884 85.6546L449.027 84.9229Z"/>
	<path fill="#FECF5C" d="M449.027 84.9229C452.119 83.136 455.76 82.0212 459.071 80.6593L474.573 74.155L512.575 57.8213L554.5 76.5002L566.465 81.6652C568.92 82.7237 571.844 83.7602 574.01 85.3458C572.602 85.7078 571.118 86.6548 569.771 87.25L559.844 91.4314L517.5 109.956C516.69 110.339 512.504 112.758 511.91 112.686C511.228 112.604 509.647 111.619 508.958 111.296L500.645 107.491L463.512 91.0433C459.277 89.1985 454.093 86.0606 449.686 85.0604L449.027 84.9229Z"/>
	<path fill="#98B4A5" d="M512.892 556.071L513.41 556.43L514.225 557.686C514.836 562.432 597.338 640.126 606.897 649.531L811.912 556.382L811.824 754.809L811.972 808.987L812.026 823.648C812.036 826.233 812.33 829.218 811.893 831.746L512.937 960.866L512.647 557.643L507.549 562.635L507.133 561.716C508.552 559.649 511.115 558.393 512.599 556.154L512.892 556.071Z"/>
	<path fill="#FCEFD0" d="M212.525 556.458L424.756 647.45L507.549 562.635L512.647 557.643L512.937 960.866C508.487 960.312 503.259 957.308 499.058 955.571L466.229 941.873L283.668 865.307L212.482 835.234L212.525 556.458Z"/>
	<path fill="#FCEFD0" d="M643.769 277.023L726.032 313.726L790.695 341.111L837.553 360.577L858.451 369.426L880.659 378.281C882.812 379.166 887.059 380.429 888.363 382.37L888.421 382.925L888.865 401.835L832.803 428.316L810.809 438.405C807.369 440.001 803.529 441.371 800.341 443.409L871.664 490.603L882.189 497.094C884.015 498.157 886.635 499.26 887.992 500.822C888.964 502.68 888.718 504.681 888.755 506.735L889.073 521.76L841.99 542.697L819.949 552.67C817.343 553.903 814.36 554.888 811.912 556.382L606.897 649.531C597.338 640.126 514.836 562.432 514.225 557.686L513.41 556.43L512.892 556.071C513.813 547.521 513.297 538.358 513.324 529.73L513.283 480.173L513.104 453.597C513.071 449.806 513.659 444.554 512.493 440.996L580.032 356.655L643.769 277.023Z"/>
	<path fill="#436499" d="M800.341 443.409L783.348 432.078C784.026 431.022 789.065 429.3 790.438 428.693L817.145 416.612L888.421 382.925L888.865 401.835L832.803 428.316L810.809 438.405C807.369 440.001 803.529 441.371 800.341 443.409Z"/>
	<path fill="#436499" d="M887.992 500.822C888.964 502.68 888.718 504.681 888.755 506.735L889.073 521.76L841.99 542.697L819.949 552.67C817.343 553.903 814.36 554.888 811.912 556.382L606.897 649.531C597.338 640.126 514.836 562.432 514.225 557.686L608.381 627.177L887.992 500.822Z"/>
	<path fill="#DE151E" d="M580.032 356.655L771.024 438.582L593.253 519.31L534.678 546.021L520.827 552.627C518.437 553.788 515.545 554.885 513.41 556.43L512.892 556.071C513.813 547.521 513.297 538.358 513.324 529.73L513.283 480.173L513.104 453.597C513.071 449.806 513.659 444.554 512.493 440.996L580.032 356.655Z"/>
	<path fill="#FCEFD0" d="M380.899 276.999L420.791 326.001L435.215 344.169C437.382 346.939 439.5 350.425 441.987 352.835C449.799 361.505 456.791 371.222 464.038 380.379L498.107 422.683L508.41 435.759C509.645 437.339 511.003 439.706 512.493 440.996C513.659 444.554 513.071 449.806 513.104 453.597L513.283 480.173L513.324 529.73C513.297 538.358 513.813 547.521 512.892 556.071L512.599 556.154C511.115 558.393 508.552 559.649 507.133 561.716L507.549 562.635L424.756 647.45L212.525 556.458L127.948 520.023L128.324 499.965C128.405 498.919 128.719 498.974 129.482 498.322C131.281 496.789 134.413 495.785 136.597 494.805L153.864 487.325L205.045 465.291L209.497 463.678L141.362 417.813L122.591 405.434C118.469 402.753 114.023 400.187 110.262 397.013C113.572 394.457 118.708 392.908 122.586 391.181L155.649 376.711L302.022 311.797L359.418 286.474C366.449 283.416 373.643 279.315 380.899 276.999Z"/>
	<path fill="#436499" d="M212.525 556.458L127.948 520.023L128.324 499.965C128.405 498.919 128.719 498.974 129.482 498.322L423.155 625.443L507.133 561.716L507.549 562.635L424.756 647.45L212.525 556.458Z"/>
	<path fill="#87040D" d="M441.987 352.835C449.799 361.505 456.791 371.222 464.038 380.379L498.107 422.683L508.41 435.759C509.645 437.339 511.003 439.706 512.493 440.996C513.659 444.554 513.071 449.806 513.104 453.597L513.283 480.173L513.324 529.73C513.297 538.358 513.813 547.521 512.892 556.071L512.599 556.154C503.374 550.991 492.955 547.23 483.25 543.003L430.865 520.093L249.755 441.585C252.259 439.337 257.934 437.824 261.215 436.425L281.199 427.506L389.577 377.463L424.72 361.337C430.282 358.741 436.375 356.393 441.554 353.117L441.987 352.835Z"/>
</svg>
