<?xml version="1.0" encoding="utf-8" ?>
<svg xmlns="http://www.w3.org/2000/svg" xmlns:xlink="http://www.w3.org/1999/xlink" width="1024" height="1024">
	<path fill="#7AB9B7" d="M-0 -0L1024 0L1024 1024L-0 1024L0 -0Z"/>
	<path fill="#F7CEB4" d="M686.396 276.489C689.139 276.553 691.568 276.701 694.25 277.367L695.047 277.558C702.014 279.278 707.368 283.03 711.002 289.22C714.797 295.684 715.9 302.485 714.005 309.76C712.171 316.8 706.628 323.072 700.25 326.432C695.478 328.945 690.577 329.592 685.261 329.458C687.835 311.597 688.342 294.463 686.396 276.489Z"/>
	<path fill="#F7CEB4" d="M337.079 275.18L336.699 298.25C337.027 308.725 338.415 318.939 340.535 329.198C337.972 329.35 335.424 329.437 332.872 329.085C326.073 328.147 318.763 323.347 314.81 317.881C310.77 312.295 309.096 305.276 310.257 298.46L310.388 297.75C311.253 292.863 313.125 288.862 316.333 285.044C321.788 278.551 328.824 275.89 337.079 275.18Z"/>
	<path fill="#21358B" d="M345.848 907.15C342.956 910.62 339.674 914.03 336.079 916.78C331.072 920.609 324.719 924.027 318.237 923.037C311.796 922.054 306.545 917.233 302.851 912.118C295.649 902.144 288.255 889.348 284.498 877.601C283.138 873.349 282.163 869.22 283.008 864.75C283.892 860.071 286.36 856.441 290.366 853.847C294.192 851.369 298.954 850.254 303.447 851.369C315.142 854.273 324.656 869.097 330.586 878.677C335.727 887.734 342.41 897.29 345.848 907.15Z"/>
	<path fill="#21358B" d="M689.084 758.345L696.493 746.588C700.311 740.3 703.823 733.166 711.75 731.497C714.726 730.87 718.644 731.017 721.513 732.162C726.305 734.076 730.874 737.645 735.195 740.426L760.508 757.013C765.034 760.107 768.096 764.577 769.073 770C769.994 775.107 768.556 780.008 765.7 784.289C762.553 789.007 757.619 792.353 752.039 793.378C740.325 795.532 733.129 786.341 723.948 781.037C720.937 780.963 716.205 776.838 713.599 775.056L689.084 758.345Z"/>
	<path fill="#FED35A" d="M854.492 307.534C850.363 300.72 847.715 294.019 846.679 286.078C846.19 282.327 846.162 278.093 847.354 274.487L847.569 273.799C848.534 270.836 850.315 268.667 853.102 267.224C855.202 266.137 858.475 265.882 860.688 266.788C861.286 267.033 861.801 267.392 862.335 267.75C862.109 268.921 861.307 269.564 860.553 270.422C856.011 275.589 858.986 280.815 861.274 286.434C866.086 275.924 872.661 265.31 884 260.962C891.009 258.274 898.179 258.16 905.016 261.366C911.783 264.539 916.567 269.713 919.146 276.788C922.229 285.246 921.27 293.55 917.351 301.537C912.119 312.204 903.252 320.072 891.969 323.794C887.06 325.413 882.061 325.799 876.944 325.139C866.443 322.288 860.655 316.039 854.492 307.534Z"/>
	<path fill="#FED35A" d="M148.07 325.372C137.526 326.253 129.55 325.056 120.73 318.842C112.061 312.733 105.623 302.915 103.946 292.354L103.819 291.5C102.687 284.278 103.815 277.703 107.82 271.511C111.609 265.654 117.62 261.413 124.489 260.025L125.25 259.88C129.277 259.091 133.373 259.228 137.312 260.378C149.883 264.045 156.345 274.955 162.425 285.64C164.656 280.06 165.667 276.102 162.836 270.528C162.272 269.418 161.54 268.434 161.648 267.139C162.928 266.377 164.281 266.246 165.75 266.358C168.723 266.585 172.45 269.266 174.261 271.539C177.831 276.02 178.728 281.209 178.108 286.755C177.277 294.181 174.037 300.966 170.368 307.363C164.409 315.858 158.102 322.055 148.07 325.372Z"/>
	<path fill="#667ECE" d="M598.041 709.486L621.072 776.671C622.449 780.671 628.332 799.976 630.462 802.18L689.084 758.345L713.599 775.056C716.205 776.838 720.937 780.963 723.948 781.037C720.832 784.801 717.078 787.994 713.515 791.323L692.198 810.507L670.898 829.365C663.866 835.654 656.951 842.138 648.912 847.146C640.846 852.17 631.713 855.924 622.25 857.072L621.281 857.195C606.307 858.939 590.727 850.127 579.485 841.051C563.213 827.914 550.175 809.659 537.95 792.829C532.158 784.857 526.361 775.631 518.93 769.106C516.654 767.107 513.911 765.989 510.982 765.329C507.064 767.01 504.443 769.115 501.38 772.017C491.797 781.097 483.453 791.853 474.488 801.577C459.996 817.297 444.67 832.282 428.665 846.454C411.295 861.833 392.935 876.649 373.741 889.707C364.736 895.833 354.565 900.767 345.848 907.15C342.41 897.29 335.727 887.734 330.586 878.677C333.888 873.806 338.589 869.269 342.481 864.805L356.377 847.412C386.863 806.527 413.278 759.598 424.772 709.5L598.041 709.486Z"/>
	<path fill="#60357C" d="M341.204 243.187L341.169 242.782C340.627 238.568 342.094 234.124 343.191 230.059C348.068 211.991 356.219 193.88 366.653 178.347C392.939 139.216 434.197 111.391 480.563 102.417C514.571 95.8353 550.187 100.174 582.357 112.68C594.769 117.505 606.523 123.703 618.182 130.099C627.41 135.16 636.543 140.061 645.289 145.955C662.547 146.142 679.37 145.015 695.755 139.064C700.895 137.196 705.785 134.662 710.795 132.471C706.834 137.227 704.174 143.248 700.57 148.345C694.933 156.316 688.333 163.873 680.785 170.106C675.7 174.304 670.177 177.745 664.804 181.527C674.938 182.164 685.169 182.353 695.25 180.928C705.666 179.456 716.094 175.865 725.749 171.797C724.103 174.56 721.423 177.213 719.301 179.671C712.139 187.964 704.247 195.758 695.594 202.499C687.907 208.486 679.738 213.51 671.639 218.886C619.588 248.055 554.428 250.019 497.886 234.053C479.179 228.771 460.874 221.833 443.75 212.592C434.103 207.386 425.182 201.405 416.172 195.2C404.897 211.969 390.813 226.314 373.002 236.161C366.467 239.774 359.531 242.829 352.151 244.19C348.117 244.934 344.947 244.919 341.204 243.187Z"/>
	<path fill="#E65B34" d="M170.368 307.363C184.546 326.266 202.484 342.995 219.985 358.75C266.516 400.638 318.175 436.859 375.764 461.873C400.857 472.773 427.134 481.748 454.318 485.625L487.853 488.157C486.76 481.784 486.493 475.983 486.778 469.54C503.166 471.253 518.514 471.476 534.899 469.47C534.671 475.934 533.903 483.325 534.663 489.712L537.5 489.876C570.169 490.76 601.142 481.997 631.28 470.138C690.754 446.736 745.987 410.566 793.641 368.163L825.597 338.017C835.227 327.979 844.38 317.042 854.492 307.534C860.655 316.039 866.443 322.288 876.944 325.139L849.959 357.129C799.915 412.481 742.688 463.989 677.593 501.028C655.214 513.762 630.568 526.042 605.88 533.531C601.259 534.933 597.997 535.748 597.925 535.917C597.527 536.85 597.915 540.531 597.912 541.69L597.838 565.182L597.594 661.373C597.613 676.474 596.827 692.174 597.856 707.222L598.041 709.486L424.772 709.5C425.367 702.865 425.002 696.001 425.001 689.328L424.719 648.977L424.725 579.321L424.863 536.679C424.871 536.272 425.11 535.801 424.89 535.458C424.8 535.318 422.673 534.67 422.261 534.521C385.408 521.131 350.082 502.967 316.706 482.457C264.071 450.111 217.279 409.328 177.06 362.507C166.836 350.604 156.61 338.563 148.07 325.372C158.102 322.055 164.409 315.858 170.368 307.363Z"/>
	<path fill="#F7CEB4" d="M486.778 469.54C503.166 471.253 518.514 471.476 534.899 469.47C534.671 475.934 533.903 483.325 534.663 489.712L534.442 490.45C532.76 495.898 529.424 499.937 524.347 502.567C518.079 505.814 510.475 506.536 503.777 504.287L503 504.02L500.985 503.287C494.403 500.354 490.349 494.745 487.853 488.157C486.76 481.784 486.493 475.983 486.778 469.54Z"/>
	<path fill="#FAE0D0" d="M341.204 243.187C344.947 244.919 348.117 244.934 352.151 244.19C359.531 242.829 366.467 239.774 373.002 236.161C390.813 226.314 404.897 211.969 416.172 195.2C425.182 201.405 434.103 207.386 443.75 212.592C460.874 221.833 479.179 228.771 497.886 234.053C554.428 250.019 619.588 248.055 671.639 218.886C679.792 236.917 684.264 256.892 686.396 276.489C688.342 294.463 687.835 311.597 685.261 329.458C678.675 373.315 653.471 411.931 618 438.053C597.534 453.126 573.316 463.697 548.223 467.899C543.954 468.613 539.238 469.783 534.899 469.47C518.514 471.476 503.166 471.253 486.778 469.54C481.604 469.32 476.067 468.007 471.027 466.868C450.76 462.286 431.893 453.396 414.758 441.699C376.825 415.804 349.004 374.42 340.535 329.198C338.415 318.939 337.027 308.725 336.699 298.25L337.079 275.18L341.204 243.187Z"/>
	<path fill="#60357C" d="M583.447 272.659C586.339 272.257 589.881 272.275 592.779 272.685C601.909 273.977 610.662 279.019 616.098 286.488C618.156 289.315 621.576 294.669 620.785 298.325C620.399 300.11 619.215 300.972 617.75 301.886C616.521 302.007 615.102 302.229 613.906 301.826C610.852 300.798 609.795 296.587 608.28 293.951C604.594 287.539 599.652 284.804 592.737 282.933C582.43 281.778 572.411 284.567 566.95 294.167C565.367 296.948 565.184 300.428 561.836 301.784C560.35 302.387 558.396 302.219 557 301.483C555.568 300.727 555.11 299.726 554.657 298.25C555.005 293.996 556.825 290.386 559.292 286.97C565.302 278.648 573.472 274.325 583.447 272.659Z"/>
	<path fill="#60357C" d="M430.129 273.158L431.017 273.061C440.58 272.117 449.87 274.222 457.366 280.424C462.407 284.595 467.743 291.078 468.395 297.75C467.936 299.31 467.45 300.692 466 301.595C464.316 302.644 462.249 302.545 460.438 301.868C457.654 300.827 457.127 297.214 455.955 294.75C452.932 288.394 447.295 285.451 440.963 283.272L440.503 283.185C430.757 281.562 419.941 284.837 414.653 293.771C413.254 296.134 412.54 300.192 409.933 301.517C408.58 302.204 405.814 302.3 404.5 301.547C403.147 300.771 402.241 299.274 402.073 297.75C401.727 294.612 405.002 288.981 406.853 286.459C412.675 278.526 420.507 274.663 430.129 273.158Z"/>
	<path fill="#C82E56" d="M577.534 367.679L579.19 366.75L579.873 367.25C579.534 373.429 578.779 379.051 576.801 384.935C571.514 400.664 558.901 413.514 544.091 420.657C527.411 428.702 506.472 429.587 489.043 423.461C472.851 417.769 459.604 406.321 452.271 390.725C449.672 385.196 447.821 379.144 447.436 373.03C447.329 371.341 447.02 369.368 447.593 367.75L448.837 368.049C449.146 367.749 449.362 367.306 449.763 367.148C450.608 366.816 453.551 367.122 454.619 367.115L474.441 367.081L542.667 366.954L574.75 367.02C575.735 367.07 576.61 367.348 577.534 367.679Z"/>
	<path fill="#FEFEFE" d="M448.837 368.049C449.146 367.749 449.362 367.306 449.763 367.148C450.608 366.816 453.551 367.122 454.619 367.115L474.441 367.081L542.667 366.954L574.75 367.02C575.735 367.07 576.61 367.348 577.534 367.679L575.47 369.733C559.691 385.065 534.492 391.614 512.94 391.262C489.468 390.878 465.614 385.431 448.837 368.049Z"/>
</svg>
