<?xml version="1.0" encoding="utf-8" ?>
<svg xmlns="http://www.w3.org/2000/svg" xmlns:xlink="http://www.w3.org/1999/xlink" width="1024" height="1024">
	<path fill="#F5423A" d="M-0 -0L1024 0L1024 1024L-0 1024L0 -0Z"/>
	<path fill="#FEFEFE" d="M580.903 182.196C581.401 186.888 581.117 191.879 581.141 196.61L581.192 223.441L581.127 294.188L581.325 334.519L436.639 449.283L859.972 448.494L859.995 575.106L435.638 574.922L578.684 687.25C580.357 688.66 580.713 688.666 580.894 690.875L580.854 840.574C566.278 830.786 552.518 819.252 538.746 808.381L498.746 777.506L373.284 680.236L344.194 656.975L216.7 557.74L178.275 527.433C171.891 522.358 165.093 517.587 159.186 511.956C160.105 510.455 162.122 509.152 163.498 508.049L174.5 499.448L209.56 472.039L461.733 275.329L538.974 215.135L580.903 182.196Z"/>
</svg>
