<?xml version="1.0" encoding="utf-8" ?>
<svg xmlns="http://www.w3.org/2000/svg" xmlns:xlink="http://www.w3.org/1999/xlink" width="1024" height="1024">
	<path fill="#13B9B3" d="M-0 -0L1024 0L1024 1024L-0 1024L0 -0Z"/>
	<path fill="#DFE7CE" d="M228.257 843.521C239.237 842.723 249.008 843.638 257.814 851.162C260.09 853.107 262.359 855.38 263.924 857.941C267.245 865.749 269.649 873.953 272.385 881.983L283.217 911.404C285.399 917.001 287.342 923.126 290.447 928.278C293.704 933.682 297.831 938.442 302.446 942.729C308.587 948.433 315.817 953.208 322.889 957.667C326.568 959.987 331.669 962.092 334.584 965.277C336.57 967.447 337.165 969.349 336.968 972.25C336 973.438 335.064 974.407 333.528 974.794C328.429 976.079 320.334 974.212 315.201 973.291C300.257 970.608 285.034 967.576 270.86 962.009C265.103 959.748 259.175 956.996 254.577 952.792C247.646 946.453 245.803 938.73 241.551 930.712C231.56 911.872 209.749 899.092 191.993 888.483C194.293 880.534 196.805 872.66 201.048 865.5C207.183 855.151 216.436 846.552 228.257 843.521Z"/>
	<path fill="#E64636" d="M618.284 774.525C624.043 775.549 629.695 775.259 635.491 775.286L662.943 775.377L674.175 774.967L669.649 859.759C684.718 876.941 699.184 894.721 715.401 910.832C723.828 919.204 732.977 927.835 743.19 934.023C750.042 938.174 758.23 941.913 766.012 943.887C780.502 947.564 795.816 948.006 810.512 950.819C817.019 952.064 824.124 953.278 829.586 957.3C831.288 958.553 831.833 959.19 832.118 961.25C831.875 961.807 831.67 962.294 831.25 962.745C829.628 964.485 826.873 965.388 824.679 966.206C815.654 969.571 805.963 970.497 796.431 971.322C774.686 973.206 752.286 974.268 730.672 970.528C723.468 969.282 716.377 967.105 709.428 964.865C693.556 959.749 678.314 953.135 663.588 945.311C659.6 943.192 655.864 940.694 652.274 937.96C651.491 937.363 647.672 933.981 647.064 933.91C646.326 933.824 639.326 938.143 637.98 938.705C633.775 940.46 629.12 941.411 624.562 941.337C615.605 941.192 607.281 937.366 601.099 930.927C594.252 923.796 591.607 914.897 591.943 905.147C592.382 892.438 600.536 883.925 609.042 875.58L623.051 862.134L618.284 774.525Z"/>
	<path fill="#EB7060" d="M611.31 46.0579L643.079 45.7831L648.691 82.6963L656.816 134.5L679.516 282.75L688.294 337.995C691.27 356.428 694.45 374.677 695.653 393.343C696.941 413.335 694.861 433.056 693.481 452.971L689.996 511.963L684.268 604.606L674.175 774.967L662.943 775.377L635.491 775.286C629.695 775.259 624.043 775.549 618.284 774.525L606.032 491.845C621.961 484.375 637.383 477.642 648.472 463.331C659.496 449.102 666.111 432.068 667.005 414.047C667.828 397.44 664.247 381.043 661.689 364.726L651.816 302.559L627.693 150.476L617.574 85.91L611.31 46.0579Z"/>
	<path fill="#F2AAA8" d="M228.257 843.521L248.758 748.88L267.467 664L278.29 613.197C281.555 598.402 284.716 584.125 290.329 569.958C297.021 553.065 307.285 537.007 319.955 523.965C326.321 517.412 333.456 512.048 340.661 506.492L371.22 483.438L514.736 378.549L450.216 46.0466L611.31 46.0579L617.574 85.91L627.693 150.476L651.816 302.559L661.689 364.726C664.247 381.043 667.828 397.44 667.005 414.047C666.111 432.068 659.496 449.102 648.472 463.331C637.383 477.642 621.961 484.375 606.032 491.845L528.961 530.365L406.97 588.802L369.81 606.128C367.365 607.219 355.325 611.615 354.249 613.159C353.63 614.047 353.149 615.902 352.739 616.948L348.949 627.044L336.335 660.664L283.561 803.623C276.884 821.605 271.449 840.318 263.924 857.941C262.359 855.38 260.09 853.107 257.814 851.162C249.008 843.638 239.237 842.723 228.257 843.521Z"/>
</svg>
