<?xml version="1.0" encoding="utf-8" ?>
<svg xmlns="http://www.w3.org/2000/svg" xmlns:xlink="http://www.w3.org/1999/xlink" width="1024" height="1024">
	<path fill="#2E6470" d="M-0 -0L1024 0L1024 1024L-0 1024L0 -0Z"/>
	<path fill="#F8E2CA" d="M512.456 864.875C511.582 864.908 511.081 864.819 510.25 864.465C507.828 863.434 505.344 861.517 503.085 860.125L488.151 850.705L425.746 809.526L349.515 754.418C317.653 729.344 287.359 702.285 258.754 673.557C200.621 615.173 147.162 547.306 120.434 468.394C107.3 429.616 100.234 386.127 105.451 345.251C108.546 321.007 116.202 296.847 127.08 275C150.72 227.524 194.644 187.034 245.25 170.283C256.12 166.685 267.32 163.59 278.627 161.714C318.97 155.018 361.891 161.512 398.422 179.873C410.954 186.173 423.458 193.597 434.482 202.3C471.104 231.209 497.214 273.157 511.821 317.141L512.082 350.529L511.181 351.32C504.379 342.262 498.155 333.282 490.604 324.779C470.67 302.33 444.77 284.213 416.174 274.772C406.593 271.608 396.387 269.581 386.413 268.12C351.982 263.078 313.656 274.741 286.183 295.418C252.956 320.427 232.21 355.699 226.663 396.972C217.99 461.496 250.317 523.452 288.626 572.898C315.269 607.286 347.018 637.704 380.342 665.516C410.284 690.505 441.739 713.614 474.542 734.699L499.441 750.011C503.197 752.233 507.342 755.138 511.438 756.622C513.265 759.862 511.605 850.901 512.456 864.875Z"/>
	<path fill="#F35A52" d="M511.821 317.141L512.19 316.25C513.56 312.863 514.494 309.273 515.793 305.843L526.522 281.106C549.743 233.792 586.847 195.771 635.367 174.558C683.006 153.73 736.918 153.083 785.24 172.006C838.553 192.883 878.719 233.905 901.452 286.164C929.853 351.451 921.513 425.771 896.007 490.373C878.845 533.843 853.216 573.307 824.101 609.635C791.974 649.722 755.668 685.444 716.842 718.986C675.623 754.595 632.372 786.98 587.184 817.373L533.819 852.32C527.465 856.288 520.723 861.351 513.894 864.345C513.409 864.558 512.965 864.738 512.456 864.875C511.605 850.901 513.265 759.862 511.438 756.622C513.233 756.548 515.204 755.134 516.782 754.281L529.869 747.015C551.597 734.883 572.387 720.761 592.519 706.155C629.262 679.496 663.712 650.199 695.483 617.745C725.976 586.596 752.397 552.086 772.184 513.175C787.08 483.883 798.412 450.467 797.932 417.25C797.333 375.82 781.143 336.206 751.111 307.384C723.948 281.315 686.466 266.466 648.785 267.431C622.663 268.101 596.963 276.215 574.808 289.932C566.774 294.907 559.554 300.732 552.373 306.834C547.181 311.245 541.854 315.746 537.18 320.706L521.037 339.426C518.186 342.975 515.529 346.973 512.37 350.238L512.082 350.529L511.821 317.141Z"/>
	<path fill="#CD262E" d="M511.438 756.622C507.342 755.138 503.197 752.233 499.441 750.011L474.542 734.699C441.739 713.614 410.284 690.505 380.342 665.516C347.018 637.704 315.269 607.286 288.626 572.898C250.317 523.452 217.99 461.496 226.663 396.972C232.21 355.699 252.956 320.427 286.183 295.418C313.656 274.741 351.982 263.078 386.413 268.12C396.387 269.581 406.593 271.608 416.174 274.772C444.77 284.213 470.67 302.33 490.604 324.779C498.155 333.282 504.379 342.262 511.181 351.32L512.082 350.529L512.37 350.238C515.529 346.973 518.186 342.975 521.037 339.426L537.18 320.706C541.854 315.746 547.181 311.245 552.373 306.834C559.554 300.732 566.774 294.907 574.808 289.932C596.963 276.215 622.663 268.101 648.785 267.431C686.466 266.466 723.948 281.315 751.111 307.384C781.143 336.206 797.333 375.82 797.932 417.25C798.412 450.467 787.08 483.883 772.184 513.175C752.397 552.086 725.976 586.596 695.483 617.745C663.712 650.199 629.262 679.496 592.519 706.155C572.387 720.761 551.597 734.883 529.869 747.015L516.782 754.281C515.204 755.134 513.233 756.548 511.438 756.622Z"/>
</svg>
