<?xml version="1.0" encoding="utf-8" ?>
<svg xmlns="http://www.w3.org/2000/svg" xmlns:xlink="http://www.w3.org/1999/xlink" width="1024" height="1024">
	<path fill="#EA4F42" d="M-0 -0L1024 0L1024 1024L-0 1024L0 -0Z"/>
	<path fill="#1B1F3E" d="M173.515 684.552C215.163 671.555 261.309 668.47 304.385 675.31C367.352 685.192 427.326 717.54 465.252 769.528C480.213 790.036 490.782 811.485 497.022 836.173L498.109 848.152L320.033 758.276L252.967 724.704L196.2 696.297C188.956 692.658 179.998 689.364 173.515 684.552Z"/>
	<path fill="#1B1F3E" d="M719.996 675.328C764.521 668.879 808.292 671.869 851.537 684.12L525.511 847.796C525.411 840.378 527.046 833.062 528.418 825.814C534.253 807.594 542.159 790.464 553.126 774.698C577.47 739.704 613.978 711.474 653.023 694.67C674.612 685.379 696.913 679.448 719.996 675.328Z"/>
	<path fill="#16938F" d="M719.94 459.15L749.407 442.045L805.744 409.627L826.077 397.869C829.55 395.869 832.981 393.58 836.627 391.917C838.764 390.942 840.986 390.091 843.349 390.703C846.35 391.482 849.692 393.79 851.113 396.592C851.717 397.782 851.861 399.433 851.91 400.75L851.998 436.866L852.023 508.804L852.301 683L851.537 684.12C808.292 671.869 764.521 668.879 719.996 675.328L719.94 459.15Z"/>
	<path fill="#16938F" d="M173.515 684.552C172.594 683.11 172.829 681.425 172.812 679.778L172.705 497.611L172.65 431.86C172.652 420.421 171.785 408.141 173.175 396.806C175.36 394.105 177.292 392.091 180.692 390.895C182.302 390.329 183.86 390.221 185.471 390.838C189.268 392.293 193.13 394.718 196.699 396.688L214.282 406.267L304.373 455.158L304.385 675.31C261.309 668.47 215.163 671.555 173.515 684.552Z"/>
	<path fill="#FDAD25" d="M529.019 448.679L529.389 448.058C531.249 444.872 532.631 441.315 534.45 438.061C538.653 430.543 543.394 423.196 548.267 416.097C579.754 370.235 624.958 335.561 678.845 320.696C686.41 318.609 708.311 312.535 714.715 316.09C716.707 317.196 718.751 319.086 719.372 321.345L719.616 322.5L719.735 323.058C720.376 326.396 720.01 330.305 720.013 333.701L719.999 355.314L719.903 424.625C719.887 436.001 719.198 447.824 719.94 459.15L719.996 675.328C696.913 679.448 674.612 685.379 653.023 694.67C613.978 711.474 577.47 739.704 553.126 774.698C542.159 790.464 534.253 807.594 528.418 825.814C527.046 833.062 525.411 840.378 525.511 847.796L511.252 854.955L498.109 848.152L497.022 836.173C498.114 831.865 497.158 825.379 497.132 820.806L497.155 788.463L497.186 659.418L497.363 618.202C497.428 605.902 497.619 593.98 496.309 581.727C496.986 580.638 497.32 579.98 497.358 578.686C498.16 551.615 501.507 522.844 509.134 496.852C512.086 486.791 516.008 477.184 519.974 467.5C522.305 461.809 524.771 453.067 529.019 448.679Z"/>
	<path fill="#D8152D" d="M496.309 581.727C496.986 580.638 497.32 579.98 497.358 578.686C498.16 551.615 501.507 522.844 509.134 496.852C512.086 486.791 516.008 477.184 519.974 467.5C522.305 461.809 524.771 453.067 529.019 448.679L528.393 578.493L528.464 739.453L528.416 799.034L528.106 815.12C528.014 818.534 527.6 822.495 528.418 825.814C527.046 833.062 525.411 840.378 525.511 847.796L511.252 854.955L498.109 848.152L497.022 836.173C498.114 831.865 497.158 825.379 497.132 820.806L497.155 788.463L497.186 659.418L497.363 618.202C497.428 605.902 497.619 593.98 496.309 581.727Z"/>
	<path fill="#FDAD25" d="M304.373 455.158L304.263 359.516L304.176 339.843C304.111 335.875 303.606 331.425 304.268 327.515C304.886 323.864 306.752 320.487 309.388 317.888C312.783 314.539 316.862 312.842 321.62 312.939C323.259 312.972 324.604 313.28 326.152 313.81L326.8 314.024L396.01 342.959C391.719 354.836 387.531 366.763 384.388 379.005C368.631 440.376 371.074 504.625 398.256 562.473C400.398 567.03 402.552 571.636 405.062 576C405.919 577.489 406.651 579.227 407.845 580.458C406.253 574.807 402.513 568.853 400.173 563.357C395.537 552.468 391.751 541.296 388.692 529.864C386.707 522.449 385.48 514.803 384.242 507.235C374.04 444.879 388.24 382.801 418.839 328.047C456.902 259.941 524.433 206.259 599.571 185.167L645.714 174.637C641.388 177.386 636.326 179.316 631.771 181.744C620.381 187.818 609.16 194.122 598.511 201.436C580.805 213.596 563.292 226.991 547.602 241.69C495.862 290.161 455.571 355.225 440.11 424.759C434.092 451.824 430.948 479.923 432.17 507.667C433.071 528.144 436.468 548.407 441.015 568.365C444.441 583.401 448.65 599.411 455.335 613.344C454.253 606.78 451.448 600.138 449.676 593.695C446.529 582.251 444.177 570.462 442.388 558.737C437.999 529.982 437.913 499.605 442.993 470.929C450.049 431.092 467.34 392.717 490.747 359.847C527.115 308.777 583.162 271.575 642.381 252.341C658.511 247.102 674.995 243.699 691.572 240.291C689.292 242.318 686.089 243.482 683.397 244.901L668.5 253.008C655.807 260.293 643.505 268.506 631.829 277.322C555.708 334.791 499.084 418.299 493.25 515.469C492.359 530.311 492.881 545.351 493.931 560.173C494.423 567.106 494.83 574.961 496.309 581.727C497.619 593.98 497.428 605.902 497.363 618.202L497.186 659.418L497.155 788.463L497.132 820.806C497.158 825.379 498.114 831.865 497.022 836.173C490.782 811.485 480.213 790.036 465.252 769.528C427.326 717.54 367.352 685.192 304.385 675.31L304.373 455.158Z"/>
</svg>
