<?xml version="1.0" encoding="utf-8" ?>
<svg xmlns="http://www.w3.org/2000/svg" xmlns:xlink="http://www.w3.org/1999/xlink" width="1024" height="1024">
	<path fill="#7EC1AC" d="M-0 -0L1024 0L1024 1024L-0 1024L0 -0Z"/>
	<path fill="#109496" d="M904.328 446.895C904.998 448.039 905.325 448.972 905.58 450.273C909.773 471.625 910.465 494.737 910.131 516.461C909.683 545.567 906.885 574.554 900.502 603C889.858 650.437 869.323 695.846 842.012 736C804.501 791.15 751.104 838.135 691.401 867.974C656.246 885.544 619.209 897.341 580.64 904.597C558.422 908.776 536.083 910.411 513.491 910.502C496.085 910.573 478.544 910.04 461.25 907.934C449.837 906.544 438.444 904.159 427.224 901.693C377.76 890.823 329.293 870.779 287.5 842.023C252.839 818.174 221.768 789.672 195.87 756.446C157.755 707.548 130.556 646.264 119.401 585.204C104.431 503.271 114.166 418.938 149.275 343.242C157.761 324.947 167.343 307.155 178.806 290.54C230.689 215.344 306.319 158.708 393.454 131.104C408.243 126.419 423.24 122.238 438.518 119.463C505.039 107.379 574.656 110.826 638.974 132.43L659.919 140.071C663.326 141.42 667.038 142.534 670.063 144.625C686.497 150.486 702.554 159.404 717.518 168.299C761.765 194.598 801.721 230.617 832.183 272.127C847.656 293.213 860.741 315.947 871.936 339.564C886.139 369.529 896.552 402.595 902.427 435.227C903 438.415 904.922 443.806 904.328 446.895Z"/>
	<path fill="#F29251" d="M616.039 146.25C616.567 146.142 616.646 146.1 617.268 146.124C620.15 146.238 622.643 147.588 624.457 149.75C624.343 150.353 624.318 150.647 624.045 151.25C623.311 152.868 622.239 153.349 620.75 154.05C618.534 153.985 616.804 153.44 614.903 152.264C613.401 151.336 612.655 150.37 612.25 148.673C613.471 147.129 614.142 146.738 616.039 146.25Z"/>
	<path fill="#F29251" d="M432.436 325.25C434.456 324.965 435.893 325.271 437.583 326.478C439.452 327.813 440.712 329.466 441.033 331.75C440.367 333.359 440.181 333.5 438.75 334.513C437.995 334.63 437.883 334.688 437.248 334.686C435.197 334.68 433.026 333.857 431.611 332.339C430.669 331.328 430.001 329.709 430.267 328.327C430.562 326.792 431.287 326.137 432.436 325.25Z"/>
	<path fill="#F29251" d="M899.933 536.25C900.708 536.115 900.853 536.38 901.519 536.75C903.174 539.279 903.771 541.932 904.24 544.888C905.035 549.889 904.967 557.522 901.948 561.75L901.183 561.734C899.607 560.307 899.32 559.586 898.75 557.563C896.903 551.009 896.582 542.369 899.933 536.25Z"/>
	<path fill="#F29251" d="M566.934 136.75L567.431 136.575C571.004 135.805 581.027 139.992 584.19 142.222C585.713 143.296 586.501 144.449 586.875 146.25C585.84 148.243 584.1 149.226 582.306 150.474C578.994 152.279 576.008 152.992 572.346 153.713L574.988 147.49C572.56 143.972 568.88 141.797 566.596 138.5L566.934 136.75Z"/>
	<path fill="#F29251" d="M390.47 213.461L392.25 213.463C396.123 215.833 391.124 227.645 391.916 231.849C393.025 237.735 402.446 238.155 404.42 244.929C405.938 250.136 402.279 260.662 399.421 265.316C399.161 265.74 398.878 266.15 398.562 266.535C397.63 267.673 396.217 268.449 394.803 268.814C392.715 269.354 389.85 269.224 387.898 268.319C387.094 267.946 381.695 264.666 381.449 264.716C381.254 264.755 380.085 265.749 379.844 265.937C376.789 268.324 373.391 273.75 369.75 274.546C368.202 273.819 368.004 273.671 367.059 272.25C367.645 268.345 370.123 264.576 371.964 261.134C373.298 258.932 374.297 256.851 375.239 254.462C374.837 252.134 374.703 249.454 372.922 247.75C367.811 246.163 362.777 252.956 359.258 255.832C357.083 257.609 354.425 259.215 351.606 259.636C350.286 259.833 348.854 259.852 347.75 259.023C348.281 256.704 352.106 253.71 353.804 252.004C357.628 248.161 360.012 243.91 363.102 239.528C367.247 233.649 370.728 235.401 376.927 234.373C380.337 230.705 379.696 225.034 381.634 220.626C383.495 216.392 386.468 215.116 390.47 213.461Z"/>
	<path fill="#F29251" d="M728.556 691.75L730.005 691.476C732.9 693.88 735.403 696.888 737.957 699.654L737.73 700.7C736.666 704.212 734.716 707.786 733.145 711.116L725.165 728.329L713.271 755.127C711.763 758.586 710.242 764.091 707.993 766.969C706.463 768.925 703.05 770.696 700.952 772.202C698.346 774.074 695.887 776.558 693 777.924L691.75 776.625L684.25 765.421C683.663 764.529 682.221 762.703 681.975 761.748C681.83 761.187 682.713 759.281 682.931 758.708C684.05 755.765 685.166 752.36 687.1 749.846C689.983 746.097 693.946 744.037 696.41 739.771C696.714 739.245 697.704 737.798 697.786 737.277C697.893 736.593 696.092 733.203 695.9 732C695.648 730.43 695.897 728.789 696.119 727.23C696.45 724.901 696.57 720.262 697.533 718.325C698.142 717.099 699.865 715.914 700.909 715.055L709.033 708.366C715.556 702.868 721.723 696.849 728.556 691.75Z"/>
	<path fill="#F29251" d="M568.942 171.814C585.535 162.97 604.558 161.07 623.095 160.5L637.5 160.505C640.23 160.633 646.368 162.222 648.641 161.042C648.624 156.396 637.019 150.654 633.529 148.535C632.085 147.658 629.538 146.364 628.984 144.75C629.348 143.201 630.127 142.31 631.34 141.331C637.317 136.504 662.339 143.723 670.063 144.625C686.497 150.486 702.554 159.404 717.518 168.299C761.765 194.598 801.721 230.617 832.183 272.127C847.656 293.213 860.741 315.947 871.936 339.564C886.139 369.529 896.552 402.595 902.427 435.227C903 438.415 904.922 443.806 904.328 446.895L902.765 449.273C899.121 455.616 899.301 464.791 897.864 471.875C896.617 478.023 894.154 483.58 892.314 489.535C889.676 498.068 888.888 507.576 890.641 516.393C891.809 522.266 894.023 528.079 895.682 533.841L892.76 537.505C891.215 539.421 889.906 541.712 887.25 541.996C884.322 539.809 882.439 536.562 880.84 533.338C877.683 526.975 876.207 519.826 873.489 513.25C868.413 500.969 861.886 489.334 857.807 476.631C856.701 473.187 855.674 469.675 854.958 466.126C854.41 463.408 854.615 460.039 853.429 457.555C852.301 457.426 851.746 457.4 850.814 458.25C849.17 459.748 849.518 462.669 849.368 464.75C848.311 465.943 848.027 466.171 846.506 466.602C845.657 466.842 843.043 467.393 842.361 466.79C840.773 465.387 839.677 461.79 838.623 459.85C834.044 451.416 827.304 443.515 819.021 438.551C807.232 431.485 791.793 431.02 778.384 430.757C774.278 430.677 769.665 431.056 765.781 429.603C759.575 427.28 755.674 420.285 749.55 417.108C742.238 413.315 737.244 413.853 729.606 416.236C723.854 411.122 720.04 404.235 714.08 399.152C710.905 396.444 702.946 390.869 698.561 391.512C696.8 391.77 695.115 393.232 694.266 394.75C693.513 396.096 693.463 397.551 693.912 399C695.455 403.976 700.256 408.971 703.528 412.939L720.003 431.824C722.493 434.45 725.29 437.691 728.59 439.31L729.25 439.611L729.848 439.897C732.069 440.876 735.695 440.678 737.884 439.701C741.686 438.006 742.27 435.227 743.748 431.733C744.472 430.022 745.295 429.211 747 428.542C754.116 429.626 756.24 438.867 761.62 442.783C765.575 445.661 770.238 446.075 773.64 449.913C774.579 452.666 772.795 455.102 771.572 457.503C769.497 461.577 767.274 465.52 766.424 470.067C765.721 473.834 765.924 478.407 764.531 481.941C763.757 483.904 762.239 485.711 760.528 486.926C756.159 490.029 750.685 491.846 745.963 494.404L691.448 522.488C686.568 511.424 683.166 498.784 676.062 488.942C672.876 484.527 668.557 480.68 664.752 476.781C658.797 470.678 653.491 464.4 648.969 457.142C644.398 449.804 640.482 441.763 636.75 433.962C634.087 428.395 631.79 423.004 627.819 418.198C625.95 415.936 622.236 411.75 619.172 411.688C618.307 411.671 617.332 412.336 616.75 412.973C615.692 414.132 615.376 415.481 615.556 417C617.017 429.362 625.554 440.945 631.306 451.735L647.923 484.784C656.588 500.56 668.369 515.707 682.479 526.931C685.678 529.476 689.591 532.35 693.642 533.277C697.193 534.089 702.206 532.829 705.838 532.463L738.899 528.908L729.022 554.5C724.351 566.298 719.668 579.218 712.12 589.507C709.831 592.626 706.437 595.34 703.68 598.084L678.94 623.1C674.543 627.595 669.571 632.028 665.812 637.05C664.11 639.325 662.946 641.692 662.436 644.495L662.308 645.25C661.284 651.045 662.27 657.001 663.097 662.754L667.019 687.386C668.117 695.324 668.163 702.965 667.673 710.935C667.627 711.684 667.719 714.123 667.427 714.701C667.001 715.545 664.604 716.976 663.732 717.586C659.112 720.819 638.419 731.979 636.697 735.345C636.118 736.478 636.442 739.36 636.439 740.688L637.288 764.833C637.31 765.412 637.652 768.482 637.431 768.884C637.305 769.115 634.724 770.221 634.36 770.401L620.193 777.398C619.094 777.914 615.738 779.234 615.043 780.179C614.575 780.817 614.231 782.358 613.923 783.178L611.146 790.289C607.593 798.732 603.46 806.703 597.912 814.015C595.432 817.284 591.042 823.84 587.543 825.861C584.979 827.342 581 827.863 578.135 828.556C572.926 829.816 567.676 831.566 562.406 832.468C557.414 833.323 552.282 833.477 547.25 834.055L522.797 837.23C518.744 826.484 516.385 814.132 511.098 804C508.458 798.943 502.421 795.412 500.416 790.249C498.305 784.814 497.597 777.462 496.405 771.632C495.855 768.938 495.419 765.987 494.114 763.545C492.191 759.946 489.272 756.616 486.854 753.314L469.621 729.447L481.417 684.73C479.668 677.977 476.963 669.189 473.157 663.358C469.704 658.066 464.901 653.584 460.237 649.385C456.513 646.032 452.51 642.862 449.391 638.923C448.802 635.422 448.994 631.781 448.99 628.235C448.98 619.385 449.489 611.372 451.718 602.753C449.693 599.055 447.55 595.347 445.102 591.914C444.594 591.202 443.535 589.36 442.877 588.897C442.646 588.734 439.138 588.837 438.578 588.821C433.564 588.678 427.768 588.978 423.314 586.396C419.657 584.276 416.67 579.807 413.592 576.873C410.032 573.479 406.465 572.59 401.655 572.85C395.89 573.163 391.766 575.636 386.807 578.279C384.847 579.323 382.275 580.94 380.112 581.355C375.04 582.33 368.34 581.552 363.122 581.544L325.606 581.776C324.93 581.479 324.605 581.188 324.076 580.655C319.896 576.439 316.243 571.482 312.506 566.872L288.079 535.399L279.954 524.641C279.33 523.798 277.703 522.09 277.388 521.168C277.165 520.512 277.394 518.568 277.396 517.804L277.417 506.39L277.407 449.579C279.266 445.942 282.104 442.803 284.667 439.641C292.589 429.868 301.46 421.184 310.358 412.318C314.494 408.196 319.215 404.174 322.801 399.574C325.386 396.257 327.411 392.42 329.563 388.815L338.374 374.104C340.766 369.956 343.435 362.57 347.531 360.146C351.464 359.463 353.951 362.041 357.092 363.971C359.443 365.415 361.757 366.559 364.465 367.194C376.453 370.008 385.618 355.889 395.006 350.449C395.441 350.197 396.539 349.45 397.053 349.366C397.714 349.259 399.256 349.773 400 349.911L407.25 351.223C423.383 353.905 439.798 355.861 455.689 359.794L454.59 379.888C459.531 382.819 466.849 385.361 472.448 386.609C475.762 387.347 479.423 387.575 482.593 388.812C490.41 391.863 497.005 399.223 503.707 404.099C506.798 404.153 511.527 403.577 514.049 401.731C516.546 399.904 518.002 396.025 519.228 393.249C521.48 388.151 523.515 384.226 528.34 381.036C529.513 380.261 532.404 378.193 533.734 378.15C535.045 378.107 537.2 379.07 538.5 379.483L553.5 384.434C559.069 386.298 564.515 387.903 570.25 389.143C582.803 391.857 597.04 389.869 609.623 388.179C611.231 386.737 612.726 384.965 613.797 383.089C614.306 382.196 615.094 380.996 615.336 379.989C615.836 377.905 614.884 373.769 614.712 371.486C614.259 365.481 614.945 357.986 613.212 352.25C611.829 347.671 595.574 354.076 591.543 354.338C587.128 354.626 580.619 352.3 576.25 351.305C567.596 349.333 556.216 348.385 548.525 343.798C546.065 342.331 543.094 339.619 542.443 336.75C543.183 334.017 546.624 331.973 548.134 329.542C548.893 328.322 548.585 327.149 548.25 325.861C547.314 324.875 547.063 324.376 545.633 324.237C541.316 323.817 530.675 331.191 527.169 334.036C529.574 338.951 533.459 342.56 535.392 347.734L533.157 348.706C529.956 350.025 525.014 351.549 521.79 349.76C517.287 347.262 515.094 338.634 512.681 334.262C509.913 329.245 505.9 323.499 501.213 320.079C499.095 318.534 496.377 317.571 493.962 316.571L494.783 330C494.908 331.92 495.395 334.629 494.25 336.295L493.909 336.75C490.41 341.721 483.402 346.541 478.114 349.548C476.294 350.583 474.562 351.827 472.467 351.25C472.236 350.729 472.161 350.657 472.116 350C471.802 345.363 475.999 344.606 478.159 341.658C478.87 340.688 478.885 340.269 478.659 339.179C478.115 336.553 476.462 334.416 474.591 332.564C470.277 328.296 464.449 325.125 459.625 321.398C454.543 317.471 449.86 312.847 444.486 309.331C442.575 308.081 440.331 306.671 438.124 306.083C432.76 304.654 428.495 309.648 423.857 311.344C419.14 313.069 414.117 313.49 409.25 314.581C404.618 315.619 401.114 317.697 397.251 320.31C395.423 321.547 393.193 322.467 391.585 323.98C389.817 325.644 388.444 328.294 387.202 330.37C384.291 335.233 381.896 340.371 379.559 345.529C378.217 348.492 376.991 351.934 375.167 354.618C373.671 356.818 371.017 358.804 368.358 359.27C362.153 360.359 355.328 353.506 349 353.223C344.868 353.038 340.187 353.884 336.092 354.42C333.583 354.748 330.907 355.57 328.75 354.098C328.599 353.606 328.471 353.304 328.487 352.75C328.588 349.291 345.675 305.481 347.947 303.445C354.933 297.187 369.777 310.699 377.517 311.053C378.988 311.12 379.384 310.995 380.472 309.933C382.086 308.358 382.244 306.004 382.23 303.872C382.206 300.078 381.494 296.487 380.019 293C378.599 289.642 375.954 286.187 376.006 282.5C379.203 277.006 393.991 272.443 399.892 269.067C404.885 266.211 408.735 262.376 412.566 258.128C415.385 255.003 418.612 249.897 422.468 248.167C428.495 245.465 436.709 244.582 443.23 243.211L484.552 234.688C488.08 233.982 493.715 233.923 496.821 232.223C503.303 228.676 502.577 218.348 507.913 213.712C512.202 209.986 520.534 212.932 525.608 209.25C525.516 208.001 525.475 207.225 524.25 206.491C522.9 205.682 520.504 205.6 518.932 205.398C510.906 204.365 503.148 203.889 497.013 198.058C499.31 191.839 502.202 188.823 507.708 185.196C508.899 184.412 510.544 183.591 511.327 182.369C511.89 181.489 511.598 181.225 511.416 180.25C508.914 178.152 499.124 178.423 495.654 178.529C493.774 181.497 493.944 185.625 492.257 188.422C491.65 189.428 488.802 190.694 487.731 191.044C484.9 191.968 481.141 192.294 479.908 195.44C478.421 199.236 479.972 204.212 480.059 208.185C480.175 213.491 478.799 218.24 477.207 223.234C476.485 225.498 475.643 228.258 474.149 230.13C473.108 231.435 471.763 231.382 470.25 231.601C466.631 230.034 465.691 221.402 464.67 217.794C464.207 216.157 463.473 214.562 462.799 213.002C460.657 216.404 459.017 219.995 457.523 223.723C456.457 226.383 455.51 229.918 453.564 232.036C452.47 233.228 451.815 233.365 450.25 233.52C443.912 230.214 448.197 221.118 445.033 215.466C442.718 214.783 440.74 216.709 438.5 216.531C437.054 216.416 436.592 215.703 435.619 214.75C435.128 211.813 437.431 208.921 438.187 206.105C439.172 202.437 439.221 197.321 441.476 194.197C444.6 189.871 452.908 188.753 457.485 185.775C462.946 182.223 465.696 176.335 470.06 171.75C473.776 167.847 479.176 166.356 484.006 164.296C488.985 162.173 494.054 159.586 499.381 158.523C503.735 157.654 508.615 156.546 513.046 157.252L513.75 157.375C518.362 158.062 522.473 160.229 527.043 161.028C533.864 162.22 540.943 161.881 547.804 162.772C552.302 163.357 556.762 164.873 561 166.441C563.73 167.452 566.431 168.359 568.698 170.25L568.619 171.383L568.942 171.814Z"/>
	<path fill="#098989" d="M568.619 171.383L568.942 171.814L559.337 180.807C556.968 180.576 553.34 180.107 551.5 178.499C550.432 177.564 550.31 176.582 550.232 175.25C550.616 174.777 550.873 174.161 551.386 173.83C552.233 173.284 554.677 173.41 555.706 173.371C560.024 173.209 564.058 173.54 568.048 171.657L568.619 171.383Z"/>
	<path fill="#098989" d="M460.883 301.25L476.991 301.081C478.813 304.608 479.644 308.421 480.348 312.293C480.794 314.744 481.243 317.006 479.75 319.175C477.671 319.52 474.945 317.708 473.171 316.656C467.636 313.374 461.689 308.748 460.013 302.25L460.883 301.25Z"/>
</svg>
