<?xml version="1.0" encoding="utf-8" ?>
<svg xmlns="http://www.w3.org/2000/svg" xmlns:xlink="http://www.w3.org/1999/xlink" width="1024" height="1024">
	<path fill="#2AA1A8" d="M-0 -0L1024 0L1024 1024L-0 1024L0 -0Z"/>
	<path fill="#D94632" d="M515.836 68.146L601.499 67.9986L601.076 602.037L797.402 601.851L513.278 952.977C512.024 941.792 512.977 929.619 512.973 918.302L512.946 849.792L512.954 626.352L512.951 252.594L512.963 130.482L513.045 68.75L515.836 68.146Z"/>
	<path fill="#E67759" d="M513.278 952.977C512.947 953.858 513.229 953.426 512.25 954.133C508.676 950.807 505.744 946.646 502.688 942.847L484.988 920.608L431.516 854.816L360.812 766.253L305.962 698.905L256.384 636.912L228.336 601.979L422.728 602.455L422.934 68.0301L515.836 68.146L513.045 68.75L512.963 130.482L512.951 252.594L512.954 626.352L512.946 849.792L512.973 918.302C512.977 929.619 512.024 941.792 513.278 952.977Z"/>
</svg>
