<?xml version="1.0" encoding="utf-8" ?>
<svg xmlns="http://www.w3.org/2000/svg" xmlns:xlink="http://www.w3.org/1999/xlink" width="1024" height="1024">
	<path fill="#04C1D2" d="M93.2573 1024L-0 1024L0 -0L1024 0L1024 1024L930.352 1024L93.2573 1024Z"/>
	<path fill="#F9B00F" d="M677.212 401.956C685.788 401.686 694.178 402.113 700.75 408.468C708.848 416.3 711.817 430.133 711.872 441C711.959 458.179 706.66 474.883 699.468 490.307C695.987 497.771 691.881 505.455 685.99 511.317C682.712 514.578 677.696 518.296 672.891 518.128C670.478 518.044 667.91 517.063 666.324 515.174L664.398 512.332C666.619 496.111 667.021 479.945 667.038 463.595L666.684 436.09C668.569 433.089 669.61 428.722 670.666 425.332L677.212 401.956Z"/>
	<path fill="#F9B00F" d="M358.547 513.635C357.059 515.29 354.245 518.534 352 518.917C348.649 519.489 345.08 517.541 342.5 515.561C325.589 502.58 315.436 471.082 312.847 450.583C311.108 436.817 313.549 418.911 322.264 407.711C327.775 400.629 333.394 397.879 342.177 396.846L353.076 426.193C354.161 428.991 355.138 433.012 356.882 435.405L357.013 477.743C357.048 489.692 356.96 501.772 358.547 513.635Z"/>
	<path fill="#001A31" d="M342.177 396.846C336.755 381.568 331.601 366.203 327.527 350.5C322.753 332.098 319.525 313.425 316.863 294.617C312.589 264.415 309.61 228.337 323.249 200.015C331.37 183.153 346.327 170.092 364 164.048L371.786 161.563C372.447 161.369 373.963 161.16 374.428 160.817C374.8 160.543 375.623 158.564 375.878 158.091C377.101 155.826 378.371 153.63 379.806 151.492C384.689 144.22 390.202 137.471 396.096 131.006C412.721 112.773 434.161 99.9991 458.246 94.3963C480.225 89.2834 506.551 90.7342 528.368 96.1983C548.508 101.242 567.654 109.837 586.234 118.965C626.17 138.585 670.776 171.312 685.531 215C689.449 226.601 692.249 239.106 693.272 251.328C694.923 271.066 693.725 290.93 691.732 310.597L684.746 363.297C682.632 376.113 680.646 389.44 677.212 401.956L670.666 425.332C669.61 428.722 668.569 433.089 666.684 436.09L666.338 404.584C665.282 373.761 659.042 344.658 645.629 316.807C640.241 305.618 633.337 294.571 625.439 285.012C625.1 284.602 623.486 282.415 623.094 282.278C623.025 282.254 620.463 283.475 620.074 283.648C615.787 285.554 611.484 287.267 607.031 288.75C589.843 294.473 571.429 296.225 553.393 296.242C534.924 296.26 516.462 294.146 498.254 291.161C466.111 285.891 435.125 277.583 404.411 266.815L389.714 280.491C360.921 311.201 358.476 353.031 357.463 392.75L356.882 435.405C355.138 433.012 354.161 428.991 353.076 426.193L342.177 396.846Z"/>
	<path fill="#FAD48D" d="M356.882 435.405L357.463 392.75C358.476 353.031 360.921 311.201 389.714 280.491L404.411 266.815C435.125 277.583 466.111 285.891 498.254 291.161C516.462 294.146 534.924 296.26 553.393 296.242C571.429 296.225 589.843 294.473 607.031 288.75C611.484 287.267 615.787 285.554 620.074 283.648C620.463 283.475 623.025 282.254 623.094 282.278C623.486 282.415 625.1 284.602 625.439 285.012C633.337 294.571 640.241 305.618 645.629 316.807C659.042 344.658 665.282 373.761 666.338 404.584L666.684 436.09L667.038 463.595C667.021 479.945 666.619 496.111 664.398 512.332C663.402 518.73 662.558 524.951 660.732 531.19C655.481 549.136 644.585 565.724 634.362 581.251L621.584 599.145L611.92 610.763C610.628 612.236 608.519 613.987 608.366 615.987C606.566 616.15 605.27 618.282 604.002 619.597L578.003 644.029C560.598 658.976 540.963 672.643 517.11 673.035C506.287 673.213 495.772 672.045 485.5 668.474C474.932 664.801 465.718 658.8 456.906 652.024C451.065 647.533 445.164 642.889 439.766 637.874L416.043 614.238C400.333 596.441 386.772 578.235 374.782 557.715C370.226 549.917 365.312 541.498 362.35 532.922C360.179 526.637 359.468 520.183 358.547 513.635C356.96 501.772 357.048 489.692 357.013 477.743L356.882 435.405Z"/>
	<path fill="#F9B00F" d="M501.742 571.202C515.772 570.541 529.431 571.074 543.225 573.902C536.627 576.919 529.607 578.753 522.385 579.51C508.451 582.081 493.885 578.812 480.67 574.489C482.845 572.553 498.34 571.499 501.742 571.202Z"/>
	<path fill="#001A31" d="M582.414 405.589C585.443 405.488 587.992 405.648 590.812 406.94C593.812 408.314 596.225 410.982 597.399 414.051L597.652 414.75L597.91 415.432C599.032 418.62 598.719 422.552 597.25 425.564C595.036 430.103 591.588 432.076 587.023 433.601C583.923 433.643 581.106 433.699 578.235 432.3C574.771 430.613 571.783 427.541 570.75 423.77C569.651 419.76 570.134 415.303 572.433 411.795C574.896 408.036 578.191 406.507 582.414 405.589Z"/>
	<path fill="#001A31" d="M436.506 405.611C439.003 405.213 441.719 405.104 444.192 405.74C447.692 406.639 451.008 408.713 452.706 411.995C454.781 416.005 455.032 420.277 453.454 424.5C451.688 429.227 448.117 431.349 443.747 433.237C441.101 433.777 438.153 433.633 435.607 432.75C431.967 431.488 429.061 428.865 427.428 425.379C425.827 421.961 425.848 417.574 427.239 414.094C429.065 409.526 432.145 407.4 436.506 405.611Z"/>
	<path fill="#F9B00F" d="M540.127 512.25L540.937 512.189L541.352 512.75L540.098 514.506C533.612 523.108 526.031 529.581 514.956 530.973C505.655 532.142 497.987 527.813 490.999 522.224C487.821 519.167 485.251 515.634 482.67 512.077C501.408 516.849 521.376 516.789 540.127 512.25Z"/>
	<path fill="#001A31" d="M421.356 379.212C422.891 378.905 424.757 379.037 426.327 379.016C434.405 378.911 456.664 381.237 461.946 386.899C462.902 387.923 463.292 389.116 463.199 390.517C463.094 392.098 462.248 393.588 461.013 394.575C460.069 395.33 458.639 396.004 457.427 396.048C454.141 396.166 450.467 395.36 447.193 394.948L429.327 392.93C414.853 391.049 398.441 391.283 384.169 394.305C395.025 383.955 406.657 380.622 421.356 379.212Z"/>
	<path fill="#001A31" d="M591.325 379.211L592.25 379.111C609.586 377.897 630.868 381.549 643.913 393.807C633.057 392.084 622.245 391.675 611.271 391.674C603.934 391.862 596.544 392.008 589.239 392.764C581.299 393.586 571.548 396.387 563.75 395.328C561.968 394.18 560.432 392.686 560.111 390.467C559.897 388.989 560.236 387.651 561.253 386.526C565.394 381.948 585.123 379.735 591.325 379.211Z"/>
	<path fill="#E35D02" d="M416.043 614.238L439.766 637.874C445.164 642.889 451.065 647.533 456.906 652.024C465.718 658.8 474.932 664.801 485.5 668.474C495.772 672.045 506.287 673.213 517.11 673.035C540.963 672.643 560.598 658.976 578.003 644.029L604.002 619.597C605.27 618.282 606.566 616.15 608.366 615.987L607.844 683.752L607.567 704.714C607.523 708.075 607.124 711.938 607.682 715.25C608.153 718.042 610.759 721.29 612.694 723.261C620.494 731.202 632.292 736.745 642.21 741.598L657.325 748.398C661.285 750.121 665.879 751.8 669.311 754.423L721.57 779.837L788.298 811.697L831.758 832.924C844.348 839.108 856.865 844.422 867.942 853.25C883.138 865.36 894.065 881.385 900.788 899.543C904.543 909.684 906.838 920.169 909.28 930.676L917.383 966.213L930.352 1024L93.2573 1024L122.218 902.5C128.201 884.631 139.174 867.395 153.666 855.236C165.659 845.173 179.585 839.182 193.445 832.321L232.959 812.782L353.509 753.087C356.297 751.332 360.016 750.223 363.045 748.879L383.353 739.64L397.66 732.215C402.393 729.645 407.4 726.948 411.246 723.121C413.53 720.85 415.267 718.223 415.846 715C416.43 711.752 416.088 707.943 416.091 704.624L416.093 685.653L416.043 614.238Z"/>
	<path fill="#027B94" d="M383.353 739.64C400.883 775.734 432.574 803.602 470.4 816.653C502.845 827.847 541.89 824.86 572.666 809.82C595.949 798.442 615.804 781.928 630.797 760.75C635.097 754.677 638.688 748.141 642.21 741.598L657.325 748.398C661.285 750.121 665.879 751.8 669.311 754.423C666.465 760.693 664.315 766.918 660.969 773C644.805 802.382 618.347 825.718 588.302 840.322C546.247 860.766 499.406 864.016 455.25 848.436C420.424 836.147 388.17 810.673 367.885 779.839C362.286 771.329 357.922 762.24 353.509 753.087C356.297 751.332 360.016 750.223 363.045 748.879L383.353 739.64Z"/>
	<path fill="#F9B00F" d="M416.043 614.238L439.766 637.874C445.164 642.889 451.065 647.533 456.906 652.024C465.718 658.8 474.932 664.801 485.5 668.474C495.772 672.045 506.287 673.213 517.11 673.035C540.963 672.643 560.598 658.976 578.003 644.029L604.002 619.597C605.27 618.282 606.566 616.15 608.366 615.987L607.844 683.752L607.567 704.714C607.523 708.075 607.124 711.938 607.682 715.25C608.153 718.042 610.759 721.29 612.694 723.261C620.494 731.202 632.292 736.745 642.21 741.598C638.688 748.141 635.097 754.677 630.797 760.75C615.804 781.928 595.949 798.442 572.666 809.82C541.89 824.86 502.845 827.847 470.4 816.653C432.574 803.602 400.883 775.734 383.353 739.64L397.66 732.215C402.393 729.645 407.4 726.948 411.246 723.121C413.53 720.85 415.267 718.223 415.846 715C416.43 711.752 416.088 707.943 416.091 704.624L416.093 685.653L416.043 614.238Z"/>
</svg>
