<?xml version="1.0" encoding="utf-8" ?>
<svg xmlns="http://www.w3.org/2000/svg" xmlns:xlink="http://www.w3.org/1999/xlink" width="1024" height="1024">
	<path fill="#F22200" d="M-0 -0L1024 0L1024 1024L-0 1024L0 -0Z"/>
	<path d="M457.052 90.0383L457.335 27.3853L566.243 27.4227L566.424 72.2493L566.434 84.8864C566.425 86.5945 566.652 88.503 565.919 90.0751L565.935 90.6457L565.969 103.472L542.187 103.037L481.5 103.038C473.624 102.927 464.673 102.172 456.961 103.57L457.052 90.0383Z"/>
	<path fill="#FAE30A" d="M457.052 90.0383L565.919 90.0751L565.935 90.6457L565.969 103.472L542.187 103.037L481.5 103.038C473.624 102.927 464.673 102.172 456.961 103.57L457.052 90.0383Z"/>
	<path d="M565.935 90.6457L566.176 91.1433C567.291 94.2855 566.424 100.4 566.392 103.871C581.428 106.168 596.697 111.962 611.197 116.586L644.202 77.9431L799.026 193.748L760.286 234.133C773.474 256.557 781.033 281.757 786.735 306.953L819.026 306.93C823.333 293.155 830.187 281.53 843.363 274.685C855.635 268.308 869.318 266.462 882.645 270.737C895.257 274.784 905.466 284.274 911.345 296C917.269 307.816 918.139 321.161 913.882 333.681C909.428 346.777 899.7 357.801 887.25 363.871C884.719 365.105 882.061 366.168 879.322 366.831C865.431 404.242 846.774 439.295 821.228 470.098C809.779 483.903 796.998 496.588 783.877 508.791L784.285 509.321L801.348 528.219L716.537 590.401L698.991 603.258C696.865 604.828 694.121 607.43 691.783 608.504C690.404 609.138 687.075 608.692 685.487 608.669L692.042 608.889L692.032 720.474L740.881 720.522L740.73 674.295L767.023 674.435L766.934 791.199L740.827 791.139L740.923 745.986L692.011 746.005L692.005 811.715L511.64 990.773L329.017 808.927L329.063 746.19L283.44 746.131L283.468 791.508L256.508 791.479L256.786 674.57L283.394 674.61L283.51 717.509L329.015 717.52L329.047 609.263L330.051 608.316C327.89 605.266 323.963 602.842 321.02 600.561L300.578 585.18L225.666 529.727L242.262 509.264C239.439 507.457 236.866 505.032 234.316 502.848L219.393 489.177C191.855 461.993 168.373 429.309 153.738 393.324C150.379 385.066 147.745 376.326 145.263 367.762L144.782 367.654C132.757 364.873 122.085 355.573 115.677 345.242C109.189 334.784 106.239 319.951 109.204 307.938C110.651 302.074 112.611 296.733 115.794 291.546C123.057 279.708 134.768 271.67 148.25 268.579C161.54 265.533 175.65 268.289 187.105 275.494C198.648 282.755 205.933 293.845 208.962 306.989L236.192 306.898C237.771 298.813 240.614 290.726 243.439 283C249.684 265.92 256.959 249.885 266.753 234.523L241.428 207.036C236.744 201.881 231.604 196.86 227.537 191.191C228.993 189.474 231.408 188.225 233.268 186.965L244.214 179.24L272 158.542L378.251 78.4574L412.127 116.983L456.417 103.765L456.961 103.57C464.673 102.172 473.624 102.927 481.5 103.038L542.187 103.037L565.969 103.472L565.935 90.6457Z"/>
	<path fill="#F22200" d="M258.331 488.559C249.408 479.902 239.736 472.09 231.06 463.143C221.578 453.366 213.283 442.684 205.458 431.557C191.728 412.038 179.84 390.672 173.151 367.656C176.29 365.651 180.589 364.727 184 362.903C196.506 356.216 204.934 343.736 208.928 330.394L233.004 330.372C229.825 374.062 236.638 418.113 253.343 458.596L259.91 472.971L263.318 479.255C263.508 479.59 264.437 481.003 264.471 481.264C264.486 481.387 259.007 487.783 258.331 488.559Z"/>
	<path fill="#F22200" d="M789.031 330.458L819.27 330.456C824.513 345.011 831.972 356.716 846.5 363.506L852.17 366.031C844.483 383.889 835.626 402.257 825.309 418.765C809.023 444.823 788.42 468.069 765.948 488.946L759.168 481.554C759.161 481.547 758.116 480.392 758.116 480.391C758.092 480.254 758.882 478.945 759.018 478.683C776.593 444.69 786.017 406.398 788.592 368.345C789.444 355.752 789.17 343.071 789.031 330.458Z"/>
	<path fill="#FDA81E" d="M685.487 608.669L616.008 608.573C620.301 600.88 625.858 593.643 630.811 586.361L655.731 549.561L708.203 471.826L739.696 425.877L758.233 398.646C760.995 394.539 764.978 389.741 766.53 385.095C768.396 379.511 767.323 370.975 767.317 365.058L767.225 330.499L789.031 330.458C789.17 343.071 789.444 355.752 788.592 368.345C786.017 406.398 776.593 444.69 759.018 478.683C758.882 478.945 758.092 480.254 758.116 480.391C758.116 480.392 759.161 481.547 759.168 481.554L765.948 488.946L783.877 508.791L784.285 509.321L801.348 528.219L716.537 590.401L698.991 603.258C696.865 604.828 694.121 607.43 691.783 608.504C690.404 609.138 687.075 608.692 685.487 608.669Z"/>
	<path fill="#FDA81E" d="M233.004 330.372L255.427 330.455L255.178 370.983L255.14 378.72C255.137 379.478 254.926 381.287 255.126 381.952C255.345 382.679 256.55 384.124 257.002 384.806L261.591 391.573L279.684 418.136L377.857 562.487L409.32 608.492L353.542 608.499L338.718 608.507C335.888 608.508 332.833 608.768 330.051 608.316C327.89 605.266 323.963 602.842 321.02 600.561L300.578 585.18L225.666 529.727L242.262 509.264L258.331 488.559C259.007 487.783 264.486 481.387 264.471 481.264C264.437 481.003 263.508 479.59 263.318 479.255L259.91 472.971L253.343 458.596C236.638 418.113 229.825 374.062 233.004 330.372Z"/>
	<path fill="#FDA81E" d="M511.592 231.709C530.999 230.971 550.89 239.455 565.194 252.227C580.973 266.315 590.306 285.485 591.354 306.602C592.363 326.951 584.398 348.119 570.621 363.07C555.702 379.261 536.918 387.668 515.037 388.497C494.278 388.42 475.958 382.997 460.27 368.94C444.516 354.823 435.065 335.021 433.963 313.889C432.906 293.593 440.231 273.332 453.786 258.229C468.753 241.552 489.483 232.943 511.592 231.709Z"/>
	<path fill="#F22200" d="M507.817 259.192C519.941 257.531 532.618 261.505 542.427 268.562C554.225 277.05 562.233 289.619 564.543 303.986C566.716 317.502 561.821 331.07 553.836 341.859C544.878 353.964 532.221 360.3 517.62 362.385C503.547 362.777 491.568 360.12 480.25 351.272C469.31 342.719 462.174 330.331 460.504 316.51C458.875 303.024 462.36 289.823 470.897 279.174C480.415 267.301 492.82 260.926 507.817 259.192Z"/>
	<path fill="#A8988B" d="M371.494 638.842L651.695 638.865L651.811 759.576C648.109 760.528 642.594 759.848 638.699 759.855L608.523 759.893L608.53 696.681L570.958 696.683L570.895 742.85L570.871 759.917L530.504 759.94L530.471 696.843L493.552 696.841L493.483 759.443L450.146 759.437L450.303 696.86L414.511 696.778L414.543 759.659L371.524 759.631L371.494 638.842Z"/>
	<path fill="#F36B00" d="M625.775 382.75C626.504 382.748 626.251 382.672 626.872 382.938C628.364 383.575 629.858 384.35 631.5 384.487C635.748 384.844 640.281 384.545 644.551 384.538L669.81 384.498L750.421 384.378L604.317 600.174L599.057 608.484L519.331 608.499L519.495 468.809L533.837 468.916L534.024 444.174C541.933 442.666 549.718 440.897 557.25 438.005C563.197 435.722 568.807 432.712 574.569 430.012L591.855 448.747L617.348 426.803L603.894 410.469C604.37 409.258 605.637 408.297 606.545 407.359L612.972 400.392C617.723 394.843 621.569 388.698 625.775 382.75Z"/>
	<path fill="#F36B00" d="M396.781 382.75L397.633 382.671C399.925 383.768 402.933 389.672 404.55 391.906C409.658 398.965 415.558 405.123 422.006 410.947L407.228 429.552L433.237 450.919C435.163 449.708 437.1 446.616 438.587 444.839L450.488 430.572C463.467 437.224 476.602 442.047 490.986 444.579L490.839 468.72L505.494 468.608L505.252 608.506L426.16 608.648L422.398 603.096L272.696 384L357.984 384.171L379.924 384.085C385.39 384.047 390.888 384.291 396.222 382.901L396.781 382.75Z"/>
	<path fill="#FDA81E" d="M236.192 306.898C237.771 298.813 240.614 290.726 243.439 283C249.684 265.92 256.959 249.885 266.753 234.523L241.428 207.036C236.744 201.881 231.604 196.86 227.537 191.191C228.993 189.474 231.408 188.225 233.268 186.965L244.214 179.24L272 158.542L378.251 78.4574L412.127 116.983L456.417 103.765L456.961 103.57C464.673 102.172 473.624 102.927 481.5 103.038L481.544 178.787C469.393 182.306 457.852 185.979 446.623 191.916L433.238 172.867L415.619 183.914C413.282 185.39 409.35 187.205 407.62 189.288C409.273 192.172 420.759 209.224 420.562 210.771C409.819 221.143 398.313 232.615 392.867 246.876L369.24 237.635L358.588 268.052L380.692 276.335C378.002 286.685 376.599 296.293 376.175 306.986L236.192 306.898Z"/>
	<path fill="#FDA81E" d="M565.935 90.6457L566.176 91.1433C567.291 94.2855 566.424 100.4 566.392 103.871C581.428 106.168 596.697 111.962 611.197 116.586L644.202 77.9431L799.026 193.748L760.286 234.133C773.474 256.557 781.033 281.757 786.735 306.953L648.318 306.83C647.663 296.137 646.382 286.879 643.69 276.527C646.177 275.154 649.274 274.371 651.97 273.448L666.991 268.145L656.917 237.201L631.336 245.756C623.783 232.148 615.065 221.831 604.062 210.926L617.116 190.508L592.3 172.767L577.743 191.776C566.349 185.566 554.61 181.789 542.032 178.727L542.187 103.037L565.969 103.472L565.935 90.6457Z"/>
</svg>
