<?xml version="1.0" encoding="utf-8" ?>
<svg xmlns="http://www.w3.org/2000/svg" xmlns:xlink="http://www.w3.org/1999/xlink" width="1024" height="1024">
	<path fill="#F0623C" d="M-0 -0L1024 0L1024 1024L-0 1024L0 -0Z"/>
	<path fill="#0A9C8F" d="M397.462 205.825C390.417 205.417 383.791 204.079 378.878 198.55C376.489 195.86 374.36 192.303 373.69 188.75C372.875 184.428 373.058 179.855 373.029 175.475L372.93 157.181C372.874 144.906 372.106 132.136 373.027 119.905C373.526 113.29 377.117 106.452 382.254 102.237C386.327 98.895 391.134 96.7943 396.387 96.2989C401.355 95.8305 406.493 96.1181 411.489 96.1417L437 96.2737L517.646 96.4137L590.117 96.1417L613.649 95.9997C618.116 95.9804 622.78 95.7325 627.221 96.1923C634.109 96.9053 640.767 101.059 644.964 106.482C647.515 109.778 649.233 114.448 649.827 118.559C650.281 121.704 650.053 125.125 650.063 128.312L650.069 146.286L650.049 171.098C650.038 176.018 650.322 181.117 649.597 185.986C648.655 192.317 645.036 198.065 639.808 201.745C635.803 204.565 631.726 205.498 626.929 205.793L596.484 205.882C596.479 207.893 597.052 217.915 596.188 218.898L596.207 205.899L428.025 205.88L397.462 205.825Z"/>
	<path fill="#0B506B" d="M596.188 218.898C597.052 217.915 596.479 207.893 596.484 205.882L626.929 205.793L626.898 277.703L666.565 277.53C675.801 277.508 685.608 276.811 694.773 277.653C712.195 279.252 729.541 287.062 742.242 299.044C757.397 313.34 768.421 334.801 768.982 355.874L769.134 458.055L769.208 676.014L769.431 796.156L769.46 831.485C769.46 841.415 769.696 851.2 768.163 861.045C765.698 876.883 758.148 892.439 746.999 904C731.617 919.95 711.937 929.407 689.672 929.623L600.66 929.612L436.829 929.563L363.619 929.536C349.864 929.523 334.743 930.713 321.175 928.332C305.317 925.548 290.497 917.555 279.111 906.243C265.698 892.915 257.592 875.786 255.51 857.019C254.792 850.544 254.967 843.941 254.944 837.435L254.95 491.186L254.96 396.62L254.95 368.972C254.953 361.099 254.805 353.307 256.018 345.5C258.686 328.334 266.526 312.185 278.937 299.936C292.057 286.989 309.051 279.081 327.466 277.616C336.319 276.912 345.587 277.47 354.498 277.462L397.502 277.443L397.462 205.825L428.025 205.88L596.207 205.899L596.188 218.898Z"/>
	<path fill="#F8F5F3" d="M286.519 763.501L738.089 763.546L738.17 820.918C738.181 831.724 738.922 843.048 737.569 853.75C735.896 866.972 728.521 879.207 718.25 887.549C710.766 893.628 702.215 896.923 692.67 897.913C686.305 898.573 679.605 898.122 673.198 898.107L636.804 898.043L521.303 898.114L392.628 898.036L352.78 898.004C345.813 897.996 338.376 898.503 331.466 897.709C319.492 896.333 309.336 892.197 300.75 883.466C294.57 877.181 289.917 868.967 287.779 860.412C286.318 854.565 286.452 848.818 286.445 842.845L286.435 823.357L286.519 763.501Z"/>
	<path fill="#F8F5F3" d="M428.025 205.88L596.207 205.899L596.188 218.898L596.166 272.549L596.09 285.215C596.046 287.729 595.701 290.559 596.126 293.025C596.765 296.728 599.123 300.945 601.743 303.561C605.83 307.642 611.163 308.89 616.752 308.758L666.566 308.606C676.684 308.625 688.299 307.359 698.132 309.679C706.989 311.768 715.799 316.314 722.378 322.628C731.666 331.542 737.883 345.101 738.053 358L737.999 416.231L286.968 416.064L286.648 372.443C286.642 364.863 286.094 356.718 287.169 349.203C287.957 343.697 290.167 337.928 292.764 333.025C299.52 320.272 313.903 310.404 328.236 308.662C331.422 308.275 334.848 308.5 338.061 308.508L356.038 308.583L394.592 308.498C400.236 308.496 408.556 309.553 413.788 307.809L414.5 307.553C417.498 306.548 419.958 305.359 422.22 303.074C425.031 300.234 426.965 296.175 427.669 292.288C428.249 289.088 427.985 285.458 427.998 282.196L428.007 264.975L428.025 205.88Z"/>
	<path fill="#13C9C0" d="M286.968 416.064L737.999 416.231L738.089 763.546L286.519 763.501L286.968 416.064Z"/>
	<path fill="#F0623C" d="M488.57 499.591L535.975 499.604L535.96 562.975L608.669 562.767L608.591 608.369L535.792 608.315L535.903 676.25C535.819 677.013 535.625 677.31 535.25 677.963L488.528 677.968L488.606 608.249L417.546 608.482L417.536 562.951L488.446 562.848L488.57 499.591Z"/>
</svg>
