<?xml version="1.0" encoding="utf-8" ?>
<svg xmlns="http://www.w3.org/2000/svg" xmlns:xlink="http://www.w3.org/1999/xlink" width="1024" height="1024">
	<path fill="#9F2620" d="M-0 -0L1024 0L1024 1024L-0 1024L0 -0Z"/>
	<path fill="#C8C8C8" d="M399.407 381.498C374.116 363.385 351.778 340.829 332.796 316.256C313.55 291.342 298.964 263.072 287.933 233.669C273.033 193.956 264.662 152.075 265.005 109.592C265.078 100.455 264.998 91.0689 266.169 82C267.293 85.8743 267.502 90.2613 267.991 94.2632L270.48 110C275.587 137.031 283.113 162.366 294.491 187.5C321.083 246.241 371.668 295.809 428.508 325.331C445.282 334.043 462.925 340.507 480.577 347.153L480.595 349.245C463.344 355.256 446.095 360.232 429.189 367.328L409.997 376.213C406.805 377.809 402.738 380.555 399.407 381.498Z"/>
	<path fill="#A3A1A1" d="M511.021 82.0191C511.007 78.9556 511.189 75.7097 512.027 72.7474C513.215 75.9657 512.468 81.5684 512.775 85.1369C513.052 88.3575 513.846 91.6918 514.261 94.9259L516.599 115.284L528.814 217.25L540.007 320.115L541.682 336.619C541.912 339.137 541.785 342.811 542.788 345.084C622.631 318.761 690.022 263.11 728.037 187.922C738.826 166.583 747.389 142.997 751.986 119.5C754.47 106.801 755.719 94.0196 757.433 81.2189C765.935 165.535 739.897 254.172 686.231 319.925C670.853 338.766 654.091 356.252 635.09 371.472C631.215 374.576 627.335 378.064 623.177 380.75C621.069 378.323 616.889 376.814 613.998 375.337C599.412 367.887 584.132 362.067 568.659 356.75C560.234 353.854 551.659 350.782 542.998 348.692C533.014 346.979 522.762 345.865 512.629 345.952C512.623 349.887 513.009 354.274 512.41 358.147C512.104 360.605 512.383 363.405 512.392 365.893L512.441 381.218L511.925 435.394L493.188 395.722L482.217 373.051C481.351 371.244 479.529 368.623 479.072 366.749C478.858 365.874 479.262 363.792 479.33 362.781L480.595 349.245L480.577 347.153L511.021 82.0191Z"/>
	<path fill="#FCFCFC" d="M511.021 82.0191C511.486 82.6999 511.85 83.1647 511.985 84C512.371 86.3802 511.888 89.5317 511.798 92L511.7 106.694L512.824 166.452L512.286 276.761L512.12 332.969C512.131 341.091 511.432 350.112 512.41 358.147C512.104 360.605 512.383 363.405 512.392 365.893L512.441 381.218L511.925 435.394L493.188 395.722L482.217 373.051C481.351 371.244 479.529 368.623 479.072 366.749C478.858 365.874 479.262 363.792 479.33 362.781L480.595 349.245L480.577 347.153L511.021 82.0191Z"/>
	<path fill="#C8C8C8" d="M512.41 358.147C513.009 354.274 512.623 349.887 512.629 345.952C522.762 345.865 533.014 346.979 542.998 348.692C551.659 350.782 560.234 353.854 568.659 356.75C584.132 362.067 599.412 367.887 613.998 375.337C616.889 376.814 621.069 378.323 623.177 380.75C625.22 383.045 629.254 384.507 632 385.976L646.147 394.035C648.56 395.478 651.427 396.916 653.54 398.759L653.099 398.79C651.832 398.857 651.162 398.827 650.048 398.138C645.168 395.118 639.605 392.676 634.459 390.116C611.526 378.707 588.116 370.02 563.5 362.972C559.95 361.955 554.666 359.745 551.024 359.746L519.149 425.673C516.766 430.512 515.115 436.858 511.843 441.053C512.981 449.363 512.501 458.115 512.499 466.5L512.47 506.159L259.343 505.799L239.04 533.025C238.873 532.755 238.847 532.163 238.795 531.843C261.659 490.505 292.765 456.118 329.716 426.837C340.369 418.395 351.791 409.777 363.451 402.779C366.22 400.169 370.227 398.137 373.497 396.176L399.407 381.498C402.738 380.555 406.805 377.809 409.997 376.213L429.189 367.328C446.095 360.232 463.344 355.256 480.595 349.245L479.33 362.781C479.262 363.792 478.858 365.874 479.072 366.749C479.529 368.623 481.351 371.244 482.217 373.051L493.188 395.722L511.925 435.394L512.441 381.218L512.392 365.893C512.383 363.405 512.104 360.605 512.41 358.147Z"/>
	<defs>
		<linearGradient id="gradient_0" gradientUnits="userSpaceOnUse" x1="627.82062" y1="349.51962" x2="380.78345" y2="432.92163">
			<stop offset="0" stop-color="#787877"/>
			<stop offset="1" stop-color="#939293"/>
		</linearGradient>
	</defs>
	<path fill="url(#gradient_0)" d="M512.41 358.147C513.009 354.274 512.623 349.887 512.629 345.952C522.762 345.865 533.014 346.979 542.998 348.692C551.659 350.782 560.234 353.854 568.659 356.75C584.132 362.067 599.412 367.887 613.998 375.337C616.889 376.814 621.069 378.323 623.177 380.75C625.22 383.045 629.254 384.507 632 385.976L646.147 394.035C648.56 395.478 651.427 396.916 653.54 398.759L653.099 398.79C651.832 398.857 651.162 398.827 650.048 398.138C645.168 395.118 639.605 392.676 634.459 390.116C611.526 378.707 588.116 370.02 563.5 362.972C559.95 361.955 554.666 359.745 551.024 359.746L519.149 425.673C516.766 430.512 515.115 436.858 511.843 441.053L486.48 393C480.978 382.421 474.327 371.778 470.001 360.692C443.053 367.451 416.587 377.694 391.61 389.803L372.699 399.374C370.594 400.454 367.76 402.424 365.5 402.964C365.045 403.073 363.961 402.825 363.451 402.779C366.22 400.169 370.227 398.137 373.497 396.176L399.407 381.498C402.738 380.555 406.805 377.809 409.997 376.213L429.189 367.328C446.095 360.232 463.344 355.256 480.595 349.245L479.33 362.781C479.262 363.792 478.858 365.874 479.072 366.749C479.529 368.623 481.351 371.244 482.217 373.051L493.188 395.722L511.925 435.394L512.441 381.218L512.392 365.893C512.383 363.405 512.104 360.605 512.41 358.147Z"/>
	<defs>
		<linearGradient id="gradient_1" gradientUnits="userSpaceOnUse" x1="902.20789" y1="940.02655" x2="568.39777" y2="553.09827">
			<stop offset="0" stop-color="#575353"/>
			<stop offset="1" stop-color="#B5B5B5"/>
		</linearGradient>
	</defs>
	<path fill="url(#gradient_1)" d="M557.175 562.55L659.877 562.399L784.36 759.275L814.344 805.884L873.519 898.089L891.972 927.544C894.891 932.139 898.951 937.002 900.978 942.027L798.5 884.439L758.439 861.902L749.597 856.952C748.398 856.292 746.351 855.516 745.365 854.632C744.879 854.195 744.258 852.818 743.908 852.25L739.701 845.528L723.295 819.983L557.175 562.55Z"/>
	<defs>
		<linearGradient id="gradient_2" gradientUnits="userSpaceOnUse" x1="121.39459" y1="940.61719" x2="455.38702" y2="552.85858">
			<stop offset="0" stop-color="#5B5858"/>
			<stop offset="1" stop-color="#C2C2C1"/>
		</linearGradient>
	</defs>
	<path fill="url(#gradient_2)" d="M249.966 742.328L364.27 561.615L466.789 562.003L312.579 802.482L286.059 844.122L279.896 853.745C279.2 854.827 278.304 856.716 277.435 857.567C276.277 858.7 273.084 859.807 271.562 860.634L252.672 871.21L153.831 926.045L135.676 935.688C132.21 937.475 126.403 939.707 123.834 942.54L123.493 942.316C123.502 940.32 143.647 911.075 146.159 907.121L249.966 742.328Z"/>
	<path fill="#383535" d="M511.843 441.053C515.115 436.858 516.766 430.512 519.149 425.673L551.024 359.746C554.666 359.745 559.95 361.955 563.5 362.972C588.116 370.02 611.526 378.707 634.459 390.116C639.605 392.676 645.168 395.118 650.048 398.138C651.162 398.827 651.832 398.857 653.099 398.79L653.54 398.759C660.456 402.665 667.045 407.257 673.635 411.686C702.152 430.848 728.414 454.434 750.214 481.032C757.84 490.338 764.419 500.046 771.302 509.884L781.522 525.08C782.778 526.997 784.987 529.8 785.563 532C785.713 532.572 785.668 532.703 785.627 533.218L784.423 532.944L783.422 533.057L551.778 533.492L551.929 562.846L557.175 562.55L723.295 819.983L739.701 845.528L743.908 852.25C744.258 852.818 744.879 854.195 745.365 854.632C746.351 855.516 748.398 856.292 749.597 856.952L758.439 861.902L798.5 884.439L900.978 942.027C898.554 943.117 894.182 942.599 891.438 942.62L869.852 942.773L768.526 942.9L281.214 942.942L159.42 942.939L134.286 942.875C131.225 942.87 126.7 943.45 123.834 942.54C126.403 939.707 132.21 937.475 135.676 935.688L153.831 926.045L252.672 871.21L271.562 860.634C273.084 859.807 276.277 858.7 277.435 857.567C278.304 856.716 279.2 854.827 279.896 853.745L286.059 844.122L312.579 802.482L466.789 562.003C467.62 562.273 469.325 562.015 470.25 562.001C470.92 559.114 470.523 555.566 470.522 552.599L470.49 533.271L420.555 533.418L310.435 533.069L261.069 533.323C254.095 533.357 245.77 534.322 239.04 533.025L259.343 505.799L512.47 506.159L512.499 466.5C512.501 458.115 512.981 449.363 511.843 441.053Z"/>
	<path fill="#A3A1A1" d="M511.843 441.053C515.115 436.858 516.766 430.512 519.149 425.673L551.024 359.746C554.666 359.745 559.95 361.955 563.5 362.972C588.116 370.02 611.526 378.707 634.459 390.116C639.605 392.676 645.168 395.118 650.048 398.138C651.162 398.827 651.832 398.857 653.099 398.79L653.54 398.759C660.456 402.665 667.045 407.257 673.635 411.686C702.152 430.848 728.414 454.434 750.214 481.032C757.84 490.338 764.419 500.046 771.302 509.884L781.522 525.08C782.778 526.997 784.987 529.8 785.563 532C785.713 532.572 785.668 532.703 785.627 533.218L784.423 532.944L766.033 506.522C759.045 505.492 751.106 506.288 743.968 506.308L701.134 506.246L575.059 506.294L512.47 506.159L512.499 466.5C512.501 458.115 512.981 449.363 511.843 441.053Z"/>
</svg>
