<?xml version="1.0" encoding="utf-8" ?>
<svg xmlns="http://www.w3.org/2000/svg" xmlns:xlink="http://www.w3.org/1999/xlink" width="1024" height="1024">
	<path fill="#2F6E81" d="M-0 -0L1024 0L1024 1024L-0 1024L0 -0Z"/>
	<path fill="#6CC0A9" d="M169.171 709.015L242.624 709.015L242.408 742.041L169.095 742.093L169.171 709.015Z"/>
	<path fill="#6CC0A9" d="M782.968 710.22L855.989 710.234L855.927 744.303L782.837 744.375L782.968 710.22Z"/>
	<path fill="#6CC0A9" d="M169.05 768.078L301.028 768.16L300.981 801.905L169.01 801.836L169.05 768.078Z"/>
	<path fill="#6CC0A9" d="M722.059 769.013L855.726 769.426L855.748 803.916L722.314 803.85C721.465 802.265 722.039 797.873 722.041 795.824L722.059 769.013Z"/>
	<path fill="#EDE6B9" d="M474.528 278.018L400.386 278.012L400.397 229.186L624.072 229.425L624.261 277.975L547.984 278.02L474.528 278.018Z"/>
	<path fill="#EDE6B9" d="M512.272 80.7421L539.352 116.419C542.19 120.238 544.769 124.409 547.792 128.061C548.352 128.737 548.871 129.004 549.694 129.263C550.153 129.092 550.669 129.03 551.071 128.75C551.7 128.311 552.597 126.757 553.109 126.071L558.575 118.545L586.187 80.9203L612.804 116.69C616.359 121.373 619.527 126.419 623.581 130.688C627.591 126.871 630.985 122.279 634.711 118.186C642.678 109.435 651.627 100.565 660.821 93.1165C659.136 96.0345 656.566 98.5906 654.453 101.218C650.731 105.849 647.1 110.549 643.809 115.499C637.713 124.667 631.837 134.377 627.237 144.384C615.915 169.014 610.646 195.485 610.512 222.498L518.125 222.363L410.986 222.511C411.379 184.983 401.047 149.187 381.468 117.188C378.568 112.448 375.415 107.897 372.017 103.5C369.872 100.724 367.479 98.1245 365.736 95.0664L400.168 130.573C406.356 125.478 410.902 117.357 415.656 110.91L437.895 81.5033C442.251 86.5011 446.072 92.0391 450.022 97.3636L463.621 115.387C466.007 118.607 471.486 128.12 475 129.314C477.837 127.713 480.788 122.531 482.823 119.865C492.669 106.967 501.707 93.0429 512.272 80.7421Z"/>
	<path fill="#6CC0A9" d="M488.683 827.331L536.293 827.459C539.61 828.227 543.398 827.97 546.794 827.972L564.447 827.974L626.406 827.951L855.991 828.673L855.883 944.715L169.181 944.615L169.148 828.021L386.457 827.992L452.147 827.991C464.158 827.988 476.774 828.808 488.683 827.331Z"/>
	<path fill="#EFB97F" d="M474.528 278.018L547.984 278.02L548.499 278.195C553.872 279.895 560.142 279.736 565.75 280.759C576.852 282.785 587.93 285.784 598.642 289.309C665.024 311.149 721.943 359.287 754.987 420.765C763.343 436.312 770.676 452.66 775.984 469.5C792.334 521.37 792.307 578.423 776.845 630.482C756.824 697.892 708.88 760.27 646.458 793.549C622.24 806.46 596.061 816.982 569.084 822.38L536.293 827.459L488.683 827.331C446.62 823.469 405.37 808.683 368.78 787.942C358.416 782.067 348.77 774.903 339.518 767.424C294.841 731.307 261.738 681.329 246.479 625.871C227.136 555.569 236.267 477.371 272.505 414C295.265 374.199 329.054 339.525 368.253 315.73C388.243 303.596 409.924 294.2 432.191 287.157C441.066 284.35 450.136 282.08 459.306 280.476C464.143 279.63 469.217 279.526 473.93 278.195L474.528 278.018Z"/>
	<path fill="#6CC0A9" d="M501.852 352.716L502.469 352.652C509.611 351.971 517.334 352.478 524.5 352.974C553.913 355.012 580.655 362.921 606.433 377.13C616.495 382.677 626.258 388.789 635.068 396.212C649.093 408.031 661.867 421.165 672.629 436.054C693.818 465.366 706.264 500.382 709.179 536.371C713.406 588.543 696.231 640.88 662.442 680.746C636.975 710.793 602.237 733.843 564.21 744.466C550.344 748.34 536.444 750.315 522.125 751.493C468.484 753.919 418.679 735.038 378.022 700.32C337.93 666.086 316.691 615.033 312.776 563.312C309.07 514.348 327.047 460.858 359.039 423.751C387.732 390.471 425.322 366.83 468.398 357.185C479.393 354.724 490.63 353.526 501.852 352.716Z"/>
	<path fill="#2F436C" d="M502.857 386.949L520.004 386.982L519.968 417.979C540.029 418.964 560.93 423.997 576.486 437.468C590.027 449.193 596.39 467.043 597.684 484.486L548.81 487.029C548.507 480.576 547.459 474.148 544.111 468.5C538.642 459.276 529.963 454.916 519.886 452.269L519.88 522.696C538.199 529.477 557.536 535.712 573.499 547.303C588.131 557.929 597.627 573.483 600.668 591.25C602.131 599.797 602.391 609.84 601.157 618.439C598.998 633.483 594.144 647.547 584.007 659.151C567.677 677.843 543.702 684.382 519.878 686.018L520.008 716.809L511.875 716.689L502.578 716.621L502.877 686.114C482.814 683.597 464.213 678.69 448.35 665.461C436.482 655.564 428.365 641.599 424.796 626.626C423.063 619.353 422.569 611.979 421.906 604.556L469.722 601.827C470.477 610.285 471.931 619.025 476.259 626.472C482.11 636.538 492.397 640.077 503.021 642.799L503.117 569.843C483.605 563.431 463.13 556.156 447.19 542.771C433.241 531.058 424.738 515.275 423.218 497.11C421.695 478.914 425.945 459.469 438.09 445.339C454.527 426.217 478.778 419.96 502.884 417.956L502.857 386.949Z"/>
	<path fill="#6CC0A9" d="M500.818 452.25L502.253 452.076L502.941 452.75L502.702 517.445C496.538 515.74 491.322 512.859 486.23 509.045C481.818 504.71 478.378 500.325 476.521 494.289C474.016 486.148 474.485 475.794 478.598 468.25C483.544 459.179 491.098 454.915 500.818 452.25Z"/>
	<path fill="#6CC0A9" d="M520.015 576.068L520.592 576.19C530.583 578.734 541.704 585.706 546.838 594.824C550.894 602.027 552.086 611.172 549.839 619.169L549.593 620C548.049 625.364 545.778 629.536 542.09 633.735C535.725 640.208 528.581 641.816 519.918 643.24L520.015 576.068Z"/>
</svg>
