<?xml version="1.0" encoding="utf-8" ?>
<svg xmlns="http://www.w3.org/2000/svg" xmlns:xlink="http://www.w3.org/1999/xlink" width="1024" height="1024">
	<path fill="#EFD7C2" d="M-0 -0L1024 0L1024 1024L-0 1024L0 -0Z"/>
	<path fill="#E44356" d="M616.568 232.721C660.015 230.853 698.906 261.319 729.468 288.814L769.949 327.143L805.918 361.562C819.712 374.881 833.466 388.447 848.262 400.664C863.071 412.891 877.875 423.667 895.028 432.389L908.865 438.802C911.529 439.913 915.229 440.808 917.519 442.5L875.718 507.206C836.277 565.157 792.859 621.489 743.586 671.435C711.641 703.816 677.368 733.674 637.903 756.598C621.141 766.334 604.04 774.798 585.599 780.924C549.39 792.953 511.109 796.465 473.5 789.485C448.652 784.873 424.265 775.877 401.741 764.523C365.794 745.805 331.79 720.768 301.942 693.395C278.446 671.846 256.864 647.684 236.38 623.297C203.36 583.985 172.596 542.466 144.206 499.691C131.57 480.653 118.898 461.882 107.943 441.793C119.756 438.327 130.329 434.079 141.016 427.84C167.862 412.166 190.953 389.48 213.12 367.932L285.733 297.017C307.868 276.518 332.186 255.147 359.873 242.6C368.095 238.874 376.983 235.571 385.961 234.256C406.125 231.302 426.231 233.057 445.149 240.936C463.861 248.729 479.577 262.794 499.47 267.976C504.711 269.341 509.922 270.411 515.383 269.884C537.36 267.763 555.044 252.076 574.256 242.938C587.87 236.464 601.582 233.532 616.568 232.721Z"/>
	<path fill="#D80A25" d="M305.706 558.654C319.058 553.218 332.625 547.968 346.5 544.007C385.056 533.002 426.638 529.611 466.25 536.29C476.339 537.991 486.408 540.367 496.275 543.064L507.503 546.345C508.684 546.695 510.656 547.572 511.836 547.619C512.697 547.653 514.884 546.622 515.776 546.332L526.575 542.992C537.555 539.809 548.866 537.328 560.187 535.727C589.64 531.564 619.093 532.483 648.29 538.052C663.022 540.862 677.632 545.024 691.965 549.401L718.504 558.596L632.158 594.695C608.026 602.588 582.943 609.112 557.75 612.47C492.41 621.178 429.006 609.559 368 586.023C346.849 577.863 325.941 568.901 305.706 558.654Z"/>
	<path fill="#4E1320" d="M259.357 425.667C273.256 418.298 287.391 410.763 301.938 404.737C324.632 395.336 349.144 388.923 373.526 385.94C383.729 384.691 393.929 383.98 404.202 384.784C439.965 387.581 473.359 402.757 509.676 402.858C534.203 402.926 557.566 397.501 581.305 391.938C597.828 388.066 614.694 383.929 631.75 383.543C651.065 383.105 670.809 387.161 689.224 392.765C709.946 399.07 729.712 408.749 749.284 417.946C756.455 421.316 764.47 424.419 771.114 428.677C804.816 440.825 838.134 454.46 874.835 451.194C881.827 450.572 888.815 449.515 895.654 447.929C899.239 447.097 903.574 445.263 907.119 445.048L718.504 558.596L691.965 549.401C677.632 545.024 663.022 540.862 648.29 538.052C619.093 532.483 589.64 531.564 560.187 535.727C548.866 537.328 537.555 539.809 526.575 542.992L515.776 546.332C514.884 546.622 512.697 547.653 511.836 547.619C510.656 547.572 508.684 546.695 507.503 546.345L496.275 543.064C486.408 540.367 476.339 537.991 466.25 536.29C426.638 529.611 385.056 533.002 346.5 544.007C332.625 547.968 319.058 553.218 305.706 558.654L116.433 444.644C127.793 447.695 138.59 450.366 150.403 451.253C177.147 453.26 204.167 447.353 229.229 438.444C239.522 434.785 249.702 430.818 259.357 425.667Z"/>
	<path fill="#FEFEFE" d="M259.357 425.667C273.256 418.298 287.391 410.763 301.938 404.737C324.632 395.336 349.144 388.923 373.526 385.94C383.729 384.691 393.929 383.98 404.202 384.784C439.965 387.581 473.359 402.757 509.676 402.858C534.203 402.926 557.566 397.501 581.305 391.938C597.828 388.066 614.694 383.929 631.75 383.543C651.065 383.105 670.809 387.161 689.224 392.765C709.946 399.07 729.712 408.749 749.284 417.946C756.455 421.316 764.47 424.419 771.114 428.677C763.917 432.64 756.455 435.803 748.93 439.06C731.473 446.615 713.498 452.916 695.057 457.591C685.461 460.025 674.617 463.293 664.75 461.093C664.247 460.463 663.93 460.058 663.25 459.607C661.785 462.063 660.31 464.847 658.218 466.817C655.82 469.075 652.306 470.267 649.258 471.401C644.374 473.218 639.469 474.893 634.434 476.25C605.337 484.09 573.88 487.792 543.766 488.148C533.753 488.266 520.598 488.871 511.832 483.786C511.84 478.792 512.221 473.464 511.276 468.551L511.2 478.219C511.179 479.799 511.405 481.72 510.806 483.202C510.151 484.821 506.804 485.985 505.25 486.412C479.362 493.52 391.577 481.372 369.102 468.174C365.901 466.294 364.373 462.973 363.462 459.513L363.301 458.874L351.25 459.46C344.246 459.334 337.209 458.188 330.33 456.933C313.078 453.784 295.318 448.049 279.759 439.937C272.259 436.026 265.283 431.74 259.357 425.667Z"/>
</svg>
