<?xml version="1.0" encoding="utf-8" ?>
<svg xmlns="http://www.w3.org/2000/svg" xmlns:xlink="http://www.w3.org/1999/xlink" width="1024" height="1024">
	<path fill="#FDD322" d="M-0 -0L1024 0L1024 1024L-0 1024L0 -0Z"/>
	<path fill="#CE1732" d="M501.55 266.416C500.678 258.606 500.873 250.667 500.871 242.818L500.882 210.649L501.022 104.572L566.797 150.999L630.174 195.82C656.976 214.389 684.886 232.29 709.084 254.232C730.976 274.082 748.637 298.295 763.004 324C771.116 338.513 778.341 353.348 784.002 369C792.725 393.12 798.417 417.836 802.239 443.17C806.422 470.899 806.897 498.944 807.753 526.905L810.651 627.553L767.169 627.5C767.119 610.76 767.454 593.936 766.25 577.234C763.992 545.911 758.745 514.459 748.75 484.626C735.871 446.184 714.172 409.123 685.349 380.506C666.776 362.065 645.37 346.48 621.678 335.251C608.513 329.012 594.273 324.101 580.291 320.058C569.256 316.867 557.831 315.367 546.769 312.363C541.505 310.934 536.839 308.4 531.712 306.734C518.754 300.228 509.332 289.545 504.297 275.938C503.156 272.854 502.707 269.556 501.55 266.416Z"/>
	<path fill="#29BA83" d="M501.55 266.416C502.707 269.556 503.156 272.854 504.297 275.938C509.332 289.545 518.754 300.228 531.712 306.734L533.616 412.809L536.368 528.303L537.721 608.01L539.576 704.369C539.987 730.384 541.776 755.931 537.392 781.759C532.09 813.004 519.41 842.416 498.201 866.201C469.177 898.75 429.409 916.668 386.085 918.93C345.236 921.063 301.55 904.947 271.276 877.728C240.331 849.905 220.329 810.012 218.162 768.332C215.986 726.473 230.234 683.265 258.412 651.99C287.952 619.203 330 598.273 374.281 596.085C410.679 594.286 447.068 604.066 477.02 624.943C485.803 631.065 493.643 638.158 501.572 645.318L501.55 266.416Z"/>
	<path fill="#FD2902" d="M374.874 639.701C399.624 637.504 425.921 644.729 445.876 659.633C467.778 675.991 482.093 701.345 485.955 728.232C489.425 752.391 482.758 778.721 468.097 798.183C450.143 822.015 425.518 835.315 396.179 839.315C370.738 842.18 344.051 834.922 323.936 818.945C302.827 802.18 288.303 777.412 285.41 750.482C282.626 724.57 290 697.253 306.417 676.87C323.564 655.581 347.847 642.735 374.874 639.701Z"/>
</svg>
