<?xml version="1.0" encoding="utf-8" ?>
<svg xmlns="http://www.w3.org/2000/svg" xmlns:xlink="http://www.w3.org/1999/xlink" width="1024" height="1024">
	<path fill="#061339" d="M0 938.362L-0 -0L1024 0L1024 808.164L1024 938.09L1024 1024L-0 1024L0 938.362Z"/>
	<path fill="#F2E8D8" d="M257.288 621.543C259.001 621.476 260.467 621.547 262.088 622.169C264.645 623.15 266.597 625.063 267.61 627.614C268.672 630.287 268.714 632.641 267.546 635.286C265.969 638.856 263.362 640.136 259.837 641.406C258.152 641.444 256.296 641.245 254.72 640.631C252.109 639.615 250.111 637.456 249.155 634.834C248.198 632.21 248.447 629.585 249.706 627.1C251.329 623.898 254.065 622.681 257.288 621.543Z"/>
	<path fill="#F2E8D8" d="M869.237 111.614C870.747 111.774 872.229 111.947 873.651 112.514C876.21 113.535 878.451 115.701 879.43 118.296C880.469 121.049 880.063 124.159 878.721 126.736C877.02 130.006 874.291 131.398 870.892 132.353C868.857 132.206 867.055 132.024 865.25 130.999C862.861 129.641 860.619 126.981 860.056 124.25C859.531 121.7 860.127 118.408 861.627 116.25C863.621 113.38 865.98 112.414 869.237 111.614Z"/>
	<path fill="#F2E8D8" d="M666.581 324.045C668.599 323.95 670.49 324.077 672.38 324.87C675.057 325.993 677.181 328.17 678.239 330.875C679.265 333.497 679.171 336.187 677.86 338.693C676.18 341.904 673.649 343.407 670.305 344.49C668.548 344.546 666.942 344.573 665.25 344.038C662.607 343.202 660.291 341.161 659.077 338.658C657.912 336.257 657.803 333.683 658.728 331.169C660.078 327.503 663.174 325.506 666.581 324.045Z"/>
	<path fill="#F2E8D8" d="M916.294 422.509C917.924 422.453 919.871 422.66 921.388 423.286C924.184 424.439 926.29 426.836 927.362 429.626C928.27 431.99 928.063 434.972 926.998 437.25C925.386 440.697 922.708 442.111 919.37 443.462C917.7 443.54 916.351 443.566 914.75 443.024C912.002 442.092 909.636 439.928 908.43 437.293C907.159 434.517 907.257 431.497 908.458 428.722C910.034 425.084 912.812 423.858 916.294 422.509Z"/>
	<path fill="#F2E8D8" d="M142.602 79.5586C144.23 79.4628 145.739 79.4671 147.324 79.9108C149.992 80.6581 152.27 82.4755 153.589 84.9164C154.972 87.4756 155.164 90.7009 154.163 93.4363C152.863 96.991 150.254 98.6877 146.989 100.257C145.4 100.439 143.925 100.563 142.351 100.183C139.214 99.4244 136.776 97.1171 135.294 94.3095C134.221 92.275 134.028 88.9674 134.833 86.7931C136.25 82.9618 139.041 81.082 142.602 79.5586Z"/>
	<path fill="#F2E8D8" d="M74.0659 538.029C75.8172 537.915 77.4728 537.806 79.1807 538.295C82.2718 539.18 84.5411 541.364 85.9125 544.25C87.1988 546.957 87.2779 550.274 86.0682 553C84.6563 556.182 82.1402 557.612 79.033 558.859C77.08 559.034 75.1584 558.994 73.25 558.484C70.9406 557.867 68.5142 555.831 67.3653 553.756C65.82 550.967 65.745 547.986 66.784 545C68.0536 541.352 70.7642 539.615 74.0659 538.029Z"/>
	<path fill="#F2E8D8" d="M581.61 136.079C583.27 136.145 585.103 136.196 586.697 136.689C589.314 137.499 591.651 139.902 592.765 142.359C593.819 144.682 593.825 148.268 592.809 150.609C591.158 154.413 588.626 155.899 584.951 157.391C583.231 157.488 581.656 157.33 580.009 156.816C577.216 155.944 574.849 153.924 573.604 151.25C572.393 148.65 572.617 145.017 573.778 142.436C575.389 138.855 578.097 137.399 581.61 136.079Z"/>
	<path fill="#475481" d="M97.5163 895.334C100.112 894.161 102.843 894.42 105.633 894.408L117.503 894.45L117.478 938.187L12.335 938.472C23.4734 930.812 37.1275 925.538 49.3054 919.723L97.5163 895.334Z"/>
	<path fill="#13256D" d="M400.709 855.453L434.812 835.262C456.493 821.24 477.172 801.135 503.012 795.435C520.44 791.59 538.465 803.499 551.743 813.391C556.024 816.58 560.222 820.305 564.754 823.099L565.549 823.577L565.557 847.233L460.957 891.079L400.709 855.453Z"/>
	<path fill="#302311" d="M802.957 564.253L868.15 589.878L868.309 671.817L868.43 690.941C868.455 694.445 868.196 698.229 868.807 701.678C865.214 711.683 860.884 721.189 856.564 730.881C854.646 735.184 852.968 739.901 850.697 744.007C834.435 744.347 818.317 746.322 802.426 749.778L802.957 564.253Z"/>
	<path fill="#20294D" d="M565.549 823.577L565.456 654.46L662.029 654.991L662.113 800.697C658.11 802.087 654.3 804.19 650.492 806.05L633.612 814.183L594.724 832.822L565.557 847.233L565.549 823.577Z"/>
	<path fill="#FFE44E" d="M604.986 693.581L623.224 693.576L623.262 724.179L604.88 724.064L604.986 693.581Z"/>
	<path fill="#263771" d="M891.751 744.763C924.133 751.751 954.936 762.189 983.53 779.239C997.874 787.791 1011.03 797.704 1024 808.164L1024 938.09L883.757 938.443L883.578 894.964L948.485 895.012L893.119 785.705L915.152 789.329L891.751 744.763Z"/>
	<path fill="#F2E8D8" d="M300.333 152.711C308.617 152.082 317.082 152.417 325.335 153.295C323.66 154.853 320.858 155.896 318.808 156.973C315.493 158.717 312.408 160.598 309.303 162.693C289.033 176.373 273.587 195.768 265.247 218.804C254.583 248.258 256.64 280.505 269.973 308.756C283.252 336.892 306.977 358.977 336.383 369.502C363.397 379.17 392.322 379.35 419.296 369.494C426.542 366.846 433.368 363.227 440.334 359.946L440.192 360.653C438.752 364.864 435.458 369.343 433.04 373.06C418.392 395.583 398.121 412.426 374.13 424.253C358.531 431.56 341.627 436.697 324.426 438.283C284.852 441.93 246.128 429.906 215.514 404.477C187.276 381.02 168.87 345.892 165.639 309.314C162.262 271.075 173.625 233.803 198.315 204.341C224.176 173.483 260.575 156.242 300.333 152.711Z"/>
	<path fill="#475481" d="M662.029 654.991L662.068 538.988L677.976 538.969L677.984 512.183C677.995 510.284 677.521 506.597 678.037 504.863C678.538 503.18 709.026 466.422 711.668 463.483L737.25 494.963L742.912 502.443C743.272 502.95 744.343 504.133 744.501 504.696C745.255 507.397 744.686 511.532 744.67 514.389L744.507 539.017L758.05 538.546L757.998 569.835L802.957 564.253L802.426 749.778L757.994 761.824C749.834 763.374 741.168 767.826 733.473 771.018L687.139 790.282C678.951 793.737 670.574 798.085 662.113 800.697L662.029 654.991Z"/>
	<path fill="#FFE44E" d="M701.655 567.682L720.847 567.636L720.806 598.534L701.623 598.544L701.655 567.682Z"/>
	<path fill="#FFE44E" d="M701.658 648.719L720.551 648.645L720.545 680.492L701.577 680.514L701.658 648.719Z"/>
	<path fill="#543A10" d="M757.998 569.835L802.957 564.253L802.426 749.778L757.994 761.824L757.998 569.835Z"/>
	<path fill="#263771" d="M802.426 749.778C818.317 746.322 834.435 744.347 850.697 744.007L827.065 790.313C834.787 788.876 842.534 786.713 850.406 786.313L792.764 894.977L861.047 894.729L861.047 938.461L314.312 938.449L180.106 938.421L147.515 938.478C144.415 938.489 139.714 939.16 136.761 938.523C136.356 938.435 136.037 938.12 135.675 937.918C135.101 933.449 135.544 928.379 135.539 923.85L135.514 894.518L202.863 894.404L184.093 856.288C195.552 848.777 207.994 842.214 220.047 835.676C237.189 826.376 254.873 816.075 273.784 810.85C281.194 808.802 288.722 807.314 296.462 807.684C319.209 808.77 339.17 820.031 358.499 830.996L400.709 855.453L460.957 891.079L565.557 847.233L594.724 832.822L633.612 814.183L650.492 806.05C654.3 804.19 658.11 802.087 662.113 800.697C670.574 798.085 678.951 793.737 687.139 790.282L733.473 771.018C741.168 767.826 749.834 763.374 757.994 761.824L802.426 749.778Z"/>
	<path fill="#475481" d="M184.093 856.288C195.552 848.777 207.994 842.214 220.047 835.676C237.189 826.376 254.873 816.075 273.784 810.85C281.194 808.802 288.722 807.314 296.462 807.684C319.209 808.77 339.17 820.031 358.499 830.996L400.709 855.453L460.957 891.079L541.771 937.866L252.009 937.956L169.182 937.941L147.011 938.019C143.368 938.041 139.247 938.466 135.675 937.918C135.101 933.449 135.544 928.379 135.539 923.85L135.514 894.518L202.863 894.404L184.093 856.288Z"/>
</svg>
