<?xml version="1.0" encoding="utf-8" ?>
<svg xmlns="http://www.w3.org/2000/svg" xmlns:xlink="http://www.w3.org/1999/xlink" width="1024" height="1024">
	<path fill="#1D9E9A" d="M-0 -0L1024 0L1024 1024L-0 1024L0 -0Z"/>
	<path fill="#1ED4AC" d="M530.069 187.038L529.92 186.562C527.099 177.765 520.301 169.391 512.047 165.178C504.818 161.489 495.368 160.463 487.627 163.166C485.033 164.071 482.967 165.4 480.75 166.963L480.179 167.358C471.212 173.723 464.606 185.092 459.313 194.494L453.502 205.464C453.205 206.039 451.203 210.415 451.005 210.503C450.612 210.679 449.242 210.506 448.726 210.507L440.302 210.521L394.25 210.483C392.569 209.426 391.753 208.487 391.172 206.548C390.261 203.508 391.198 198.217 391.508 195.05C393.34 176.36 397.569 156.858 408.157 140.996C414.252 131.865 421.435 123.416 429.77 116.25C450.614 98.3278 479.588 89.154 506.972 91.0873C536.127 93.1457 562.825 106.481 581.998 128.524C601.092 150.476 611.366 179.626 609.338 208.755C608.694 218 606.401 227.04 603.443 235.787C602.138 240.352 598.192 246.432 595.609 250.5C587.266 263.642 576.291 274.297 563.539 283.148C554.606 289.349 544.895 294.618 538.326 303.566C531.787 312.474 531.29 321.903 532.799 332.478L465.223 332.468L463.952 324.846C459.909 292.523 470.693 263.526 495.099 241.75C505.038 232.882 516.533 224.731 524.611 214.059C530.689 206.03 531.356 196.722 530.069 187.038Z"/>
	<path fill="#F5BD4C" d="M189.273 340.93C190.982 339.289 194.617 338.183 196.817 337.198L214.424 329.211L321.033 281.157L465.193 216.059L501.07 199.795C510.687 195.37 520.164 190.806 530.069 187.038C531.356 196.722 530.689 206.03 524.611 214.059C516.533 224.731 505.038 232.882 495.099 241.75C470.693 263.526 459.909 292.523 463.952 324.846L465.223 332.468L532.799 332.478C531.29 321.903 531.787 312.474 538.326 303.566C544.895 294.618 554.606 289.349 563.539 283.148C576.291 274.297 587.266 263.642 595.609 250.5C598.192 246.432 602.138 240.352 603.443 235.787C614.062 239.86 624.448 245.133 634.755 249.941L680.256 270.899L797.061 324.413L821.66 335.621C824.823 337.036 830.647 338.732 833.02 340.951L505.052 485.652C502.596 485.222 499.829 483.576 497.5 482.547L481 475.067L407.663 441.103L236.968 363.001L209.817 350.584L198.084 345.362C195.028 344.041 191.909 343.021 189.273 340.93Z"/>
	<path fill="#1ED4AC" d="M495.863 355.689C504.633 355.055 513.101 357.821 519.897 363.327C527.097 369.16 531.657 377.687 532.532 386.899C533.397 396.004 530.983 405.527 525.066 412.605C518.857 420.033 511 424.245 501.363 425.195C493.549 425.074 486.855 423.567 480.162 419.38C472.255 414.433 466.99 406.001 464.816 397.07L464.152 393.79C463.078 384.83 465.391 375.442 471.032 368.353C477.449 360.291 485.822 356.786 495.863 355.689Z"/>
	<path fill="#E98323" d="M505.042 935.374C502.761 934.758 500.344 933.346 498.173 932.338L485.176 926.249L441.426 906.194L361.721 869.151L248.929 817.151L188.962 789.752L189.012 486.901L188.928 385.683L188.604 342.777C188.619 342.024 188.863 341.541 189.273 340.93C191.909 343.021 195.028 344.041 198.084 345.362L209.817 350.584L236.968 363.001L407.663 441.103L481 475.067L497.5 482.547C499.829 483.576 502.596 485.222 505.052 485.652C504.292 487.398 504.585 489.623 504.584 491.497L504.61 503.176L504.691 548.923L504.704 795.966L505 891.294L505.09 920.302C505.114 925.246 505.473 930.454 505.042 935.374Z"/>
	<path fill="#CB452E" d="M833.02 340.951C834.015 343.439 833.497 347.098 833.483 349.816L833.42 368.295L833.375 440.051L833.461 663.192L833.547 787.282L710.31 843.563L570.634 906.276L532.626 923.49L514.995 931.595C512.025 932.963 508.327 935.215 505.042 935.374C505.473 930.454 505.114 925.246 505.09 920.302L505 891.294L504.704 795.966L504.691 548.923L504.61 503.176L504.584 491.497C504.585 489.623 504.292 487.398 505.052 485.652L833.02 340.951Z"/>
	<path fill="#F5BD4C" d="M713.646 487.75L714.363 487.811C714.964 489.495 714.713 491.325 714.697 493.101L714.631 502.771L714.762 534.155L714.98 760.976C713.008 763.04 697.652 768.698 694.348 770.145L630.995 798.25L629.797 798.442C628.638 795.603 629.483 740.36 629.48 732.869L629.438 525.362L713.646 487.75Z"/>
</svg>
