<?xml version="1.0" encoding="utf-8" ?>
<svg xmlns="http://www.w3.org/2000/svg" xmlns:xlink="http://www.w3.org/1999/xlink" width="1024" height="1024">
	<path fill="#E53618" d="M-0 -0L1024 0L1024 1024L-0 1024L0 -0Z"/>
	<path fill="#FEFEFE" d="M524.537 224.472L758.75 224.601L804.966 224.413L813.41 224.294C814.031 224.281 815.56 224.053 816.029 224.237C818.002 225.013 820.761 227.66 822.558 229.016L839.929 242.114L874.248 267.472C880.552 272.109 887.28 276.556 893.209 281.655L869.744 298.519L830.925 326.407L820.245 333.981C819.311 334.644 817.38 336.412 816.363 336.735C815.585 336.981 813.397 336.69 812.511 336.679L803.12 336.579L753.754 336.463L524.541 336.654L524.537 224.472Z"/>
	<path fill="#FEFEFE" d="M499.89 555.738C498.787 555.472 497.17 555.698 496.024 555.707L485.645 555.783L445.754 555.953L260.958 556.013L226.567 556.037C223.975 556.039 218.972 556.712 216.599 556.044C214.846 555.552 211.731 552.802 210.137 551.707L187.142 535.638L132.085 497.441C137.972 492.585 144.824 488.518 151.157 484.259L179.519 464.837L205.413 446.962L214.368 440.724C215.159 440.207 216.594 439.076 217.474 438.816C219.562 438.201 224.848 439.011 227.234 439.018L270.095 439.024L499.954 439.208L499.89 555.738Z"/>
	<path fill="#1F1C19" d="M499.954 439.208L499.674 336.887C483.837 336.879 318.563 337.561 316.128 336.574C314.73 336.006 312.792 334.16 311.511 333.25L298.005 323.847L236.899 281.531L301.199 236.514L314.351 227.249C315.508 226.441 317.7 224.587 319.027 224.195C321.363 223.504 326.254 224.115 328.784 224.113L366.625 224.328L499.695 224.496L499.64 182.992C494.728 181.621 489.64 179.769 485.335 176.994C473.942 169.65 464.884 157.266 462.158 143.868C459.284 129.737 462.117 116.036 470.127 104.069C477.8 92.6036 489.752 85.097 503.234 82.5057C516.372 79.9805 529.282 83.1617 540.25 90.6015C551.065 97.9375 559.132 109.607 561.492 122.51C563.748 134.84 561.741 147.515 555.582 158.494C549.846 168.718 539.041 178.681 527.551 181.733C526.567 181.994 525.884 182.181 524.966 182.638L524.537 224.472L524.541 336.654L524.869 446.222L655.641 446.294L694.86 446.157C699.443 446.144 705.295 445.426 709.699 446.141C712.196 446.547 728.024 458.187 730.967 460.207L768.996 485.164L783.336 494.346C785.456 495.705 788.185 497.056 790.065 498.692L790.632 499.32C782.749 505.017 712.498 555.25 709.197 555.787C708.284 555.936 706.719 555.622 705.751 555.58L697.979 555.512L660.176 555.559L524.99 555.958L524.986 865.563L722.992 865.478L723.077 938.964L301.031 939.064L301.05 865.213L499.999 865.4L499.89 555.738L499.954 439.208Z"/>
</svg>
