<?xml version="1.0" encoding="utf-8" ?>
<svg xmlns="http://www.w3.org/2000/svg" xmlns:xlink="http://www.w3.org/1999/xlink" width="1024" height="1024">
	<path fill="#FEBD13" d="M-0 -0L1024 0L1024 1024L-0 1024L0 -0Z"/>
	<path fill="#F34810" d="M554.542 473.076L769.253 473.394L769.453 435.586C769.458 433.054 768.75 426.519 769.72 424.467L908.468 507.409L769.088 589.693L769.278 533.43L622.227 533.397L576.273 533.417C569.206 533.453 561.499 532.832 554.557 533.861L554.542 473.076Z"/>
	<path fill="#F34810" d="M469.285 531.584C469.225 532.52 469.155 532.74 468.75 533.534L255.073 533.34L255.162 590.523L113.018 507.669L255.274 424.281L255.199 473.118L469.436 473.03L469.285 531.584Z"/>
	<path fill="#F34810" d="M480.933 472.917L480.886 248.986L423.899 249.001L509.769 121.947C510.273 121.21 510.883 119.831 511.714 119.627L599.987 249.041L542.922 248.849L542.954 472.973C546.738 472.97 550.794 472.658 554.542 473.076L554.557 533.861L542.937 534.16L542.97 773.767L601.614 773.417L512.332 901.763L422.071 772.975L480.742 773.02L480.932 534.147C477.5 534.146 472.765 534.735 469.521 533.75L469.285 531.584L469.436 473.03L480.933 472.917Z"/>
	<path fill="#FEFEFE" d="M469.436 473.03L480.933 472.917L480.932 534.147C477.5 534.146 472.765 534.735 469.521 533.75L469.285 531.584L469.436 473.03Z"/>
	<path fill="#FEFEFE" d="M542.954 472.973C546.738 472.97 550.794 472.658 554.542 473.076L554.557 533.861L542.937 534.16L542.954 472.973Z"/>
</svg>
