<?xml version="1.0" encoding="utf-8" ?>
<svg xmlns="http://www.w3.org/2000/svg" xmlns:xlink="http://www.w3.org/1999/xlink" width="1024" height="1024">
	<path fill="#FBA218" d="M-0 -0L1024 0L1024 1024L-0 1024L0 -0Z"/>
	<path fill="#F5402A" d="M480.509 360.62L480.774 207.972L376.931 207.966L511.838 73.5291L649.252 208.02L542.972 207.844L543.024 319.834L543.038 349.15C543.054 352.945 542.518 357.721 543.306 361.348C543.802 366.027 543.484 371.057 543.504 375.779L543.601 401.721L543.831 486.776L480.929 486.76L480.509 360.62Z"/>
	<path fill="#1F3777" d="M480.509 360.62L480.929 486.76L543.831 486.776L543.601 401.721L543.504 375.779C543.484 371.057 543.802 366.027 543.306 361.348L624.631 391.317L735.164 432.032L787.186 451.118L805.658 457.804C808.555 458.874 811.903 459.806 814.598 461.262L773.553 476.554L697 504.059L554.364 556.038L525.059 566.516C521.782 567.692 516.703 570.374 513.326 570.565C512.194 570.629 508.744 569.068 507.52 568.67L471.114 555.919L297.8 494.212L211.805 463.344L480.509 360.62Z"/>
	<path fill="#10B8CE" d="M814.598 461.262L881.501 527.639L814.271 552.298L814.558 839.886L558.68 932.264L525.491 944.373C522.044 945.633 516.068 948.726 512.475 948.509C510.236 948.482 507.422 947.119 505.258 946.365L486.898 939.643L432.583 919.709L285.148 866.4L208.908 839.229L208.878 554.631C207.857 554.619 206.09 553.738 205.092 553.397L192.185 548.812C175.002 542.655 157.662 535.687 140.139 530.656C144.782 525.554 150.169 520.943 155.19 516.203L178.581 493.95L200.345 473.283C203.913 469.943 207.607 465.797 211.805 463.344L297.8 494.212L471.114 555.919L507.52 568.67C508.744 569.068 512.194 570.629 513.326 570.565C516.703 570.374 521.782 567.692 525.059 566.516L554.364 556.038L697 504.059L773.553 476.554L814.598 461.262Z"/>
	<path fill="#1F3777" d="M208.878 554.631L448.949 640.464L512.624 573.788L512.475 948.509C510.236 948.482 507.422 947.119 505.258 946.365L486.898 939.643L432.583 919.709L285.148 866.4L208.908 839.229L208.878 554.631Z"/>
</svg>
