<?xml version="1.0" encoding="utf-8" ?>
<svg xmlns="http://www.w3.org/2000/svg" xmlns:xlink="http://www.w3.org/1999/xlink" width="1024" height="1024">
	<path fill="#E93826" d="M-0 -0L1024 0L1024 1024L-0 1024L0 -0Z"/>
	<path fill="#C82022" d="M775.373 725.98C774.464 728.617 771.567 731.082 769.589 733.074C753.92 748.845 734.737 761.443 716.658 774.25L615.645 840.033C586.551 857.419 556.658 874.531 525.041 886.949C519.726 889.036 513.512 891.901 507.906 892.828C499.195 894.268 489.222 893.395 480.335 893.422L424.421 893.469L229.639 893.51L230.025 153.511L246.93 153.464L246.925 178.722C246.929 183.217 246.497 188.261 247.343 192.653L247.826 875.335L433.624 875.331L485.907 875.194L512.75 875.1C514.496 875.014 515.941 874.481 517.533 873.798L517.991 873.833C520.128 873.852 522.361 872.875 524.359 872.187L535.165 868.312C565.082 856.465 593.673 840.279 621.509 824.24L743.557 748.134C753.984 741.118 765.791 734.458 774.935 725.842L775.373 725.98Z"/>
	<path fill="#F9C863" d="M247.343 192.653L247.242 134.565L578.484 134.708L615.828 134.658L623.603 134.594C624.325 134.588 625.933 134.353 626.5 134.565C626.948 134.733 627.22 135.195 627.581 135.51L774.955 281.481C775.239 281.904 775.666 282.26 775.809 282.75C776.485 285.068 775.941 289.446 775.943 291.987L775.943 320.558L775.927 446.372L775.96 652.572L776.007 706.22L775.987 718.919C775.984 720.639 776.273 722.857 775.935 724.5C775.771 725.292 775.694 725.36 775.373 725.98L774.935 725.842C765.791 734.458 753.984 741.118 743.557 748.134L621.509 824.24C593.673 840.279 565.082 856.465 535.165 868.312L524.359 872.187C522.361 872.875 520.128 873.852 517.991 873.833L517.533 873.798C515.941 874.481 514.496 875.014 512.75 875.1L485.907 875.194L433.624 875.331L247.826 875.335L247.343 192.653Z"/>
	<path fill="#FB9B1D" d="M346.499 421.633L682.113 422.043C683.875 423.245 685.722 424.665 686.447 426.761C687.25 429.083 687.151 431.455 686.05 433.656C684.897 435.959 682.862 436.804 680.521 437.495L441.144 437.034L381.198 437.233L347.469 437.649C346.192 437.632 344.935 437.611 343.757 437.054C341.559 436.014 340.177 433.831 339.55 431.562C339.098 429.922 339.223 427.212 340.167 425.75C341.76 423.282 343.761 422.342 346.499 421.633Z"/>
	<path fill="#FB9B1D" d="M347.211 332.711L444.245 333.059L585.364 333.091L646.977 333.074C657.593 333.054 668.565 332.455 679.15 333.079C680.698 333.17 682.277 333.439 683.541 334.383C685.618 335.936 686.543 337.599 686.894 340.112C687.158 342.007 686.616 344.168 685.46 345.688C683.744 347.943 681.448 348.48 678.781 348.913L587.857 348.58L444.198 348.522L377.324 348.651L357.303 348.759C353.486 348.778 349.402 349.087 345.636 348.453C343.885 348.158 341.874 346.876 340.888 345.393L340.616 344.956C339.712 343.531 339.45 342.414 339.457 340.711C339.466 338.614 340.422 336.385 341.94 334.922C343.523 333.396 345.118 333.05 347.211 332.711Z"/>
	<path fill="#FB9B1D" d="M627.581 135.51L774.955 281.481L627.516 281.511L627.581 135.51Z"/>
	<path fill="#E93826" d="M517.533 873.798L529.993 865.221C543.404 855.811 554.921 844.083 565.264 831.437C593.511 796.905 610.868 755.06 621.25 711.982L628.892 672.892L774.935 725.842C765.791 734.458 753.984 741.118 743.557 748.134L621.509 824.24C593.673 840.279 565.082 856.465 535.165 868.312L524.359 872.187C522.361 872.875 520.128 873.852 517.991 873.833L517.533 873.798Z"/>
</svg>
