<?xml version="1.0" encoding="utf-8" ?>
<svg xmlns="http://www.w3.org/2000/svg" xmlns:xlink="http://www.w3.org/1999/xlink" width="1024" height="1024">
	<path fill="#2193D1" d="M-0 -0L1024 0L1024 1024L-0 1024L0 -0Z"/>
	<path fill="#1A1919" d="M869.546 421.19C879.85 419.726 890.847 423.126 899.272 429.041C908.315 435.389 915.625 445.349 917.434 456.376C919.148 466.82 917.872 478.547 911.589 487.33C903.974 497.975 892.329 504.195 879.622 506.414C867.502 507.655 856.139 505.234 846.305 497.799C837.724 491.311 831.619 480.502 830.25 469.877C828.716 457.968 831.87 446.565 839.231 437.136C846.838 427.393 857.526 422.713 869.546 421.19Z"/>
	<path fill="#1A1919" d="M146.108 422.682C156.873 422.238 166.401 424.401 175.28 430.73C184.327 437.179 191.665 448.124 193.297 459.25C195.017 470.975 192.478 482.989 185.301 492.534C177.927 502.339 167.647 508.254 155.552 509.95C144.762 511.164 134.617 508.736 125.544 502.73C115.711 496.22 109.938 486.36 107.41 475L106.695 471.419C105.304 460.017 108.753 448.381 115.802 439.38C123.531 429.513 133.845 424.26 146.108 422.682Z"/>
	<path fill="#1A1919" d="M706.864 355.655C718.663 354.616 728.739 356.778 738.444 363.697C747.837 370.393 755.306 381.322 757.161 392.822C759.15 405.149 755.891 416.828 748.644 426.857C740.759 437.769 730.179 443.259 717.128 445.292C705.946 446.371 695.806 444.268 686.498 437.834C676.138 430.673 669.357 420.915 667.124 408.429C664.95 396.277 667.923 384.554 674.982 374.534C682.743 363.516 693.858 357.889 706.864 355.655Z"/>
	<path fill="#1A1919" d="M305.753 355.629C317.651 354.448 329.285 356.894 339.156 363.758C348.79 370.456 356.067 380.588 358.088 392.314C360.157 404.315 358.108 415.99 351.091 426C343.304 437.11 332.435 443.995 319.101 446.342C307.72 447.783 296.818 445.933 287.018 439.725C276.532 433.083 269.545 422.067 267.019 410.006C264.528 398.115 267.285 385.56 274.049 375.557C281.714 364.219 292.538 358.19 305.753 355.629Z"/>
	<path fill="#E22117" d="M508.362 134.217C525.17 133.176 541.114 138.514 554.556 148.552C569.111 159.422 579.673 176.297 582.32 194.321C584.951 212.232 581.133 231.841 570.06 246.421C556.651 264.075 539.786 273.06 518.027 275.995C499.338 276.702 481.781 272.279 467.201 260.061C452.959 248.126 443.117 230.787 441.606 212.13C440.07 193.16 445.239 173.533 457.872 158.955C470.847 143.981 488.735 135.631 508.362 134.217Z"/>
	<path fill="#1A1919" d="M143.29 518.7C155.755 516.88 170.88 520.617 182.292 525.53C198.064 532.319 214.157 546.902 220.524 563.056C222.439 567.916 223.503 572.696 223.888 577.921C224.342 584.077 224.007 590.448 224.013 596.637L224.017 631.219L224.02 667.179C224.022 673.64 224.332 680.281 223.922 686.714C223.796 688.689 223.207 690.628 222.372 692.414C220.399 696.634 216.844 699.965 212.414 701.494L211.75 701.71C208.195 702.888 204.259 702.442 200.564 702.295L200.635 828.246L200.81 859.66C200.849 865.559 201.526 872.208 200.34 877.969C199.688 881.14 197.112 884.092 194.497 885.861C188.464 889.941 178.446 890.746 171.453 889.065C165.512 887.637 160.588 884.666 158.317 878.73C156.497 873.972 157.016 868.107 157.008 863.082L156.989 841.207L157.02 748.215C157.024 743.641 157.881 723.92 156.5 721.611L154.625 721.493L140.513 721.561L140.744 828.187L140.796 859.058C140.803 864.681 141.13 870.511 140.637 876.101C140.459 878.116 139.971 880.003 138.906 881.75C136.757 885.272 132.719 887.551 128.786 888.488L128 888.668C125.148 889.35 122.547 889.511 119.611 889.511C113.027 889.513 106.182 888.182 101.489 883.162C99.0329 880.536 97.4449 877.124 97.0152 873.561C96.3234 867.824 96.8396 861.465 96.8413 855.666L96.8533 820.628L97.0073 701.152C91.3081 701.712 85.166 702.403 80.25 698.807C77.3672 696.699 74.843 692.742 74.4449 689.171C73.8065 683.445 74.1936 677.3 74.194 671.534L74.179 639.533L74.1496 596.277C74.1555 588.575 73.413 579.756 74.8492 572.174C76.3908 564.034 81.2873 555.887 86.3913 549.511C100.682 531.657 120.728 521.268 143.29 518.7Z"/>
	<path fill="#1A1919" d="M868.479 516.708L869.729 516.666C891.539 515.975 913.082 524.677 928.863 539.715C941.723 551.971 949.618 567.231 949.96 585.105L950.007 655.671L949.986 678.397C949.979 682.049 950.312 686.116 949.807 689.722C949.361 692.914 948.326 695.516 945.988 697.814C941.296 702.424 935.08 701.868 929.039 701.854L929.224 824.336L929.423 857.864C929.465 862.926 930.194 869.294 929.252 874.225C928.35 878.951 925.493 883.566 921.488 886.253C915.819 890.055 905.158 890.612 898.641 889.025C892.643 887.564 888.003 883.976 885.886 878.066C884.314 873.677 884.863 868.346 884.864 863.737L884.885 841.374L884.972 746.556L884.97 726.37C884.971 724.605 885.409 721.213 884.48 719.75L882.75 719.537L866.938 719.587L867.026 820.538L867.197 854.586C867.237 860.964 867.596 867.537 867.169 873.892C866.997 876.444 866.506 878.669 865.153 880.883C862.649 884.979 858.17 888.002 853.491 888.971L852.75 889.115C851.82 889.304 850.954 889.457 850 889.498C842.216 889.838 833.73 890.086 827.75 884.198C825.095 881.584 823.098 878.104 822.567 874.391C821.726 868.511 822.085 862.194 822.083 856.259L822.466 817.692L822.492 702.02C817.122 702.101 810.909 703.029 806.407 699.477C803.715 697.353 801.764 694.592 801.432 691.121C800.8 684.501 801.151 677.551 801.129 670.89L801.045 635.664L800.992 599.802C800.99 591.046 800.388 581.611 802.146 572.989C804.477 561.549 809.123 551.418 816.708 542.468C830.413 526.299 847.614 518.559 868.479 516.708Z"/>
	<path fill="#1A1919" d="M633.204 502.058C638.452 496.137 643.686 490.108 649.594 484.826C665.577 470.534 685.93 459.867 707.562 458.602C732.674 457.135 756.31 469.155 774.593 485.566C780.256 490.649 785.437 496.311 790.39 502.08C793.527 505.733 797.378 509.914 797.594 514.972C797.727 518.099 796.24 519.915 794.157 522.078C790.783 525.582 766.451 548.496 765.973 550.683C765.74 551.749 765.973 553.57 765.973 554.701L765.975 564.169L765.983 605.648L766.049 797.337L766.022 846.361L766.026 865.106C766.038 869.662 766.563 874.711 764.985 879.053C762.031 887.183 754.338 889.787 746.49 889.858C739.049 889.925 731.255 890.314 725.658 884.378C723.51 882.099 721.764 878.649 721.335 875.545C720.531 869.721 721.05 863.21 721.053 857.325L721.073 822.251L721.153 701.473L700.039 701.63L700.212 828.278L700.131 860.713C700.129 865.669 700.673 871.391 699.946 876.275C699.47 879.472 697.629 882.412 695.355 884.65C689.195 890.713 680.747 889.823 672.785 889.612C667.099 889.461 662.2 886.76 658.414 882.561C656.509 880.447 655.405 877.897 655.086 875.079C654.131 866.621 654.987 857.191 654.994 848.633L655.016 791.199L655.077 605.18L655.138 562.937L655.134 555.261C655.133 554.832 655.282 553.313 655.132 552.922C654.875 552.256 652.948 550.68 652.391 550.109C648.977 546.613 645.634 542.884 641.865 539.773C639.007 537.415 635.872 535.643 632.946 533.443C632.764 523.298 632.01 512.122 633.204 502.058Z"/>
	<path fill="#1A1919" d="M390.993 527.935C386.982 533.97 383.045 539.559 377.441 544.274C375.639 545.79 373.67 546.966 371.645 548.156C371.492 548.246 370.094 548.977 370.035 549.092C369.453 550.222 370.015 588.405 370.013 592.506L370.07 789.665L370.049 848.047C370.045 856.962 370.92 866.839 369.924 875.646C369.609 878.428 368.264 881.155 366.444 883.25C361.894 888.487 353.784 890.159 347.195 890.397C340.131 890.652 331.251 888.512 326.095 883.366C324.218 881.493 322.985 879.081 322.719 876.43C322.092 870.171 322.585 863.446 322.61 857.147L322.761 818.9L322.643 702.239L303.121 702.067L303.404 820.168L303.492 859.773L303.51 872.125C303.501 874.493 303.677 877.163 302.772 879.394L302.5 880C302.209 880.661 301.937 881.29 301.542 881.9C298.915 885.959 293.906 888.495 289.261 889.459L288.5 889.611C286.406 890.058 284.468 890.385 282.328 890.452C275.627 890.662 267.392 889.183 262.475 884.345C260.16 882.067 258.468 878.741 258.119 875.5C257.693 871.542 257.991 867.252 257.997 863.263L258.033 841.464L258.204 767.676L258.041 548.551C253.485 546.075 249.381 542.968 245.618 539.398C238.405 532.556 229.001 522.92 229.093 512.25C229.174 502.888 239.185 492.227 245.535 485.853C263.024 468.298 285.085 456.506 310.253 456.403C334.606 456.302 358.858 468.678 375.825 485.694L391.007 503.503C391.337 511.456 391.957 520.043 390.993 527.935Z"/>
	<path fill="#E22117" d="M391.007 503.503L390.611 472.557L390.54 429.365C390.541 420.954 390.054 412.2 390.742 403.826C393.065 375.529 405.832 349.972 425.729 329.924C448.556 306.925 478.734 294.513 511.07 294.418C544.149 294.321 575.904 307.735 599.296 331.077C617.36 349.102 629.785 373.712 632.505 399.189C633.968 412.903 633.143 427.352 633.163 441.167L633.204 502.058C632.01 512.122 632.764 523.298 632.946 533.443L633.166 567.709C633.195 572.201 633.933 577.854 633.025 582.185C632.244 585.909 630.214 589.824 627.595 592.576C623.915 596.443 618.884 598.692 613.545 598.718C608.14 598.744 602.505 596.696 598.622 592.878C596.393 590.686 594.779 587.8 593.718 584.88C591.67 584.908 589.113 584.626 587.195 585.314C588.26 590.068 588.244 595.145 588.349 600L588.521 664.925L588.553 784.259L588.995 838.871L589.057 854.735C589.073 858.323 589.32 862.115 588.279 865.585C586.537 871.397 584.222 876.165 579.858 880.506C574.053 886.282 565.476 890.117 557.188 889.904C548.387 889.679 539.843 885.632 533.808 879.292C529.265 874.519 526.172 868.51 525.198 861.972C523.901 853.254 524.603 843.595 524.586 834.776L524.553 784.94L524.785 625.915L499.455 625.87L499.448 856.472C499.433 866.271 496.779 874.228 489.674 881.203C484.12 886.655 475.739 890.127 467.897 889.909C459.185 889.666 450.712 886.069 444.835 879.61C440.431 874.77 437.502 868.54 436.713 862.034C436.248 858.202 436.49 854.096 436.477 850.234L436.448 829.156L436.425 759.033L436.457 649.826L437.012 585.388L430.393 585.095C429.657 587.76 428.145 590.198 426.32 592.25C422.89 596.106 417.365 598.297 412.26 598.404C406.33 598.528 400.267 596.325 396.064 592.094C393.925 589.94 391.881 586.856 391.199 583.854C389.855 577.939 390.747 570.313 390.795 564.177L390.993 527.935C391.957 520.043 391.337 511.456 391.007 503.503Z"/>
	<path fill="#1A1919" d="M430.393 585.095L430.422 423.658L437.364 423.838L437.462 533.5L437.428 566.397C437.417 572.64 437.8 579.195 437.012 585.388L430.393 585.095Z"/>
	<path fill="#1A1919" d="M587.195 585.314L587.162 585.284C585.953 582.116 586.439 577.448 586.392 574.027L586.148 551.223L586.078 423.976L593.32 423.973L593.718 584.88C591.67 584.908 589.113 584.626 587.195 585.314Z"/>
</svg>
