<?xml version="1.0" encoding="utf-8" ?>
<svg xmlns="http://www.w3.org/2000/svg" xmlns:xlink="http://www.w3.org/1999/xlink" width="1024" height="1024">
	<path fill="#FEFEFE" d="M-0 -0L1024 0L1024 1024L-0 1024L0 -0Z"/>
	<path fill="#139999" d="M870.423 398.671C875.835 398.097 882.741 400.085 887.43 402.62C893.641 405.977 897.976 411.13 899.912 417.976C900.867 421.355 900.861 425.329 900.796 428.817C900.632 437.645 899.371 445.512 894.906 453.25C890.359 461.129 884.481 465.968 875.65 468.344C870.548 468.68 866.871 467.837 862.39 465.252C854.349 460.611 848.84 450.106 846.555 441.382L846.332 440.503L845.627 437.171C844.424 428.244 844.511 416.774 850.259 409.337C855.06 403.127 862.796 399.616 870.423 398.671Z"/>
	<path fill="#139999" d="M150.059 399.214C156.379 399.466 161.524 400.065 167 403.47C172.322 406.779 176.371 412.191 177.761 418.324C180.382 429.884 177.672 444.266 171.208 454.231C166.227 461.91 160.193 466.628 151.184 468.577C145.109 468.596 140.458 466.342 135.944 462.388C128.085 455.502 123.11 443.778 122.414 433.483C121.804 424.447 121.637 415.056 128.059 407.91C133.689 401.644 142.021 399.654 150.059 399.214Z"/>
	<path fill="#E83233" d="M250.778 353.686C258.68 353.17 266.937 355.16 273.75 359.163C279.383 362.472 284.247 367.923 285.79 374.383C286.655 378.006 286.565 381.619 286.533 385.314C286.428 397.43 283.956 409.877 277.425 420.25C272.403 428.227 266.129 433.366 256.877 435.481C250.553 436.202 244.916 434.912 239.69 431.225C228.861 423.584 223.691 410.053 221.376 397.5L220.777 393.77C219.719 384.2 219.172 373.625 225.611 365.724C232.129 357.726 240.827 354.694 250.778 353.686Z"/>
	<path fill="#F28048" d="M765.346 354.63C770.079 354.254 775.463 354.064 780.083 355.208L781 355.45C788.459 357.34 796.628 361.481 800.878 368.231C805.463 375.514 804.802 383.279 804.72 391.5C804.678 395.789 804.85 400.378 803.777 404.552L803.526 405.5C802.658 408.913 801.571 412.216 800.036 415.391C795.256 425.274 787.226 432.932 776.8 436.493L773.75 437.17C767.998 438.255 760.87 435.647 756.161 432.383C746.467 425.662 740.061 414.643 738.066 403.101C737.285 398.582 737.343 393.97 737.368 389.399C737.414 381.202 737.423 373.998 742.475 367C747.941 359.429 756.473 356.16 765.346 354.63Z"/>
	<path fill="#43C5BC" d="M371.772 324.189C380.706 323.751 388.182 324.727 396.035 329.305C403.116 333.433 408.404 339.439 410.485 347.463L410.709 348.359C411.584 351.766 411.531 355.173 411.504 358.663C411.416 369.946 409 381.25 403.478 391.155C398.058 400.877 391.26 407.874 380.354 410.942L378.632 411.268C371.577 412.252 364.251 410.123 358.682 405.687C347.916 397.109 342.044 383.449 340.538 370.006C339.219 358.234 337.952 346.297 345.997 336.525C352.506 328.618 361.906 325.226 371.772 324.189Z"/>
	<path fill="#43C5BC" d="M646.456 324.216C655.046 324.342 663.316 325.519 670.432 330.783C676.743 335.452 681.476 342.68 682.541 350.517C684.661 366.114 681.368 385.218 671.872 397.996C667.899 403.341 662.547 408.834 656.117 411.088C653.769 411.911 651.151 412.176 648.695 412.533C640.641 411.736 634.251 409.107 628.173 403.758C617.351 394.234 612.889 379.477 612.038 365.567C611.366 354.575 610.751 344.328 618.618 335.607C625.661 327.798 636.318 324.835 646.456 324.216Z"/>
	<path fill="#E83233" d="M508.287 243.68C516.437 242.819 525.414 244.956 532.531 249.008C539.383 252.909 545.537 259.539 547.554 267.274C548.478 270.818 548.126 274.848 548.09 278.489C547.958 291.887 546.617 304.101 539.427 315.75C534.005 324.535 525.604 332.314 515.361 334.623C507.606 335.336 501.796 333.975 495.477 329.26C483.84 320.578 477.527 306.715 475.529 292.589C473.982 281.657 472.836 267.427 479.9 258.275C486.892 249.216 497.28 245.141 508.287 243.68Z"/>
	<path fill="#139999" d="M191.279 614.895L172.35 779.875L161.427 779.956L161.588 703.303L161.564 680.961C161.563 677.004 161.85 672.785 161.435 668.854C161.155 666.2 159.897 663.681 158.087 661.75C155.401 658.885 151.999 656.869 147.984 656.839C144.429 656.812 141.242 658.439 138.747 660.885C136.68 662.912 135.29 665.303 134.927 668.203C134.466 671.877 134.778 675.878 134.787 679.587L134.778 700.828L134.582 779.898L124.055 779.789L101.938 570.241C100.655 573.32 100.219 577.445 99.5401 580.753C97.0358 592.953 94.9978 605.092 94 617.515L81.2525 617.436L80.7581 581.659C80.5462 571.128 79.9339 560.379 80.7916 549.877C82.0844 534.049 86.9995 517.6 95.7341 504.252C106.469 487.848 121.682 478.045 140.91 474.111C157.899 470.634 173.864 477.594 187.783 486.874C179.959 503.223 178.383 521.599 177.032 539.432L175.059 576.647L174.548 612.317L191.279 614.895Z"/>
	<path fill="#139999" d="M833.684 486.615C836.857 485 839.752 482.978 842.943 481.401C858.691 473.618 873.328 470.733 890.255 476.25C909.248 482.44 922.859 494.84 931.723 512.562C937.681 524.475 941.23 538.26 942.344 551.516C943.205 561.761 942.713 572.257 942.604 582.538L942.479 617.13L928.629 617.328C927.325 602.266 925.575 586.292 921.285 571.787L901.351 777.557L891.672 777.755L888.789 700.12L888.014 679.082C887.869 675.222 887.995 670.978 887.275 667.187C886.808 664.728 885.577 662.361 883.753 660.633C881.425 658.428 878.339 657.346 875.156 657.483C871.877 657.624 869.38 658.995 867.192 661.402C865.303 663.481 864.073 666.475 863.709 669.25C863.099 673.901 863.35 678.926 863.256 683.62L862.607 708.673L860.387 778.063L850.899 777.993L830.942 613.242L850.422 612.977C849.801 577.577 849.764 540.749 840.524 506.35C838.693 499.534 835.93 493.261 833.684 486.615Z"/>
	<path fill="#F28048" d="M720.62 464.503C736.317 451.505 755.794 443.447 776.464 445.204C793.979 446.692 814.014 456.043 825.25 469.792C829.102 474.505 831.672 480.898 833.684 486.615C835.93 493.261 838.693 499.534 840.524 506.35C849.764 540.749 849.801 577.577 850.422 612.977L830.942 613.242L826.508 568.001L802.756 778.412L786.951 778.377L786.204 695.322L786.081 669.44C786.064 665.029 786.439 660.195 785.794 655.839C785.131 651.357 782.857 646.787 779.733 643.527C776.987 640.662 773.558 638.939 769.561 638.898C766.24 638.865 763.033 640.725 760.754 643.029C757.05 646.774 754.6 651.799 753.559 656.938C752.639 661.484 752.99 666.592 752.909 671.233L752.595 698.151L752.015 778.953L739.722 778.84L721.929 642.931L719.376 619.396C719.007 615.702 718.064 611.304 718.749 607.688L737.033 604.832C737.119 591.376 735.881 577.588 735.058 564.144C733.811 543.778 732.692 523.146 729.514 502.969C727.45 489.864 724.387 477.216 720.62 464.503Z"/>
	<path fill="#F28048" d="M187.783 486.874L193.251 477.04C197.887 470.241 203.908 464.112 210.755 459.534C216.295 455.829 222.258 453.064 227.952 449.681C233.582 446.335 237.348 443.133 244.076 441.927C252.215 440.469 264.361 440.607 271.68 445.005C275.412 447.247 278.716 450.281 282.464 452.604L301.611 464.529C295.482 487.257 293.979 510.775 291.727 534.125L284.75 603.114L305.818 603.569C306.405 600.139 306.787 595.898 308.369 592.792C309.904 600.434 308.123 610.148 307.437 617.891C304.003 656.652 297.427 694.584 290.774 732.882L282.37 780.03L270.942 780.172L270.65 692.865L270.726 667.614C270.743 663.389 271.155 658.675 270.498 654.508C269.963 651.119 267.339 646.473 264.853 644.147C261.57 641.074 257.212 639.775 252.75 640.105C248.559 640.415 244.738 642.479 242.127 645.754C240.135 648.253 238.799 651.249 238.404 654.42C237.754 659.635 238.013 665.134 238 670.391L237.966 696.003L237.936 780.005C234.478 779.981 228.781 780.716 225.632 779.629L196.582 566L191.279 614.895L174.548 612.317L175.059 576.647L177.032 539.432C178.383 521.599 179.959 503.223 187.783 486.874Z"/>
	<path fill="#43C5BC" d="M301.611 464.529L305.034 456.182C314.138 437.151 337.234 427.077 356.191 420.509C362.308 418.39 368.743 416.725 375.25 416.62C390.306 416.376 406.491 423.462 419.751 429.937C425.616 432.988 431.697 435.934 436.945 439.996C445.505 446.621 451.381 456.033 454.633 466.253C460.456 484.551 461.227 504.913 463.004 523.946L469.73 603.521C464.341 603.527 458.34 603.026 453.028 603.687L450.793 603.204L435.198 544.899C433.673 572.629 435.153 600.672 432.859 628.357C431.741 641.846 428.685 655.494 426.793 668.929L409.558 779.674L394.486 779.646L394.461 682.329L394.417 654.668C394.405 649.046 394.761 643.129 393.861 637.562C393.212 633.546 391.059 629.359 388.25 626.428C385.362 623.416 381.846 622.021 377.7 621.984C373.453 621.947 369.695 623.415 366.679 626.408C363.751 629.312 361.895 633.109 361.291 637.183C360.418 643.073 360.801 649.562 360.755 655.515L360.712 689.211L360.976 779.993L347.356 779.996L333.899 691.5L327.391 648.994C326.29 641.732 324.82 634.517 324.091 627.202C321.369 599.869 322.777 572.155 320.768 544.775C316.815 560.55 309.791 576.569 308.369 592.792C306.787 595.898 306.405 600.139 305.818 603.569L284.75 603.114L291.727 534.125C293.979 510.775 295.482 487.257 301.611 464.529Z"/>
	<path fill="#43C5BC" d="M603.028 429.862C628.711 418.632 648.196 411.825 675.783 422.702C693.16 429.554 710.502 439.927 718.117 457.79L720.62 464.503C724.387 477.216 727.45 489.864 729.514 502.969C732.692 523.146 733.811 543.778 735.058 564.144C735.881 577.588 737.119 591.376 737.033 604.832L718.749 607.688C719.195 604.253 717.775 599.95 717.159 596.545L711.484 570.804C709.417 561.93 707.376 552.827 704.488 544.185L677.812 778.564L661.65 778.644C662.372 768.916 662.042 758.949 662.024 749.195L661.909 700.068L661.936 657.799C661.911 650.258 662.321 642.308 661.407 634.824C661.041 631.823 659.279 628.333 657.28 626.083C654.92 623.426 651.631 621.635 648.055 621.448C643.48 621.209 639.516 622.366 636.187 625.64C633.611 628.173 631.813 631.805 631.25 635.356C630.549 639.78 630.87 644.632 630.836 649.106L630.68 674.826L631.038 778.891L613.436 778.888C608.066 754.748 604.643 730.443 601.571 705.933C594.844 652.266 591.603 598.436 589.601 544.403L575.643 603.609L569.601 603.458L554.278 603.289L558.58 557.337L562.023 520.374C563.581 502.972 565.005 484.539 570.276 467.814C573.827 456.546 579.646 446.126 588.929 438.592C593.279 435.061 598.068 432.426 603.028 429.862Z"/>
	<path fill="#E83233" d="M419.751 429.937C425.365 401.071 439.409 375.295 464.25 358.633C481.573 347.014 502.802 339.843 523.657 344.111C549.008 349.3 571.907 366.063 586.112 387.576C594.626 400.47 599.945 414.78 603.028 429.862C598.068 432.426 593.279 435.061 588.929 438.592C579.646 446.126 573.827 456.546 570.276 467.814C565.005 484.539 563.581 502.972 562.023 520.374L558.58 557.337L554.278 603.289L569.601 603.458L544.867 780.143L529.982 779.986L529.937 676.149L529.965 646.923C529.968 638.831 530.085 630.613 528.878 622.587C528.147 617.723 526.502 612.3 522.966 608.739C519.769 605.519 516.259 604.328 511.77 604.42C507.683 604.504 504.537 606.025 501.728 608.979C497.293 613.641 495.78 620.909 494.963 627.131C493.931 634.998 494.073 643.231 494.032 651.161L493.964 683.75L493.899 779.508L480.466 779.629L453.028 603.687C458.34 603.026 464.341 603.527 469.73 603.521L463.004 523.946C461.227 504.913 460.456 484.551 454.633 466.253C451.381 456.033 445.505 446.621 436.945 439.996C431.697 435.934 425.616 432.988 419.751 429.937Z"/>
</svg>
