<?xml version="1.0" encoding="utf-8" ?>
<svg xmlns="http://www.w3.org/2000/svg" xmlns:xlink="http://www.w3.org/1999/xlink" width="1024" height="1024">
	<path fill="#1092DC" d="M-0 -0L1024 0L1024 1024L-0 1024L0 -0Z"/>
	<path fill="#FEFEFE" d="M209.884 330.449L191.918 330.439L191.965 312.492C192.022 302.324 191.891 294.713 199.672 286.988C202.88 283.803 206.674 281.271 211.18 280.355C214.128 279.755 217.254 279.949 220.25 279.955L234.721 279.963L281.508 280.007C287.91 280.075 293.487 282.903 297.925 287.409C305.655 295.256 305.324 303.124 305.29 313.374L305.145 330.227L288.451 330.347L209.884 330.449Z"/>
	<path fill="#FEFEFE" d="M456.427 181.414L451.526 181.309C450.732 171.462 451.397 161.089 451.422 151.193C451.447 141.79 450.852 131.917 451.577 122.563C451.677 121.27 451.956 120.052 452.75 118.993C454.121 117.164 456.209 116.927 458.302 116.865L524.25 116.896L551.961 116.876C556.853 116.874 561.95 116.576 566.812 116.956C568.139 117.059 569.269 117.345 570.28 118.25C571.498 119.341 571.921 120.64 571.978 122.25L571.867 181.434L560.362 181.346L560.305 181.269L456.427 181.414Z"/>
	<path fill="#98D3F3" d="M209.884 330.449L288.451 330.347L288.435 365.835C297.344 370.394 306.626 374.946 314.858 380.657C330.222 391.316 342.011 406.516 347.807 424.318C349.259 428.775 350.419 433.576 350.82 438.252C351.313 444.004 351.114 449.883 351.131 455.655L351.2 483.161L351.271 502.679C351.252 505.591 351.456 508.74 351.08 511.62C350.571 507.789 350.923 503.524 350.909 499.643L147.328 499.455L147.329 456.808C147.336 449.792 146.776 442.099 147.578 435.165C148.129 430.4 149.438 425.369 151.075 420.867C161.101 393.3 184.015 377.228 209.681 365.324C210.137 361.412 209.757 357.099 209.73 353.148L209.884 330.449Z"/>
	<path fill="#FEFEFE" d="M147.328 499.455L350.909 499.643C350.923 503.524 350.571 507.789 351.08 511.62L350.997 767.601L350.996 842.268L350.985 865.044C350.973 869.757 351.205 874.638 350.625 879.322C349.785 886.115 345.853 893.68 341.085 898.545C336.713 903.006 330.204 906.441 324.033 907.409C319.202 908.166 313.781 907.75 308.891 907.743L282.312 907.705L187.47 907.834C182.783 907.864 177.835 908.198 173.206 907.383C166.946 906.28 160.836 902.569 156.387 898.09C151.56 893.229 148.38 886.543 147.588 879.747C147.084 875.423 147.397 870.757 147.4 866.39L147.424 842.468L147.462 762.676L147.328 499.455Z"/>
	<path fill="#FEFEFE" d="M792.039 351.25L821.042 351.191L821.033 378.125C824.332 378.008 828.427 377.118 830.982 379.643C831.986 380.635 832.492 381.802 832.448 383.21C832.407 384.52 831.72 385.751 830.731 386.59C828.291 388.659 824.101 387.632 821.17 387.368L821.108 441.449L822.062 442.369C828.875 449.574 834.744 458.752 840.097 467.11C861.391 500.358 874.218 540.313 877.313 579.681C878.171 590.604 877.853 601.696 877.852 612.652L877.728 799.841L877.603 852.492C877.585 860.644 878.411 869.853 877.311 877.847C876.25 885.559 872.323 892.575 866.822 897.998C862.057 902.696 856.219 906.163 849.631 907.589C845.267 908.534 840.604 908.255 836.165 908.241L817.065 908.144L758.75 908.04L723.982 908.125C717.257 908.126 709.527 908.824 702.953 907.403C696.228 905.948 689.228 902.423 684.344 897.536C678.7 891.889 674.579 884.201 673.308 876.313C672.701 872.549 672.878 868.576 672.878 864.774L672.886 847.426L672.946 787.699L672.762 656.137C672.755 620.961 670.798 585.379 677.984 550.736C684.46 519.519 697.102 488.974 714.095 462.009C717.173 457.124 720.525 452.253 724.141 447.75C725.224 446.402 729.048 442.879 729.463 441.574C729.692 440.855 729.468 438.971 729.469 438.151L729.484 429.774L729.56 387.631C725.994 387.917 722.521 388.742 719.439 386.562C718.508 384.981 717.921 384.323 718.034 382.436C718.113 381.122 718.698 380.097 719.698 379.252C722.458 376.918 726.202 377.703 729.512 378.003L729.476 351.313L792.039 351.25Z"/>
	<path fill="#98D3F3" d="M456.427 181.414L560.305 181.269L560.362 181.346C559.472 181.46 559.22 181.546 558.39 182L558.483 221.166L645.264 323.193L645.597 689.903L645.624 810.079L645.644 848.94C645.644 855.441 646.054 862.281 645.473 868.75C644.906 875.071 642.178 882.05 638.822 887.384C632.42 897.559 622.183 903.991 610.623 906.708C606.296 907.725 601.807 907.602 597.383 907.628L475.072 907.676L440.101 907.69C431.346 907.69 422.11 908.247 413.5 906.513C405.443 904.891 398.252 900.184 392.493 894.43C385.407 887.349 380.756 878.395 379.577 868.393C379.023 863.695 379.329 858.652 379.297 853.919L379.186 825.555L379.131 735.434L379.147 434.004L379.149 347.608L379.225 329.591C379.241 327.981 378.953 324.495 379.529 323.112C380.007 321.962 381.72 320.232 382.524 319.211L393.408 306.106L449.27 238.866L460.57 225.061C461.651 223.766 463.742 222.032 464.503 220.616C464.966 219.756 464.506 214.396 464.509 213L464.606 181.512L456.427 181.414Z"/>
</svg>
