<?xml version="1.0" encoding="utf-8" ?>
<svg xmlns="http://www.w3.org/2000/svg" xmlns:xlink="http://www.w3.org/1999/xlink" width="1024" height="1024">
	<path fill="#7D0205" d="M-0 -0L1024 0L1024 1024L-0 1024L0 -0Z"/>
	<path fill="#DF1516" d="M423.423 205.898C422.717 209.997 423.159 214.804 423.127 218.989C414.373 219.048 406.582 219.169 399.777 212.75C394.98 208.225 391.593 201.645 391.344 195C391.094 188.321 393.066 182.788 397.748 177.953C405.386 170.068 413.341 169.94 423.575 169.79L423.423 205.898Z"/>
	<path fill="#DF1516" d="M601.01 170.013C609.865 170.026 617.684 169.579 625 175.517C630.281 179.804 633.196 185.418 633.833 192.172C634.577 200.074 631.641 206.057 626.801 211.975C618.555 219.308 611.436 219.009 601.046 219.363L601.01 170.013Z"/>
	<path fill="#00000D" d="M423.575 169.79C423.551 163.155 423.148 156.207 423.992 149.62C424.773 143.529 426.732 137.517 428.954 131.811C437.677 109.408 454.024 91.9964 476.075 82.3085C498.352 72.5213 521.311 72.3548 544 80.9895C555.149 85.2322 565.297 92.6761 573.676 101.078C586.815 114.254 598.278 131.846 600.298 150.769C601.149 158.743 600.565 167.377 600.622 175.421L600.635 219.872L591.905 219.987L591.902 167.5L591.956 151.527C591.963 148.138 592.182 144.698 591.561 141.354C591.359 139.66 591.08 138.328 590.424 136.75C587.315 136.152 578.971 140.869 575.801 142.307L512.457 172.506C512.447 172.51 511.488 172.951 511.484 172.95C509.066 172.45 504.962 169.495 502.581 168.232L477.816 155.397L434.592 134.925C431.235 150.304 431.938 165.717 431.908 181.37L431.703 219.141L423.549 219.112L423.423 205.898L423.575 169.79Z"/>
	<path fill="#F3B633" d="M760.013 360.451L760.117 235.347L891.922 374.116L816.737 565.899L908.328 566.154L886.485 582.485L783.263 660.648L722.561 706.69L706.701 718.79C703.871 720.933 701.044 723.377 697.918 725.061L742.352 539.878L753.215 493.048L757.686 473.561C758.896 468.315 760.382 463.011 760.249 457.578L760.013 360.451Z"/>
	<path fill="#F3B633" d="M326.648 728.566L170.337 607.692L141.127 585.356C133.33 579.562 123.819 573.697 117.335 566.471L205.589 566.483L132.16 374.001C138.317 368.704 143.839 362.416 149.394 356.493L172.675 331.823L264.893 233.869L264.971 359.719L264.791 426.759L264.752 444.679C264.742 447.791 265.02 451.578 264.42 454.602C264.356 461.703 267.541 470.096 269.09 477.119L281.504 533L313.431 672.478L326.648 728.566Z"/>
	<path fill="#DF1516" d="M431.908 181.37C431.938 165.717 431.235 150.304 434.592 134.925L477.816 155.397L502.581 168.232C504.962 169.495 509.066 172.45 511.484 172.95C511.488 172.951 512.447 172.51 512.457 172.506L575.801 142.307C578.971 140.869 587.315 136.152 590.424 136.75C591.08 138.328 591.359 139.66 591.561 141.354L591.454 200.71L591.492 219.75C591.706 226.457 592.041 233.682 591.344 240.363C589.62 256.886 581.217 273.709 569.45 285.326C563.812 290.892 558.304 294.122 551.457 297.854L551.508 317.475L682.365 317.613L705.664 317.559C707.246 317.552 711.43 317.051 712.723 317.523C715.062 318.379 719.062 322.914 720.977 324.629L743.951 345.522C749.246 350.494 754.411 355.834 760.013 360.451L760.249 457.578L688.864 537.435L610.481 537.159L593.114 537.12C591.135 537.116 588 536.644 586.311 537.529C584.203 537.068 581.806 537.316 579.64 537.319L566.383 537.344L513.207 537.454L515.817 357.352L454.199 537.482L337.227 537.591L286.977 481.484C279.352 472.673 271.066 464.194 264.42 454.602C265.02 451.578 264.742 447.791 264.752 444.679L264.791 426.759L264.971 359.719C270.385 354.917 308.743 318.202 311.151 317.517C313.149 316.949 317.472 317.529 319.662 317.532L346.577 317.566L471.81 317.348L471.914 297.803C466.62 294.538 461.193 291.119 456.633 286.863C443.049 274.189 434.571 257.128 432.388 238.666C431.614 232.12 431.983 225.329 432.068 218.75L431.908 181.37Z"/>
	<path fill="#00000D" d="M454.199 537.482L515.817 357.352L513.207 537.454L566.383 537.344L579.64 537.319C581.806 537.316 584.203 537.068 586.311 537.529C588 536.644 591.135 537.116 593.114 537.12L610.481 537.159L688.864 537.435L760.249 457.578C760.382 463.011 758.896 468.315 757.686 473.561L753.215 493.048L742.352 539.878L697.918 725.061L649.538 937.95L832.005 937.912L831.954 947.047L192.111 946.904L192.075 937.52L374.712 937.562L338.677 781.975L328.849 738.235C328.315 735.91 327.801 730.38 326.648 728.566L313.431 672.478L281.504 533L269.09 477.119C267.541 470.096 264.356 461.703 264.42 454.602C271.066 464.194 279.352 472.673 286.977 481.484L337.227 537.591L454.199 537.482Z"/>
	<path fill="#F3B633" d="M454.199 537.482L515.817 357.352L513.207 537.454L566.383 537.344L579.64 537.319C581.806 537.316 584.203 537.068 586.311 537.529L536.856 673.979L516.615 729.327C513.584 737.395 511.109 745.744 507.296 753.485L509.884 600.466L432.46 600.415L454.199 537.482Z"/>
</svg>
