<?xml version="1.0" encoding="utf-8" ?>
<svg xmlns="http://www.w3.org/2000/svg" xmlns:xlink="http://www.w3.org/1999/xlink" width="1024" height="1024">
	<path fill="#E52E47" d="M-0 -0L1024 0L1024 1024L-0 1024L0 -0Z"/>
	<path fill="#FEFEFE" d="M813.822 551.341L819.976 572.705L797.995 578.083C795.471 572.102 790.618 565.972 787.203 560.35C789.998 559.958 793.188 558.659 795.871 557.741L813.822 551.341Z"/>
	<path fill="#FEFEFE" d="M342.151 826.012L359.375 850.448L341.552 860.829L324.609 841.588C330.841 837.492 336.411 830.919 342.151 826.012Z"/>
	<path fill="#07146D" d="M341.552 860.829L364.762 949.219C365.109 951.127 365.115 953.174 363.75 954.699C362.52 956.074 361.498 956.262 359.75 956.475C358.406 955.945 357.631 955.466 356.7 954.343C347.418 943.147 339.808 929.765 331.75 917.653L290.565 856.086C292.395 854.504 295.197 853.428 297.39 852.318L312.5 844.928C315.331 843.519 320.219 840.142 323.25 839.918L324.609 841.588L341.552 860.829Z"/>
	<path fill="#07146D" d="M819.976 572.705L878.157 558.113C887.343 555.931 896.817 552.883 906.156 551.662C909.016 551.287 913.341 550.853 915.864 552.435C917.032 553.168 917.439 554.017 917.967 555.25C917.687 558.716 915.252 560.832 912.75 562.981C908.203 566.885 902.548 569.941 897.353 572.907L876.968 584.506L810.904 622.368L795.303 579.25C796.171 578.476 796.877 578.338 797.995 578.083L819.976 572.705Z"/>
	<path fill="#07146D" d="M484.784 188.212C483.7 187.379 482.694 186.49 481.797 185.456C472.735 175.015 467.298 161.233 468.233 147.297C469.179 133.192 474.551 121.323 485.347 112.024C497.462 101.587 512.858 98.2054 528.547 100.631C537.508 102.017 546.198 105.274 555.003 107.411C560.924 108.849 566.898 109.447 572.96 109.918C566.475 117.27 557.512 123.551 548.706 127.807C543.32 130.192 537.92 132.59 532.188 134.022C524.455 135.954 516.201 136.045 508.267 136.423C509.095 139.786 513.898 154.291 513.25 156.344L512 156.778C506.87 154.046 504.409 151.402 498.163 153.228C494.505 154.298 490.927 156.922 489.233 160.408C487.482 164.012 487.503 168.077 488.939 171.792C489.791 173.996 491.133 175.731 492.587 177.554C490.502 181.414 487.604 184.874 484.784 188.212Z"/>
	<path fill="#EEE698" d="M484.784 188.212C487.604 184.874 490.502 181.414 492.587 177.554C491.133 175.731 489.791 173.996 488.939 171.792C487.503 168.077 487.482 164.012 489.233 160.408C490.927 156.922 494.505 154.298 498.163 153.228C504.409 151.402 506.87 154.046 512 156.778L513.25 156.344C513.898 154.291 509.095 139.786 508.267 136.423C516.201 136.045 524.455 135.954 532.188 134.022C537.92 132.59 543.32 130.192 548.706 127.807C551.201 138.099 552.817 148.563 554.565 159C555.688 165.705 557.483 172.923 557.21 179.75C557.069 183.298 556.056 186.721 554.25 189.773C550.518 196.078 543.694 199.313 536.782 200.896C532.668 201.838 528.419 202.066 524.22 202.372C526.99 210.521 528.023 217.628 528.284 226.233C527.244 235.122 526.221 242.708 519.589 249.416C513.848 255.222 505.902 258.566 497.719 258.501C489.665 258.437 482.385 254.909 476.847 249.18C469.696 241.782 467.345 232.969 467.474 222.914C471.135 210.77 478.21 198.982 484.784 188.212Z"/>
	<path fill="#FEFEFE" d="M794.823 666.671C805.764 665.527 818.051 667.98 827.233 674.25C838.631 682.034 846.917 694.397 849.347 707.999C851.607 720.647 848.052 734.518 840.638 744.917C832.446 756.407 820.673 762.624 807.007 764.974C794.632 766.791 781.288 763.368 771.215 755.987C760.337 748.016 752.978 735.938 750.953 722.588C749.098 710.352 752.588 697.058 759.968 687.149C768.706 675.416 780.451 668.793 794.823 666.671Z"/>
	<path fill="#EEE698" d="M635.044 210.755C674.695 200.049 710.825 183.276 742.368 156.742C752.867 147.91 763.16 138.003 770.02 126C770.171 125.735 770.894 124.554 770.916 124.29C771.062 122.506 769.955 119.387 769.701 117.498C768.803 110.83 766.993 89.4326 775.085 86.6122C776.353 86.1703 778.47 86.4357 779.577 87.1371C781.049 88.0699 782.156 89.9498 782.465 91.6503C783.179 95.5813 783.073 99.7575 783.162 103.746C788.08 98.0627 806.25 73.55 811.75 73.1024C813.967 72.922 816.087 73.8682 817.577 75.4637C819.335 77.3463 819.789 79.2478 819.616 81.7804C819.38 85.2366 815.831 89.1089 814.371 92.3207L813.562 94.1052C817.534 91.2861 824.205 84.6625 829.217 85.5605C831.851 86.0326 834.278 87.9002 835.618 90.1901C836.639 91.9358 836.847 94.2965 836.397 96.25C835.491 100.183 830.862 104.8 828.316 107.858C830.298 108.826 834.343 110.324 835.287 112.406C836.233 114.491 835.78 117.352 834.638 119.258C832.912 122.139 829.861 124.816 827.581 127.321C821.075 134.47 814.465 143.057 805.447 147.13C803.092 148.194 800.489 148.778 798 149.45C797.6 149.558 795.552 149.937 795.272 150.187C794.433 150.936 793.495 152.877 792.84 153.859L786.571 162.936L771.71 181.65C746.231 211.713 715.715 235.961 681 254.524C674.9 257.786 668.558 261.705 662.116 264.167L635.044 210.755Z"/>
	<path fill="#F2A945" d="M309.559 225.625L309.37 285.955C305.627 284.748 300.558 284.659 296.639 284.485C283.553 283.905 270.765 284.72 258.047 287.951C226.398 295.992 201.073 319.548 181.735 344.906C176.872 351.284 172.052 357.645 167.974 364.567C168.543 367.113 170.104 369.736 171.208 372.104C174.046 378.185 177.692 384.855 179.658 391.263C180.239 393.16 180.554 396.021 179.413 397.764C178.388 399.33 176.68 400.99 174.755 401.25C170.285 401.855 166.218 394.49 162.831 392.186C155.544 393.377 148.775 419.168 141.035 423.278C139.468 424.11 138.009 424.099 136.335 423.675C134.346 423.171 133.57 421.747 132.652 420.088L132.424 419.65C131.099 419.638 129.197 419.805 127.962 419.294C125.794 418.397 123.67 416.302 122.809 414.112C122.152 412.443 122.101 410.895 122.89 409.259L123.858 407.015C122.535 406.758 121.098 406.881 119.75 406.883C116.815 405.257 115.895 403.086 114.593 400.158L116.46 394.75L115.964 394.863C114.517 395.063 113.085 394.398 111.977 393.503C110.567 392.365 109.151 390.345 108.959 388.5C108.904 387.971 108.874 387.422 108.876 386.891C108.882 385.92 108.954 384.976 109.354 384.08C110.729 381.001 113.943 378.516 116.399 376.326C121.745 371.556 127.262 366.798 133.091 362.63C136.351 360.298 141.631 357.695 143.995 354.464C147.607 349.527 150.373 342.921 152.905 337.324C160.645 320.217 166.517 303.105 178.334 288.177C191.391 271.683 208.055 259.074 226.301 248.798C238.867 241.72 251.913 235.855 265.938 232.323C280.155 228.744 295.021 227.339 309.559 225.625Z"/>
	<path fill="#FBC91A" d="M614.997 390.8L660.654 375.25L683.064 367.156C691.147 364.165 699.205 361.142 707.839 360.258C718.396 359.178 728.957 360.948 738.528 365.516C752.73 372.294 761.735 384.187 766.83 398.781L813.822 551.341L795.871 557.741C793.188 558.659 789.998 559.958 787.203 560.35L732.181 494.483C724.177 484.906 714.551 475.152 708.453 464.235C703.559 455.474 701.219 446.572 699.815 436.694C689.38 445.37 677.794 452.932 666.702 460.736L656.965 467.683C656.219 468.252 654.517 469.334 654.008 470.083C653.688 470.554 653.596 471.144 653.389 471.675L614.997 390.8Z"/>
	<path fill="#F2A945" d="M471.999 638.887L548.039 612.102C549.683 620.587 552.329 628.857 554.627 637.18L561.092 662C563.317 670.4 566.201 679.044 567.334 687.672C569.131 701.339 563.427 716.879 555.854 728.038C551.545 734.386 546.07 740.072 539.897 744.627C534.424 748.666 528.371 751.873 522.545 755.363L487.367 776.079L420.352 815.476L359.375 850.448L342.151 826.012C353.049 815.751 362.707 804.063 372.86 793.067L432.424 728.472L448.678 710.478C450.846 708.051 453.401 704.452 456.01 702.559C458.521 700.737 463.386 699.97 466.391 699.108C474.997 696.642 483.561 693.979 492.346 692.225L471.999 638.887Z"/>
	<path fill="#FEFEFE" d="M533.873 415.531C533.898 416.804 533.657 417.437 534.5 418.454L614.997 390.8L653.389 471.675C653.207 473.352 652.981 473.301 651.653 474.361C644.621 479.974 636.455 484.498 629.102 489.74L578.94 525.755L568.38 533.212C566.77 534.339 564.979 535.881 563.153 536.565C560.623 537.513 556.77 537.31 554.018 537.499L534.207 539.055L549.263 611.263L548.039 612.102L471.999 638.887L466.821 640.613L452.808 602.659L427.157 534.566L419.06 513.018C418.45 511.391 417.877 508.372 416.962 507C416.644 506.524 416.083 506.267 415.644 505.9C418.358 502.841 422.134 500.393 425.407 497.937L441.723 485.696L511.859 432.482C519.148 426.816 526.916 421.587 533.873 415.531Z"/>
	<path fill="#0785D3" d="M528.284 226.233C535.97 224.046 545.05 223.688 553.017 222.467L635.044 210.755L662.116 264.167L636.859 275.778L587.696 299.291L577.915 303.813C577.02 304.215 574.793 304.876 574.127 305.5C573.32 306.257 572.388 308.466 571.906 309.494L567.69 318.824C559.456 336.833 550.806 354.417 544.486 373.25C541.646 381.716 539.382 390.285 537.491 399.01C536.369 404.187 536.004 410.739 533.873 415.531C526.916 421.587 519.148 426.816 511.859 432.482L441.723 485.696L425.407 497.937C422.134 500.393 418.358 502.841 415.644 505.9L414.27 505.784C409.432 496.629 404.768 487.618 400.951 477.968C391.424 453.879 385.755 427.83 384.666 401.939C383.833 382.126 385.613 361.606 388.488 342L393.938 314.125L395.958 305.87C396.463 304.105 397.249 302.235 397.277 300.398L310.353 286.184L309.37 285.955L309.559 225.625L363.096 221.028L405.025 220.304C425.827 220.388 446.761 220.945 467.474 222.914C467.345 232.969 469.696 241.782 476.847 249.18C482.385 254.909 489.665 258.437 497.719 258.501C505.902 258.566 513.848 255.222 519.589 249.416C526.221 242.708 527.244 235.122 528.284 226.233Z"/>
	<path fill="#07146D" d="M408.53 295.154C410.276 295.108 412.291 294.914 413.957 295.509C416.419 296.387 418.838 298.552 419.92 300.934C420.874 303.036 420.787 306.379 419.863 308.494C418.42 311.796 415.828 313.516 412.575 314.777C410.8 314.838 409.04 314.925 407.362 314.249C404.458 313.079 402.341 310.58 401.129 307.757C400.194 305.581 399.912 302.954 400.961 300.746C402.438 297.634 405.495 296.271 408.53 295.154Z"/>
</svg>
