<?xml version="1.0" encoding="utf-8" ?>
<svg xmlns="http://www.w3.org/2000/svg" xmlns:xlink="http://www.w3.org/1999/xlink" width="1024" height="1024">
	<path fill="#065242" d="M-0 -0L1024 0L1024 1024L-0 1024L0 -0Z"/>
	<path fill="#E1883B" d="M469.701 135.135C471.618 122.288 477.337 111.584 487.834 103.74C491.965 100.653 496.527 98.6745 501.5 97.3961L502.437 97.1495C513.087 94.4512 524.249 96.531 533.579 102.153C542.665 107.628 549.75 116.52 552.214 126.923C552.875 129.714 553.519 132.542 553.658 135.412L547.269 132.605C522.163 122.531 494.244 124.67 469.701 135.135Z"/>
	<path fill="#010618" d="M190.813 415.828L189.743 415.646C183.715 410.336 177.689 404.956 172.613 398.699C161.65 385.183 155.414 368.955 153.134 351.806C150.267 330.24 157.121 307.732 170.09 290.503C172.365 287.48 174.911 284.763 177.63 282.131C192.599 267.637 212.906 260.839 233.5 261.516C255.221 262.23 274.739 272.428 289.099 288.414C302.992 303.879 308.676 325.377 307.488 345.75C306.127 369.089 295.144 391.578 278.49 407.715C276.487 409.656 274.45 411.929 272.25 413.632C271.536 414.184 270.886 414.488 270.072 414.865C265.167 420.583 260.036 425.813 253.515 429.731C244 435.452 232.503 438.424 221.459 435.804C215.986 434.505 211.512 432.577 206.497 430.019C200.671 425.488 195.737 421.424 190.813 415.828Z"/>
	<path fill="#F7DAAD" d="M190.813 415.828C176.378 395.098 171.581 372.078 171.548 347.065L181.93 345.785C196.801 343.464 210.947 337.552 221.367 326.43C224.766 322.801 227.625 318.457 230.572 314.449C233.212 318.554 235.8 322.787 239.118 326.387C252.729 341.151 269.691 345.97 289.238 346.647C289.34 363.997 287.134 381.501 280.037 397.5C277.316 403.632 273.722 409.259 270.072 414.865C265.167 420.583 260.036 425.813 253.515 429.731C244 435.452 232.503 438.424 221.459 435.804C215.986 434.505 211.512 432.577 206.497 430.019C200.671 425.488 195.737 421.424 190.813 415.828Z"/>
	<path fill="#010618" d="M755.846 413.9C753.529 413.397 751.617 411.104 749.858 409.494C742.639 402.886 736.549 395.803 731.279 387.539C719.491 369.053 714.584 343.693 719.323 322.212C723.879 301.563 736.415 282.774 754.406 271.474C770.939 261.09 792.223 257.087 811.311 261.429C833.548 266.489 851.037 278.345 863.105 297.86C874.433 316.178 877.325 339.21 872.408 360.023C867.581 380.46 857.909 397.572 842.643 412.02C840.146 414.383 836.751 418.09 833.751 419.602L832.071 420.237C828.941 422.994 825.775 425.318 822.25 427.546C818.495 429.97 814.475 431.934 810.198 433.253C796.237 437.559 784.126 434.682 771.515 428.106C765.513 423.971 760.498 419.505 755.846 413.9Z"/>
	<path fill="#F7DAAD" d="M755.846 413.9C752.474 409.153 749.345 404.457 746.972 399.11C739.895 383.162 738.738 365.086 739.559 347.894C760.285 345.2 781.046 338.669 794.31 321.312L797.098 317.468C799.466 321.383 801.887 325.508 804.973 328.907C812.386 337.068 823.996 341.867 834.5 344.515C840.695 346.076 847.024 346.548 853.391 346.612C854.7 372.704 850.73 399.068 832.881 419.362L832.071 420.237C828.941 422.994 825.775 425.318 822.25 427.546C818.495 429.97 814.475 431.934 810.198 433.253C796.237 437.559 784.126 434.682 771.515 428.106C765.513 423.971 760.498 419.505 755.846 413.9Z"/>
	<path fill="#010618" d="M469.701 135.135C494.244 124.67 522.163 122.531 547.269 132.605L553.658 135.412C580.178 148.599 600.093 168.744 609.719 197.164C618.513 223.125 615.338 251.9 603.25 276.291C593.683 295.596 578.803 312.445 560.147 323.339L558.947 323.36C554.786 327.228 550.481 331.417 545.534 334.277C537.668 338.871 529.588 342.785 520.5 344.133L519.778 344.251C510.178 345.744 498.821 344.031 489.86 340.325C486.408 338.897 483.296 336.888 479.929 335.326L465.468 323.887C462.43 322.908 459.291 320.209 456.75 318.255C443.047 307.72 431.73 294.87 423.695 279.514C410.738 254.748 407.015 224.791 415.551 198C422.543 176.053 435.538 157.474 454.352 144.064C459.222 140.592 464.419 137.906 469.701 135.135Z"/>
	<path fill="#F7DAAD" d="M465.468 323.887C459.769 317.014 454.501 310.089 450.345 302.143C438.637 279.758 436.234 252.822 437.462 227.955C445.128 227.541 452.663 227.019 460.191 225.391C473.59 222.494 489.018 215.788 498.7 205.836C503.672 200.725 507.381 194.939 511.236 188.985C513.657 193.764 516.408 198.55 519.979 202.569C536.985 221.711 561.483 226.909 585.956 228.256C586.92 256.285 585.554 285.238 569.899 309.539C566.724 314.468 562.75 318.909 558.947 323.36C554.786 327.228 550.481 331.417 545.534 334.277C537.668 338.871 529.588 342.785 520.5 344.133L519.778 344.251C510.178 345.744 498.821 344.031 489.86 340.325C486.408 338.897 483.296 336.888 479.929 335.326L465.468 323.887Z"/>
	<path fill="#CC2A29" d="M771.515 428.106C784.126 434.682 796.237 437.559 810.198 433.253C814.475 431.934 818.495 429.97 822.25 427.546C822.595 433.31 823.073 439.2 824.372 444.839C824.783 446.625 825.313 448.947 826.463 450.413C833.277 454.388 841.577 456.346 849 459.016C861.688 463.581 873.571 469.227 885.079 476.273C889.211 478.804 893.555 481.355 897.322 484.401C918.275 502.829 930.108 529.358 937.353 555.822C941.53 571.075 944.419 586.441 945.467 602.25C947.196 628.351 945.796 662.651 927.505 683.143C920.72 690.745 911.806 694.936 901.611 695.464C892.411 695.941 883.819 693.421 875.512 689.633L875.399 690.151C875.11 693.044 877.304 698.028 878.089 700.99C881.85 715.167 887.395 728.512 895.501 740.773C901.504 749.852 908.954 758.292 916.439 766.186C935.596 786.386 968.096 816.797 967.142 846.5C966.668 861.247 958.466 873.973 947.882 883.666C907.201 920.926 825.135 928.749 771.758 926.273C734.305 924.536 697.859 918.887 663.901 902.234C674.685 896.15 684.987 890.861 694.25 882.427C707.169 870.665 718.887 854.846 719.514 836.7C720.537 807.084 696.61 783.775 677.934 763.498C690.569 751.22 701.898 737.476 708.647 721.036C712.898 710.684 715.422 699.68 717.929 688.805L707.755 693.183C696.265 697.366 684.037 696.488 673.03 691.247C660.199 685.137 652.783 673.726 648.097 660.801C648.43 660.46 654.565 659.712 655.687 659.428C668.672 656.136 679.055 646.076 685.636 634.771C692.811 622.446 696.641 608.644 698.958 594.659C704.421 561.68 701.532 526.128 692.91 493.913L690.051 484.479C695.928 482.143 701.6 478.798 707.452 476.248L747.769 459.496L760.5 454.515C762.769 453.699 765.56 453.165 767.384 451.538C769.795 443.744 771.54 436.366 771.515 428.106Z"/>
	<path fill="#F7DAAD" d="M801.18 604.844C799.36 598.36 797.572 591.079 796.765 584.399C795.933 577.515 796.272 570.36 796.352 563.437C796.487 551.73 796.3 539.328 799.193 527.928L799.434 527C800.207 523.956 801.236 521.375 802.594 518.549L805.662 521.418C815.812 531.708 820.19 559.396 821.264 573.405C821.682 578.854 821.413 584.464 821.354 589.93C814.06 593.551 807.308 599.496 801.18 604.844Z"/>
	<path fill="#F7DAAD" d="M769.398 581.24C769.764 565.108 772.763 547.469 778.76 532.431C780.38 528.37 782.859 522.92 786.25 520.049C786.712 519.658 787.211 519.417 787.75 519.153C789.821 520.257 790.625 522.135 791.244 524.304C794.577 535.985 794.371 549.483 794.446 561.556C794.498 569.982 794.696 578.689 793.506 587.044C792.608 593.349 790.804 599.389 788.844 605.432C787.189 605.017 785.121 602.936 783.748 601.878L769.486 590.543L769.398 581.24Z"/>
	<path fill="#E1883B" d="M771.515 428.106C784.126 434.682 796.237 437.559 810.198 433.253C814.475 431.934 818.495 429.97 822.25 427.546C822.595 433.31 823.073 439.2 824.372 444.839C824.783 446.625 825.313 448.947 826.463 450.413L826.304 450.847C825.347 453.514 824.938 456.304 823.971 458.962C821.225 466.515 816.012 472.438 808.741 475.924C802.119 479.098 794.46 479.522 787.551 476.996C779.462 474.038 773.731 468.023 770.369 460.182L767.384 451.538C769.795 443.744 771.54 436.366 771.515 428.106Z"/>
	<path fill="#E1883B" d="M692.91 493.913C706.848 504.538 711.61 533.953 714.397 550.519L717.72 571.29L722.08 610.712L768.983 590.18C769.051 587.351 768.814 583.979 769.398 581.24L769.486 590.543L783.748 601.878C785.121 602.936 787.189 605.017 788.844 605.432C785.634 618.263 779.153 630.158 771.588 640.912C759.757 657.729 744.691 672.9 727 683.555L720.25 687.41C719.671 687.73 718.267 688.31 717.929 688.805L707.755 693.183C696.265 697.366 684.037 696.488 673.03 691.247C660.199 685.137 652.783 673.726 648.097 660.801C648.43 660.46 654.565 659.712 655.687 659.428C668.672 656.136 679.055 646.076 685.636 634.771C692.811 622.446 696.641 608.644 698.958 594.659C704.421 561.68 701.532 526.128 692.91 493.913Z"/>
	<path fill="#E1883B" d="M897.322 484.401C918.275 502.829 930.108 529.358 937.353 555.822C941.53 571.075 944.419 586.441 945.467 602.25C947.196 628.351 945.796 662.651 927.505 683.143C920.72 690.745 911.806 694.936 901.611 695.464C892.411 695.941 883.819 693.421 875.512 689.633L868.028 685.338C838.333 667.554 809.86 639.273 801.18 604.844C807.308 599.496 814.06 593.551 821.354 589.93C821.587 590.26 821.727 590.682 822.053 590.919C822.634 591.341 824.21 591.602 824.949 591.856L831.177 594.238L869.359 609.511C869.6 597.132 873.47 583.712 876.191 571.604L888.105 520.452L897.322 484.401Z"/>
	<path fill="#159B70" d="M206.497 430.019C211.512 432.577 215.986 434.505 221.459 435.804C232.503 438.424 244 435.452 253.515 429.731L253.35 448.726C255.686 450.135 259.091 450.801 261.724 451.549C265.247 451.771 269.176 453.518 272.539 454.626C287.405 459.522 302.241 465.04 316.025 472.513L326.924 478.758C329.104 480.135 331.262 482.021 333.588 483.082C325.323 509.744 322.574 536.596 322.891 564.389C324.978 592.165 327.706 627.232 350.246 646.829C358.424 653.939 366.231 656.117 376.488 658.692C373.873 671.629 368.028 683.806 356.786 691.337C346.626 698.143 333.747 699.382 321.972 697.046L312.5 694.396C312.642 718.983 322.38 737.347 339.626 754.394C342.481 757.216 345.433 760.175 348.728 762.48C342.797 768.274 337.659 774.821 332.362 781.185C319.207 796.992 306.182 812.549 305.842 834.137C305.571 851.338 314.043 867.326 325.889 879.371C336.656 890.319 351.104 897.976 364.912 904.35C357.692 908.313 348.294 910.858 340.356 913.083C301.808 923.886 260.944 928.058 220.966 926.172C185.947 924.519 150.88 919.587 118 907.024C100.796 900.45 83.2038 891.128 70.8703 877.089C61.1429 866.016 55.3251 849.837 58.2909 835.159C60.3073 825.181 65.0146 817.351 70.5009 809C78.5134 796.804 87.7464 785.877 97.9402 775.45C106.974 766.209 117.167 757.7 125.267 747.606C138.214 731.473 147.844 714.761 149.073 693.712C140.143 696.955 131.843 698.923 122.26 697.985C112.457 697.025 104.107 692.292 97.9638 684.649C82.7024 665.661 80.6105 637.295 80.3835 613.927C80.2764 602.899 80.4562 591.993 81.6057 581.021C85.5665 543.215 99.5524 507.433 129.801 482.968L129.992 482.819C145.531 469.691 164.583 460.939 183.74 454.572C189.214 452.753 194.959 450.696 200.702 450.03L206.828 449.153L206.497 430.019Z"/>
	<path fill="#F7DAAD" d="M209.251 586.857L209.03 584.43C207.817 565.254 216.791 534.678 229.596 520.093L230.649 519.064C232.179 541.488 232.903 563.59 231.451 586.054C231.05 592.253 229.541 598.374 229.134 604.519L228.521 604.34C220.396 601.802 213.209 594.122 209.251 586.857Z"/>
	<path fill="#F7DAAD" d="M238.781 604.376L237.814 517.849C244.454 527.422 250.943 536.589 254.425 547.84C257.028 556.253 262.223 579.076 258.395 586.292C253.591 594.164 247.207 600.434 238.781 604.376Z"/>
	<path fill="#CC2A29" d="M206.497 430.019C211.512 432.577 215.986 434.505 221.459 435.804C232.503 438.424 244 435.452 253.515 429.731L253.35 448.726C255.686 450.135 259.091 450.801 261.724 451.549C260.861 456.872 260.098 462.047 257.25 466.734C252.867 473.948 245.631 478.78 237.442 480.605C230.02 482.259 221.895 480.807 215.527 476.682C205.777 470.368 202.952 460.751 200.702 450.03L206.828 449.153L206.497 430.019Z"/>
	<path fill="#CC2A29" d="M322.891 564.389C324.978 592.165 327.706 627.232 350.246 646.829C358.424 653.939 366.231 656.117 376.488 658.692C373.873 671.629 368.028 683.806 356.786 691.337C346.626 698.143 333.747 699.382 321.972 697.046L312.5 694.396C298.127 688.638 284.642 681.372 273.29 670.648C257.722 655.941 247.004 637.175 241.364 616.618C240.29 612.704 238.876 608.452 238.781 604.376C247.207 600.434 253.591 594.164 258.395 586.292C261.659 591.841 267.692 595.566 273.077 598.778C286.528 606.802 300.893 612.191 315.903 616.472L320.453 577.604C321.07 573.438 321.356 568.777 322.736 564.808L322.891 564.389Z"/>
	<path fill="#CC2A29" d="M149.073 693.712C140.143 696.955 131.843 698.923 122.26 697.985C112.457 697.025 104.107 692.292 97.9638 684.649C82.7024 665.661 80.6105 637.295 80.3835 613.927C80.2764 602.899 80.4562 591.993 81.6057 581.021C85.5665 543.215 99.5524 507.433 129.801 482.968C146.047 514.645 158.722 547.134 158.805 583.25C158.819 589.503 158.626 595.808 158.023 602.034L157.179 610.5C156.945 612.334 156.361 614.434 156.522 616.259C170.554 610.787 184.51 605.256 197.231 597.044C201.584 594.235 206.283 591.19 209.251 586.857C213.209 594.122 220.396 601.802 228.521 604.34L229.134 604.519C228.632 610.379 226.561 615.938 224.523 621.417C217.165 641.198 206.269 657.764 190.092 671.436C178.314 681.391 163.707 688.931 149.073 693.712Z"/>
	<path fill="#010618" d="M479.929 335.326C483.296 336.888 486.408 338.897 489.86 340.325C498.821 344.031 510.178 345.744 519.778 344.251L520.5 344.133C529.588 342.785 537.668 338.871 545.534 334.277L545.465 360.676L569.55 367.846C594.899 376.382 621.543 388.756 642.421 405.704C644.839 406.302 647.497 409.598 649.179 411.407C656.711 419.506 663.73 428.517 669.427 438C678.178 452.568 685.137 468.21 690.051 484.479L692.91 493.913C701.532 526.128 704.421 561.68 698.958 594.659C696.641 608.644 692.811 622.446 685.636 634.771C679.055 646.076 668.672 656.136 655.687 659.428C654.565 659.712 648.43 660.46 648.097 660.801C652.783 673.726 660.199 685.137 673.03 691.247C684.037 696.488 696.265 697.366 707.755 693.183L717.929 688.805C715.422 699.68 712.898 710.684 708.647 721.036C701.898 737.476 690.569 751.22 677.934 763.498C696.61 783.775 720.537 807.084 719.514 836.7C718.887 854.846 707.169 870.665 694.25 882.427C684.987 890.861 674.685 896.15 663.901 902.234C616.319 924.836 562.586 928.108 510.743 927.984C465.946 927.877 420.265 924.673 377.756 909.388L364.912 904.35C351.104 897.976 336.656 890.319 325.889 879.371C314.043 867.326 305.571 851.338 305.842 834.137C306.182 812.549 319.207 796.992 332.362 781.185C337.659 774.821 342.797 768.274 348.728 762.48C345.433 760.175 342.481 757.216 339.626 754.394C322.38 737.347 312.642 718.983 312.5 694.396L321.972 697.046C333.747 699.382 346.626 698.143 356.786 691.337C368.028 683.806 373.873 671.629 376.488 658.692C366.231 656.117 358.424 653.939 350.246 646.829C327.706 627.232 324.978 592.165 322.891 564.389C322.574 536.596 325.323 509.744 333.588 483.082C334.73 478.156 337.144 473.032 339.064 468.355C348.731 444.799 362.955 421.108 383.504 405.495C386.374 402.304 391.095 399.648 394.706 397.218C420.665 379.751 449.961 368.925 480.133 361.194L479.929 335.326Z"/>
	<path fill="#F7DAAD" d="M513.036 464.604C513.797 460.59 514.586 457.047 518.259 454.616C519.303 453.924 520.786 453.387 522.016 453.72C523.96 454.247 525.117 456.152 525.995 457.825C528.091 461.823 529.409 466.487 530.838 470.761C532.984 477.182 535.482 484.357 536.279 491.093C537.145 498.414 536.567 506.343 536.527 513.716C536.501 518.728 536.857 524.08 536.109 529.039C534.255 537.869 532.163 544.66 526.829 552.135C525.133 554.512 523.379 556.837 520.92 558.488L519.663 559.222C517.166 554.682 515.807 548.848 514.19 543.9C512.154 532.074 512.724 520.05 512.697 508.083L513.036 464.604Z"/>
	<path fill="#F7DAAD" d="M484.419 529.832C484.767 529.471 485.275 529.214 485.463 528.75C485.908 527.654 485.436 523.786 485.43 522.455C485.393 514.551 484.972 506.373 485.633 498.5C486.024 493.841 487.19 488.742 488.523 484.25C490.158 478.74 497.238 456.239 501.865 454.018C503.065 453.442 503.797 453.456 505 453.957C508.098 455.248 509.712 459.136 510.789 462.089C511.803 471.841 511.081 482.271 511.043 492.095L510.952 517.02C510.912 525.333 510.883 533.446 509.205 541.626L504.501 557.493C499.47 553.636 494.698 545.963 491.625 540.42L487.406 532.658C487.133 532.201 486.451 530.775 486.088 530.484C485.622 530.111 484.975 530.049 484.419 529.832Z"/>
	<path fill="#CC2A29" d="M479.929 335.326C483.296 336.888 486.408 338.897 489.86 340.325C498.821 344.031 510.178 345.744 519.778 344.251L520.5 344.133C529.588 342.785 537.668 338.871 545.534 334.277L545.465 360.676C545.631 371.481 544.396 380.228 536.49 388.315C529.788 395.172 521.7 398.058 512.193 398.068C510.501 398.07 508.923 397.937 507.25 397.67L506.388 397.539C498.245 396.229 490.025 390.76 485.281 384.059C480.249 376.953 480.193 369.516 480.133 361.194L479.929 335.326Z"/>
	<path fill="#065242" d="M376.488 658.692C389.288 661.118 401.925 658.065 413.754 653.203L407.671 690.004L406.043 700.073C405.786 701.783 405.729 704.301 405.082 705.883C404.303 707.79 400.185 710.508 398.552 711.979L384.821 725.017L348.728 762.48C345.433 760.175 342.481 757.216 339.626 754.394C322.38 737.347 312.642 718.983 312.5 694.396L321.972 697.046C333.747 699.382 346.626 698.143 356.786 691.337C368.028 683.806 373.873 671.629 376.488 658.692Z"/>
	<path fill="#065242" d="M613.442 654.624C624.841 659.092 635.773 661.618 648.097 660.801C652.783 673.726 660.199 685.137 673.03 691.247C684.037 696.488 696.265 697.366 707.755 693.183L717.929 688.805C715.422 699.68 712.898 710.684 708.647 721.036C701.898 737.476 690.569 751.22 677.934 763.498C674.528 758.873 669.542 754.611 665.448 750.51L631.947 718.326L623.838 710.723C622.832 709.774 620.863 708.276 620.149 707.145C619.669 706.384 619.455 704.69 619.25 703.755C618.4 699.871 617.903 695.908 617.431 691.963L613.442 654.624Z"/>
	<path fill="#FAF5E4" d="M333.588 483.082C334.73 478.156 337.144 473.032 339.064 468.355C348.731 444.799 362.955 421.108 383.504 405.495C405.458 452.61 409.184 506.708 409.005 558.053C426.696 553.355 443.84 548.196 460.72 541.025L475.91 534.098C478.64 532.73 481.55 530.809 484.419 529.832C484.975 530.049 485.622 530.111 486.088 530.484C486.451 530.775 487.133 532.201 487.406 532.658L491.625 540.42C494.698 545.963 499.47 553.636 504.501 557.493C488.559 597.261 454.641 635.718 414.789 652.77L413.754 653.203C401.925 658.065 389.288 661.118 376.488 658.692C366.231 656.117 358.424 653.939 350.246 646.829C327.706 627.232 324.978 592.165 322.891 564.389C322.574 536.596 325.323 509.744 333.588 483.082Z"/>
	<path fill="#FAF5E4" d="M642.421 405.704C644.839 406.302 647.497 409.598 649.179 411.407C656.711 419.506 663.73 428.517 669.427 438C678.178 452.568 685.137 468.21 690.051 484.479L692.91 493.913C701.532 526.128 704.421 561.68 698.958 594.659C696.641 608.644 692.811 622.446 685.636 634.771C679.055 646.076 668.672 656.136 655.687 659.428C654.565 659.712 648.43 660.46 648.097 660.801C635.773 661.618 624.841 659.092 613.442 654.624C603.523 649.966 593.817 644.828 584.773 638.612C556.146 618.936 533.563 590.998 519.663 559.222L520.92 558.488C523.379 556.837 525.133 554.512 526.829 552.135C532.163 544.66 534.255 537.869 536.109 529.039L613.936 558.615C612.986 525.122 615.426 490.847 623.154 458.2C627.373 440.378 633.526 421.78 642.421 405.704Z"/>
</svg>
