<?xml version="1.0" encoding="utf-8" ?>
<svg xmlns="http://www.w3.org/2000/svg" xmlns:xlink="http://www.w3.org/1999/xlink" width="1024" height="1024">
	<path fill="#E54640" d="M-0 -0L1024 0L1024 1024L-0 1024L0 -0Z"/>
	<path fill="#E5E5E3" d="M623.063 549.584L790.105 549.867L563.123 738.394L562.966 628.244L562.99 611.647C562.991 610.523 562.624 607.223 562.998 606.292C563.704 604.536 568.519 600.731 570.054 599.249L607.338 564.398C612.423 559.638 617.966 555.093 622.692 549.991L623.063 549.584Z"/>
	<path fill="#E5E5E3" d="M622.543 473.114C621.973 470.266 567.912 425.256 561.894 419.866L562.012 281.061L788.32 472.488C781.11 473.402 773.616 473.274 766.351 473.359L731.269 473.454L623.457 473.25L622.599 473.202L622.543 473.114Z"/>
	<path fill="#FEFEFE" d="M788.32 472.488L819.641 498.478C824.95 502.932 830.831 507.275 835.602 512.29L790.105 549.867L623.063 549.584L189.932 549.947C189.259 548.366 189.644 545.472 189.649 543.716L189.688 528.543L189.578 472.872L622.543 473.114L622.599 473.202L623.457 473.25L731.269 473.454L766.351 473.359C773.616 473.274 781.11 473.402 788.32 472.488Z"/>
</svg>
