<?xml version="1.0" encoding="utf-8" ?>
<svg xmlns="http://www.w3.org/2000/svg" xmlns:xlink="http://www.w3.org/1999/xlink" width="1024" height="1024">
	<path fill="#EEA268" d="M-0 -0L1024 0L1024 1024L-0 1024L0 -0Z"/>
	<path fill="#EEA268" d="M495.348 81.7167C516.563 80.9096 538.133 81.4107 559.23 83.8698C643.812 93.7288 726.857 130.376 790.999 186.402C818.633 210.54 843.468 237.316 864.505 267.431C908.965 331.077 935.362 409.413 940.433 486.732C945.462 563.396 929.343 642.492 893.882 710.767C877.584 742.146 856.736 771.912 833.341 798.399C770.355 869.714 682.718 918.679 589.135 935.567C569.209 939.163 549.387 940.721 529.218 941.939C502.271 942.884 474.844 941.872 448.162 937.87C364.613 925.339 286.758 887.054 223.819 831.145C213.954 822.382 204.521 812.628 195.615 802.89C128.042 729.006 88.1771 634.432 82.3855 534.453C77.3394 447.344 101.17 359.235 147.213 285.332C161.448 262.483 178.114 241.074 196.058 221.032C224.549 189.211 258.972 162.289 295.653 140.589C319.137 126.696 343.932 114.591 369.725 105.623C410.356 91.4966 452.458 83.9367 495.348 81.7167Z"/>
	<path fill="#2B6D82" d="M500.996 183.219L501.56 183.183C523.885 182.063 546.951 184.199 568.934 188.092C581.865 190.382 594.693 193.009 607.287 196.77C656.042 211.329 700.155 236.907 737.525 271.296C750.2 282.96 761.522 295.953 772.018 309.591C814.334 364.576 837.422 430.179 840.199 499.444C843.69 586.502 812.15 672.017 753.054 736.023C710.592 782.013 655.323 815.928 594.585 831.567C570.703 837.716 546.245 840.804 521.64 841.776L520.75 841.831C510.075 842.352 499.242 841.702 488.59 840.975C425.78 836.691 364.227 813.127 314.156 774.995C306.448 769.125 299.193 762.622 292.026 756.113C280.115 745.297 268.6 733.903 258.318 721.51C214.472 668.665 186.46 599.652 183.188 530.928C182.086 507.791 182.73 484.279 186.233 461.355C195.863 398.33 225.171 338.094 268.004 291.013C319.329 234.598 389.349 197.564 464.707 186.281C476.693 184.486 488.898 183.796 500.996 183.219Z"/>
	<path fill="#EEA268" d="M509.834 234.723L510.553 234.694C527.502 234.1 545.608 236.3 562.25 239.466C575.966 242.076 589.695 245.193 602.921 249.706C638.804 261.948 672.594 282.411 700.334 308.215C738.233 343.467 766.288 389.888 779.461 439.984C784.927 460.773 787.625 482.116 788.36 503.573C790.798 574.821 763.184 648.168 714.444 700.234C673.914 743.53 621.716 773.704 563.281 784.952C547.125 788.062 530.941 789.371 514.522 789.928C445.357 790.846 376.642 763.88 325.499 717.499C271.259 668.309 237.169 597.615 234.541 524.217C231.911 450.785 257.742 378.108 307.667 323.999C343.314 285.365 391.181 256.128 442.343 243.499C464.599 238.005 486.984 235.654 509.834 234.723Z"/>
</svg>
