<?xml version="1.0" encoding="utf-8" ?>
<svg xmlns="http://www.w3.org/2000/svg" xmlns:xlink="http://www.w3.org/1999/xlink" width="1024" height="1024">
	<path fill="#EB6F16" d="M-0 -0L1024 0L1024 1024L-0 1024L0 -0Z"/>
	<path d="M492.987 80.2164C509.624 79.0546 526.785 79.8576 543.386 81.17C625.951 87.6977 703.773 120.047 766.707 173.809C817.983 217.612 858.708 274.384 881.116 338.209C890.14 363.913 895.945 390.518 899.036 417.577C900.321 428.821 901.291 440.43 901.349 451.75C901.358 453.534 900.832 465.31 901.238 466.004C901.857 467.063 903.863 468.571 904.777 469.48L913.25 478.137C927.117 493.128 934.671 511.946 936.217 532.147C938.728 564.94 920.372 595.247 893.038 612.289C890.341 613.971 887.504 615.472 884.593 616.75L876.967 619.752C876.496 619.936 874.667 620.479 874.38 620.761C873.171 621.952 870.372 634.407 869.507 637.25C864.78 652.777 859.063 668.053 852.546 682.919C834.275 724.601 811.622 763.001 781.836 797.528C737.495 848.926 678.886 890.073 613.587 909.79C587.355 917.711 560.89 921.919 533.623 923.925C486.693 926.649 439.079 920.761 394.709 904.995C320.882 878.762 258.23 826.558 214.358 762.115C199.673 740.545 187.324 717.439 176.721 693.618C168.948 676.155 162.606 658.111 157.08 639.818L152.748 624.963C152.518 624.18 151.884 621.207 151.458 620.809C150.982 620.364 148.525 619.742 147.75 619.466C144.413 618.278 141.172 617.097 138 615.507C130.872 611.934 124.314 607.478 118.346 602.182C100.361 586.222 90.4265 564.563 89.1494 540.672C87.8208 515.819 96.5356 492.402 114.008 474.718C115.353 473.356 122.844 467.461 123.216 466.549C123.436 466.009 123.179 463.681 123.172 462.989L123.186 452.237C123.484 438.609 124.245 424.964 125.988 411.438C135.979 333.879 170.897 264.171 223.007 206.453C235.007 193.162 248.345 181.228 262.095 169.802C272.827 160.884 283.815 152.262 295.43 144.513C354.099 105.366 422.728 83.8464 492.987 80.2164Z"/>
	<path fill="#FEC066" d="M164.78 471.679C168.189 471.158 172.221 471.534 175.702 471.51C171.233 501.71 170.475 533.444 174.506 563.75C176.395 577.954 179.512 591.86 183.156 605.703C168.376 606.594 154.637 602.414 142.01 594.934L136.062 590.861C121.599 579.872 112.082 563.851 109.645 545.826C107.22 527.882 111.13 510.187 122.243 495.747C132.985 481.79 147.483 473.98 164.78 471.679Z"/>
	<path fill="#FEC066" d="M848.325 467.468L855 467.665C872.07 468.952 888.71 479.949 899.58 492.655C911.654 506.767 917.153 524.917 915.643 543.325C914.153 561.494 904.929 577.755 891.182 589.491C877.018 600.683 859.39 605.578 841.477 603.981C850.097 573.158 853.666 540.186 852.416 508.218C851.885 494.618 850.142 480.953 848.325 467.468Z"/>
	<path fill="#FEC066" d="M642.255 336.861L651.146 349.75C672.106 379.101 698.245 404.786 727.689 425.571C745.176 437.915 763.782 448.59 783.854 456.187C798.387 461.688 813.348 465.076 828.634 467.606C830.676 481.232 832.659 494.523 833.385 508.303C835.34 545.385 828.446 583.431 816.776 618.499C795.416 682.682 752.982 738.463 697.761 777.229C686.017 785.473 673.981 793.173 661.138 799.613C589.769 835.4 509.897 844.942 432.248 826.227C421.993 823.755 411.881 820.331 401.878 817.001C341.892 796.077 289.734 757.169 252.266 705.908C213.926 653.454 191.662 588.708 191.536 523.553C191.504 506.752 193.328 489.422 195.921 472.846L220.953 473.639C269.933 474.796 319.35 472.378 367.75 464.497C392.901 460.401 417.641 454.3 442.086 447.166C502.171 429.63 560.305 403.899 610.021 365.369C621.461 356.503 631.801 346.832 642.255 336.861Z"/>
	<path d="M504.433 682.712L505.898 682.572C528.765 681.147 552.706 686.341 572.603 697.743C576.496 699.974 580.734 702.37 584.045 705.429C585.902 707.144 587.07 709.328 587.112 711.898C587.154 714.485 585.833 717.055 583.916 718.76C581.792 720.649 578.604 721.387 575.86 720.701C571.643 719.648 567.053 715.504 563.189 713.302C550.522 706.082 535.148 701.56 520.624 700.499C500.077 699.274 479.063 703.335 461.084 713.581C457.072 715.868 451.79 721.002 447.25 721.562C444.786 721.865 442.229 721.464 440.284 719.844C438.311 718.201 437.144 715.386 436.947 712.87C436.738 710.197 437.405 708.118 439.157 706.092C441.495 703.39 446.003 701.475 449.11 699.778C466.755 690.138 484.341 684.58 504.433 682.712Z"/>
	<path d="M649.814 500.717C661.714 500.001 674.819 504.367 684.25 511.509C696.123 520.5 703.365 533.779 705.198 548.548C706.948 562.649 702.079 577.638 693.334 588.673C683.616 600.935 670.035 607.188 654.794 608.988C640.656 609.202 628.229 605.795 617.142 596.756C606.112 587.762 598.816 574.868 597.538 560.622C596.203 545.747 600.185 531.272 609.955 519.853C620.383 507.663 634.104 501.907 649.814 500.717Z"/>
	<path fill="#FEFEFE" d="M663.653 519.565C666.833 519.475 669.344 519.492 672.328 520.826C676.399 522.646 679.312 526.13 680.75 530.311C682.168 534.432 681.94 538.611 679.898 542.458C677.383 547.193 673.135 549.613 668.199 551.067L667.721 551.078C664.969 551.16 662.71 551.154 660.128 550.094C656.072 548.428 652.277 545.361 650.64 541.184L650.388 540.5L649.692 538.358C648.875 534.532 649.652 530.619 651.75 527.337C654.635 522.822 658.508 520.617 663.653 519.565Z"/>
	<path d="M352.776 497.68C366.278 496.739 378.304 500.441 389.277 508.403C401.783 517.477 409.564 529.849 411.976 545.171C414.357 560.299 411.102 575.641 402.066 588.049C392.566 601.096 379.898 607.945 364.117 610.454L353.438 610.372C338.51 608.77 325.162 600.676 315.915 589.027C306.675 577.386 302.384 561.7 304.268 546.967C305.608 536.485 309.443 526.824 315.836 518.356C325.039 506.167 337.89 499.685 352.776 497.68Z"/>
	<path fill="#FEFEFE" d="M370.321 519.095C373.52 518.892 376.433 519.063 379.437 520.294C383.404 521.92 386.687 525.308 388.326 529.25C389.889 533.009 390.082 537.831 388.378 541.575C385.901 547.016 382.158 549.752 376.692 551.684C373.29 552.154 369.81 552.323 366.607 550.861C362.595 549.03 359.466 545.267 358.042 541.143C356.52 536.734 356.735 531.766 358.962 527.61C361.589 522.707 365.141 520.53 370.321 519.095Z"/>
</svg>
