<?xml version="1.0" encoding="utf-8" ?>
<svg xmlns="http://www.w3.org/2000/svg" xmlns:xlink="http://www.w3.org/1999/xlink" width="1024" height="1024">
	<path fill="#31B4AC" d="M-0 -0L1024 0L1024 1024L-0 1024L0 -0Z"/>
	<path fill="#F9C833" d="M220.883 910.605C224.174 910.396 227.045 911.007 230 912.48C233.214 914.082 235.524 916.463 236.611 919.954C237.945 924.234 237.604 928.469 235.347 932.385C233.03 936.406 229.247 938.344 224.927 939.491C221.718 939.582 218.773 939.591 215.78 938.212C212.182 936.556 209.655 933.041 208.48 929.328C207.315 925.645 208.031 921.318 209.925 917.997C212.511 913.46 216.114 911.874 220.883 910.605Z"/>
	<path fill="#FCFCFC" d="M857.009 381.647C860.156 381.84 862.952 382.296 865.767 383.858C869.735 386.061 872.448 389.549 873.619 393.92C874.623 397.67 873.959 402.176 871.94 405.5C869.205 410.005 865.169 411.914 860.212 413.03C856.436 413.095 852.842 412.545 849.558 410.565C846.169 408.522 843.624 404.716 842.693 400.905C841.689 396.798 842.726 391.889 845.065 388.416C848.048 383.988 852.029 382.597 857.009 381.647Z"/>
	<path fill="#F9C833" d="M859.501 546.15C864.418 547.218 868.613 547.402 873.515 546.147L873.5 609.788C869.208 608.905 863.758 608.208 859.544 609.629L859.501 546.15Z"/>
	<path fill="#F9C833" d="M369.601 103.06C372.37 102.937 374.998 102.933 377.651 103.877C382.104 105.461 385.491 108.734 387.348 113.076C389.256 117.538 389.267 122.084 387.307 126.523C384.974 131.803 380.503 134.249 375.393 136.212C371.372 136.856 367.282 136.024 363.75 134.02C359.579 131.654 356.785 127.725 355.652 123.086C354.617 118.85 355.729 114.065 358.096 110.467C360.963 106.109 364.647 104.118 369.601 103.06Z"/>
	<path fill="#ED3A2D" d="M898.332 313.048C901.8 312.777 905.01 312.816 908.304 314.094C912.958 315.899 916.36 319.436 918.25 324.026C919.94 328.13 919.72 332.179 917.917 336.213C915.391 341.865 911.33 344.591 905.692 346.704C902.098 347.441 898.094 347.174 894.731 345.693C890.548 343.852 887.179 340.309 885.628 336C883.989 331.448 884.244 326.264 886.388 321.912C888.899 316.815 893.2 314.685 898.332 313.048Z"/>
	<path fill="#FCFCFC" d="M540.563 267.458L543.481 267.624L543.553 284.002L543.432 491.319L543.474 510.439L544.004 643.245L538.785 642.973L538.984 555.081L539.012 530.05C539.024 525.356 538.708 520.383 539.411 515.738L539.833 515.302C541.261 502.28 540.882 489.005 540.877 475.92L540.9 424.336L540.707 319.25L540.563 267.458Z"/>
	<path fill="#1B213A" d="M859.501 546.15C855.951 544.372 852.734 542.654 849.874 539.837C845.158 535.192 842.933 529.327 842.964 522.768C842.975 520.518 843.135 518.633 843.918 516.5L844.18 515.767C846.558 509.423 852.304 504.245 858.398 501.587C863.875 499.198 870.861 499.779 876.25 502.118C882.171 504.689 886.669 510.065 888.795 516.07C890.78 521.674 890.158 527.973 887.507 533.257C884.406 539.436 879.806 543.399 873.515 546.147C868.613 547.402 864.418 547.218 859.501 546.15Z"/>
	<path fill="#1B213A" d="M912.871 712.891L937.264 712.627L937.183 727.052L912.107 727.048L819.521 727.037L798.544 727.024L798.568 712.961L819.547 712.98L912.871 712.891Z"/>
	<path fill="#FCFCFC" d="M144.251 858.168C149.662 857.725 155.196 859.013 159.858 861.767C165.817 865.286 170.176 871.256 171.752 877.991C173.216 884.242 171.908 891.6 168.436 896.996C164.042 903.823 157.683 906.846 149.916 908.378C142.951 909.044 136.643 907.501 130.994 903.256C125.979 899.487 122.36 893.635 121.568 887.364C120.686 880.39 121.78 873.735 126.183 868.034C130.898 861.928 136.691 859.127 144.251 858.168Z"/>
	<path fill="#F9C833" d="M114.699 461.073C121.966 460.219 128.638 461.718 134.953 465.372C141.03 468.888 145.781 476.745 147.335 483.494C149.125 491.262 148.093 499.984 143.704 506.751C138.803 514.307 132.331 518.045 123.673 519.938C120.251 520.029 116.372 520.329 113.025 519.548C104.335 517.522 97.8188 512.646 93.3 504.991C89.7166 498.921 88.7872 489.603 90.7272 482.816L90.9738 482C91.7027 479.515 92.7273 477.221 94.0602 475C98.9525 466.847 105.735 463.334 114.699 461.073Z"/>
	<path fill="#FCFCFC" d="M615.03 357.143C622.762 356.184 629.885 357.977 636.449 362.104C643.538 366.56 648.279 373.928 650.051 382.044C651.78 389.96 650.127 398.976 645.765 405.777C640.591 413.844 632.593 418.463 623.406 420.454C619.212 420.859 614.688 420.817 610.599 419.741C602.406 417.585 595.752 412.537 591.531 405.192C587.604 398.36 585.973 389.007 588.182 381.367L588.444 380.5C589.428 377.045 590.609 374.226 592.653 371.267C598.131 363.337 605.644 358.912 615.03 357.143Z"/>
	<path fill="#1B213A" d="M268.306 286.091C286.925 303.268 305.874 318.934 328.683 330.367L328.57 301.457C328.552 298.154 327.932 293.559 328.636 290.373C328.949 288.96 329.577 287.632 330.655 286.643C332.024 285.386 333.5 285.162 335.291 285.372C337.335 285.612 339.204 286.558 340.421 288.25C341.803 290.171 341.403 293.294 341.357 295.539L341.458 307.563L341.005 335.424C350.296 338.585 359.408 341.108 369.167 342.347C399.986 346.26 431.856 338.614 459.483 325.041L462.624 323.482L462.624 323.465C479.536 314.681 495.272 303.852 509.433 291.106C510.226 290.392 511.277 288.961 512.349 289.063L512.379 289.702C512.601 293.412 514.123 296.325 517 298.736C517.839 299.439 518.647 299.849 519.657 300.25C518.943 301.032 518.552 301.256 517.661 301.793C510.605 306.05 504.132 311.98 497.342 316.735C486.246 324.506 474.512 330.802 462.499 336.993C455.659 340.052 448.848 343.271 441.773 345.75C418.409 353.936 393.635 357.396 369 354.599C360.645 353.65 351.99 352.383 344.09 349.36L341.307 348.244L341.15 428.205L328.949 428.133L328.829 343.997L319.608 339.307C297.707 328.008 277.109 312.09 259.337 295.077C262.611 293.135 265.776 288.918 268.306 286.091Z"/>
	<path fill="#1B213A" d="M453.789 228.13C444.37 216.73 438.114 204.649 434.709 190.247L432.818 179.607C429.925 157.854 436.615 134.996 449.919 117.693C463.545 99.9709 484.788 87.5998 506.962 84.816C529.987 81.9256 554.472 87.8454 572.852 102.318C591.106 116.692 603.53 139.26 606.234 162.319C610.037 194.746 596.555 225.026 576.59 249.897C566.92 261.944 555.506 274.238 543.553 284.002L543.481 267.624C565.444 247.899 586.575 221.191 592.885 191.857C597.368 171.02 594.111 149.118 582.401 131.127C571.579 114.501 554.16 101.971 534.618 97.9723C515.06 93.9697 494.725 97.6073 478.041 108.615C462.438 118.91 450.1 135.693 446.418 154.191C442.338 174.687 446.047 195.866 457.7 213.273C456.06 213.819 455.34 213.765 454.382 215.25C454.292 219.513 454.412 223.908 453.789 228.13Z"/>
	<path fill="#1B213A" d="M341.153 547.206L341.224 928.004L365.506 927.93C369.208 927.924 373.356 927.552 376.995 928.015C378.12 928.157 379.271 928.602 380.083 929.416C381.485 930.822 382.182 933.087 382.018 935.036C381.883 936.643 381.127 938.319 379.862 939.354C379.016 940.046 378.073 940.39 377 940.518C372.321 941.079 367.302 940.785 362.591 940.78L338.541 940.724L310.222 940.745C305.218 940.737 299.968 941 295 940.497C293.114 940.305 291.495 938.745 290.498 937.216C289.762 936.088 289.846 933.588 290.203 932.348C290.631 930.858 291.882 929.272 293.31 928.626C296.039 927.391 300.704 927.994 303.68 927.987L329.111 927.97L328.935 547.514L341.153 547.206Z"/>
	<path fill="#F9C833" d="M668.743 864.042L696.28 814.51L759.709 937.955L629.977 937.88L647.034 905.5C649.902 900.217 654.042 894.245 655.991 888.598L668.743 864.042Z"/>
	<path fill="#ACE6F3" d="M859.544 609.629C863.758 608.208 869.208 608.905 873.5 609.788C887.828 614.246 899.448 623.428 906.515 636.78C909.249 641.947 911.234 647.663 912.153 653.447C913.53 662.11 912.748 671.952 912.802 680.76C912.867 691.379 913.46 702.301 912.871 712.891L819.547 712.98L819.64 683.16C819.727 668.031 818.674 652.98 824.767 638.747C829.399 627.927 838.674 618.052 849.472 613.155C852.46 611.8 855.675 611.217 858.691 609.985L859.544 609.629Z"/>
	<path fill="#F9C833" d="M466.927 516.55C468.538 515.703 471.622 516.094 473.464 516.084L490.251 516.024L539.411 515.738C538.708 520.383 539.024 525.356 539.012 530.05L538.984 555.081L538.785 642.973L544.004 643.245C543.773 648.243 543.36 652.733 540.765 657.172C538.152 661.64 533.281 665.358 528.185 666.544C524.442 667.415 520.256 667.053 516.429 667.062L496.885 667.071C491.099 667.065 484.369 667.751 478.715 666.852C476.529 666.505 474.52 665.546 472.66 664.383C467.736 661.304 464.247 656.677 462.982 650.961L462.835 650.25C462.343 647.963 462.464 645.791 462.555 643.471C463.322 639.868 462.931 635.531 462.94 631.839L462.968 608.86L462.888 516.992C464.208 516.862 465.633 516.817 466.927 516.55Z"/>
	<path fill="#FCFCFC" d="M518.594 595.564C520.493 595.398 522.881 595.134 524.706 595.688C527.395 596.504 529.482 598.912 530.595 601.402C531.67 603.805 531.882 606.406 530.856 608.858C529.505 612.087 527.36 613.716 524.2 615.058C522.457 615.371 520.743 615.361 519 614.999C516.502 614.482 514.529 612.87 513.143 610.778C511.776 608.715 510.946 605.66 511.623 603.206C512.76 599.085 514.995 597.46 518.594 595.564Z"/>
	<path fill="#FCFCFC" d="M494.575 525.09C496.441 524.962 498.185 524.964 500 525.485C502.669 526.251 504.792 528.272 505.981 530.75C507.189 533.267 507.4 536.641 506.372 539.25C504.963 542.823 502.366 544.415 498.971 545.846L496 545.833C492.893 545.45 490.421 543.939 488.667 541.347C487.239 539.237 486.333 536.115 486.814 533.591L486.942 533L487.385 531.306C488.615 528.096 491.62 526.415 494.575 525.09Z"/>
	<path fill="#FCFCFC" d="M466.927 516.55L466.914 642.75C465.534 643.629 464.173 643.406 462.555 643.471C463.322 639.868 462.931 635.531 462.94 631.839L462.968 608.86L462.888 516.992C464.208 516.862 465.633 516.817 466.927 516.55Z"/>
	<path fill="#ACE6F3" d="M819.521 727.037L912.107 727.048C913.177 728.073 912.955 729.312 912.98 730.75L912.986 840.185L912.956 874.036C912.94 881.787 913.477 890.119 911.967 897.75C910.096 907.206 905.615 915.773 898.847 922.631C890.228 931.363 878.6 936.544 866.25 936.412C853.226 936.273 840.989 930.818 831.833 921.616C825.678 915.431 821.903 907.678 820.43 899.096C819.108 891.4 819.543 883.354 819.545 875.567L819.561 841.398L819.521 727.037Z"/>
	<path fill="#F3A31A" d="M826.809 769.002L905.096 769.141L904.995 852.069L904.932 876.964C904.91 883.241 905.115 889.584 903.822 895.764C902.24 903.326 898.837 909.277 893.819 915.058C886.396 922.263 877.832 926.82 867.219 926.937C856.212 927.058 845.865 923.101 838.1 915.257C833.045 910.151 829.483 903.479 828.022 896.446C826.716 890.156 826.966 883.905 826.958 877.527L826.941 853.064L826.809 769.002Z"/>
	<path fill="#ACE6F3" d="M538.455 267.494L540.563 267.458L540.707 319.25L540.9 424.336L540.877 475.92C540.882 489.005 541.261 502.28 539.833 515.302L539.411 515.738L490.251 516.024L473.464 516.084C471.622 516.094 468.538 515.703 466.927 516.55C465.633 516.817 464.208 516.862 462.888 516.992L462.499 336.993C474.512 330.802 486.246 324.506 497.342 316.735C504.132 311.98 510.605 306.05 517.661 301.793C518.552 301.256 518.943 301.032 519.657 300.25C518.647 299.849 517.839 299.439 517 298.736C514.123 296.325 512.601 293.412 512.379 289.702L512.349 289.063C511.277 288.961 510.226 290.392 509.433 291.106C495.272 303.852 479.536 314.681 462.624 323.465C461.722 317.865 462.419 311.155 462.429 305.446L462.399 267.777L467.881 267.577L538.455 267.494Z"/>
	<path fill="#F9C833" d="M491.249 471.534C492.996 471.425 494.646 471.324 496.319 471.939C498.842 472.866 501.074 474.738 502.141 477.24C503.284 479.922 503.258 482.802 502.145 485.478C500.959 488.329 498.15 489.841 495.475 491.006C494.02 491.072 492.442 491.213 491 490.971C488.51 490.554 486.12 488.47 484.881 486.337C483.609 484.149 483.212 481.261 483.946 478.835C485.164 474.809 487.711 473.312 491.249 471.534Z"/>
	<path fill="#ED3A2D" d="M328.949 428.133L341.15 428.205L433.822 428.362C433.808 436.75 434.15 445.41 433.292 453.75C430.864 477.346 419.876 501.294 403.094 518.094C386.277 534.929 364.535 544.267 341.153 547.206L328.935 547.514L327.079 547.441C298.901 545.714 272.703 534.335 253.85 512.86C240.471 497.622 231.501 476.069 230.002 455.84C229.332 446.789 229.991 437.418 230.549 428.366L328.949 428.133Z"/>
	<path fill="#31B4AC" d="M457.7 213.273C446.047 195.866 442.338 174.687 446.418 154.191C450.1 135.693 462.438 118.91 478.041 108.615C494.725 97.6073 515.06 93.9697 534.618 97.9723C554.16 101.971 571.579 114.501 582.401 131.127C594.111 149.118 597.368 171.02 592.885 191.857C586.575 221.191 565.444 247.899 543.481 267.624L540.563 267.458L538.455 267.494L467.881 267.577L467.972 243.597L453.584 243.886L453.789 228.13C454.412 223.908 454.292 219.513 454.382 215.25C455.34 213.765 456.06 213.819 457.7 213.273Z"/>
	<path fill="#0C6F89" d="M457.7 213.273L551.937 213.038L551.667 243.564L538.42 243.557L538.455 267.494L467.881 267.577L467.972 243.597L453.584 243.886L453.789 228.13C454.412 223.908 454.292 219.513 454.382 215.25C455.34 213.765 456.06 213.819 457.7 213.273Z"/>
	<path fill="#0C6F89" d="M496.996 706.532C475.517 707.8 453.528 706.834 432.008 706.768L408.089 706.675C403.474 706.639 398.542 706.903 394 706.07L393.33 705.958C389.31 705.236 385.34 702.289 383.101 698.907C380.637 695.186 379.789 690.764 380.654 686.367C381.452 682.309 384.09 679.092 387.565 676.986C390.065 675.471 393.076 674.722 395.978 674.581L440.975 674.376L534.887 674.544L584.648 674.438L599.231 674.414C602.467 674.411 605.94 674.216 609.101 675.025C613.296 676.1 617.164 679.01 619.196 682.844C621.085 686.407 621.698 691.59 620.379 695.46C618.857 699.921 616.188 703.262 611.809 705.207C610.057 705.986 608.475 706.458 606.557 706.638C594.947 707.731 582.61 706.946 570.9 706.939L510.273 706.518L510.468 758.383C534.583 760.603 555.92 771.239 571.505 790C587.401 809.135 594.083 834.234 591.654 858.791C589.381 881.761 576.914 904.781 558.913 919.28C540.522 934.094 516.76 940.907 493.375 938.306C471.28 935.849 449.238 924.546 435.184 907.083C419.822 887.994 412.018 863.789 414.899 839.24C417.778 814.716 429.253 791.857 449.042 776.533C459.643 768.324 471.013 763.377 483.938 760.239C488.066 759.236 492.747 758.556 496.994 758.416L496.996 706.532Z"/>
	<defs>
		<linearGradient id="gradient_0" gradientUnits="userSpaceOnUse" x1="496.4743" y1="707.06891" x2="504.06085" y2="875.01984">
			<stop offset="0" stop-color="#1D1F39"/>
			<stop offset="1" stop-color="#17273A"/>
		</linearGradient>
	</defs>
	<path fill="url(#gradient_0)" d="M496.996 706.532L509.969 706.462L510.374 822.238C518.054 825.278 524.657 829.911 528.092 837.695C530.575 843.324 531.03 849.032 529.618 855L529.457 855.706C527.775 862.765 522.979 868.653 516.84 872.362C511.187 875.778 503.606 877.081 497.148 875.397L496.4 875.19L495.613 874.98C488.521 873.023 483.037 868.376 479.499 862C475.899 855.513 475.055 848.336 477.136 841.22C478.989 834.885 483.85 828.202 489.75 825.024L496.924 821.956L496.994 758.416L496.996 706.532Z"/>
	<path fill="#FCFCFC" d="M165.151 542.634L248.641 542.624L248.582 557.289L237.114 557.008L236.99 630.122L241.876 631.896C265.44 640.968 284.449 660.817 294.5 683.73C304.549 706.636 305.02 734.154 295.826 757.454C286.425 781.278 267.652 799.914 244.309 810.052L242.482 810.753C218.385 819.877 192.12 818.838 168.713 808.147C146.324 797.922 128.097 778.459 119.505 755.418C110.662 731.704 111.131 704.762 121.829 681.702C132.882 657.877 152.998 639.662 177.605 630.653L177.69 556.986L165.367 557.044C164.834 555.652 165.091 553.865 165.097 552.38L165.151 542.634Z"/>
	<path fill="#F9C833" d="M191.186 683.25C192.169 683.04 193.26 682.94 194.25 683.228C195.593 683.62 196.932 684.709 197.629 685.94C198.264 687.06 198.461 688.177 198.154 689.43C197.68 691.361 195.832 692.535 194.25 693.508C193.854 693.741 193.729 693.849 193.219 693.953C191.598 694.284 189.979 693.921 188.75 692.802C187.482 691.648 186.788 688.979 187.106 687.328C187.523 685.158 189.411 684.186 191.186 683.25Z"/>
	<path fill="#F9C833" d="M160.01 698.009C161.589 697.915 163.261 697.744 164.814 698.118C167.456 698.753 169.936 700.441 171.264 702.853C172.175 704.508 172.272 706.943 171.702 708.718C170.724 711.769 168.375 713.405 165.72 714.908C164.463 715.238 163.307 715.507 162.002 715.295C159.392 714.87 157.196 713.631 155.716 711.401C154.226 709.156 153.757 706.492 154.447 703.907C155.195 701.108 157.667 699.421 160.01 698.009Z"/>
	<path fill="#F9C833" d="M238.022 671.095C240.335 670.923 242.779 670.706 245.038 671.354C248.307 672.291 250.982 674.719 252.435 677.75C253.791 680.58 254.012 684.659 252.765 687.579C251.306 690.995 248.539 692.87 245.26 694.324C243.323 694.764 241.408 695.103 239.438 694.683C236.173 693.987 233.576 692.569 231.833 689.645C230.063 686.676 229.615 682.803 230.528 679.483C231.69 675.263 234.294 673.057 238.022 671.095Z"/>
	<path fill="#030104" d="M203.873 722.007L203.75 557.243C205.295 556.897 206.672 556.903 208.25 556.945C208.419 557.183 208.67 557.38 208.757 557.658C209.275 559.319 208.749 563.228 208.747 565.065L208.722 589.639L208.62 708.391L208.508 718.75C208.508 719.031 208.4 721.267 208.542 721.5C208.849 722.008 209.996 722.256 210.535 722.352L221.983 732.804L205.612 747.542L222.346 763.118L205.382 777.737L222.216 794.12C217.651 798.643 213.19 803.327 208.065 807.226C206.232 807.523 203.727 806.972 201.843 806.805C202.3 803.362 212.061 796.172 215.012 793.895L198.101 777.428L214.309 762.501L198.058 747.547L214.029 732.826L207.473 726.303C206.392 725.219 204.845 723.993 204.156 722.613L203.873 722.007Z"/>
	<path fill="#ED3A2D" d="M210.535 722.352L292.576 722.481C292.043 745.817 283.471 767.5 266.498 783.811C252.516 797.248 228.525 807.955 208.821 807.261L208.065 807.226C213.19 803.327 217.651 798.643 222.216 794.12L205.382 777.737L222.346 763.118L205.612 747.542L221.983 732.804L210.535 722.352Z"/>
	<path fill="#ED3A2D" d="M203.873 722.007L204.156 722.613C204.845 723.993 206.392 725.219 207.473 726.303L214.029 732.826L198.058 747.547L214.309 762.501L198.101 777.428L215.012 793.895C212.061 796.172 202.3 803.362 201.843 806.805C197.935 805.828 193.688 805.55 189.7 804.686C175.836 801.684 163.208 795.261 152.476 786.007C133.478 769.624 124.192 747.253 122.376 722.657L181.742 722.538L197.231 722.517C199.078 722.514 201.616 722.837 203.368 722.24L203.873 722.007Z"/>
	<defs>
		<linearGradient id="gradient_1" gradientUnits="userSpaceOnUse" x1="749.4856" y1="387.4462" x2="540.68848" y2="829.84033">
			<stop offset="0" stop-color="#1E2039"/>
			<stop offset="1" stop-color="#1E314A"/>
		</linearGradient>
	</defs>
	<path fill="url(#gradient_1)" d="M543.432 491.319L566.85 514.92C593.991 540.09 623.505 561.155 655.976 578.928L655.968 504.552L655.969 480.957C655.963 473.277 655.872 465.832 657.559 458.285C660.813 443.731 668.246 429.407 678.733 418.733C695.616 401.548 719.364 393.303 743.155 393.408C769.714 393.525 794.114 405.06 812.609 423.792C832.152 443.585 842.369 471.185 842.084 498.851C841.771 529.283 829.586 557.94 807.712 579.106C786.26 599.864 756.229 610.336 726.639 609.925C706.508 609.646 687.005 604.691 668.29 597.538C668.527 629.775 666.918 860.634 668.743 864.042L655.991 888.598L656 816.831L656.006 673.078L655.998 618.097C655.995 609.786 656.789 600.532 655.816 592.322C626.007 577.766 599.058 559.202 573.979 537.552L556.963 521.964C552.72 517.927 548.47 513.54 543.474 510.439L543.432 491.319Z"/>
	<path fill="#31B4AC" d="M734.342 406.207C749.369 404.447 765.799 407.718 779.302 414.387C800.962 425.086 817.879 444.048 825.576 466.998C833.732 491.315 831.756 519.121 820.256 541.98C807.525 567.29 787.42 583.899 760.75 592.789C728.536 602.069 698.478 596.596 668.003 584.227L668.388 513.739L668.334 485.837C668.324 476.437 668.219 467.522 670.235 458.283C672.393 448.389 677.01 439.307 683.422 431.519C696.452 415.694 714.312 408.123 734.342 406.207Z"/>
	<path fill="#FCFCFC" d="M756.894 473.625C760.221 473.382 763.466 473.95 766.518 475.306C770.766 477.193 774.513 480.941 776.087 485.351C777.633 489.682 777.606 493.981 775.429 498.108C772.579 503.514 768.071 506.348 762.397 508.107C758.265 508.613 754.765 508.446 750.982 506.438C746.647 504.138 743.902 500.139 742.67 495.456C741.491 490.975 741.906 485.06 744.515 481.126C747.579 476.505 751.666 474.695 756.894 473.625Z"/>
	<path fill="#F9C833" d="M740.344 104.707C769.359 102.591 797.441 111.224 820.101 129.549C843.282 148.295 859.384 178.477 862.397 208.125C865.692 240.549 856.572 272.328 835.743 297.537C815.805 321.668 787.484 335.264 756.622 338.29C727.993 340.46 699.06 331.498 676.79 313.307C652.903 293.796 637.517 264.815 634.679 234.08C631.671 201.49 641.14 170.236 662.213 145.096C681.63 121.933 710.277 107.403 740.344 104.707Z"/>
	<path fill="#BF021E" d="M746.633 160.088C750.687 159.603 754.217 159.913 757.733 162.221C766.904 168.24 769.866 181.096 771.712 191.219C777.207 190.487 783.231 189.965 788.736 190.821C794.751 191.756 801.546 194.125 805.139 199.341C807.33 202.522 807.821 206.025 807.006 209.75C804.523 221.104 793.465 228.733 784.249 234.527C787.022 240.543 789.612 246.53 790.968 253.044C792.223 259.069 792.751 266.634 789.026 271.942C786.855 275.035 783.398 276.837 779.692 277.263C769.335 278.451 755.737 268.404 747.927 262.353C742.809 266.877 736.973 271.124 730.782 274.07C725.253 276.701 718.089 278.907 712.109 276.563C708.496 275.147 706.097 271.905 704.66 268.418C700.501 258.328 706.918 243.443 710.939 234.216C704.489 230.276 698.533 226.189 693.662 220.302C690.267 216.2 686.806 210.608 687.599 205.029C688.108 201.45 690.643 198.15 693.498 196.07C702.348 189.623 715.716 189.995 725.987 191.598C727.014 187.126 728.251 182.63 730.08 178.414C733.748 169.957 737.749 163.642 746.633 160.088Z"/>
	<path fill="#F9C833" d="M723.314 221.75C723.588 221.936 723.923 222.055 724.138 222.308C724.244 222.432 724.179 222.631 724.2 222.793C724.861 227.964 725.705 231.765 727.567 236.654L722.577 234.802L716.925 232.54C718.72 228.535 720.525 225.167 723.314 221.75Z"/>
	<path fill="#F9C833" d="M770.229 225.384C770.464 224.154 770.442 222.612 771.36 221.75C774.107 225.012 776.429 229.291 778.478 233.032C774.821 234.902 771.167 236.409 767.139 237.289C767.129 236.095 767.68 235.215 768.209 234.183C769.237 231.24 769.796 228.468 770.229 225.384Z"/>
	<path fill="#F9C833" d="M755.465 200.254C758.606 197.875 764.178 197.102 768.002 196.137C768.071 199.668 769.021 206.285 767.571 209.419C763.635 205.857 760.097 202.941 755.465 200.254Z"/>
	<path fill="#F9C833" d="M727.627 210.145C727.627 205.405 728.597 200.49 729.239 195.795C733.596 196.745 738.944 197.376 742.302 200.512L742.998 201.092L740.379 203.742C735.299 206.673 731.032 210.445 728.738 215.988C728.077 217.102 727.479 218.14 727.038 219.367C727.053 217.839 726.94 216.466 726.651 214.964L726.558 214.5C727.119 213.057 727.805 211.727 727.627 210.145Z"/>
	<path fill="#B22265" d="M727.627 210.145C731.889 205.933 736.641 202.551 742.302 200.512L742.998 201.092L740.379 203.742C735.299 206.673 731.032 210.445 728.738 215.988C728.077 217.102 727.479 218.14 727.038 219.367C727.053 217.839 726.94 216.466 726.651 214.964L726.558 214.5C727.119 213.057 727.805 211.727 727.627 210.145Z"/>
	<path fill="#F9C833" d="M740.371 243.161C747.19 244.566 752.401 244.353 759.138 242.657L747.646 257.088C743.424 252.771 738.374 247.858 735.7 242.409L736.422 241.757L740.371 243.161Z"/>
	<path fill="#60629E" d="M755.465 200.254C760.097 202.941 763.635 205.857 767.571 209.419C767.869 213.514 769.299 217.365 769.552 221.492C769.626 222.704 769.8 224.24 770.229 225.384C769.796 228.468 769.237 231.24 768.209 234.183C765.438 236.332 762.029 239.785 758.75 241.003C757.53 241.455 756.04 241.423 754.75 241.71L752.929 242.132C748.817 243.136 744.615 242.115 740.371 243.161L736.422 241.757L736.432 241.693C735.482 241.069 734.616 240.382 733.874 239.513C728.565 233.3 726.37 227.502 727.038 219.367C727.479 218.14 728.077 217.102 728.738 215.988C728.16 218.098 727.738 219.854 728.132 222.048C729.317 228.649 732.095 233.863 737.708 237.707C742.355 240.889 747.836 242.042 753.344 240.83C758.128 239.777 762.977 235.549 765.373 231.409C768.08 226.733 769.098 220.951 767.428 215.75C765.913 211.032 761.543 205.508 756.965 203.396C750.829 200.566 746.419 201.681 740.379 203.742L742.998 201.092C746.939 200.013 751.376 200.6 755.465 200.254Z"/>
	<path fill="#F9C833" d="M776.735 194.686C779.284 194.316 782.187 194.392 784.75 194.57C790.122 194.943 797.825 196.784 801.36 201.147C803.267 203.5 803.345 206.116 802.975 209.044C802.197 215.195 796.627 220.389 792.076 224.135L782.464 230.939L772.468 215.565L772.57 201.861C772.529 199.923 771.93 196.945 772.614 195.162L776.735 194.686Z"/>
	<path fill="#F9C833" d="M711.032 194.69C715.415 193.988 720.502 194.72 724.917 195.142C725.455 197.057 723.878 202.399 723.646 204.7C723.305 208.063 723.505 211.492 723.61 214.866C723.616 215.072 723.711 215.296 723.63 215.486C723.356 216.125 721.493 217.613 720.891 218.25C717.372 221.972 715.012 225.709 712.744 230.292L708.266 227.572L705.911 225.977C700.292 221.914 692.999 215.231 692.061 207.934C691.757 205.569 692.646 203.321 694.067 201.471C697.989 196.368 705.063 195.342 711.032 194.69Z"/>
	<path fill="#F9C833" d="M747.64 164C750.278 163.885 752.721 163.947 755.038 165.37C763.483 170.557 765.699 182.982 767.683 191.956C761.698 193.468 755.891 194.941 750.25 197.491C748.271 197.924 746.053 196.313 744.144 195.571C739.59 193.802 734.857 192.877 730.085 191.912L734.267 179.401C737.079 172.727 740.677 166.85 747.64 164Z"/>
	<path fill="#F9C833" d="M779.205 237.25C779.732 237.151 780.215 237.133 780.75 237.114C784.388 244.658 789.472 256.387 787.726 264.885L787.587 265.5C787.404 266.332 787.222 267.125 786.847 267.898C785.67 270.32 783.6 272.446 780.978 273.252C775.627 274.899 768.912 270.894 764.353 268.479L750.855 259.357C754.32 255.849 757.699 252.29 760.483 248.203C761.611 246.547 762.63 243.601 763.879 242.268C764.377 241.737 768.509 241.187 769.5 240.929C772.831 240.059 776.046 238.594 779.205 237.25Z"/>
	<path fill="#F9C833" d="M714.585 236.071C719.201 238.281 723.866 240.005 728.971 240.649C730.175 240.801 731.313 243.391 732.043 244.508C735.719 250.13 740.016 254.893 744.63 259.733C741.129 263.102 737.029 265.771 732.986 268.432L729.882 270.139C725.63 272.388 719.439 274.741 714.615 273.018C711.876 272.039 709.714 269.748 708.68 267.056C705.17 257.923 710.907 244.44 714.585 236.071Z"/>
	<path fill="#250F44" d="M740.379 203.742C746.419 201.681 750.829 200.566 756.965 203.396C761.543 205.508 765.913 211.032 767.428 215.75C769.098 220.951 768.08 226.733 765.373 231.409C762.977 235.549 758.128 239.777 753.344 240.83C747.836 242.042 742.355 240.889 737.708 237.707C732.095 233.863 729.317 228.649 728.132 222.048C727.738 219.854 728.16 218.098 728.738 215.988C731.032 210.445 735.299 206.673 740.379 203.742Z"/>
	<path fill="#FCFCFC" d="M747.448 205.578C750.535 205.591 753.758 206.279 756.364 208.005C760.059 210.451 762.885 214.352 763.662 218.748C764.375 222.785 763.127 227.399 760.75 230.701C757.794 234.807 754.339 236.107 749.551 236.879C746.267 236.637 743.58 235.998 740.779 234.18C737.009 231.734 734.07 227.44 733.213 223.034C732.545 219.598 733.58 215.864 735.512 213C738.37 208.763 742.593 206.633 747.448 205.578Z"/>
	<path fill="#FCFCFC" d="M319.608 339.307C303.555 354.993 283.378 367.375 261.508 372.925C230.822 380.712 198.226 376.493 171 360.089C142.442 342.882 122.632 316.09 114.826 283.715C106.834 250.572 113.619 216.985 131.42 188.256C147.528 162.259 174.978 143.863 204.574 137.065C235.243 130.02 269.249 136.289 295.746 153.058C323.856 170.848 343.407 197.923 350.61 230.526C355.364 252.046 353.465 275.936 346.022 296.594C344.724 300.194 343.523 304.333 341.458 307.563L341.357 295.539C341.403 293.294 341.803 290.171 340.421 288.25C339.204 286.558 337.335 285.612 335.291 285.372C333.5 285.162 332.024 285.386 330.655 286.643C329.577 287.632 328.949 288.96 328.636 290.373C327.932 293.559 328.552 298.154 328.57 301.457L328.683 330.367C305.874 318.934 286.925 303.268 268.306 286.091C265.776 288.918 262.611 293.135 259.337 295.077C277.109 312.09 297.707 328.008 319.608 339.307Z"/>
	<path fill="#F9C833" d="M259.337 295.077C256.885 296.051 254.494 297.721 252.098 298.905C245.105 302.36 237.893 304.831 230.031 305.095C216.353 305.556 203.312 300.669 193.343 291.251C183.561 282.009 177.772 269.179 177.502 255.721C177.225 241.91 181.862 230.078 191.469 220.103C200.487 210.739 212.634 204.973 225.75 204.805C240.357 204.618 253.908 209.585 264.291 220.032C273.356 229.152 278.572 241.614 278.563 254.453C278.555 266.698 274.979 276.008 268.306 286.091C265.776 288.918 262.611 293.135 259.337 295.077Z"/>
</svg>
