<?xml version="1.0" encoding="utf-8" ?>
<svg xmlns="http://www.w3.org/2000/svg" xmlns:xlink="http://www.w3.org/1999/xlink" width="1024" height="1024">
	<path fill="#D9531C" d="M0 721.231L-0 -0L1024 0L1024 719.895L1024 738.902L1024 1024L-0 1024L0 738.441L0 721.231Z"/>
	<path fill="#F7A730" d="M196.32 350.954L196.385 349.853C196.701 348.222 197.893 346.283 198.621 344.768L204.501 333.281C217.827 308.454 234.256 279.377 258.999 264.477C271.157 257.156 286.338 253.601 300.302 257.212C320.072 262.324 334.871 276.052 347.363 291.626C356.734 303.31 364.547 316.66 371.72 329.782C383.456 351.252 393.521 373.451 403.152 395.923L451.14 513.578L468.757 554.164C473.403 563.947 478.263 573.814 484.628 582.615C490.424 590.627 499.317 600.313 509.642 601.768C524.816 603.906 536.933 586.75 543.914 575.665C549.545 566.725 554.149 557.133 558.651 547.588L583.341 488.43C599.674 447.043 615.445 405.239 634.906 365.195C643.907 346.672 653.124 328.953 664.3 311.625C674.068 296.481 685.736 280.193 700.184 269.166C712.633 259.664 727.923 253.013 743.915 255.301L744.75 255.43C752.274 256.53 758.964 259.083 765.5 262.95C783.727 273.732 797.317 294.31 807.146 312.599C809.236 316.489 811.997 320.749 813.103 325.03C814.56 329.022 817.382 332.96 819.399 336.755L831.836 361.359C841.793 382.213 850.066 404.04 858.336 425.609L915.021 592.293L937.868 650.071C943.854 663.676 950.135 676.966 958.094 689.557C965.855 701.835 976.521 715.415 990.074 721.561C997.215 724.799 1005.64 725.264 1013.25 723.638L1014.18 723.446C1017.61 722.708 1020.82 721.343 1024 719.895L1024 738.902C1014.07 741.944 1003.76 743.092 993.502 740.906C961.582 734.106 940.071 703.521 924.729 676.993L916.613 662.408C915.444 660.254 914.456 657.761 913.081 655.764L912.762 655.342C910.871 654.153 909.554 650.672 908.439 648.646L900.143 633.767L855.017 541.207C840.274 510.362 825.74 479.251 807.082 450.527C799.608 439.02 791.776 427.576 781.522 418.338C773.3 410.93 762.937 405.318 751.558 407.944C735.692 411.606 723.137 430.367 715.332 443.292C708.572 454.487 702.956 466.303 697.375 478.118L662.359 562.805L629.662 645.61C619.251 670.809 608.306 695.569 594.631 719.201C578.915 746.362 557.405 777.827 525.016 786.032C508.234 790.283 493.514 787.462 478.888 778.628C459.607 766.981 445.629 747.952 434.248 728.896C415.648 697.754 401.667 662.974 388.23 629.375L344.466 519.702C335.893 499.105 327.012 478.658 316.653 458.881C309.803 445.802 302.426 432.493 292.534 421.447C284.656 412.651 274.048 405.785 261.819 408.663C247.73 411.978 237.252 424.918 229.097 436.021L216.173 455.344L188.011 506.419L120.677 641.148L114.711 652.019C113.702 653.821 112.772 655.959 111.226 657.357L110.868 657.766C109.683 659.325 108.954 661.51 107.992 663.246L100.063 676.812C82.5703 704.941 60.7108 733.609 26.2188 740.048C17.6659 741.645 8.32082 740.782 0 738.441L0 721.231C13.0323 724.34 24.4466 723.625 36.4531 717.347C46.5676 712.058 54.7268 704.158 61.6391 695.161C71.4868 682.343 78.871 667.101 85.5152 652.433C102.172 615.664 113.862 577.238 126.168 538.878L156.529 447.731L180.517 385.75L191.851 360.534C193.286 357.38 195.282 354.234 196.32 350.954Z"/>
	<path fill="#580F10" d="M196.32 350.954L196.385 349.853C196.701 348.222 197.893 346.283 198.621 344.768L204.501 333.281C217.827 308.454 234.256 279.377 258.999 264.477C271.157 257.156 286.338 253.601 300.302 257.212C320.072 262.324 334.871 276.052 347.363 291.626C356.734 303.31 364.547 316.66 371.72 329.782C383.456 351.252 393.521 373.451 403.152 395.923L451.14 513.578L468.757 554.164C473.403 563.947 478.263 573.814 484.628 582.615C490.424 590.627 499.317 600.313 509.642 601.768C524.816 603.906 536.933 586.75 543.914 575.665C549.545 566.725 554.149 557.133 558.651 547.588L583.341 488.43C599.674 447.043 615.445 405.239 634.906 365.195C643.907 346.672 653.124 328.953 664.3 311.625C674.068 296.481 685.736 280.193 700.184 269.166C712.633 259.664 727.923 253.013 743.915 255.301L744.75 255.43C752.274 256.53 758.964 259.083 765.5 262.95C783.727 273.732 797.317 294.31 807.146 312.599C809.236 316.489 811.997 320.749 813.103 325.03C799.005 302.569 782.665 277.23 755.031 270.967C743.821 268.425 731.777 271.621 722.308 277.767C712.137 284.369 703.938 293.738 696.803 303.429C686.006 318.095 677.327 333.988 669.161 350.229C654.519 379.347 642.271 409.389 630.72 439.848L615.839 478.907L582.022 568.65C573.675 588.956 565.088 609.772 552.83 628.104C542.553 643.473 526.28 662.326 505.456 657.668C488.698 653.92 476.482 636.747 468.188 622.969C458.924 607.58 451.604 591.158 444.612 574.646L424.148 523.428L384.731 418.912C373.801 391.326 362.529 363.956 348.675 337.688C339.261 319.838 328.8 302.016 314.657 287.451C307.388 279.966 297.886 273.447 287.658 270.886C281.537 269.354 276.367 269.39 270.18 270.558C247.891 274.767 229.54 296.463 217.524 314.303L196.32 350.954Z"/>
	<path fill="#580F10" d="M111.226 657.357C112.646 653.511 114.834 649.736 116.624 646.036L126.257 625.69L146.274 578.247L177.62 498.393C189.853 467.665 201.882 437.123 218.016 408.152C227.503 391.115 240.372 369.729 258.41 360.731C266.593 356.65 275.5 355.666 284.172 358.709C320.777 371.557 352.48 458.829 365.679 492.862L395.628 573.16C409.009 608.908 422.435 644.853 438.862 679.335C446.177 694.691 454.39 709.711 464.044 723.728C472.694 736.29 483.941 750.639 498.952 755.846C520.882 763.454 541.273 747.991 554.45 731.902C564.188 720.011 571.683 706.352 578.712 692.742C594.315 662.528 606.729 630.408 618.673 598.606L648.324 518.83C661.659 482.844 675.265 446.916 693.033 412.832C701.158 397.246 709.945 381.536 722.291 368.849C727.107 363.899 732.238 359.405 738.499 356.371C745.316 353.067 752.332 352.533 759.501 355.105C782.072 363.203 799.863 397.231 810.46 417.262C834.991 463.63 852.578 512.782 872.087 561.345L912.762 655.342C910.871 654.153 909.554 650.672 908.439 648.646L900.143 633.767L855.017 541.207C840.274 510.362 825.74 479.251 807.082 450.527C799.608 439.02 791.776 427.576 781.522 418.338C773.3 410.93 762.937 405.318 751.558 407.944C735.692 411.606 723.137 430.367 715.332 443.292C708.572 454.487 702.956 466.303 697.375 478.118L662.359 562.805L629.662 645.61C619.251 670.809 608.306 695.569 594.631 719.201C578.915 746.362 557.405 777.827 525.016 786.032C508.234 790.283 493.514 787.462 478.888 778.628C459.607 766.981 445.629 747.952 434.248 728.896C415.648 697.754 401.667 662.974 388.23 629.375L344.466 519.702C335.893 499.105 327.012 478.658 316.653 458.881C309.803 445.802 302.426 432.493 292.534 421.447C284.656 412.651 274.048 405.785 261.819 408.663C247.73 411.978 237.252 424.918 229.097 436.021L216.173 455.344L188.011 506.419L120.677 641.148L114.711 652.019C113.702 653.821 112.772 655.959 111.226 657.357Z"/>
	<path fill="#D9531C" d="M111.226 657.357C112.772 655.959 113.702 653.821 114.711 652.019L120.677 641.148L188.011 506.419L216.173 455.344L229.097 436.021C237.252 424.918 247.73 411.978 261.819 408.663C274.048 405.785 284.656 412.651 292.534 421.447C302.426 432.493 309.803 445.802 316.653 458.881C327.012 478.658 335.893 499.105 344.466 519.702L388.23 629.375C401.667 662.974 415.648 697.754 434.248 728.896C445.629 747.952 459.607 766.981 478.888 778.628C493.514 787.462 508.234 790.283 525.016 786.032C557.405 777.827 578.915 746.362 594.631 719.201C608.306 695.569 619.251 670.809 629.662 645.61L662.359 562.805L697.375 478.118C702.956 466.303 708.572 454.487 715.332 443.292C723.137 430.367 735.692 411.606 751.558 407.944C762.937 405.318 773.3 410.93 781.522 418.338C791.776 427.576 799.608 439.02 807.082 450.527C825.74 479.251 840.274 510.362 855.017 541.207L900.143 633.767L908.439 648.646C909.554 650.672 910.871 654.153 912.762 655.342L913.081 655.764C914.456 657.761 915.444 660.254 916.613 662.408L924.729 676.993C940.071 703.521 961.582 734.106 993.502 740.906C1003.76 743.092 1014.07 741.944 1024 738.902L1024 1024L-0 1024L0 738.441C8.32082 740.782 17.6659 741.645 26.2188 740.048C60.7108 733.609 82.5703 704.941 100.063 676.812L107.992 663.246C108.954 661.51 109.683 659.325 110.868 657.766L111.226 657.357Z"/>
</svg>
