<?xml version="1.0" encoding="utf-8" ?>
<svg xmlns="http://www.w3.org/2000/svg" xmlns:xlink="http://www.w3.org/1999/xlink" width="1024" height="1024">
	<path fill="#DB4439" d="M-0 -0L1024 0L1024 1024L-0 1024L0 -0Z"/>
	<path fill="#7FC85B" d="M134.852 580.65L71.2189 537.279L147.608 537.586C145.566 542.308 144.069 547.247 142.363 552.096C140.051 558.666 137.498 565.45 136.239 572.308L134.852 580.65Z"/>
	<defs>
		<linearGradient id="gradient_0" gradientUnits="userSpaceOnUse" x1="742.82703" y1="638.98987" x2="666.90399" y2="807.29907">
			<stop offset="0" stop-color="#2DA039"/>
			<stop offset="1" stop-color="#92D05C"/>
		</linearGradient>
	</defs>
	<path fill="url(#gradient_0)" d="M750.206 640.119C761.305 675.304 754.468 713.286 737.717 745.404C723.231 773.18 699.932 797.007 673.015 812.948L672.724 699.476C673.994 698.063 676.438 697.092 678.097 696.121L688.762 689.652L705.154 678.434C721.214 666.838 735.97 653.87 750.206 640.119Z"/>
	<defs>
		<linearGradient id="gradient_1" gradientUnits="userSpaceOnUse" x1="239.71657" y1="678.82611" x2="145.30115" y2="784.83905">
			<stop offset="0" stop-color="#3BAB40"/>
			<stop offset="1" stop-color="#92D15F"/>
		</linearGradient>
	</defs>
	<path fill="url(#gradient_1)" d="M203.731 655.093C217.162 666.705 231.241 677.349 246.123 687.029C251.15 690.299 256.289 693.849 261.53 696.753L260.982 698.5C258.889 704.134 255.947 709.564 253.302 714.961C235.097 752.1 206.392 789.344 168.235 807.375C165.759 797.182 163.812 786.529 163.497 776.025C162.187 732.431 173.325 687.558 203.731 655.093Z"/>
	<path fill="#7FC85B" d="M797.769 581.963C794.946 587.659 790.876 592.792 787.085 597.866C775.759 613.026 763.318 626.524 750.206 640.119C735.97 653.87 721.214 666.838 705.154 678.434L688.762 689.652L678.097 696.121C676.438 697.092 673.994 698.063 672.724 699.476C670.927 699.605 669.359 700.837 667.794 701.7L660.329 705.667L640.559 715.142C618.559 725.114 595.385 733 571.985 738.944C526.958 750.38 479.346 755.155 433 751.458C416.841 750.169 400.898 747.554 385.014 744.4C374.303 742.274 363.48 740.073 353 736.993C342.035 733.771 331.303 729.612 320.686 725.414C300.274 717.342 280.403 707.993 261.53 696.753C256.289 693.849 251.15 690.299 246.123 687.029C231.241 677.349 217.162 666.705 203.731 655.093C198.966 650.105 193.064 645.902 188.09 641.004C173.973 627.104 160.345 612.154 148.048 596.613C144.211 591.763 140.137 587.02 136.667 581.899C137.813 582.52 139.057 583.088 140.105 583.859C193.248 629.994 259.554 661.595 327.75 677.997C352.754 684.011 378.304 687.996 403.855 690.752L443.943 693.895C451.918 694.299 460.102 694.861 468.081 694.421L471.789 694.427C486.12 694.723 500.652 693.751 514.952 692.862C597.904 687.702 680.684 665.848 750.465 619.439C767.021 608.428 782.586 595.261 797.346 581.957L797.769 581.963Z"/>
	<path fill="#7FC85B" d="M736.652 443.834C739.458 439.013 743.136 434.771 746.187 430.105C756.101 414.938 763.461 398.268 767.166 380.498C770.724 363.435 770.806 346.915 769.339 329.667C768.666 321.752 767.553 313.942 767.775 305.97C768.901 265.582 792.838 228.84 832.965 218.164C856.12 212.003 881.148 216.871 901.533 228.998C921.906 241.118 935.817 259.022 947.558 279.255C950.148 283.719 953.481 288.744 954.991 293.671C953.278 299.617 949.931 305.178 947.115 310.665C943.861 317.007 940.588 323.408 936.483 329.25C924.076 346.908 906.614 361.349 887.844 371.839C881.244 375.528 873.973 378.738 866.75 380.968C863.448 381.987 860.099 382.718 856.7 383.32C855.819 383.477 853.459 383.621 852.824 384.022C852.603 384.161 851.472 388.491 851.27 389.149C846.8 403.709 840.318 417.76 832.877 431.041C818.121 457.383 797.396 478.618 774.121 497.531C768.242 487.08 762.341 476.53 755.377 466.75C749.668 458.733 743.034 451.319 736.652 443.834Z"/>
	<path fill="#FEFEFE" d="M878.566 261.14C882.207 260.899 885.612 261.648 888.779 263.475C893.484 266.189 897.226 270.985 898.334 276.345C899.27 280.874 898.204 285.947 895.752 289.817C892.691 294.647 888.625 296.813 883.28 298.127C878.595 298.123 874.286 298.04 870.181 295.414C865.432 292.376 862.972 287.728 862.036 282.29C861.263 277.797 862.376 272.394 865.105 268.695C868.558 264.015 872.997 261.949 878.566 261.14Z"/>
	<path d="M879.905 267.537C881.299 267.708 882.724 267.886 884.014 268.476C886.921 269.807 889.454 273.065 890.439 276.063C891.41 279.02 891.163 282.434 889.7 285.188C887.795 288.772 885.365 290.4 881.579 291.631C879.987 291.547 878.327 291.319 876.867 290.642C873.884 289.257 871.475 286.6 870.512 283.443C869.446 279.947 869.872 275.904 871.737 272.75C873.655 269.505 876.476 268.441 879.905 267.537Z"/>
	<path fill="#03792E" d="M422.635 333.38C425.266 332.415 429.148 332.444 432.003 332.095C448.935 330.02 466.149 329.646 483.182 330.284C493.543 330.672 504.095 331.246 514.33 333.001C558.669 338.307 603.112 352.457 642.567 373.32C660.12 382.602 677.035 393.677 693.093 405.332C705.394 414.26 716.936 423.598 727.63 434.414C730.665 437.482 733.918 440.504 736.652 443.834C743.034 451.319 749.668 458.733 755.377 466.75C762.341 476.53 768.242 487.08 774.121 497.531C779.032 508.061 784.168 518.517 788.222 529.416C793.214 542.835 796.675 556.68 800.298 570.504C800.99 573.401 802.221 575.351 800.587 577.964L797.769 581.963L797.346 581.957C782.586 595.261 767.021 608.428 750.465 619.439C680.684 665.848 597.904 687.702 514.952 692.862C500.652 693.751 486.12 694.723 471.789 694.427L468.081 694.421C460.102 694.861 451.918 694.299 443.943 693.895L403.855 690.752C378.304 687.996 352.754 684.011 327.75 677.997C259.554 661.595 193.248 629.994 140.105 583.859C139.057 583.088 137.813 582.52 136.667 581.899L134.852 580.65L136.239 572.308C137.498 565.45 140.051 558.666 142.363 552.096C144.069 547.247 145.566 542.308 147.608 537.586C149.464 531.981 152.33 526.383 154.838 521.025C166.19 496.769 180.833 473.852 198.228 453.472C220.791 427.035 247.227 403.655 276.692 385.197C305.228 367.322 336.354 354.115 368.601 344.663C385.912 339.589 404.61 334.826 422.635 333.38Z"/>
	<path fill="#099038" d="M147.608 537.586C149.464 531.981 152.33 526.383 154.838 521.025C166.19 496.769 180.833 473.852 198.228 453.472C220.791 427.035 247.227 403.655 276.692 385.197C305.228 367.322 336.354 354.115 368.601 344.663C385.912 339.589 404.61 334.826 422.635 333.38C418.754 336.973 413.685 339.728 409.398 342.891C403.395 347.319 397.982 352.623 392.832 358.005C384.321 366.897 377.383 377.257 371.263 387.892C353.68 418.451 344.531 452.952 343.214 488.13L343.276 506.014C330.337 517.514 313.8 527.027 298.385 534.812C258.479 554.967 214.061 568.74 169.358 572.013C158.456 572.812 147.169 572.663 136.239 572.308C137.498 565.45 140.051 558.666 142.363 552.096C144.069 547.247 145.566 542.308 147.608 537.586Z"/>
	<path fill="#099038" d="M514.33 333.001C558.669 338.307 603.112 352.457 642.567 373.32C660.12 382.602 677.035 393.677 693.093 405.332C705.394 414.26 716.936 423.598 727.63 434.414C730.665 437.482 733.918 440.504 736.652 443.834C743.034 451.319 749.668 458.733 755.377 466.75C762.341 476.53 768.242 487.08 774.121 497.531C779.032 508.061 784.168 518.517 788.222 529.416C793.214 542.835 796.675 556.68 800.298 570.504C780.657 571.828 760.209 571.516 740.764 568.386C694.805 560.989 650.148 541.764 611.916 515.354L601.5 508.043C600.963 507.661 598.669 506.287 598.441 505.848C598.335 505.646 598.461 503.954 598.463 503.693L598.363 496.237C597.986 487.112 597.249 477.926 595.743 468.912C591.585 444.009 584.031 419.757 572.107 397.455C562.313 379.137 549.903 359.947 533.354 346.968C528.764 343.368 523.805 340.328 519.078 336.919C517.375 335.69 515.582 334.737 514.33 333.001Z"/>
	<path fill="#099038" d="M140.105 583.859C153.566 584.151 166.973 584.617 180.422 583.589C241.47 578.923 300.581 555.173 350.421 520.096C358.056 530.464 367.838 537.752 378.341 544.995C390.56 553.422 403.007 560.209 416.423 566.504C430.597 573.154 446.431 579.327 461.973 581.822L461.337 694.099C463.552 694.181 465.892 694.109 468.081 694.421C460.102 694.861 451.918 694.299 443.943 693.895L403.855 690.752C378.304 687.996 352.754 684.011 327.75 677.997C259.554 661.595 193.248 629.994 140.105 583.859Z"/>
	<path fill="#099038" d="M471.789 694.427L477.724 693.844L477.026 582.135C493.015 577.966 508.379 572.212 523.5 565.566C542.271 557.316 560.948 547.36 577.092 534.638C582.888 530.071 588.035 524.798 593.256 519.603C616.164 537.123 642.013 551.452 668.721 562.258C680.6 567.064 692.515 571.704 704.902 575.055C720.468 579.265 736.795 581.576 752.868 582.685C762.48 583.348 772.508 583.092 782.124 582.653C787.139 582.424 792.344 581.591 797.346 581.957C782.586 595.261 767.021 608.428 750.465 619.439C680.684 665.848 597.904 687.702 514.952 692.862C500.652 693.751 486.12 694.723 471.789 694.427Z"/>
	<path fill="#099038" d="M462.463 333.676C469.484 332.246 478.413 333.563 485.236 335.546C518.224 345.131 542.947 373.032 558.864 402.358C574.419 431.015 582.306 463.83 583.318 496.25L583.527 506.158C583.536 507.008 583.736 508.328 583.347 509.073C581.807 512.027 577.153 515.519 574.626 517.75C547.863 541.37 511.765 556.524 478.188 567.589L470.552 569.509C465.567 570.215 459.714 567.801 455 566.377C428.612 558.403 403.816 545.428 381.519 529.299C377.03 526.051 358.93 512.676 358.243 508.031C357.126 500.472 357.949 491.448 358.437 483.78C360.822 446.345 371.405 409.987 393.772 379.473C410.681 356.404 433.602 338.037 462.463 333.676Z"/>
</svg>
