<svg width="1024" height="1024" viewBox="0 0 1024 1024" fill="none" xmlns="http://www.w3.org/2000/svg">
<g clip-path="url(#clip0_145_290)">
<path d="M0 984.27V0H1024V984.084V1024H0V984.27Z" fill="#08B1BB"/>
<path d="M943.725 966.666L932.881 878.111C929.877 878.111 926.682 878.461 923.927 877.125C922.567 875.473 922.233 874.697 922.013 872.5C921.462 866.994 921.88 861.195 922.011 855.657L923.051 822.672L923.435 804.326C923.368 800.46 922.715 796.238 923.096 792.41C923.498 788.373 925.165 784.543 926.836 780.886C930.026 773.904 933.629 767.076 939.736 762.181L944.91 758.665C938.02 754.537 933.005 750.725 930.877 742.5C929.205 736.037 930.303 728.963 933.748 723.269C937.117 717.701 942.81 713.688 949.118 712.216C955.613 710.699 962.481 712.043 968.087 715.623C973.695 719.204 977.854 724.753 979.095 731.349C980.253 737.5 978.571 744.661 974.978 749.767C972.451 753.359 969.071 755.963 965.545 758.507C969.178 761.113 972.558 763.713 975.415 767.18C983.951 777.537 987.56 792.507 989.658 805.446C992.576 823.436 992.138 841.359 991.488 859.5C991.326 863.998 992.172 872.546 989.474 876.154C988.207 877.848 985.778 878.647 983.75 878.795C982.071 878.917 980.022 878.423 978.448 878.913L966.41 968.657L974.433 972.273L978.829 975.401C975.806 975.649 971.827 974.321 968.684 974.056L944.091 972.97L943.725 966.666Z" fill="#01121D"/>
<path d="M955.207 886.25L955.705 886.242C956.435 893.224 955.927 900.472 956.03 907.5L957.474 944.263L958.703 962.325C958.786 964.394 959.203 967.314 958.425 969.25L956.434 969.54C954.945 969.352 952.969 969.347 951.75 968.413C951.228 966.449 951.667 963.884 951.762 961.859L952.405 947.938L955.207 886.25Z" fill="#08B1BB"/>
<path d="M52.5812 970.825L57.979 969.537C50.8067 939.839 46.6374 908.683 45.9489 878.121C42.8336 878.1 38.1722 878.688 35.8589 876.224C33.4785 873.689 34.1487 864.397 34.0893 860.93C33.8041 844.282 33.6194 827.307 35.5757 810.75C37.232 796.732 40.937 778.418 50.0715 767.25C52.8009 763.913 56.0535 761.449 59.4026 758.781L55.89 756.281C50.3708 752.145 46.3464 746.462 45.4552 739.48L45.3693 738.75C45.1026 736.633 45.0055 734.743 45.2492 732.625C45.9642 726.413 49.3258 720.737 54.2501 716.93C59.1522 713.14 65.7199 710.967 71.9425 711.769C78.8584 712.661 84.9389 715.688 89.1389 721.378C93.3345 727.062 94.5042 733.932 93.3182 740.797C91.809 749.532 86.602 754.089 79.6295 758.828C82.5066 760.527 85.5455 762.305 87.9264 764.67C92.8188 769.528 95.7791 775.698 98.5843 781.902C99.7357 784.448 101.285 787.372 101.894 790.098C102.566 793.107 101.986 797.313 101.941 800.425L101.945 825.849C101.965 830.677 101.692 835.744 102.084 840.539C102.359 843.902 104.015 846.734 104.406 850.051C105.174 856.561 104.645 863.918 104.558 870.52C104.524 873.09 104.287 875.396 102.25 877.211C99.6364 879.539 94.3168 878.552 91.1145 878.417C90.3463 899.121 87.1418 919.954 83.7053 940.362L81.291 954.088C80.4098 958.172 79.101 962.32 79.066 966.526L79.0692 966.995L78.8395 968.75L80.8457 970.75C78.79 972.492 73.4664 972.088 70.7501 972.288L56.5001 973.623C51.4951 974.225 46.4173 974.943 41.5526 976.267L52.5812 970.825Z" fill="#01121D"/>
<path d="M67.2127 884.75L67.7566 884.844L70.7961 940.383L71.6535 958C71.8216 961.303 72.4184 964.998 71.947 968.25L69.7504 968.538C68.0636 968.578 66.0049 969.02 64.6568 968C64.1873 963.81 64.875 959.214 65.158 955L65.9426 937.567L67.2127 884.75Z" fill="#08B1BB"/>
<path d="M147.495 878.126C147.046 880.663 147.165 883.642 147.022 886.233L146.219 904.306L143.994 956.599L137.063 958.077C126.975 923.507 122.152 886.696 119.338 850.863C116.734 851.183 112.546 852.093 110.074 851.157C107.702 850.258 105.422 847.535 104.606 845.19L104.383 844.5C102.349 838.566 103.485 829.703 103.476 823.33C103.452 805.71 102.933 788.086 104.919 770.548C105.984 761.137 107.902 751.779 110.334 742.633C115.339 723.815 122.181 708.125 139.658 698.01L136.004 695.893C128.957 691.715 123.541 685.952 121.527 677.82L121.335 677.018C119.967 671.556 120.293 665.779 121.749 660.361C123.759 652.885 129.066 646.419 135.732 642.587C142.031 638.966 150.56 637.13 157.651 639.129L158.5 639.383C162.305 640.46 165.723 641.965 168.865 644.397C174.597 648.833 179.539 656.038 180.44 663.348C181.255 669.964 180.78 675.868 178.107 682.087C174.764 689.864 169.131 694.494 161.447 697.592C163.985 699.022 166.643 700.424 168.919 702.254C173.324 705.796 176.737 710.448 179.869 715.099C181.278 717.192 182.691 719.019 182.961 721.607C180.748 727.951 180.554 735.23 180.07 741.891C178.818 759.119 178.851 776.346 178.91 793.61C178.935 801.015 178.177 810.02 179.648 817.223L179.744 817.393C180.114 820.259 180.125 823.591 182.75 825.352C184.642 826.622 187.619 827.035 189.835 827.521C190.544 833.455 192.017 843.719 187.932 848.712C186.158 850.88 183.901 851.171 181.25 851.296L177.892 851.357L162.148 955.618L162.095 956.187C161.863 958.965 162.526 960.416 163.694 962.873C148.394 963.602 132.639 964.876 117.833 968.91C124.223 965.215 132.081 963.515 138.047 959.353C140.021 958.698 142.46 957.912 144.422 958.955C145.878 959.729 147.61 959.021 149.25 958.836L159.25 957.827V957.417L154.305 957.007C152.862 948.494 153.098 939.485 152.69 930.855L149.969 880.096C149.956 871.538 150.806 861.314 148.511 853.032C147.261 861.092 147.684 869.946 147.495 878.126Z" fill="#01121D"/>
<path d="M327.371 939.587C322.357 929.497 320.346 918.111 318.054 907.172C312.966 882.887 309.534 858.839 307.499 834.125L301.649 833.513C299.715 833.103 298.012 831.66 297.033 829.975C294.257 825.193 295.123 815.952 295.053 810.485C294.72 784.55 295.457 758.614 301.343 733.229C304.471 719.738 309.157 703.835 319.411 693.925C321.885 691.534 324.936 689.747 327.836 687.927L325 686.601C319.307 683.967 314.941 680.586 311.68 675.134C307.589 668.294 306.674 660.828 308.663 653.104C310.577 645.669 315.508 639.502 322.143 635.681C329.545 631.418 337.262 630.515 345.375 633.003C352.199 635.094 358.381 640.225 361.715 646.524C365.731 654.113 366.425 662.086 363.805 670.31C361.025 679.034 354.443 683.456 346.784 687.532C349.944 689.178 352.976 690.769 355.703 693.099C359.969 696.744 362.928 702.252 365.336 707.24C374.76 726.763 378.219 749.21 379.631 770.676L380.568 801.769C380.786 809.576 381.584 817.985 380.774 825.753C380.573 827.681 380.386 829.272 378.991 830.736C376.329 833.532 372.195 833.389 368.635 833.533C362.309 867.734 361.452 903.443 350.135 936.596L347.533 942.472C349.683 942.542 352.349 942.302 354.25 943.381L354.75 944.339C352.346 946.256 337.287 945.978 333.3 946.157L306.317 948.09C307.56 947.458 308.651 946.967 310 946.592L320.341 943.665C322.399 943.19 325.656 943.313 327.414 942.367C327.721 942.202 327.805 941.789 328 941.5L327.469 939.614L327.371 939.587Z" fill="#01121D"/>
<path d="M343.842 936.578L344.753 941.352L333.75 942.006C332.602 940.864 332.907 939.767 332.818 938.187C336.659 938.074 340.161 937.838 343.842 936.578Z" fill="#017080"/>
<path d="M332.818 938.187L337.695 837.25L338.305 837.03C339.267 845.556 338.731 854.14 339.018 862.698L340.688 896.694C341.313 910.049 341.689 923.357 343.842 936.578C340.161 937.838 336.659 938.074 332.818 938.187Z" fill="#08B1BB"/>
<path d="M860.789 954.119L844.96 851.805C841.506 851.949 836.389 852.759 833.548 850.29C830.179 847.362 830.729 841.082 830.652 837L830.575 825.879C834.39 825.979 838.401 826.286 841.348 823.347C842.911 821.789 843.934 819.611 844.313 817.453C845.617 810.022 845.044 802.045 845.178 794.5L844.819 744.585L843.571 730.464C843.354 728.174 842.856 725.527 843.103 723.25C843.327 721.177 844.605 719.138 845.581 717.329C847.718 713.368 850.011 709.511 853.008 706.13C856.404 702.301 860.483 699.232 864.92 696.701L864.391 696.445C857.021 692.811 851.145 687.229 848.525 679.25C846.085 671.821 847.137 663.496 850.66 656.585C853.913 650.206 859.32 645.517 866.188 643.396L870.25 642.443L870.989 642.313C878.214 641.132 885.876 642.579 891.792 646.999C897.617 651.35 901.968 658.312 902.961 665.559C903.989 673.063 902.323 681.331 897.65 687.426C894.398 691.668 890.123 694.246 885.48 696.731C902.531 706.338 909.938 726.353 914.918 744.305C919.31 760.135 921.563 777.417 921.972 793.847L921.434 827.534L920.956 842.513C920.824 844.306 920.677 846.736 919.684 848.283C918.61 849.955 916.703 851.089 914.75 851.368L905.935 851.34L888.182 958.968L883.143 958.992C882.172 958.864 881.212 958.85 880.372 958.301C879.696 957.86 879.748 955.638 879.655 954.803C879.531 956.124 879.652 957.143 878.878 958.25C875.721 958.094 873.202 957.64 870.171 956.815L869.792 954.045C869.559 956.144 868.811 958.11 870.066 959.862C875.699 961.214 880.068 960.066 885.652 960.018C887.389 961.031 889.719 961.134 891.657 961.748C898.063 963.781 904.771 966.02 910.608 969.378C894.716 965.534 878.41 964.575 862.117 963.956C862.024 960.62 861.472 957.378 860.789 954.119Z" fill="#01121D"/>
<path d="M869.792 954.045L873.438 886.75L873.954 863.332C873.998 861.381 873.616 858.055 874.131 856.25C874.189 856.047 874.389 855.917 874.518 855.75C875.272 857.217 875.08 859.642 875.161 861.305L875.851 876.262L879.655 954.803C879.531 956.124 879.652 957.143 878.878 958.25C875.721 958.094 873.202 957.64 870.171 956.815L869.792 954.045Z" fill="#08B1BB"/>
<path d="M672.862 935.075L655.411 833.009C652.217 833.097 647.389 833.921 644.745 831.75C643.387 830.635 642.957 828.408 642.778 826.77C642.238 821.802 642.739 816.368 642.831 811.363L643.19 785.433C643.68 760.898 645.474 734.132 655.897 711.581C658.707 705.502 662.111 699.502 667.015 694.85C670.176 691.852 674.117 689.832 677.887 687.714C670.332 684.559 664.643 680.744 661.356 672.886C658.446 665.927 658.227 657.913 661.238 650.957C664.215 644.08 669.52 638.635 676.534 635.88C683.331 633.21 691.67 632.924 698.407 635.909C705.556 639.076 710.907 644.933 713.634 652.249C716.25 659.268 715.992 666.658 712.854 673.435C709.656 680.342 704.339 683.724 698.187 687.7C701.82 689.884 705.305 692.07 708.325 695.076C717.002 703.713 721.503 716.357 724.393 728.021C726.496 736.515 727.878 745.177 728.709 753.885C730.622 773.922 730.358 794.209 730.089 814.316C730.033 818.541 730.107 822.842 729.7 827.05C729.604 828.041 729.567 829.651 729.036 830.519C728.456 831.467 727.606 832.148 726.75 832.833C724.009 833.115 721.43 833.283 718.669 833.151L700.158 938.13C699.664 939.499 699.47 940.093 698.25 940.99L694.528 940.911L692.255 940.25L691.662 938.588C688.712 937.743 685.405 938.03 682.353 938.023L682.014 940.75C680.074 941.957 676.275 942.046 673.982 942.027C673.825 939.696 673.289 937.37 672.862 935.075Z" fill="#01121D"/>
<path d="M682.354 938.023L686.25 841.452L686.799 841.75L691.662 938.588C688.712 937.743 685.406 938.03 682.354 938.023Z" fill="#08B1BB"/>
<path d="M767.797 944.515L749.009 824.164C744.737 824.28 738.331 825.239 735.074 821.771C733.719 820.327 732.906 818.005 732.623 816.071C731.755 810.129 732.466 803.01 732.492 796.965C732.563 780.068 732.56 763.147 733.992 746.295C736.276 719.416 740.585 690.841 753.977 667.033C758.032 659.824 762.85 652.875 769.243 647.54C771.896 645.325 774.972 644.303 777.675 642.355C765.576 636.957 755.95 630.363 750.959 617.477C746.559 606.116 746.581 594.743 751.537 583.512C755.943 573.525 764.528 565.632 774.711 561.798C784.735 558.024 796.249 558.453 805.932 563.019C815.889 567.714 823.787 576.341 827.434 586.75L828.779 591.634C831.607 602.369 829.306 614.781 823.694 624.238C818.143 633.592 810.203 637.671 800.83 642.379C804.602 644.488 808.155 646.631 811.337 649.582C823.781 661.12 831.652 680.583 836.206 696.61C839.191 707.118 841.009 717.933 842.155 728.788C844.521 751.198 844.045 773.832 843.59 796.323C843.456 802.981 844.797 815.37 841.348 821.211C840.246 823.077 838.545 824.143 836.5 824.659L835.969 824.797C833.409 825.398 830.219 824.671 827.617 824.435C826.864 841.883 823.142 859.234 820.268 876.434L807.515 948.414L807.136 949.487C808.84 951.076 812.154 951.796 814.375 952.599C819.93 954.608 825.551 956.464 830.959 958.85C830.058 958.929 830.363 958.967 829.567 958.82C809.755 955.144 789.456 953.929 769.335 953.924L767.797 944.515Z" fill="#01121D"/>
<path d="M788.198 831.25L788.62 831.461C789.3 835.407 788.81 839.947 788.841 843.969L789.396 860.184L792.454 925.6L793.613 941.266C793.765 943.52 794.312 946.402 793.519 948.506L792.547 948.753L792.75 947.849L789.25 947.745L789.508 948.37L790.166 948.656C787.293 948.721 784.614 948.667 781.764 948.269C780.988 944.729 781.492 940.545 781.714 936.932L782.848 919.5L785.536 876.459L786.889 849.168C787.151 843.244 787.088 837.072 788.198 831.25Z" fill="#08B1BB"/>
<path d="M183.377 721.787C186.209 703.618 190.298 685.097 198.693 668.597C202.69 660.74 207.822 653.288 215.025 648.044C218.256 645.691 221.762 644.115 225.401 642.499C222.286 641.361 219.215 640.573 216.217 639.087C208.025 635.029 201.229 627.683 197.427 619.405C192.506 608.693 192.141 596.93 196.348 585.936C200.256 575.726 207.614 568.166 217.584 563.756C228.266 559.03 239.924 558.946 250.75 563.314C260.944 567.427 268.743 575.412 272.986 585.5C277.321 595.808 277.232 607.63 273.007 617.967C267.55 631.32 258.178 637.111 245.424 642.558C248.687 644.092 252.052 645.547 254.969 647.694C266.808 656.411 273.904 670.943 278.784 684.43C291.815 720.444 292.509 758.664 292.559 796.487L292.519 810.187C292.486 813.796 292.661 817.687 291.064 821.028C290.219 822.795 288.682 824.355 286.75 824.869C283.871 825.635 280.538 825.217 277.61 824.98C274.008 854.413 268.324 883.409 261.978 912.365L255.831 937.259C254.883 940.514 254.07 944.169 252.639 947.243L250.921 948.75C251.505 950.946 254.086 952.467 255.87 953.863L198.333 959.787C203.668 957.12 209.502 955.05 214.555 951.905L220.752 950.156C213.701 928.279 209.448 905.583 205.399 883C201.975 863.907 198.76 844.746 196.891 825.429C192.91 825.958 186.541 826.815 183.25 824.003C181.188 822.241 181.126 818.566 180.852 816.1L183.377 721.787Z" fill="#01121D"/>
<path d="M236.624 827.25L237.299 827.344L241.989 920.466L243.485 938.5C243.765 941.265 245.007 946.477 243.75 948.903L239.124 949.332L231.463 949.545L236.624 827.25Z" fill="#08B1BB"/>
<path d="M481.567 925.543C496.11 924.998 510.648 924.625 525.177 925.645C529.521 925.95 533.861 926.685 538.142 927.463C540.054 927.811 541.983 928.536 543.933 928.455L545.153 926.701C549.883 926.5 555.024 927.591 559.516 929.057C561.783 928.874 564.188 928.796 566.411 928.317C568.001 927.975 569.22 926.966 570.75 926.615C572.151 926.293 574.064 926.434 575.5 926.527L584.5 927.531L641.75 932.817L663.893 935.218C666.473 935.431 670.448 936.114 672.862 935.075C673.289 937.37 673.825 939.696 673.982 942.027C676.275 942.046 680.074 941.957 682.014 940.75L682.353 938.023C685.405 938.03 688.712 937.743 691.662 938.588L692.255 940.25L694.528 940.911L698.25 940.99C699.47 940.093 699.664 939.499 700.158 938.13C700.439 938.414 700.648 938.794 701 938.98C701.409 939.197 703.134 939.148 703.641 939.186L712.043 939.538C730.127 940.014 748.298 944.03 766.391 944.717C767.112 944.744 766.923 944.716 767.797 944.515L769.335 953.924C789.456 953.929 809.755 955.144 829.567 958.82C830.363 958.967 830.058 958.929 830.959 958.85C825.551 956.464 819.93 954.608 814.375 952.599C812.154 951.796 808.84 951.076 807.136 949.487L807.515 948.414L859.75 954.987L860.789 954.119C861.472 957.378 862.024 960.62 862.117 963.956C878.41 964.575 894.716 965.534 910.608 969.378C904.771 966.02 898.063 963.781 891.657 961.748C889.719 961.134 887.389 961.031 885.652 960.018C880.068 960.066 875.699 961.214 870.066 959.862C868.811 958.11 869.559 956.144 869.792 954.045L870.171 956.815C873.202 957.64 875.721 958.094 878.878 958.25C879.652 957.143 879.531 956.124 879.655 954.803C879.748 955.638 879.696 957.86 880.372 958.301C881.212 958.85 882.172 958.864 883.143 958.992L888.182 958.968L943.725 966.666L944.091 972.97L968.684 974.056C971.827 974.321 975.806 975.649 978.829 975.401L974.433 972.273C979.628 972.067 985.056 974.097 990.062 975.316L1024 984.084V1024H0V984.27C9.76001 980.893 20.1888 978.517 30.1719 975.816L44.1593 972.156C46.9714 971.47 49.6473 970.567 52.5811 970.825L41.5525 976.267C46.4172 974.943 51.495 974.225 56.5 973.623L70.75 972.288C73.4663 972.088 78.7899 972.492 80.8456 970.75L78.8394 968.75L79.0691 966.995C83.2174 967.693 87.9803 966.002 92.0838 965.333L121.93 960.951C126.751 960.255 133.275 958.436 138.047 959.353C132.081 963.515 124.223 965.215 117.833 968.91C132.639 964.876 148.394 963.602 163.694 962.873C162.526 960.416 161.863 958.965 162.095 956.187L162.148 955.618C162.458 956.189 162.345 955.879 162.461 956.714L162.546 957.389C166.894 958.063 173.191 956.609 177.611 956.011L200.025 953.189C204.861 952.62 209.677 951.865 214.555 951.905C209.502 955.05 203.668 957.12 198.333 959.787L255.87 953.863C254.086 952.467 251.505 950.946 250.921 948.75L252.639 947.243L327.371 939.587L327.469 939.614L328 941.5C327.805 941.789 327.721 942.202 327.414 942.367C325.656 943.313 322.399 943.19 320.341 943.665L310 946.592C308.651 946.967 307.56 947.458 306.317 948.09L333.3 946.157C337.287 945.978 352.346 946.256 354.75 944.339L354.25 943.381C352.349 942.302 349.683 942.542 347.533 942.472L350.135 936.596C353.262 937.852 377.962 934.138 383.14 933.585L481.567 925.543Z" fill="#017080"/>
<path d="M682.353 938.023C685.405 938.03 688.712 937.743 691.662 938.588L692.255 940.25L694.528 940.911L694.055 942.188C704.219 941.941 716.39 945.396 725.084 950.744C713.415 947.829 701.729 946.985 689.75 946.48C686.572 946.346 676.071 946.882 674.164 945.16L673.874 944.082L673.486 943.224L673.982 942.027C676.275 942.046 680.074 941.957 682.014 940.75L682.353 938.023Z" fill="#01121D"/>
<path d="M682.353 938.023C685.405 938.03 688.712 937.743 691.662 938.588L692.255 940.25L694.528 940.911L694.055 942.188L674.764 943.012L673.874 944.082L673.486 943.224L673.982 942.027C676.275 942.046 680.074 941.957 682.014 940.75L682.353 938.023Z" fill="#006075"/>
<path d="M481.567 925.543C496.11 924.998 510.648 924.625 525.177 925.645C529.521 925.95 533.861 926.685 538.142 927.463C540.054 927.811 541.983 928.536 543.933 928.455L545.153 926.701C549.883 926.5 555.024 927.591 559.516 929.057L567.976 932.25L599.897 942.969C589.852 943.05 579.668 942.351 569.813 940.262C561.791 938.562 553.221 935.927 545.098 935.184L507.821 930.769C502.591 930.251 496.883 930.299 491.75 929.297C489.856 928.927 488.118 928.017 486.227 927.657C483.965 927.226 482.156 927.636 480.255 926.25L480.736 926.121L481.567 925.543Z" fill="#053C46"/>
<path d="M535.111 878.817L544.767 884.127L545.926 884.751C546.042 884.811 546.307 884.908 546.389 884.99C546.498 885.099 546.615 885.442 546.693 885.599L547.749 887.767L553.359 899.449L554.21 901.214C554.276 901.351 554.373 901.653 554.468 901.746C554.533 901.811 555.86 902.216 556.079 902.304L563 905.023L551.375 905.051L544.998 891.973L543.608 889.001C543.501 888.773 543.307 888.234 543.129 888.089C542.984 887.971 542.684 887.872 542.511 887.787L541.027 887.029L537.616 885.177C536.929 884.793 536.248 884.364 535.536 884.029C535.507 883.99 535.472 883.956 535.451 883.913C535.414 883.836 535.439 883.515 535.435 883.418L535.376 881.903L535.111 878.817Z" fill="black"/>
<path d="M481.981 878.927L481.755 881.772L481.695 883.293C481.691 883.486 481.723 883.706 481.634 883.88C480.702 884.375 473.722 887.714 473.493 887.986C473.299 888.217 473.155 888.637 473.024 888.911L471.554 892.218L465.866 905.044L454 905.013C454.923 904.567 455.924 904.245 456.884 903.885L461.399 902.153C461.682 902.042 462.509 901.83 462.701 901.627C462.86 901.458 463.015 900.94 463.124 900.698L465.092 896.206L468.964 887.435L469.825 885.517C469.907 885.327 470.007 884.942 470.127 884.787C470.198 884.695 471.54 884.118 471.764 884.006L481.981 878.927Z" fill="black"/>
<path d="M483.091 906.717L484.425 911.555C484.002 911.815 483.612 912.17 483.228 912.484L481.145 914.203L474.578 919.528L474.59 940.35L463.681 949.219L465.446 946.708L469.218 941.336L470.033 940.211C470.098 940.121 470.286 939.905 470.309 939.798C470.386 939.455 470.298 938.856 470.296 938.494L470.285 934.535L470.3 917.873C472.089 916.622 473.717 914.987 475.354 913.535L483.091 906.717Z" fill="black"/>
<path d="M533.847 906.82L542.724 914.384L545.782 916.988C546.123 917.285 546.628 917.637 546.872 918.01L546.878 934.819C546.879 935.506 546.777 939.685 546.948 940.056C547.433 941.109 548.276 942.167 548.919 943.142L551.432 947.042C551.846 947.659 552.452 948.308 552.747 948.975L550.681 947.258L546.187 943.585C545.023 942.616 543.771 941.397 542.445 940.665L542.507 919.435L536.067 914.424C534.923 913.524 533.631 912.625 532.607 911.588L533.847 906.82Z" fill="black"/>
<path d="M495.244 842.988C495.113 842.774 495.217 842.509 495.275 842.271C496.11 838.831 498.083 835.941 501.137 834.092L502.614 833.333C502.325 832.365 501.909 831.439 501.519 830.51C499.229 825.052 495.867 820.055 491.494 816.049C492.367 816.449 493.185 817.187 493.913 817.804C497.014 820.431 499.658 823.692 501.743 827.172C502.61 828.618 503.418 830.103 504.007 831.686L504.343 832.624C507.234 831.812 509.742 831.764 512.62 832.658C514.68 826.867 518.733 821.191 523.603 817.442C524.242 816.95 524.908 816.39 525.613 816C525.157 816.491 524.649 816.925 524.174 817.397L521.832 819.911C518.47 823.77 516.096 828.464 514.331 833.244C515.249 833.697 516.128 834.166 516.939 834.798C518.99 836.396 520.451 838.723 521.282 841.161C521.465 841.699 521.7 842.432 521.698 842.999L520.118 843.711L516.895 844.98L510.979 847.327L509.346 847.963C509.129 848.047 508.819 848.204 508.589 848.238C508.23 848.292 496.638 843.538 495.244 842.988Z" fill="black"/>
<path d="M515.464 837.761C515.856 837.744 516.218 837.743 516.588 837.89C517.082 838.087 517.467 838.53 517.66 839.018C517.878 839.567 517.877 840.124 517.635 840.667C517.368 841.264 516.838 841.582 516.261 841.817C515.83 841.85 515.474 841.861 515.068 841.675C514.545 841.434 514.175 841.037 513.977 840.498C513.771 839.935 513.83 839.296 514.111 838.77C514.412 838.205 514.877 837.948 515.464 837.761Z" fill="white"/>
<path d="M500.842 837.761C501.284 837.719 501.724 837.714 502.143 837.88C502.661 838.084 503.069 838.541 503.265 839.056C503.441 839.52 503.412 840.124 503.212 840.573C502.937 841.19 502.46 841.548 501.847 841.789C501.455 841.875 501.055 841.869 500.68 841.721C500.18 841.525 499.707 841.104 499.507 840.599C499.299 840.073 499.249 839.512 499.478 838.986C499.763 838.327 500.201 838.016 500.842 837.761Z" fill="white"/>
<path d="M483.788 868.906L484.539 866.799C485.058 865.497 485.674 864.273 486.342 863.04C484.647 862.053 470.101 852.851 470.085 852.808C470.043 852.694 470.101 852.28 470.103 852.145L470.132 850.066L470.136 837.857L470.132 835.747C470.132 835.548 470.182 835.199 470.13 835.025C470.03 834.694 469.597 834.221 469.389 833.938L467.096 830.858L463.544 825.917C464.617 826.598 465.631 827.563 466.636 828.352L474.519 834.629L474.452 850.317C474.459 850.351 474.469 850.388 474.493 850.412C474.66 850.583 475.1 850.76 475.315 850.894L478.622 852.958L488.966 859.551C489.8 858.65 490.613 857.731 491.518 856.9C493.341 855.227 495.355 853.847 497.492 852.61C500.342 851.137 503.252 850.084 506.333 849.215L506.355 868.619L481.786 893.35L481.774 891.262L481.634 883.879C481.722 883.706 481.69 883.486 481.695 883.293L481.755 881.772L481.981 878.927C482.031 877.721 482.241 876.494 482.425 875.301C482.758 873.15 483.135 870.987 483.788 868.906Z" fill="black"/>
<path d="M483.788 868.906L504.184 868.839L481.774 891.261L481.634 883.879C481.723 883.706 481.69 883.486 481.695 883.293L481.755 881.772L481.981 878.927C482.031 877.721 482.241 876.494 482.425 875.301C482.758 873.15 483.136 870.986 483.788 868.906Z" fill="#D60D00"/>
<path d="M519.301 852.542C520.258 853.095 521.247 853.614 522.171 854.219C524.496 855.741 526.406 857.535 528.195 859.655C528.542 859.536 528.91 859.222 529.223 859.017L531.126 857.8L542.579 850.563L542.517 834.59L553.249 825.952L548.982 832.121L547.42 834.28C547.253 834.515 546.936 834.868 546.847 835.133C546.79 835.306 546.831 835.658 546.827 835.853L546.816 838.697L546.813 850.43L546.812 852.413C546.812 852.567 546.856 852.912 546.812 853.048C546.76 853.212 532.231 862.239 530.791 863.188C531.756 865.065 532.608 866.842 533.248 868.865C534.17 872.044 534.93 875.507 535.111 878.816L535.376 881.903L535.435 883.418C535.439 883.515 535.414 883.836 535.451 883.913C535.472 883.956 535.507 883.99 535.536 884.029C535.425 884.365 535.477 884.738 535.487 885.088L535.531 887.015L535.523 891.767L535.45 893.841L510.612 868.734L510.617 849.23C513.627 850.051 516.531 851.097 519.301 852.542Z" fill="black"/>
<path d="M533.248 868.865C534.169 872.044 534.93 875.507 535.111 878.817L535.376 881.903L535.435 883.418C535.438 883.515 535.414 883.836 535.451 883.914C535.472 883.956 535.507 883.99 535.536 884.029C535.425 884.365 535.477 884.738 535.487 885.088L535.531 887.015L535.522 891.767C534.752 890.667 533.626 889.696 532.677 888.743L527.681 883.75L518.427 874.542L512.717 868.851L527.472 868.914L531.36 868.915C531.918 868.914 532.575 868.977 533.123 868.887L533.248 868.865Z" fill="#D60D00"/>
<path d="M495.244 842.988C496.638 843.538 508.23 848.292 508.589 848.238C508.819 848.204 509.129 848.047 509.346 847.963L510.979 847.327L516.895 844.98L520.118 843.711L521.698 842.999C522.19 846.582 521.369 849.604 519.301 852.542C516.531 851.097 513.628 850.051 510.617 849.231L510.612 868.734L535.451 893.841C535.378 896.999 534.982 900.156 534.5 903.275C534.316 904.462 534.168 905.66 533.848 906.82L532.608 911.588C531.382 915.816 529.385 920.008 526.942 923.669C526.523 924.297 526.067 925.044 525.543 925.588C524.177 927.378 522.568 929.058 520.946 930.617C517.95 933.495 514.542 936.271 510.63 937.802C510.136 937.861 509.447 938.288 508.98 938.489C508.886 938.53 508.617 938.684 508.525 938.685C508.441 938.686 508.213 938.55 508.123 938.508C507.612 938.27 507.051 937.917 506.507 937.772L506.371 937.739C505.705 937.571 504.925 937.095 504.314 936.774C501.01 935.035 498.156 932.631 495.561 929.968C494.099 928.467 492.714 926.918 491.47 925.23C491.253 924.698 490.799 924.163 490.471 923.692L489.196 921.755C487.649 919.335 486.419 916.742 485.356 914.08C485.036 913.277 484.621 912.393 484.425 911.555L483.091 906.716C482.785 905.584 482.661 904.395 482.506 903.234C482.068 899.959 481.788 896.656 481.786 893.35L506.356 868.619L506.334 849.215C503.252 850.084 500.342 851.137 497.493 852.609C497.116 852.217 496.829 851.718 496.567 851.245C495.731 849.742 495.231 848.069 495.077 846.357C494.999 845.488 495.015 844.587 495.075 843.717C495.092 843.462 495.072 843.193 495.244 842.988Z" fill="black"/>
<path d="M495.243 842.988C496.638 843.538 508.23 848.292 508.588 848.238C508.818 848.204 509.128 848.047 509.346 847.963L510.978 847.327L516.894 844.98L520.117 843.711L521.697 842.999C522.189 846.582 521.368 849.604 519.301 852.542C516.53 851.097 513.627 850.051 510.616 849.231L510.612 868.734C510.611 869.271 510.531 869.936 510.625 870.457L510.629 937.802C510.136 937.861 509.446 938.288 508.979 938.489C508.886 938.53 508.616 938.684 508.524 938.685C508.441 938.686 508.212 938.55 508.122 938.508C507.611 938.27 507.05 937.917 506.507 937.772L506.37 937.739L506.331 870.46L506.355 868.619L506.333 849.215C503.252 850.084 500.341 851.137 497.492 852.609C497.115 852.217 496.829 851.718 496.566 851.245C495.73 849.742 495.23 848.069 495.076 846.357C494.998 845.488 495.015 844.587 495.074 843.717C495.091 843.462 495.071 843.193 495.243 842.988Z" fill="#FEB119"/>
<path d="M506.332 870.46L506.371 937.739C505.704 937.571 504.925 937.095 504.314 936.774C501.01 935.035 498.156 932.631 495.561 929.968C494.099 928.467 492.714 926.918 491.47 925.23C492.084 923.557 492.469 921.773 492.947 920.057L495.51 910.874L503.289 882.256L505.426 874.133L506.001 871.772C506.104 871.327 506.162 870.887 506.332 870.46Z" fill="black"/>
<path d="M510.612 868.734L535.451 893.841C535.378 896.999 534.982 900.156 534.5 903.275C534.316 904.462 534.168 905.66 533.848 906.82L532.608 911.588C531.382 915.816 529.385 920.008 526.942 923.669C526.523 924.297 526.067 925.044 525.543 925.588L522.217 913.669L514.541 885.143L512.676 878.165L511.399 873.216L510.979 871.571C510.885 871.194 510.833 870.789 510.625 870.457C510.532 869.936 510.612 869.272 510.612 868.734Z" fill="#D60D00"/>
<path d="M523.875 891.291C524.34 891.269 524.723 891.275 525.163 891.464C525.68 891.686 526.113 892.112 526.32 892.638C526.565 893.259 526.543 893.839 526.264 894.445C525.953 895.122 525.456 895.422 524.786 895.672C524.43 895.719 524.122 895.741 523.768 895.656C523.136 895.505 522.731 895.12 522.414 894.569C522.149 894.11 522.004 893.468 522.165 892.946L522.19 892.871C522.236 892.726 522.279 892.583 522.352 892.448C522.693 891.812 523.192 891.482 523.875 891.291Z" fill="black"/>
<path d="M481.786 893.35L506.356 868.619L506.332 870.46C506.162 870.887 506.104 871.327 506.001 871.772L505.426 874.133L503.289 882.256L495.51 910.874L492.947 920.057C492.47 921.773 492.084 923.557 491.47 925.23C491.253 924.698 490.799 924.163 490.471 923.692L489.196 921.755C487.649 919.335 486.419 916.742 485.356 914.08C485.036 913.277 484.621 912.393 484.425 911.555L483.091 906.716C482.785 905.584 482.661 904.395 482.506 903.234C482.068 899.959 481.788 896.656 481.786 893.35Z" fill="#D60D00"/>
<path d="M492.408 891.587C492.815 891.612 493.168 891.661 493.527 891.865C494.042 892.159 494.352 892.671 494.494 893.233C494.642 893.822 494.516 894.447 494.186 894.952C493.833 895.49 493.226 895.673 492.633 895.805C492.172 895.808 491.751 895.761 491.351 895.513C490.878 895.221 490.558 894.728 490.427 894.193C490.294 893.652 490.353 893.113 490.662 892.643C491.079 892.006 491.69 891.732 492.408 891.587Z" fill="black"/>
</g>
<defs>
<clipPath id="clip0_145_290">
<rect width="1024" height="1024" fill="white"/>
</clipPath>
</defs>
</svg>
