<?xml version="1.0" encoding="utf-8" ?>
<svg xmlns="http://www.w3.org/2000/svg" xmlns:xlink="http://www.w3.org/1999/xlink" width="1024" height="1024">
	<path fill="#849DA2" d="M-0 -0L1024 0L1024 1024L-0 1024L0 -0Z"/>
	<path fill="#B13237" d="M747.069 288.789C749.741 280.635 751.596 271.839 752.711 263.328C753.161 259.892 752.875 256.439 753.621 253.038C821.056 315.874 862.539 403.459 865.81 495.912C866.495 515.247 866.246 534.75 864.01 553.988C859.041 596.735 846.055 638.962 825.847 676.954C809.883 706.969 788.965 735.097 765.805 759.92C748.917 778.021 729.49 793.767 708.929 807.493C653.68 844.376 589.401 865.664 522.928 867.924C455.499 870.218 387.485 850.673 330.279 815.211C308.195 801.521 287.727 785.278 268.819 767.483C254.273 753.792 240.699 738.736 228.719 722.743C224.328 716.881 219.75 710.951 216.046 704.628C220.11 706.598 223.775 709.3 227.587 711.703L246 722.483C277.837 739.675 312.395 753.304 347.535 761.929C374.844 768.633 403.718 772.749 431.881 772.868C470.842 773.033 510.187 765.772 547.026 753.363C569.628 745.75 592.053 735.887 612.462 723.461C671.496 687.519 720.621 637.06 749.99 574C759.734 553.077 767.088 530.411 772.504 507.99C786.46 450.222 783.931 388.47 765.62 332C760.967 317.652 754.934 302.337 747.021 289.421L747.069 288.789Z"/>
	<path fill="#D64A4D" d="M747.021 289.421C754.934 302.337 760.967 317.652 765.62 332C783.931 388.47 786.46 450.222 772.504 507.99C767.088 530.411 759.734 553.077 749.99 574C720.621 637.06 671.496 687.519 612.462 723.461C592.053 735.887 569.628 745.75 547.026 753.363C510.187 765.772 470.842 773.033 431.881 772.868C403.718 772.749 374.844 768.633 347.535 761.929C312.395 753.304 277.837 739.675 246 722.483L227.587 711.703C223.775 709.3 220.11 706.598 216.046 704.628L215.89 704.527C209.919 697.421 205.186 687.833 200.782 679.715C177.014 635.91 162.809 588.788 158.805 539.062C186.526 556.251 216.75 568.728 248.207 577.244C272.724 583.88 298.422 587.481 323.75 588.833C368.599 591.227 414.178 586.591 457.452 574.344C493.156 564.239 526.704 549.314 558.833 530.892C574.389 521.973 588.97 511.624 603.126 500.649C671.018 448.017 724.534 372.75 747.021 289.421Z"/>
	<path fill="#E1807F" d="M158.805 539.062L158.685 538.618C157.991 534.822 158.135 530.371 158.014 526.508L157.836 503.535C159.372 434.453 182.287 364.045 222.083 307.5C266.317 244.648 331.041 197.517 404.169 173.987C420.537 168.72 437.359 164.969 454.292 162.049C521.538 150.452 593.745 160.083 655.797 188.476C666.498 193.372 678.561 198.842 688.182 205.638C693.504 207.757 698.763 211.606 703.561 214.728C721.292 226.265 738.013 238.717 753.621 253.038C752.875 256.439 753.161 259.892 752.711 263.328C751.596 271.839 749.741 280.635 747.069 288.789L747.021 289.421C724.534 372.75 671.018 448.017 603.126 500.649C588.97 511.624 574.389 521.973 558.833 530.892C526.704 549.314 493.156 564.239 457.452 574.344C414.178 586.591 368.599 591.227 323.75 588.833C298.422 587.481 272.724 583.88 248.207 577.244C216.75 568.728 186.526 556.251 158.805 539.062Z"/>
	<path fill="#D64A4D" d="M688.182 205.638C693.504 207.757 698.763 211.606 703.561 214.728C721.292 226.265 738.013 238.717 753.621 253.038C752.875 256.439 753.161 259.892 752.711 263.328C751.596 271.839 749.741 280.635 747.069 288.789L733.938 266C727.943 256.122 721.305 246.499 714.391 237.238C706.164 226.218 696.729 216.343 688.182 205.638Z"/>
	<path fill="#D64A4D" d="M487.411 252.706C492.625 252.207 498.588 252.154 503.786 252.833C521.196 255.108 535.952 261.245 549.58 272.407C566.201 286.021 576.586 306.162 578.574 327.524C580.605 349.346 574.19 371.279 560.25 388.181C557.226 391.847 553.559 395.71 549.83 398.666C535.829 409.764 520.873 416.131 503.122 418.243L502.328 418.357C497.104 419.047 490.981 418.646 485.75 418.069C469.797 416.307 456.052 410.812 443.415 400.845C425.439 386.667 414.647 365.5 412.357 342.885C410.311 322.674 416.963 300.305 429.785 284.517C444.533 266.359 464.064 255.118 487.411 252.706Z"/>
</svg>
