<svg width="238" height="238" viewBox="0 0 238 238" fill="none" xmlns="http://www.w3.org/2000/svg">
<rect width="238" height="238" fill="#EC73B5"/>
<path d="M66.0685 66.8842C59.9967 67.8377 55.1246 76.0704 51.0839 80.0889C47.2854 83.8666 42.6052 88.9129 42.2164 94.5198C41.7589 101.117 42.169 107.853 42.169 114.468C42.169 122.695 41.6776 131.022 44.7296 138.85C48.9886 149.773 59.944 158.295 69.9095 164.033C73.024 165.826 75.7281 167.773 78.4924 170.022C84.4523 174.872 94.6328 175.759 101.728 177.238C125.967 182.29 148.325 180.47 171.388 171.296C180.896 167.513 189.139 159.269 192.869 149.791C195.489 143.13 194.955 134.834 194.955 127.814C194.955 116.908 194.898 106.71 190.735 96.359C186.543 85.938 179.941 73.077 171.103 65.7524C161.895 58.1213 149.545 55 137.767 55C118.533 55 99.5083 61.9601 85.4157 74.8542C79.5825 80.1913 78.3965 88.415 76.7379 95.7459C74.854 104.073 74.1854 114.571 76.3111 122.91C80.0982 137.766 98.3323 146.775 112.208 149.649C120.187 151.303 130.14 152.223 137.625 148.282C144.185 144.828 146.34 137.317 146.966 130.644C147.851 121.218 141.174 112.07 135.206 105.272C129.632 98.9223 119.915 98.1824 111.971 99.2357C104.305 100.252 101.064 102.695 101.064 110.224C101.064 114.906 100.011 120.165 103.625 123.759C106.877 126.993 110.665 126.55 114.911 125.645C116.261 125.357 121.624 123.63 122.308 122.438C125.956 116.09 117.397 118.162 116.428 115.27" stroke="white" stroke-width="5" stroke-linecap="round"/>
</svg>
