<?xml version="1.0" encoding="utf-8" ?>
<svg xmlns="http://www.w3.org/2000/svg" xmlns:xlink="http://www.w3.org/1999/xlink" width="1024" height="1024">
	<path fill="#55C99E" d="M-0 -0L1024 0L1024 1024L-0 1024L0 -0Z"/>
	<path fill="#F47221" d="M377.536 546.474C381.954 544.597 387.32 543.64 391.963 542.27L434.36 530.303L497.619 512.594C501.485 511.679 507.129 509.454 510.996 510.147L510.739 510.659L464.657 618.109L456.086 638.926C454.689 642.342 453.458 646.515 451.322 649.534C444.794 653.782 437.754 657.303 430.936 661.063L389.736 683.496L288.238 739.802L225.102 775.118L211.979 782.445C209.867 783.596 207.599 785.091 205.328 785.856C205.893 785.108 207.357 782.744 208.109 782.433C209.41 779.765 211.6 777.241 213.365 774.828L223.366 761.12L261.074 708.692L345.572 591.401L377.536 546.474Z"/>
	<path fill="#E22329" d="M377.536 546.474C381.954 544.597 387.32 543.64 391.963 542.27L434.36 530.303L497.619 512.594C501.485 511.679 507.129 509.454 510.996 510.147L510.739 510.659C509.434 510.96 508.416 511.3 507.352 512.143C499.714 518.186 492.623 525.213 485.295 531.651L420.637 589.964L267.21 729.358L226.795 766.868L215.647 777.012C213.414 779.004 210.959 781.424 208.109 782.433C209.41 779.765 211.6 777.241 213.365 774.828L223.366 761.12L261.074 708.692L345.572 591.401L377.536 546.474Z"/>
	<path fill="#FDC06A" d="M512.408 73.4418L574.011 415.938C573.274 416.374 572.798 416.695 572.31 417.421L543.595 462.613L515.94 504.5C514.701 506.545 513.701 508.53 513.147 510.871C512.766 512.483 512.966 514.53 512.959 516.197L512.889 527.405L512.492 588.733L512.404 811.471L512.421 914.859L512.705 937.083C512.75 940.781 512.352 944.95 513.025 948.567L512.874 948.522C511.908 946.793 511.686 944.926 511.216 943.024L508.469 929.5L503.694 904.472L487.641 823.097L464.353 711.5L455.251 668.714C453.926 662.34 452.308 655.968 451.322 649.534C453.458 646.515 454.689 642.342 456.086 638.926L464.657 618.109L510.739 510.659L510.996 510.147L511.44 509.73C512.228 508.776 512.36 507.699 512.437 506.5C513.361 492.114 512.739 477.243 512.742 462.81L512.612 379.679L512.743 178.901L512.408 73.4418Z"/>
	<path fill="#F47221" d="M450.462 415.917C451.245 413.943 451.397 411.36 451.767 409.243L454.056 396.202L462.692 349.312L500.685 134.829L507.684 93.4199L510.265 78.4069C510.655 76.064 510.665 73.4418 511.606 71.25L512.108 71.4437L512.408 73.4418L512.743 178.901L512.612 379.679L512.742 462.81C512.739 477.243 513.361 492.114 512.437 506.5C512.36 507.699 512.228 508.776 511.44 509.73L510.996 510.147C507.129 509.454 501.485 511.679 497.619 512.594L434.36 530.303L391.963 542.27C387.32 543.64 381.954 544.597 377.536 546.474C375.679 544.284 370.259 542.337 367.556 540.891L338.267 525.119L199.329 449.674L135.096 415.596C137.244 415.597 139.283 415.62 141.415 415.94L450.462 415.917Z"/>
	<path fill="#E22329" d="M141.415 415.94L450.462 415.917C453.216 419.061 455.515 423.775 457.797 427.34L474.648 453.535L511.667 508.376C508.198 507.297 504.9 505.758 501.393 504.75L455.562 493.179L382.675 474.786L205.55 431.578L167.5 422.543L150.739 418.818C147.721 418.159 143.98 417.717 141.415 415.94Z"/>
	<path fill="#E22329" d="M574.011 415.938L887.796 415.955L882.701 418.282L851.405 435.109L698.181 519.661L660.499 540.251C656.378 542.512 651.337 544.532 647.535 547.154L819.98 791.083C819.347 790.547 816.213 788.226 816.135 787.664C810.053 785.382 804.228 780.938 798.806 777.376L775.931 762.827L743.356 744.275L689.626 713.368L606.697 668.381C595.393 662.253 583.209 656.628 572.488 649.564C570.539 652.515 570.19 657.536 569.484 661.011L563.838 690.124L546.457 777.53L540.548 810.357L528.592 869.12L518.019 923.789C516.408 931.986 515.239 940.512 513.025 948.567C512.352 944.95 512.75 940.781 512.705 937.083L512.421 914.859L512.404 811.471L512.492 588.733L512.889 527.405L512.959 516.197C512.966 514.53 512.766 512.483 513.147 510.871C513.701 508.53 514.701 506.545 515.94 504.5L543.595 462.613L572.31 417.421C572.798 416.695 573.274 416.374 574.011 415.938Z"/>
	<path fill="#F47221" d="M572.488 649.564L572.196 648.591L513.497 510.228C520.144 513.86 526.241 519.954 532.013 524.873L572.464 560.329L683.549 660.277L766.256 738.734L810.719 782.054C812.331 783.762 815.04 785.658 816.135 787.664C810.053 785.382 804.228 780.938 798.806 777.376L775.931 762.827L743.356 744.275L689.626 713.368L606.697 668.381C595.393 662.253 583.209 656.628 572.488 649.564Z"/>
	<path fill="#F47221" d="M647.535 547.154L514.658 508.155L515.626 507.645C522.457 504.725 530.339 503.368 537.494 501.396L600.564 485.109L722.589 453.982L820.764 430.914L863.018 421.111L876.289 418.117C877.499 417.895 879.306 417.338 880.5 417.378C881 417.395 882.182 418.069 882.701 418.282L851.405 435.109L698.181 519.661L660.499 540.251C656.378 542.512 651.337 544.532 647.535 547.154Z"/>
</svg>
