<?xml version="1.0" encoding="utf-8" ?>
<svg xmlns="http://www.w3.org/2000/svg" xmlns:xlink="http://www.w3.org/1999/xlink" width="1024" height="1024">
	<path fill="#0A6392" d="M-0 -0L1024 0L1024 1024L-0 1024L0 -0Z"/>
	<path fill="#E26D19" d="M469.842 782.871L511.556 785.981L511.926 786.077C511.103 788.279 511.444 790.92 511.442 793.245L511.428 806.762L511.421 857.775L511.315 955.224L511.405 970.63C511.431 973.151 511.118 976.259 512.153 978.571C512.464 979.267 512.885 979.859 513.375 980.436L512.375 985.971L469.842 782.871Z"/>
	<path fill="#C7480B" d="M513.66 48.5886L554.388 242.772L511.513 239.946L511.704 51.5C511.877 50.2661 512.702 49.3169 513.66 48.5886Z"/>
	<path fill="#E26D19" d="M469.393 242.868L511.982 40.3406L513.66 48.5886C512.702 49.3169 511.877 50.2661 511.704 51.5L511.513 239.946C497.396 239.229 483.374 241.394 469.393 242.868Z"/>
	<path fill="#C7480B" d="M511.926 786.077C526.602 786.77 541.347 784.934 555.896 783.221L513.375 980.436C512.885 979.859 512.464 979.267 512.153 978.571C511.118 976.259 511.431 973.151 511.405 970.63L511.315 955.224L511.421 857.775L511.428 806.762L511.442 793.245C511.444 790.92 511.103 788.279 511.926 786.077Z"/>
	<path fill="#C7480B" d="M765.901 609.832L913.175 750.901L724.307 684.167C729.334 677.38 734.599 670.845 739.187 663.731C750.148 646.734 758.048 628.391 765.901 609.832Z"/>
	<path fill="#E26D19" d="M259.755 413.421L107.028 271.754C109.984 272.47 112.867 273.7 115.765 274.639L136.208 281.437L201.66 304.387L264.852 327.269C277.071 331.614 289.648 335.269 301.607 340.284C288.495 357.39 276.692 376.04 267.359 395.486L259.755 413.421Z"/>
	<path fill="#C7480B" d="M685.98 723.321C689.412 730.303 691.592 738.128 694.071 745.5L707.763 786.916L736.586 869.521C738.575 875.052 753.824 915.404 753.637 916.836C747.672 909.61 740.997 902.945 734.528 896.172L700.178 860.953L648.281 807.111L624.043 782.117C619.487 777.304 614.755 772.595 610.796 767.262C637.743 755.505 663.205 742.18 685.98 723.321Z"/>
	<path fill="#E26D19" d="M339.388 721.375C354.457 734.253 371.072 745.628 388.76 754.634L404.721 762.631C407.807 764.068 411.322 765.25 414.255 766.93L274.011 915.722L314.203 794.662L329.546 749.297C332.612 740.148 335.088 729.976 339.388 721.375Z"/>
	<path fill="#E26D19" d="M244.922 468.947C241.981 486.914 240.693 505.453 241.618 523.657C242.174 534.576 243.7 545.243 245.049 556.07L39.6819 511.944L244.922 468.947Z"/>
	<path fill="#C7480B" d="M609.583 257.57C614.732 250.859 620.962 244.972 626.769 238.836L659.919 203.892L723.018 137.393L740.958 118.498C744.385 114.81 747.64 110.885 751.282 107.41C748.664 114.48 746.757 121.743 744.543 128.941L734.945 158.523L703.131 252.048L689.686 291.134C688.516 294.332 687.401 298.894 685.622 301.718C667.857 286.755 648.203 274.475 627.087 264.854C621.339 262.235 615.616 259.477 609.583 257.57Z"/>
	<path fill="#E26D19" d="M338.356 302.951L273.266 106.498L414.69 258.021C401.704 264.179 388.505 269.584 376.062 276.871C362.756 284.663 350.925 294.132 338.356 302.951Z"/>
	<path fill="#C7480B" d="M779.035 467.897C784.389 468.29 789.956 470.065 795.175 471.299L816.016 475.821L951.071 504.555L977.074 510.034C979.978 510.677 984.17 511.143 986.759 512.566L779.32 554.635C783.034 525.641 783.494 496.845 779.035 467.897Z"/>
	<path fill="#E26D19" d="M258.788 608.126L266.216 625.999C271.394 637.401 277.536 648.558 284.358 659.057C289.914 667.609 296.76 675.292 302.223 683.803L102.852 753.515L207.192 655.266L236.84 627.192C243.763 620.654 250.653 613.104 258.788 608.126Z"/>
	<path fill="#C7480B" d="M721.425 338.448L921.917 269.789L865.318 323.398L834.725 352.204L817.898 367.314L784.681 398.916C778.699 404.455 772.582 411.06 765.406 414.986C754.754 387.048 739.72 362.014 721.425 338.448Z"/>
	<path fill="#F9CC3C" d="M469.393 242.868C483.374 241.394 497.396 239.229 511.513 239.946L511.611 282.573C451.861 283.62 391.836 310.662 350.448 353.478C309.886 395.441 285.555 454.834 286.556 513.371C287.633 576.344 313.673 633.954 358.888 677.565C393.268 710.726 436.909 731.712 483.896 739.428C492.808 740.891 502.511 742.562 511.542 742.565L511.556 785.981L469.842 782.871C450.637 779.32 432.385 774.24 414.255 766.93C411.322 765.25 407.807 764.068 404.721 762.631L388.76 754.634C371.072 745.628 354.457 734.253 339.388 721.375C325.771 710.203 313.657 697.147 302.223 683.803C296.76 675.292 289.914 667.609 284.358 659.057C277.536 648.558 271.394 637.401 266.216 625.999L258.788 608.126C252.369 591.246 247.72 573.922 245.049 556.07C243.7 545.243 242.174 534.576 241.618 523.657C240.693 505.453 241.981 486.914 244.922 468.947L248.552 449.78C251.453 437.41 255.387 425.342 259.755 413.421L267.359 395.486C276.692 376.04 288.495 357.39 301.607 340.284C312.387 326.731 325.347 314.34 338.356 302.951C350.925 294.132 362.756 284.663 376.062 276.871C388.505 269.584 401.704 264.179 414.69 258.021C432.292 250.881 450.755 246.307 469.393 242.868Z"/>
	<path fill="#F1B32D" d="M511.542 742.565C502.511 742.562 492.808 740.891 483.896 739.428C436.909 731.712 393.268 710.726 358.888 677.565C313.673 633.954 287.633 576.344 286.556 513.371C285.555 454.834 309.886 395.441 350.448 353.478C391.836 310.662 451.861 283.62 511.611 282.573L511.542 742.565Z"/>
	<path fill="#EF942C" d="M511.513 239.946L554.388 242.772C573.499 246.093 591.372 250.816 609.583 257.57C615.616 259.477 621.339 262.235 627.087 264.854C648.203 274.475 667.857 286.755 685.622 301.718C698.225 313.145 710.854 325.062 721.425 338.448C739.72 362.014 754.754 387.048 765.406 414.986C768.381 423.725 771.485 432.569 773.731 441.525L779.035 467.897C783.494 496.845 783.034 525.641 779.32 554.635C776.489 573.436 772.53 591.959 765.901 609.832C758.048 628.391 750.148 646.734 739.187 663.731C734.599 670.845 729.334 677.38 724.307 684.167C712.254 698.325 700.077 711.178 685.98 723.321C663.205 742.18 637.743 755.505 610.796 767.262C593.13 774.222 574.79 780.671 555.896 783.221C541.347 784.934 526.602 786.77 511.926 786.077L511.556 785.981L511.542 742.565L511.611 282.573L511.513 239.946Z"/>
</svg>
