<?xml version="1.0" encoding="utf-8" ?>
<svg xmlns="http://www.w3.org/2000/svg" xmlns:xlink="http://www.w3.org/1999/xlink" width="1024" height="1024">
	<path fill="#0E9BB0" d="M-0 -0L1024 0L1024 1024L-0 1024L0 -0Z"/>
	<path fill="#BCC9AB" d="M504.049 103.266C509.248 104.854 513.696 105.02 518.908 103.259L518.928 139.975L504.305 139.867L504.049 103.266Z"/>
	<path d="M488.039 75.5994C486.846 74.7226 485.448 74.2812 484.25 73.4372C482.302 72.065 481.415 68.1527 481.069 65.9785C479.642 56.9948 481.742 47.4271 487.227 40.0993C491.786 34.0094 498.816 29.5007 506.425 28.5263L507.25 28.4279C511.376 27.8915 515.733 27.9922 519.74 29.2268L520.5 29.471C524.569 30.7213 528.264 32.482 531.529 35.25C538.502 41.1628 541.525 48.5988 542.127 57.5712C542.472 62.7128 541.888 70.1889 538.404 74.25L535.234 75.5313C535.636 69.7088 536.07 63.9636 535.517 58.1341C535.322 56.0699 535.066 53.5103 534.047 51.6887L511.599 62.7929L488.727 51.0984C486.565 59.0273 487.079 67.5016 488.039 75.5994Z"/>
	<path fill="#BCC9AB" d="M488.039 75.5994C487.079 67.5016 486.565 59.0273 488.727 51.0984L511.599 62.7929L534.047 51.6887C535.066 53.5103 535.322 56.0699 535.517 58.1341C536.07 63.9636 535.636 69.7088 535.234 75.5313C535.058 78.1007 534.253 80.5836 533.486 83.0319C533.266 83.7323 532.524 85.2645 532.628 85.9354C531.93 91.5421 528.313 96.3801 523.942 99.7597L518.908 103.259C513.696 105.02 509.248 104.854 504.049 103.266L503.262 102.768C501.965 101.996 500.682 101.352 499.533 100.354C495.277 96.6564 490.9 90.1513 490.556 84.396C489.449 81.4749 488.597 78.6788 488.039 75.5994Z"/>
	<path d="M504.049 103.266L503.262 102.768C501.965 101.996 500.682 101.352 499.533 100.354C495.277 96.6564 490.9 90.1513 490.556 84.396C494.02 91.1416 497.915 96.745 505.534 99.0749C511.062 100.765 517.582 99.9784 522.557 97.1347C527.227 94.4656 529.992 90.5126 532.628 85.9354C531.93 91.5421 528.313 96.3801 523.942 99.7597L518.908 103.259C513.696 105.02 509.248 104.854 504.049 103.266Z"/>
	<path d="M504.305 139.867L518.928 139.975C539.665 142.919 558.283 153.82 570.907 170.582C577.982 179.976 583.547 191.519 586.085 203.031C587.422 209.091 587.888 215.155 588.414 221.322L588.469 469.5C588.163 477.334 571.309 497.796 565.471 503.167L564.847 503.736L563.28 971.965C565.877 974.141 570.696 975.566 573.856 976.994L612.252 993.974L560.955 993.56C552.788 993.565 543.498 994.451 535.454 993.412L540.498 972.25C541.075 971.679 541.378 971.366 542.188 971.143L542.75 971.026L518.897 498.042L506.181 497.987L494.733 696.75L489.343 814.559L483.571 934.225L482.456 960.75C482.315 963.896 481.613 967.671 482.06 970.75L483.443 971.25C484.824 972.947 485.017 975.901 485.452 978.008L488.783 993.602L407.825 993.615L461.946 971.957C461.22 966.632 461.46 961.046 461.397 955.672L461.124 929.074L460.55 838.045L458.846 507.81C458.784 504.298 458.412 504.093 455.943 501.686C450.676 496.551 445.915 490.554 441.665 484.559C439.617 481.67 437.141 478.135 436.359 474.634C435.022 468.643 435.896 460.747 435.886 454.516L435.82 413.544L435.463 221.504C435.173 204.577 440.876 186.413 450.886 172.764C463.947 154.955 482.523 143.284 504.305 139.867Z"/>
	<path fill="#EC9912" d="M504.305 139.867L518.928 139.975C539.665 142.919 558.283 153.82 570.907 170.582C577.982 179.976 583.547 191.519 586.085 203.031C587.422 209.091 587.888 215.155 588.414 221.322L568.667 220.95L568.394 414.353C556.379 413.709 455.557 414.482 454.97 413.969L454.875 221.294L435.463 221.504C435.173 204.577 440.876 186.413 450.886 172.764C463.947 154.955 482.523 143.284 504.305 139.867Z"/>
</svg>
