<?xml version="1.0" encoding="utf-8" ?>
<svg xmlns="http://www.w3.org/2000/svg" xmlns:xlink="http://www.w3.org/1999/xlink" width="1024" height="1024">
	<path fill="#F6AF20" d="M-0 -0L1024 0L1024 1024L-0 1024L0 -0Z"/>
	<path fill="#23385C" d="M700.294 847.385L739.77 847.305L761.556 886.768C764.01 891.366 767.421 896.237 769.25 901.094C769.642 902.135 769.74 903.403 769.545 904.5C769.184 906.529 767.586 908.482 765.874 909.577C762.574 911.689 742.054 911.547 738.196 910.358C736.113 909.715 734.257 907.712 733.042 905.987C728.268 899.211 724.662 890.883 720.674 883.589L700.294 847.385Z"/>
	<path fill="#23385C" d="M282.954 847.604L322.205 847.637C316.558 859.551 309.241 871.178 302.866 882.748C298.369 890.909 294.364 899.927 289.37 907.746C288.449 909.189 287.204 910.266 285.625 910.936C282.998 912.049 261.618 912.033 259.01 910.945C256.759 910.005 254.78 907.896 254.048 905.57C253.527 903.915 253.376 901.936 253.896 900.264C255.282 895.812 259.023 890.697 261.331 886.506L282.954 847.604Z"/>
	<path fill="#23385C" d="M516.403 268.285L645.246 139.53C643.644 133.824 642.985 128.419 645.975 122.963C648.537 118.289 653.568 114.997 658.678 113.766C663.583 112.584 668.4 113.177 672.665 115.967C677.023 118.819 680.46 123.664 681.325 128.844C682.188 134.017 680.731 139.679 677.423 143.764C674.482 147.397 669.956 150.121 665.25 150.523C663.325 150.687 661.054 150.759 659.178 150.317C657.979 150.034 655.494 148.858 654.417 148.912C653.662 148.951 638.302 164.836 636.561 166.601L611.886 190.87L534.312 268.472L516.403 268.285Z"/>
	<path fill="#23385C" d="M489.658 268.316L370.653 149.09C364.304 150.515 358.49 151.751 352.535 148.153C348.018 145.423 344.604 140.96 343.514 135.75C342.447 130.645 343.434 125.452 346.441 121.171C349.642 116.614 354.43 113.566 359.948 112.759C364.983 112.023 369.687 113.171 373.737 116.325C377.706 119.416 380.424 124.254 380.91 129.272C381.117 131.413 381.017 133.451 380.626 135.564C380.449 136.521 379.46 139.578 379.683 140.333C380.116 141.803 497.563 258.068 507.444 268.205C504.269 268.589 500.942 268.452 497.74 268.507C495.091 268.552 492.264 268.839 489.658 268.316Z"/>
	<path fill="#DE3823" d="M507.444 268.205C510.375 268.512 513.466 268.528 516.403 268.285L534.312 268.472C538.513 269.076 542.846 269.423 546.961 270.473C557.205 273.087 566.093 279.108 572.428 287.543C580.502 298.293 581.544 309.968 581.472 322.949L445.402 323.005C445.434 318.688 445.143 314.14 445.566 309.852C446.408 301.325 449.569 293.143 454.748 286.32C463.624 274.624 475.541 270.248 489.658 268.316C492.264 268.839 495.091 268.552 497.74 268.507C500.942 268.452 504.269 268.589 507.444 268.205Z"/>
	<path fill="#0B9690" d="M581.472 322.949L741.994 322.691L786.5 322.879C794.009 322.914 802.566 322.182 809.94 323.43C820.044 325.141 829.397 329.562 836.75 336.773C843.114 343.015 847.313 350.651 849.541 359.25L849.794 360.203C851.657 367.443 851.04 375.341 851.047 382.765L851.062 412.471L851.087 524.489L851.025 711.693L851.079 773.675L850.967 806.75C850.647 812.964 848.249 819.312 845.082 824.625C839.029 834.781 828.365 843.161 816.828 846.068C809.212 847.987 801.121 847.421 793.329 847.408L757.7 847.309C751.827 847.286 745.592 846.802 739.77 847.305L700.294 847.385L416.531 847.5L348.731 847.476L330.713 847.47C328.028 847.47 324.829 847.107 322.205 847.637L282.954 847.604C267.052 846.712 250.622 847.543 234.648 847.525C226.844 847.517 218.553 848.158 210.93 846.278C204.435 844.677 198.813 842.43 193.468 838.289C183.362 830.46 175.643 818.521 174.004 805.712L173.888 804.75L173.523 800.216L173.526 490.825L173.439 400.362L173.417 373.235C173.419 368.472 173.041 363.355 173.693 358.652C174.853 350.287 179.092 342.23 185.054 336.289C192.193 329.174 201.722 325.028 211.577 323.425C218.948 322.226 227.323 322.973 234.823 322.964L280.388 322.95L445.402 323.005L581.472 322.949Z"/>
	<path fill="#E4DE54" d="M763.28 524.122C771.716 523.108 780.22 524.853 787.375 529.537C795.441 534.818 801.114 543.364 802.915 552.812C804.708 562.219 802.392 572.035 796.988 579.882C791.018 588.55 782.805 593.038 772.615 594.907C768.326 595.444 764.219 595.44 759.99 594.439C751.161 592.349 742.877 586.702 738.107 578.918C733.287 571.055 730.886 561.069 733.216 551.983L733.475 551C734.556 546.791 736.074 542.901 738.51 539.285C744.351 530.62 753.229 526.023 763.28 524.122Z"/>
	<path fill="#DE3823" d="M763.811 410.643C772.328 409.903 781.024 411.725 788.225 416.452C796.303 421.755 801.44 430.372 803.345 439.725C805.182 448.748 803.117 458.428 798.067 466.076C792.065 475.168 783.885 480.184 773.33 482.373C763.697 483.775 754.168 481.57 746.25 475.849C738.748 470.429 733.778 462.193 732.332 453.072C730.778 443.272 732.464 433.055 738.444 425.012C744.782 416.488 753.449 412.219 763.811 410.643Z"/>
	<path fill="#DE3823" d="M779.176 626.75L802.089 626.712L802.087 765.413L756.75 764.761L733.357 764.653L733.242 626.895L779.176 626.75Z"/>
	<path fill="#39D0D9" d="M274.168 383.163C277.076 382.362 281.534 382.763 284.624 382.768L305.066 382.86L369.412 382.94L553.526 382.984L643.51 382.95C646.101 383.007 648.62 383.211 651.147 383.815C661.383 386.262 670.856 393.551 676.25 402.55C679.629 408.188 682.094 414.659 682.55 421.249C683.168 430.186 682.941 439.33 682.952 448.291L682.974 490.594L682.626 630.613L682.722 709.799L682.721 733.279C682.709 738.444 683.039 744.097 681.772 749.132C680.333 754.855 678.384 759.99 675.18 764.985C668.039 776.119 658.43 781.915 645.715 784.629C635.764 785.973 625.579 785.256 615.559 785.23L566.479 785.18L390.287 785.255L313.578 785.491L289.662 785.646C284.35 785.673 278.572 786.112 273.399 784.789L272.5 784.545C262.592 781.961 253.401 776.334 247.117 768.144C242.03 761.515 238.876 754.092 238.011 745.795C237.172 737.756 237.555 729.423 237.533 721.334L237.492 679.863L237.505 547.735L237.499 459.953L237.488 434.058C237.491 429.234 237.152 424.104 237.826 419.329L237.954 418.5C238.922 411.941 241.202 405.956 245.111 400.564C252.177 390.819 262.363 384.971 274.168 383.163Z"/>
</svg>
