<?xml version="1.0" encoding="utf-8" ?>
<svg xmlns="http://www.w3.org/2000/svg" xmlns:xlink="http://www.w3.org/1999/xlink" width="1024" height="1024">
	<path fill="#E73022" d="M-0 -0L1024 0L1024 1024L-0 1024L0 -0Z"/>
	<path fill="#F17E33" d="M863.991 799.442C863.455 783.362 863.727 767.191 866.492 751.311C872.415 717.285 890.6 684.33 914.078 659.256C921.681 651.137 930.471 642.964 939.489 636.453L939.338 929.653L864.031 929.585L863.991 799.442Z"/>
	<path fill="#F17E33" d="M162.022 929.56L84.5568 929.537L84.8491 636.405C92.779 640.908 100.243 648.945 106.596 655.415C138.008 687.409 157.602 729.393 161.614 774.054C162.369 782.458 162.104 791.086 162.024 799.525L162.022 929.56Z"/>
	<path fill="#EEE2D7" d="M163.372 294.185C231.595 273.154 296.784 243.564 358.147 207.166C385.114 191.17 411.547 174.039 436.387 154.865L488.052 112.379C496.212 105.18 503.79 96.7926 512.272 90.051C535.412 113.408 560.442 133.913 586.67 153.664C656.301 206.102 734.36 251.166 816.668 280.326C831.135 285.451 846.109 290.713 861.042 294.27C856.689 294.811 852.118 294.625 847.729 294.68L824.602 294.819L754.117 294.887L510.985 294.713L262.914 294.686L194.094 294.75L175.04 294.632C171.184 294.598 167.186 294.778 163.372 294.185Z"/>
	<path fill="#F17E33" d="M507.136 156.191C520.903 155.484 533.704 158.277 544.826 166.756C557.002 176.038 565.759 189.195 567.673 204.54C569.476 218.995 566.095 234.278 557.024 245.85C546.858 258.82 534.022 266.458 517.623 268.481C511.625 269.014 505.529 268.988 499.639 267.603C485.061 264.174 471.935 255.034 464.055 242.276C456.435 229.939 453.213 214.697 456.696 200.455C458.789 191.895 462.029 184.413 467.57 177.475C477.602 164.915 491.273 157.924 507.136 156.191Z"/>
	<path fill="#F17E33" d="M208.526 503.908C205.759 507.872 204.29 514.386 202.381 518.977C199.616 525.623 196.439 532.141 192.883 538.402C176.898 566.541 154.596 590.936 128.386 609.867C114.636 619.798 99.8392 627.992 84.6438 635.472L84.7054 388.46L158.543 388.442L158.492 295.514L163.372 294.185C167.186 294.778 171.184 294.598 175.04 294.632L194.094 294.75L262.914 294.686L510.985 294.713L754.117 294.887L824.602 294.819L847.729 294.68C852.118 294.625 856.689 294.811 861.042 294.27L863 294.501C863.194 294.75 863.456 294.96 863.581 295.25C863.89 295.969 863.579 298.4 863.578 299.369L863.571 312.558L863.529 388.709L939.645 388.484L939.509 635.662C929.229 631.14 919.333 625.3 909.838 619.33C872.76 596.015 840.107 563.983 823.877 522.468C822.094 517.908 820.527 513.265 819.248 508.537L817.294 500.659C817.251 500.463 816.953 498.626 816.837 498.5C816.642 498.287 816.334 498.214 816.082 498.072C815.671 494.465 816.041 490.422 816.05 486.777L816.093 464.209L816.11 388.318L767.93 388.241L767.614 463.548C767.188 461.003 767.458 458.084 767.452 455.503L767.459 441.073L767.573 388.224L605.133 388.486L420.653 388.463L255.887 388.426L255.933 477.473L255.826 497.261C255.807 499.868 256.202 503.607 255.606 506.082C255.164 501.931 255.522 497.401 255.527 493.219L255.541 469.54L255.538 388.512L208.473 388.588L208.526 503.908Z"/>
	<path fill="#EEE2D7" d="M767.614 463.548L767.93 388.241L816.11 388.318L816.093 464.209L816.05 486.777C816.041 490.422 815.671 494.465 816.082 498.072L815.999 799.559L863.991 799.442L864.031 929.585L162.022 929.56L162.024 799.525L208.463 799.7L208.526 503.908L208.473 388.588L255.538 388.512L255.541 469.54L255.527 493.219C255.522 497.401 255.164 501.931 255.606 506.082L255.59 610.161L255.63 799.797L335.397 799.377L335.483 755.854L366.956 755.614L433.112 755.546L479.933 755.589L544.446 755.536L591.534 755.583L591.897 755.598L656.052 755.539L656.383 755.552L657.031 755.611L688.381 755.892L688.023 799.21L767.956 799.494L767.804 609.885L767.614 463.548Z"/>
	<path fill="#E73022" d="M544.446 755.536L591.534 755.583L591.897 755.598L656.052 755.539L656.383 755.552L657.031 755.611L688.381 755.892L688.023 799.21L335.397 799.377L335.483 755.854L366.956 755.614L433.112 755.546L479.933 755.589L544.446 755.536Z"/>
	<path fill="#5EBBB6" d="M286.226 812.41L741.449 812.478L741.431 846.75L740.75 847.933L286.355 847.985L286.226 812.41Z"/>
	<path fill="#5EBBB6" d="M251.945 861.959L773.955 861.979L773.602 898.107L251.967 898.516L251.945 861.959Z"/>
	<path fill="#6A1A11" d="M605.133 388.486L767.573 388.224L767.459 441.073L767.452 455.503C767.458 458.084 767.188 461.003 767.614 463.548L767.804 609.885L767.956 799.494L688.023 799.21L688.381 755.892L657.031 755.611L656.383 755.552L656.052 755.539L591.897 755.598L591.534 755.583L544.446 755.536L479.933 755.589L433.112 755.546L366.956 755.614L335.483 755.854L335.397 799.377L255.63 799.797L255.59 610.161L255.606 506.082C256.202 503.607 255.807 499.868 255.826 497.261L255.933 477.473L255.887 388.426L420.653 388.463L605.133 388.486Z"/>
	<path fill="#EEC498" d="M366.99 573.382L433.499 573.396L433.112 755.546L366.956 755.614L366.99 573.382Z"/>
	<path fill="#E73022" d="M605.133 388.486L767.573 388.224L767.459 441.073L767.452 455.503C767.458 458.084 767.188 461.003 767.614 463.548L767.804 609.885C755.695 605.928 743.595 597.951 732.991 590.898C725.108 585.655 717.733 579.622 710.506 573.526C665.663 535.7 634.076 483.669 615.971 428.204C611.693 415.097 607.848 402.014 605.133 388.486Z"/>
	<path fill="#E73022" d="M255.606 506.082C256.202 503.607 255.807 499.868 255.826 497.261L255.933 477.473L255.887 388.426L420.653 388.463C405.741 452.128 374.709 513.614 327.923 559.813C314.53 573.038 299.666 585.404 283.617 595.302C277.106 599.317 270.377 603.176 263.5 606.532C260.949 607.777 258.283 609.294 255.59 610.161L255.606 506.082Z"/>
	<path fill="#F17E33" d="M366.99 573.382L344.63 573.336L470.774 487.49L500.5 467.463C503.87 465.207 508.584 461.074 512.38 459.97L680.44 573.318L656.381 573.23L656.383 755.552L656.052 755.539L591.897 755.598L591.534 755.583L544.446 755.536L479.933 755.589L433.112 755.546L433.499 573.396L366.99 573.382Z"/>
	<path fill="#6A1A11" d="M544.521 573.221L591.635 573.175L591.534 755.583L544.446 755.536L544.521 573.221Z"/>
	<path fill="#EEC498" d="M591.897 755.598L591.94 573.214L656.091 573.209L656.052 755.539L591.897 755.598Z"/>
	<path fill="#EEC498" d="M479.973 573.16L544.521 573.221L544.446 755.536L479.933 755.589L433.112 755.546L433.499 573.396L479.973 573.16Z"/>
	<path fill="#6A1A11" d="M433.499 573.396L479.973 573.16L479.933 755.589L433.112 755.546L433.499 573.396Z"/>
</svg>
