<?xml version="1.0" encoding="utf-8" ?>
<svg xmlns="http://www.w3.org/2000/svg" xmlns:xlink="http://www.w3.org/1999/xlink" width="1024" height="1024">
	<path fill="#D67B9D" d="M-0 -0L1024 0L1024 1024L-0 1024L0 -0Z"/>
	<path fill="#402B6F" d="M294.147 858.433L308.505 858.504L414.02 858.525L609.979 858.53L688.636 858.532L707.795 858.633C711.08 858.662 714.756 859.052 717.963 858.382C720.016 859.585 726.62 859.234 729.101 858.771L765.499 858.516C772.774 858.467 778.784 857.985 784.52 863.465C790.47 869.15 790.12 875.639 790.174 883.189L790.364 897.794L812.549 897.643L812.507 975.694L210.183 975.898L210.054 897.966L234.05 897.861L233.698 897.232L233.774 882.153C233.822 875.677 233.002 869.243 237.745 864.084C243.273 858.072 249.955 858.594 257.389 858.485L294.147 858.433Z"/>
	<path fill="#F6C027" d="M294.147 858.433L308.505 858.504L414.02 858.525L609.979 858.53L688.636 858.532L707.795 858.633C711.08 858.662 714.756 859.052 717.963 858.382C720.016 859.585 726.62 859.234 729.101 858.771L765.499 858.516C772.774 858.467 778.784 857.985 784.52 863.465C790.47 869.15 790.12 875.639 790.174 883.189L790.364 897.794L234.05 897.861L233.698 897.232L233.774 882.153C233.822 875.677 233.002 869.243 237.745 864.084C243.273 858.072 249.955 858.594 257.389 858.485L294.147 858.433Z"/>
	<path fill="#402B6F" d="M235.146 126.581L210.09 126.547L210.005 47.1278L812.507 47.386L812.516 127.02L789.508 126.989L789.536 145.083C789.531 147.939 789.855 151.292 789.204 154.084C788.702 156.243 787.437 158.321 785.888 159.89C784.145 161.657 781.712 163.397 779.281 164.042C776.625 164.748 773.371 164.485 770.627 164.484L755.425 164.434L715.163 164.494L307.282 165.043C303.529 165.68 298.814 165.148 294.953 165.167L265.952 165.292C261.361 165.24 239.137 166.359 236.814 164.073C235.939 163.212 235.541 162.591 235.31 161.375C234.648 157.88 235.166 153.382 235.182 149.795L235.146 126.581Z"/>
	<path fill="#F6C027" d="M235.146 126.581L789.508 126.989L789.536 145.083C789.531 147.939 789.855 151.292 789.204 154.084C788.702 156.243 787.437 158.321 785.888 159.89C784.145 161.657 781.712 163.397 779.281 164.042C776.625 164.748 773.371 164.485 770.627 164.484L755.425 164.434L715.163 164.494L307.282 165.043C303.529 165.68 298.814 165.148 294.953 165.167L265.952 165.292C261.361 165.24 239.137 166.359 236.814 164.073C235.939 163.212 235.541 162.591 235.31 161.375C234.648 157.88 235.166 153.382 235.182 149.795L235.146 126.581Z"/>
	<path fill="#FEFEFE" d="M715.163 164.494L755.425 164.434C760.393 182.504 764.354 200.583 766.327 219.244C772.378 276.491 760.766 335.077 732.335 385.184C707.249 429.396 668.994 465.29 624.464 489.48L608.297 497.722L598.034 502.264C597.362 502.551 594.895 503.307 594.468 503.758C594.178 504.065 594.28 514.476 594.256 515.83C609.674 521.746 624.457 530.192 638.276 539.176C648.485 545.812 658.433 552.709 667.784 560.53C700.551 587.938 726.713 622.978 744.148 661.959C756.872 690.406 763.938 722.986 765.337 754.069L765.494 794.256L765.499 858.516L729.101 858.771C726.62 859.234 720.016 859.585 717.963 858.382C714.756 859.052 711.08 858.662 707.795 858.633L688.636 858.532L609.979 858.53L414.02 858.525L308.505 858.504L294.147 858.433L257.389 858.485L257.41 791.225C257.418 774.65 257.096 757.999 258.426 741.464C260.039 721.391 264.262 700.975 271.023 682C275.177 670.338 279.799 658.771 285.455 647.749C308.499 602.842 344.835 564.251 387.605 537.577C400.804 529.345 414.805 522.69 428.849 516.05C428.5 513.068 428.683 509.922 428.676 506.919C428.674 506.285 428.853 504.49 428.67 503.975C428.462 503.391 427.532 503.48 426.967 503.223L421.5 500.575C410.165 495.157 399.069 489.634 388.365 483.023C347.315 457.67 314.547 423.597 290.009 382.142C258.584 329.051 248.307 264.55 257.382 203.934C259.344 190.825 262.669 178.112 265.952 165.292L294.953 165.167C298.814 165.148 303.529 165.68 307.282 165.043L715.163 164.494Z"/>
	<path fill="#F6C027" d="M493.698 458.979C499.108 464.389 503.404 468.934 511.665 469.006C518.162 469.063 523.239 466.864 527.773 462.25L530.453 459.319C531.127 467.168 530.975 475.124 530.995 483L530.994 517.25L530.901 617.432L530.819 642.43C530.828 643.539 530.52 647.144 530.89 647.911C531.321 648.805 533.545 650.604 534.305 651.433L546.517 665.161L593.277 719.181L612.114 741.075C615.194 744.689 618.619 748.142 621.383 751.998L404.523 751.76L433.888 717.412L474.452 670.124L489.363 653.079C490.359 651.923 492.741 649.741 493.24 648.447C493.975 646.541 493.447 642.352 493.435 640.216L493.377 619.877L493.435 513.712L493.425 479.418C493.426 472.864 493.125 466.145 493.642 459.612L493.698 458.979Z"/>
	<path fill="#A42539" d="M493.698 458.979L360.745 295.939L664.8 295.848L530.453 459.319L527.773 462.25C523.239 466.864 518.162 469.063 511.665 469.006C503.404 468.934 499.108 464.389 493.698 458.979Z"/>
	<path fill="#402B6F" d="M715.163 164.494L755.425 164.434C760.393 182.504 764.354 200.583 766.327 219.244C772.378 276.491 760.766 335.077 732.335 385.184C707.249 429.396 668.994 465.29 624.464 489.48L608.297 497.722L598.034 502.264C597.362 502.551 594.895 503.307 594.468 503.758C594.178 504.065 594.28 514.476 594.256 515.83C609.674 521.746 624.457 530.192 638.276 539.176C648.485 545.812 658.433 552.709 667.784 560.53C700.551 587.938 726.713 622.978 744.148 661.959C756.872 690.406 763.938 722.986 765.337 754.069L765.494 794.256L765.499 858.516L729.101 858.771L729.256 798.994C729.281 783.184 729.713 767.137 728.523 751.367C726.69 727.078 720.762 702.761 711.468 680.25C690.393 629.204 650.156 587.02 601.71 560.991C591.331 555.414 580.48 551.279 569.688 546.643C564.148 544.262 560.042 540.174 557.944 534.478C556.387 530.25 556.761 525.676 556.796 521.253L556.942 503.379C556.931 497.618 555.999 490.359 557.196 484.763C557.698 482.414 559.05 480.352 560.608 478.564C565.66 472.767 572.233 471.214 579.119 468.58L594.401 462.163C642.82 439.786 683.683 400.387 706.798 352.208C731.491 300.739 737.35 243.361 722.998 188C720.931 180.03 717.896 172.254 715.163 164.494Z"/>
	<path fill="#402B6F" d="M265.952 165.292L294.953 165.167C298.814 165.148 303.529 165.68 307.282 165.043C301.75 181.598 297.201 198.346 294.767 215.662C288.153 262.717 296.083 310.411 317.22 352.941C341.199 401.19 381.023 439.004 429.491 462.151L442.944 468.056C450.051 470.781 457.137 472.545 462.272 478.518C464.155 480.708 465.286 483.171 465.845 486C467.205 492.874 466.34 501.294 466.349 508.308L466.387 522.687C466.443 526.764 466.807 530.596 465.461 534.527C463.711 539.641 459.748 543.877 454.875 546.168C449.991 548.465 444.771 550.102 439.787 552.169C432.719 555.1 425.713 558.489 418.98 562.123C390.337 577.586 363.909 598.93 343.806 624.625C328.444 644.26 316.556 666.554 307.881 689.875C300.347 710.129 295.738 732.078 294.561 753.67L294.314 796.512L294.147 858.433L257.389 858.485L257.41 791.225C257.418 774.65 257.096 757.999 258.426 741.464C260.039 721.391 264.262 700.975 271.023 682C275.177 670.338 279.799 658.771 285.455 647.749C308.499 602.842 344.835 564.251 387.605 537.577C400.804 529.345 414.805 522.69 428.849 516.05C428.5 513.068 428.683 509.922 428.676 506.919C428.674 506.285 428.853 504.49 428.67 503.975C428.462 503.391 427.532 503.48 426.967 503.223L421.5 500.575C410.165 495.157 399.069 489.634 388.365 483.023C347.315 457.67 314.547 423.597 290.009 382.142C258.584 329.051 248.307 264.55 257.382 203.934C259.344 190.825 262.669 178.112 265.952 165.292Z"/>
	<path fill="#E44145" d="M404.523 751.76L621.383 751.998L717.963 858.382C714.756 859.052 711.08 858.662 707.795 858.633L688.636 858.532L609.979 858.53L414.02 858.525L308.505 858.504L404.523 751.76Z"/>
</svg>
