<?xml version="1.0" encoding="utf-8" ?>
<svg xmlns="http://www.w3.org/2000/svg" xmlns:xlink="http://www.w3.org/1999/xlink" width="1024" height="1024">
	<path fill="#F37717" d="M-0 -0L1024 0L1024 1024L-0 1024L0 -0Z"/>
	<path fill="#BE481D" d="M499.932 122.75C501.003 122.433 501.692 122.206 502.784 122.643L530.824 135.188L586.803 159.556L688 203.516L766.644 237.109L766.932 460.678L906.469 518.554L906.837 739.911L729.791 822.36L701.162 810.118L524.843 891.8L501.29 903.038L116.429 738.86L116.276 466.918L239.667 411.598L239.514 238.526L499.932 122.75Z"/>
	<path fill="#FBBF17" d="M707.108 498.562L767.776 470.724L801.508 484.598L740.866 512.493L707.108 498.562Z"/>
	<path fill="#FBBF17" d="M691.969 505.362L716.749 516.615C718.209 517.217 723.978 518.86 724.679 519.887L639.032 559.479C636.533 555.662 610.915 548.281 605.137 543.996L691.969 505.362Z"/>
	<path fill="#FBBF17" d="M811.91 489.454L868.548 513.36L884.535 520.051C886.496 520.875 889.593 521.732 891.124 523.095L843.326 545.169L833.13 549.791C831.51 550.5 829.343 551.104 828.315 552.548C826.924 551.311 824.447 550.475 822.724 549.704L811.09 544.538L774.747 528.379C766.905 524.909 758.802 521.639 751.241 517.601C751.444 517.308 805.946 492.298 811.91 489.454Z"/>
	<path fill="#FBBF17" d="M650.542 563.933L651.243 563.443C656.517 560.266 663.276 557.991 668.962 555.46L697.399 542.298L723.547 530.404C726.481 529.057 731.038 526.212 734.128 525.693C737.193 525.177 790.118 548.791 797.619 552.039C802.31 554.07 807.974 557.472 812.828 558.51L813.494 558.641L813.04 558.813C805.294 561.807 797.779 565.798 790.204 569.216L738.915 592.184L730.342 595.923C729.837 596.141 728.238 597.044 727.736 597.047C726.092 597.055 721.368 594.393 719.687 593.659L650.542 563.933Z"/>
	<path fill="#F7E690" d="M615.525 302.553L652.036 286.868C653.084 293.754 652.398 301.655 652.415 308.644L652.475 354.764L652.418 512.627L616.134 529.337L615.976 358.56L615.957 317.5L615.965 307.36C615.962 305.936 616.216 304.077 615.548 302.805L615.525 302.553Z"/>
	<defs>
		<linearGradient id="gradient_0" gradientUnits="userSpaceOnUse" x1="858.63879" y1="677.80414" x2="626.28638" y2="598.03015">
			<stop offset="0" stop-color="#FBEA94"/>
			<stop offset="1" stop-color="#FEFEEC"/>
		</linearGradient>
	</defs>
	<path fill="url(#gradient_0)" d="M707.108 498.562L740.866 512.493L801.508 484.598L811.91 489.454C805.946 492.298 751.444 517.308 751.241 517.601C758.802 521.639 766.905 524.909 774.747 528.379L811.09 544.538L822.724 549.704C824.447 550.475 826.924 551.311 828.315 552.548L828.878 770.042L815.004 775.693L814.708 559.268L813.494 558.641L812.828 558.51C807.974 557.472 802.31 554.07 797.619 552.039C790.118 548.791 737.193 525.177 734.128 525.693C731.038 526.212 726.481 529.057 723.547 530.404L697.399 542.298L668.962 555.46C663.276 557.991 656.517 560.266 651.243 563.443L650.542 563.933L649.017 564.75L648.914 573.099L648.562 779.607L638.026 775.716L638.429 569C638.417 566.311 637.895 561.829 639.032 559.479L724.679 519.887C723.978 518.86 718.209 517.217 716.749 516.615L691.969 505.362L707.108 498.562Z"/>
	<path fill="#FBBF17" d="M638.026 775.716L596.002 757.524L596.124 549.958L638.429 569L638.026 775.716Z"/>
	<path fill="#FBBF17" d="M399.848 177.942C403.941 175.62 408.672 173.895 413 172.003L436.39 161.742L501.475 133.194L601.549 177.077C590.946 180.959 580.572 186.007 570.264 190.619L528 209.523L506.152 219.212C505.193 219.592 503.096 220.765 502.184 220.841C501.163 220.925 488.217 214.789 486.097 213.886L430.96 190.626C420.683 186.326 410.379 181.545 399.848 177.942Z"/>
	<path fill="#FBBF17" d="M357.052 285.968C354.353 283.637 348.923 282.292 345.497 280.899L325.057 272.359L254.427 242.694C254.918 241.795 261.15 239.589 262.5 239.001L293.231 225.532L362.125 194.791L463.519 237.733C459.895 239.954 455.707 241.553 451.813 243.253L432.902 251.506L386.836 272.302L357.052 285.968Z"/>
	<path fill="#FBBF17" d="M394.438 302.425C399.652 299.495 405.75 297.393 411.233 294.901L453.994 275.696L490.223 259.636C493.225 258.324 497.462 255.731 500.518 255.083C500.745 255.035 501.571 255.218 501.679 255.248C504.181 255.947 506.86 257.495 509.259 258.559L522.541 264.266L555.105 277.901C564.138 281.769 610.934 302.967 615.525 302.553L615.548 302.805C613.224 303.089 610.65 304.718 608.5 305.668L594 311.998L536.704 336.946L509.074 349.353C508.53 349.566 507.543 349.994 506.924 349.858C504.412 349.307 501.33 347.538 498.945 346.521L479.841 338.283L394.438 302.425Z"/>
	<path fill="#FBBF17" d="M648.914 573.099L723.982 605.872L724.004 808.681L648.562 779.607L648.914 573.099Z"/>
	<path fill="#FBBF17" d="M238.21 423.25L239.034 423.077L239.654 423.5L239.526 459.647C239.515 464.864 238.843 471.158 239.688 476.252L505.705 590.66L586.566 554.378L586.656 596.088L512.628 629.208L509.685 630.44C508.338 630.999 506.083 632.28 504.709 632.462C503.314 632.647 480.291 621.676 476.039 619.848L296.917 542.68L131.462 471.241L238.21 423.25Z"/>
	<path fill="#FBBF17" d="M356.946 515.132L251.042 470.225L250.473 470.054L250.036 251.143L356.978 297.656L356.946 515.132Z"/>
	<path fill="#FBBF17" d="M393.489 313.504L502.315 359.455L502.03 525.489L502.127 562.313L502.174 572.309C502.183 573.998 502.427 575.972 501.959 577.597L393.143 530.649L393.489 313.504Z"/>
	<path fill="#FEF3C9" d="M601.549 177.077L638.669 193.59L751.169 241.825L727.5 252.496L677.328 274.807L661.362 281.829C658.211 283.213 654.819 284.397 652.054 286.492L652.036 286.868L615.525 302.553C610.934 302.967 564.138 281.769 555.105 277.901L522.541 264.266L509.259 258.559C506.86 257.495 504.181 255.947 501.679 255.248C501.571 255.218 500.745 255.035 500.518 255.083C497.462 255.731 493.225 258.324 490.223 259.636L453.994 275.696L411.233 294.901C405.75 297.393 399.652 299.495 394.438 302.425L393.47 303.264L393.489 313.504L393.143 530.649L356.946 515.132L356.978 297.656L357.052 285.968L386.836 272.302L432.902 251.506L451.813 243.253C455.707 241.553 459.895 239.954 463.519 237.733L362.125 194.791L399.848 177.942C410.379 181.545 420.683 186.326 430.96 190.626L486.097 213.886C488.217 214.789 501.163 220.925 502.184 220.841C503.096 220.765 505.193 219.592 506.152 219.212L528 209.523L570.264 190.619C580.572 186.007 590.946 180.959 601.549 177.077Z"/>
	<path fill="#FBBF17" d="M638.669 193.59L751.169 241.825L727.5 252.496L677.328 274.807L661.362 281.829C658.211 283.213 654.819 284.397 652.054 286.492C648.944 283.757 642.135 281.723 638.138 279.993L593.605 261.338C575.25 253.596 557.045 244.792 538.325 237.991L638.669 193.59Z"/>
	<path fill="#FBBF17" d="M126.347 479.75L500.472 641.786C501.286 642.972 500.644 685.633 500.639 690.496L500.58 890.75L499.708 891.462L126.399 732.502L126.347 479.75Z"/>
</svg>
