<?xml version="1.0" encoding="utf-8" ?>
<svg xmlns="http://www.w3.org/2000/svg" xmlns:xlink="http://www.w3.org/1999/xlink" width="1024" height="1024">
	<path fill="#E25023" d="M0 1L0.5625 0.0625L1024 0L1024 1024L0 1024L0.0380181 1021.65L0 1Z"/>
	<path fill="#F6A010" d="M0 1C0.958239 8.26941 0.450478 16.1906 0.449052 23.5488L0.388795 63.9013L0.614808 182.764L0.430489 602.466L0.480412 913.91L0.415006 987.292L0.467134 1009.1C0.469969 1013.02 0.85932 1017.83 0.0380181 1021.65L0 1Z"/>
	<path fill="#0E5E6E" d="M675.312 684.611L707.969 684.928C711.393 686.593 713.531 688.881 714.692 692.567C715.484 695.079 715.057 698.731 715.061 701.361L715.027 722.23C710.435 721.683 705.151 722.183 700.495 722.179L667.68 722.179L667.676 702.937C667.687 699.238 667.296 694.623 668.662 691.146C670.053 687.607 671.949 686.195 675.312 684.611Z"/>
	<path fill="#24A4A0" d="M129.535 665.483L129.698 611.585L164.448 611.518L164.631 665.489L129.535 665.483Z"/>
	<path fill="#FDC628" d="M118.297 713.803L118.274 684.949C118.285 680.563 117.809 675.59 118.485 671.302C118.679 670.071 119.222 669.138 120.075 668.25C122.872 665.337 125.79 665.485 129.535 665.483L164.631 665.489C168.071 665.545 171.993 665.172 174.539 667.955L175.94 669.75L176.281 670.188C177.83 672.354 177.079 678.614 177.076 681.384L177.027 713.982L120.1 714.033L118.297 713.803Z"/>
	<path fill="#FDC628" d="M471.817 118.567L498.836 118.795C503.612 118.764 509.7 117.931 514.325 118.761C516.085 119.078 517.942 120.278 519.174 121.545C525.742 128.298 524.903 146.837 524.468 155.727C524.229 160.615 522.986 170.413 519.219 173.783C518.417 174.5 517.212 175.254 516.146 175.434C511.052 176.293 505.075 175.712 499.871 175.67L471.867 175.577L471.817 118.567Z"/>
	<path fill="#FDC628" d="M667.68 722.179L700.495 722.179C705.151 722.183 710.435 721.683 715.027 722.23L754.14 722.193C759.837 722.201 767.689 721.282 773.074 722.714C774.628 723.127 776.376 724.614 777.456 725.75C779.951 728.376 780.844 731.17 780.626 734.75C780.455 737.556 779.102 740.138 777 741.971C775.967 742.872 774.844 743.508 773.492 743.787C769.067 744.7 763.43 744.12 758.884 744.119L736.579 744.069C734.228 743.637 731.21 743.957 728.796 743.941L711.724 743.911L648.616 744.067L624.532 744.49C620.516 744.545 615.451 745.125 611.54 744.319C609.703 743.941 607.848 742.831 606.413 741.646C604.042 739.687 602.348 736.597 602.2 733.5C602.034 730.012 603.303 727.435 605.75 725.016C607.382 723.402 608.854 722.616 611.096 722.251C616.467 721.378 622.996 722.07 628.48 722.094L667.68 722.179Z"/>
	<path fill="#24A4A0" d="M675.312 684.611L640.909 628.523C647.028 621.082 655.898 615.092 663.192 608.769L677.779 596.013C681.076 593.119 684.33 589.935 688.118 587.697C693.244 590.472 697.782 594.101 702.472 597.54L720.841 610.848L731.756 618.56C735.121 620.834 738.568 622.88 741.295 625.946C738.985 634.213 732.634 642.881 728.332 650.385C721.71 661.934 715.431 673.904 707.969 684.928L675.312 684.611Z"/>
	<path fill="#E25023" d="M689.104 627.045C690.381 626.975 691.706 626.883 692.973 627.088C695.546 627.505 698.062 629.082 699.501 631.266C700.846 633.309 700.933 636.282 700.25 638.568C699.259 641.886 696.727 643.365 693.912 644.93C692.288 645.007 690.364 645.231 688.787 644.865C686.929 644.433 685.052 642.999 684.062 641.388C682.454 638.775 682.151 636.185 683.032 633.25C684 630.024 686.271 628.562 689.104 627.045Z"/>
	<path fill="#FDC628" d="M238.49 175.444C230.574 178.742 223.034 183.76 215.525 187.908L164.77 216.674L164.846 74.8526L238.492 120.624L238.49 175.444Z"/>
	<path fill="#0E5E6E" d="M946.451 885.942L946.519 949.169L821.604 949.196L821.758 886C827.301 885.193 833.251 885.551 838.85 885.535L869.519 885.527L916.826 885.624L946.451 885.942Z"/>
	<path fill="#FDC628" d="M866.034 428.295C877.273 430.91 891.083 430.561 902.018 426.91L902.117 671.169L866.045 671.342L866.034 428.295Z"/>
	<path fill="#F6A010" d="M537.135 268.003L564.521 323.5L577.182 348.91C579.699 354.11 582.54 359.398 583.972 365.026L584.189 365.905C584.67 367.775 584.945 369.447 585.006 371.374C585.419 384.399 581.251 398.034 572.166 407.618C562.715 417.59 551.078 422.763 537.336 423.133C529.368 423.029 522.133 421.589 515 417.932C503.342 411.954 494.702 400.305 490.912 387.921C488.711 380.726 488.355 372.426 490.182 365.127C492.189 357.11 496.675 349.415 500.404 342.053L513.836 315.356L537.135 268.003Z"/>
	<path fill="#AEC39A" d="M308.208 353.374C316.954 354.255 324.503 359.106 329.948 365.907C332.889 369.579 334.923 374.828 335.559 379.5L335.682 380.367C336.257 384.875 335.987 389.618 335.992 394.162L335.993 416.155L335.97 491.338L336.004 741.53L308.816 741.526L308.866 386.502L276.154 386.535C276.628 383.876 276.256 380.413 276.271 377.682L276.192 353.442L308.208 353.374Z"/>
	<path fill="#F6A010" d="M308.816 741.526L336.004 741.53C338.988 741.482 343.159 740.944 346 741.97C347.698 742.584 348.701 743.763 349.205 745.472C349.995 748.15 349.303 752.463 349.254 755.355L349.087 777.92L349.005 887.641L349.017 916.144C349.019 919.481 348.19 926.363 349.824 929.141C351.601 932.16 363.387 929.528 366.869 930.644C367.924 930.982 368.708 931.882 369.094 932.87C369.693 934.4 369.515 936.383 369.527 938.008C369.555 941.764 369.904 945.707 368.471 949.25C367.42 950.144 366.702 950.591 365.305 950.719C361.356 951.08 357.105 950.767 353.134 950.728L331.237 950.616L297.6 950.805C291.381 950.849 285.035 951.142 278.828 950.833C276.971 950.74 275.549 950.682 274.039 949.474C272.213 946.403 272.832 940.422 272.931 936.774C272.953 935.966 272.812 934.211 273.041 933.5C275.151 926.951 288.711 933.219 292.721 929.185C293.953 927.946 294.176 927.002 294.275 925.25C295.1 910.618 294.385 895.484 294.406 880.784L294.344 784.279C294.363 772.042 293.787 759.451 294.487 747.25C294.586 745.509 295.385 743.738 296.75 742.635C299.757 740.206 305.187 741.267 308.816 741.526Z"/>
	<path fill="#F9FBF7" d="M318.652 846.571C320.568 846.43 322.617 846.362 324.468 846.955C327.176 847.823 329.226 849.69 330.445 852.25C331.565 854.601 331.775 857.46 330.769 859.886C329.35 863.311 326.7 864.964 323.454 866.436C321.675 866.499 319.589 866.692 317.862 866.211C315.584 865.576 313.21 863.687 312.061 861.628C310.74 859.261 310.152 856.856 310.999 854.232C312.256 850.334 315.153 848.292 318.652 846.571Z"/>
	<path fill="#F6A010" d="M640.055 291.632C651.829 296.568 663.855 300.501 676.551 302.196C697.056 304.934 717.901 301.219 736.923 293.398L740.969 291.589L741.026 467.482L640.049 467.49L640.055 291.632Z"/>
	<path fill="#F6A010" d="M648.616 744.067L711.724 743.911L728.796 743.941C731.21 743.957 734.228 743.637 736.579 744.069C736.694 745.413 737.766 746.687 738.457 747.828L744.25 756.973L761.518 784.5C764.248 788.854 767.668 793.157 769.859 797.784L770.147 798.419L770.411 798.953C771.895 802.218 770.975 809.636 770.978 813.359L771.011 852.725L771.045 909.242L771.003 938C770.949 939.194 770.737 940.266 770.315 941.383C769.511 943.514 767.548 945.843 765.388 946.684C763.19 947.541 759.608 946.994 757.522 945.938C755.35 944.838 754.043 942.654 753.094 940.5C751.168 936.126 750.125 931.224 748.642 926.68L737.527 892.062L709.528 807.392L689.519 745.823C688.546 747.767 688.106 750.219 687.499 752.314L684.089 764.077L675.528 793.346L646.323 894.403L637.86 923.197C636.053 929.532 634.456 936.324 632.198 942.496C631.263 945.051 628.885 947.078 626.389 948.066C624.391 948.857 622 948.708 620.1 947.718C617.848 946.546 615.929 944.194 615.311 941.709C614.323 937.734 614.98 931.993 614.971 927.824L614.942 897.377L614.819 833.036L614.818 800.218C614.878 798.387 614.957 796.802 615.963 795.2L648.616 744.067Z"/>
	<path fill="#24A4A0" d="M902.117 671.169L953.947 671.063C954.589 673.474 954.099 677.112 954.046 679.667L946.144 679.505L946.451 885.942L916.826 885.624L869.519 885.527L838.85 885.535C833.251 885.551 827.301 885.193 821.758 886L821.983 679.734L813.995 679.748L813.956 671.705C814.947 671.217 816.25 671.425 817.343 671.427L826.195 671.44L866.045 671.342L902.117 671.169Z"/>
	<path fill="#24A4A0" d="M238.492 120.624L310.5 95.4844L348.422 80.9291C354.24 78.7727 360.152 76.2578 366.154 74.6962C369.553 73.8117 372.915 73.8634 376.396 73.8103L432.134 73.5917L448.785 73.5711C451.975 73.5794 455.386 73.3526 458.529 73.8707C462 74.4431 465.182 76.3516 467.657 78.8121C469.396 80.5414 471.085 82.817 471.7 85.2167C472.455 88.1615 471.974 92.1966 471.967 95.3088L471.817 118.567L471.867 175.577L471.698 199.611C471.68 201.67 472.121 206.174 471.382 208.003C470.717 209.65 468.886 211.862 467.631 213.128C462.229 218.577 456.655 218.212 449.504 218.14L438.036 217.949L381.195 218.007C376.088 217.993 370.423 218.313 365.434 217.203C357.682 215.477 350.038 212.73 342.528 210.175L309.106 198.82L262.287 183.375C254.414 180.785 246.083 178.757 238.49 175.444L238.492 120.624Z"/>
	<path fill="#0E5E6E" d="M866.034 428.295L862.976 427.526C842.605 421.38 826.134 408.772 816.034 389.847C809.743 378.06 806.445 363.408 807.782 350.034C809.192 335.926 814.189 323.033 818.37 309.592L833.85 259.676L866.785 151.261L883.939 93.1253L890.268 116.261L934.766 272.523L946.441 313.98C949.59 324.859 953.85 336.655 954.97 347.953C956.331 361.688 953.795 375.852 947.822 388.292C938.589 407.52 921.731 419.981 902.018 426.91C891.083 430.561 877.273 430.91 866.034 428.295Z"/>
	<path fill="#FDC628" d="M875.309 311.626C886.6 310.763 897.231 311.982 906.704 318.688C917.558 326.372 923.941 337.232 926.109 350.264C927.894 360.989 924.544 373.059 918.263 381.808C911.199 391.647 900.902 397.883 889.019 399.88C877.434 401.639 865.483 399.208 855.754 392.63C846.607 386.445 839.634 375.961 837.595 365.087C835.404 353.406 837.57 340.656 844.385 330.778C851.7 320.176 862.861 313.981 875.309 311.626Z"/>
	<path fill="#24A4A0" d="M177.027 713.982L222.093 713.976L222.049 949.561L76.2432 949.637L76.064 713.743L118.297 713.803L120.1 714.033L177.027 713.982Z"/>
	<path fill="#A2A4A1" d="M120.1 714.033L177.027 713.982C176.261 720.629 176.817 727.922 176.823 734.654L176.961 777.012L120.021 777.019L120.1 714.033Z"/>
	<path fill="#FDC628" d="M640.055 291.632C634.094 288.043 627.984 284.778 622.344 280.669C600.255 264.576 585.825 241.784 579.347 215.408C572.006 185.52 577.995 153.565 593.999 127.483C605.58 108.609 623.166 93.127 643.219 83.7734C648.498 81.311 653.979 79.5855 659.378 77.4547L659.42 175.984L722.241 176.036L722.094 103.967L722.04 86.373C722.033 83.6555 721.632 80.4464 722.269 77.8387C752.079 86.9886 777.125 106.364 791.804 134.062C806.332 161.475 809.481 192.688 800.316 222.381C793.215 245.389 779.193 266.16 759.656 280.461C753.825 284.729 747.316 288.155 740.969 291.589L736.923 293.398C717.901 301.219 697.056 304.934 676.551 302.196C663.855 300.501 651.829 296.568 640.055 291.632Z"/>
	<path fill="#0E5E6E" d="M381.195 218.007L438.036 217.949L438.453 467.111L438.855 950.402C432.752 949.55 425.85 950.115 419.646 950.107L381.087 950.214L381.195 218.007Z"/>
	<path fill="#F6A010" d="M276.154 386.535L275.93 536.385C275.596 543.78 272.921 551.714 267.095 556.615C262.961 560.092 257.357 561.808 252.048 562.366C244.682 563.139 236.802 562.574 229.359 562.58L184.366 562.666L128.16 562.893C118.778 562.887 108.869 563.505 99.5722 562.384C91.4138 561.4 84.028 556.572 79.1476 550.083C75.6102 545.379 73.7891 539.972 73.227 534.15C72.7934 529.659 73.0165 525.039 73.0106 520.529L72.9924 497.928L72.9559 424.191L72.9186 369.689C72.9195 361.713 71.9948 352.51 73.2741 344.681L73.3936 344C73.9541 340.591 74.8329 337.377 76.4323 334.29C80.7281 325.999 87.6849 320.662 96.5 317.855C99.2373 316.984 102 316.649 104.867 316.589L163.259 316.943L247.07 316.929L269.405 316.779C275.344 316.675 282.39 315.855 288.075 317.717L288.75 317.951C293.136 319.408 296.526 321.488 299.842 324.745C308.049 332.806 308.243 342.686 308.208 353.374L276.192 353.442L276.271 377.682C276.256 380.413 276.628 383.876 276.154 386.535Z"/>
	<path fill="#E25023" d="M174.997 384.116C176.845 384.007 178.637 383.901 180.466 384.264C184.425 385.051 186.236 387.144 188.342 390.446C188.959 395.566 188.62 400.996 188.619 406.153L188.592 432.425L188.535 469.993C188.519 476.23 188.836 482.666 188.435 488.881C188.323 490.624 187.879 492.464 187.136 494.046C185.676 497.155 183.109 498.5 180.011 499.63C177.951 499.837 175.392 499.862 173.457 499.096C171.048 498.142 168.881 496.14 167.871 493.741C165.813 488.853 166.907 480.146 166.888 474.751L166.8 442.25L166.698 410.452C166.686 404.757 165.551 395.855 167.67 390.707C169.087 387.264 171.727 385.561 174.997 384.116Z"/>
	<path fill="#E25023" d="M141.698 384.069C144.625 384.019 147.349 384.003 150.058 385.333C152.197 386.383 153.687 388.567 154.475 390.75C155.699 394.141 155.023 399.917 155.045 403.6L155.147 431.378L155.125 470.695C155.105 477.203 155.5 484.056 154.944 490.525C154.809 492.088 154.466 493.376 153.747 494.765C152.271 497.614 149.575 498.793 146.711 499.743C144.194 499.958 141.345 499.812 138.988 498.82C136.503 497.775 134.681 495.7 133.759 493.187C132.15 488.805 133 482.104 132.999 477.385L133.014 447.406L133.072 412.439C133.086 406.411 132.816 400.212 133.182 394.203C133.282 392.555 133.446 390.751 134.268 389.287C135.948 386.296 138.514 384.942 141.698 384.069Z"/>
	<path fill="#E25023" d="M208.46 384.066C210.79 383.725 213.008 383.633 215.276 384.398C218.479 385.479 220.662 387.478 221.996 390.577C222.481 391.703 222.729 392.775 222.806 394C223.14 399.379 222.878 404.912 222.865 410.305L222.766 440.391L222.615 476.846C222.592 481.254 223.644 489.388 221.773 493.201C220.258 496.289 217.709 497.686 214.643 498.904C212.184 499.381 209.639 499.392 207.25 498.542C204.555 497.585 202.338 495.647 201.185 493.009C200.644 491.771 200.471 490.476 200.425 489.135L200.468 439.831L200.525 394.5C200.606 392.848 200.998 391.36 201.677 389.85C203.098 386.686 205.382 385.297 208.46 384.066Z"/>
	<path fill="#FDC628" d="M438.453 467.111L640.049 467.49L741.026 467.482L770.218 467.532C777.106 467.549 784.199 467.205 791.038 468.07C801.164 469.351 810.821 474.314 817.997 481.534C826.222 489.81 831.539 502.406 831.468 514.15C831.389 527.08 826.713 538.83 817.363 547.881C810.753 554.28 802.661 558.154 793.624 559.709C784.822 561.224 775.238 560.607 766.329 560.637L718.627 560.627L565.63 560.639L565.536 950.463L479.191 950.482L453.005 950.497C448.36 950.501 443.453 950.859 438.855 950.402L438.453 467.111Z"/>
</svg>
