<?xml version="1.0" encoding="utf-8" ?>
<svg xmlns="http://www.w3.org/2000/svg" xmlns:xlink="http://www.w3.org/1999/xlink" width="1024" height="1024">
	<path fill="#23233B" d="M-0 -0L1024 0L1024 1024L-0 1024L0 -0Z"/>
	<path fill="#00A9E2" d="M430.717 91.6088C437.789 84.5081 445.509 78.8005 454.838 75.0089C474.346 67.0793 496.803 67.4814 517.495 66.3795C532.354 65.5883 547.654 63.926 561.922 59.5846C574.88 55.6415 585.675 49.8038 594.283 39.1288L591.225 49.9605C588.156 63.2736 591.31 77.0426 594.274 90.0397C595.283 94.4687 596.102 99.3915 597.629 103.648C598.693 106.616 600.766 109.297 602.142 112.145C606.51 121.179 608.948 131.713 608.799 141.75C608.653 151.593 606.023 161.408 603.345 170.828C602.831 172.637 599.462 181.339 599.804 182.25L601.583 180.675C603.056 180.938 604.022 181.834 604.846 183.098C608.075 188.053 608.01 195.596 607.15 201.25C605.203 214.05 598.855 223.145 589.827 232.022C590.14 223.334 588.966 214.667 589.077 206C589.166 199.085 590.533 192.118 590.806 185.159C591.325 171.921 588.905 158.476 581.593 147.234C579.533 144.068 576.87 141.314 574.313 138.553C570.262 142.285 566.251 146.172 561.707 149.303C548.496 158.405 532.121 163.22 516.108 163.152C491.791 163.047 473.214 153.156 456.371 136.058C452.418 140.17 448.143 144.237 444.72 148.808C435.872 160.623 432.957 174.032 433.201 188.582C433.308 194.925 434.336 201.087 434.774 207.391C435.312 215.119 435.086 223.22 434.483 230.944L433.718 230.56C425.261 226.096 419.4 215.238 416.682 206.49C414.393 199.124 413.202 189.809 416.894 182.75C417.739 182.08 418.267 181.757 419.335 181.647C420.565 181.521 419.993 181.79 420.908 181C417.614 166.953 412.829 154.113 412.022 139.508C410.927 119.693 417.738 106.009 430.717 91.6088Z"/>
	<path fill="#00A9E2" d="M334.947 794.151C350.814 804.698 367.746 810.871 385.744 816.761C451.813 838.384 524.084 842.691 592.183 828.972C614.51 824.474 636.261 817.919 657.699 810.261C668.46 806.416 680.203 802.455 689.703 795.998L713.445 854.967C706.979 859.148 699.382 862.259 692.481 865.734L649.996 887.043L511.908 955.105L309.998 853.711L334.947 794.151Z"/>
	<path fill="#7CCDF4" d="M434.483 230.944C435.086 223.22 435.312 215.119 434.774 207.391C434.336 201.087 433.308 194.925 433.201 188.582C432.957 174.032 435.872 160.623 444.72 148.808C448.143 144.237 452.418 140.17 456.371 136.058C473.214 153.156 491.791 163.047 516.108 163.152C532.121 163.22 548.496 158.405 561.707 149.303C566.251 146.172 570.262 142.285 574.313 138.553C576.87 141.314 579.533 144.068 581.593 147.234C588.905 158.476 591.325 171.921 590.806 185.159C590.533 192.118 589.166 199.085 589.077 206C588.966 214.667 590.14 223.334 589.827 232.022C588.238 251.228 590.482 271.192 587.436 290.245C621.856 301.553 655.825 315.118 687.919 331.976L699.41 338.146C700.996 339.054 703.987 341.51 705.712 341.826C706.746 342.015 708.519 341.667 709.6 341.605L719.5 340.991C725.921 340.732 732.427 340.84 738.826 341.401C782.222 345.21 824.619 367.359 844.674 407.357C848.34 414.669 851.135 422.238 853.166 430.153L854.822 437.538C854.984 438.352 855.094 440.021 855.439 440.714C855.946 441.728 858.839 443.805 859.848 444.732L872.459 456.861C891.19 476.668 906.744 499.534 916.851 524.906C921.734 537.163 925.279 550.34 926.481 563.5L927.036 575.392C927.045 576.333 926.757 578.533 927.041 579.362C927.488 580.664 929.041 582.515 929.826 583.666L936.973 593.685C942.142 600.762 947.356 608.42 949.796 616.937C953.659 630.421 948.994 643.958 944.712 656.686C929.301 702.49 904.999 744.344 875.711 782.62L840.372 827.301C835.29 834.414 830.725 842.095 827.523 850.25C826.201 853.617 825.241 857.169 824.333 860.667C823.86 862.488 823.515 864.992 822.413 866.492C820.695 868.832 818.263 870.97 816.268 873.093L803.363 887.007L759.191 934.898L736.207 835.949L746.016 825.528C748.983 822.125 751.805 818.011 755.578 815.469C761.105 811.746 767.343 811.331 773.678 810.139L791.614 806.665C793.198 806.358 797.081 805.969 798.303 805.036C799.585 804.057 801.716 796.667 802.321 794.991C811.423 769.748 818.509 743.307 817.95 716.291C817.798 708.927 817.571 701.861 818.413 694.503C821.281 669.416 832.409 648.035 845.585 626.881C822.164 616.205 800.768 598.935 784.319 579.176C780.154 574.173 775.938 569.031 772.502 563.5C769.151 558.107 766.166 552.486 763.36 546.794C762.043 544.123 760.948 540.272 759.173 538.025C754.788 549.13 750.363 560.217 744.846 570.822C735.933 587.954 724.7 604.087 712.514 619.042L698.561 635.06C697.112 636.608 693.573 638.963 692.738 640.526C692.405 641.15 692.409 643.306 692.316 644.072L690.605 656.908L678.924 734.772L676.288 752.232C675.958 754.243 674.916 757.93 675.194 759.896C675.539 762.337 677.716 766.133 678.671 768.538L689.448 795.44L689.703 795.998C680.203 802.455 668.46 806.416 657.699 810.261C636.261 817.919 614.51 824.474 592.183 828.972C524.084 842.691 451.813 838.384 385.744 816.761C367.746 810.871 350.814 804.698 334.947 794.151L346.387 765.532C347.407 762.874 349.154 759.792 349.594 756.999C349.897 755.077 349.199 752.322 348.935 750.376L346.91 735.327L336.317 659.837L334.325 645.598C334.127 644.371 334.009 641.929 333.498 640.858C332.972 639.756 328.921 636.969 327.722 635.93C323.35 632.142 319.084 628.269 315.062 624.107C291.175 599.391 274.292 570.291 263.481 537.728C248.964 570.115 224.991 598.485 194.673 617.147C188.991 620.644 182.959 623.49 176.944 626.354C179.138 630.563 182.159 634.458 184.602 638.555C191.814 650.65 197.983 663.413 201.75 677.019C205.028 688.861 206.632 701.078 207.424 713.324L208.778 739.016C210.715 758.262 216.683 777.028 224.23 794.745C225.603 797.968 227.016 801.094 228.716 804.164C228.798 804.312 229.463 805.64 229.592 805.711C231.163 806.573 234.51 806.616 236.304 806.824L258.201 809.105C259.608 809.282 262.265 809.295 263.519 809.84C265.373 810.647 268.234 814.684 269.651 816.25L283.744 831.528L268.282 937.088L225.468 892.934L209.865 876.868C207.187 874.112 204.121 871.351 201.719 868.364C200.203 866.478 199.637 863.115 198.957 860.797L193.986 845.25C192.566 841.46 190.698 837.861 188.498 834.466C177.341 817.251 163.35 801.802 150.907 785.528C118.544 743.2 91.0836 697.567 74.6716 646.581C70.1804 632.629 70.263 619.87 77.1706 606.766C80.0501 601.303 83.7765 596.35 87.2855 591.286C89.8244 587.622 93.5516 583.16 95.1364 579.024C96.1224 576.451 96.2388 573.093 96.6115 570.364L98.9415 555.703C101.751 539.957 106.901 524.305 113.497 509.75C122.55 489.773 136.032 470.983 151.49 455.439L162.494 444.892C163.805 443.68 166.226 442.019 167.192 440.595C167.539 440.083 167.706 438.54 167.855 437.889L169.707 429.204C171.547 421.666 174.308 414.192 177.88 407.305C198.609 367.34 240.034 345.923 283.731 341.563C290.831 340.855 298.081 340.621 305.215 340.655L312.255 340.975C312.855 341.028 314.269 341.357 314.823 341.234C316.744 340.808 318.985 338.977 320.65 337.937L331.11 331.858L357.483 318.788L397.104 302.905L436.579 290.242L434.483 230.944Z"/>
	<path fill="#007BBA" d="M398.35 743.25C400.76 743.547 406.527 749.01 408.88 750.641L426.805 762.228C430.311 764.386 434.099 766.345 437.347 768.876C437.825 769.248 438.892 769.933 439.222 770.397C439.61 770.942 438.678 802.393 439.254 807.002C440.591 817.694 445.191 825.145 453.625 831.634C431.796 821.951 429.809 809.032 427.462 787.067L426.613 778.857C426.535 778.083 426.566 776.517 426.312 775.835C425.482 773.599 421.876 770.108 420.268 768.204L398.35 743.25Z"/>
	<path fill="#007BBA" d="M627.642 741.75L628.321 741.863L605.442 765.755C602.824 768.526 597.084 773.424 596.308 777.029C595.712 779.802 595.735 782.919 595.474 785.75C594.832 792.71 594.133 800.13 592.333 806.875C588.76 820.269 579.963 825.325 568.733 831.72C571.034 829.047 573.874 826.934 576.094 824.122C584.946 812.909 584.157 799.133 583.934 785.651C583.861 781.211 583.273 776.25 583.889 771.858C584.117 770.226 585.13 769.521 586.382 768.595C591.335 764.932 597.351 761.904 602.672 758.735C611.448 753.507 619.623 748.085 627.642 741.75Z"/>
	<path fill="#007BBA" d="M625.292 613.43C623.594 616.949 621.169 620.267 619.004 623.523L606.938 641C604.038 645.063 601.209 649.764 597.755 653.359C593.862 657.41 541.655 656.003 533.054 656.004L525.834 636.859L521.929 627.86C526.258 633.306 529.63 639.623 534.917 644.25C535.62 644.865 536.696 645.833 537.55 646.153C540.472 647.249 546.897 646.418 550.058 646.421L573.234 646.436C577.779 646.464 582.444 646.767 586.971 646.47C589.731 646.288 592.642 645.315 594.94 643.77C599.82 640.489 603.932 635.661 608.043 631.466L625.292 613.43Z"/>
	<path fill="#007BBA" d="M615.164 690.25C615.703 692.446 604.525 725.742 602.889 730.353C596.387 730.538 589.952 732.062 583.403 732.31L532.244 732.472L525.626 709.996L523.268 700.893C527.424 708.931 532.948 718.599 541.808 722.207C546.23 724.008 553.272 723.09 558.148 723.104C567.457 723.131 577.538 723.88 586.75 722.913C589.176 722.659 591.772 721.983 594 721C605.463 715.948 610.912 701.118 615.164 690.25Z"/>
	<path fill="#007BBA" d="M397.584 611.384L417.238 632.75C420.866 636.622 424.547 640.481 428.697 643.802C430.158 644.972 431.825 646.409 433.783 646.412L485.258 646.314C492.25 641.929 496.368 633.395 501.027 626.777C500.434 629.262 499.243 631.744 498.314 634.131L489.248 655.949L424.436 655.863C421.611 652.465 419.595 647.461 417.22 643.597L397.584 611.384Z"/>
	<path fill="#007BBA" d="M407.644 684.25C412.161 697.043 415.436 713.345 428.195 720.635C430.224 721.794 432.38 722.557 434.699 722.872C442.34 723.913 451.201 723.085 458.956 723.074L472.517 723.033C475.199 723.02 478.169 723.292 480.75 722.502C490.501 719.515 496.085 708.57 500.383 700.111L498.134 708.806L491.414 732.537C467.412 732.512 442.444 733.913 418.718 730.249L411.559 701.648C410.145 695.944 408.398 690.073 407.644 684.25Z"/>
	<path fill="#007BBA" d="M279.85 464.708C283.955 471.46 287.553 478.234 292.069 484.763C301.498 498.397 312.471 510.388 324.699 521.536C331.411 527.654 337.768 533.3 345.955 537.357C367.12 547.846 391.64 552.068 414.951 554.232C432.208 555.834 449.711 556.445 466.9 553.757C476.154 552.31 484.8 549.471 493.659 546.516C489.991 549.147 485.823 551.176 481.75 553.097C473.503 557.697 463.143 560.912 454.063 563.445C422.923 572.133 388.418 575.417 356.5 569.02C347.817 567.28 338.316 564.588 330.606 560.137C325.448 557.159 322.075 552.138 318.545 547.461C300.144 523.078 287.814 494.058 279.85 464.708Z"/>
	<path fill="#007BBA" d="M742.21 458.25C742.746 460.932 741.689 464.674 741.211 467.416C738.273 484.24 733.596 501.892 726.436 517.436C716.92 538.097 703.847 556.422 681.837 564.515C654.314 574.635 622.261 573.456 593.725 568.65C574.59 565.428 555.997 560.563 538.349 552.345C534.114 550.518 529.898 548.211 526.098 545.599C555.999 555.013 587.567 557.827 618.676 554.135C634.831 552.217 650.837 548.611 665.75 541.987C702.367 525.722 727.941 495.207 742.21 458.25Z"/>
	<path fill="#007BBA" d="M441.626 247.75L444.128 253.641C453.977 277.27 474.314 300.195 498.378 309.87C501.906 311.288 505.531 312.498 509.224 313.404C510.161 313.634 511.993 314.336 512.914 314.281C514.137 314.207 515.931 313.339 517.16 312.95C520.914 311.763 524.604 310.543 528.215 308.965C553.924 297.736 573.061 273.321 583.181 247.75L583.405 248C582.251 253.432 580.203 258.645 578.312 263.851L570.708 284.622C562.666 304.733 553.226 324.312 540.318 341.797C534.557 349.602 523.277 363.69 512.903 364.925C508.431 365.458 504.162 362.994 500.75 360.309C494.827 355.649 489.524 349.511 484.858 343.626C467.794 322.106 457.457 296.81 448.611 271.051C446.115 263.782 442.506 255.382 441.626 247.75Z"/>
</svg>
