<?xml version="1.0" encoding="utf-8" ?>
<svg xmlns="http://www.w3.org/2000/svg" xmlns:xlink="http://www.w3.org/1999/xlink" width="1024" height="1024">
	<path fill="#E2524A" d="M-0 -0L1024 0L1024 1024L-0 1024L0 -0Z"/>
	<path fill="#0EB297" d="M510.517 72.0383L511.454 72C516.634 80.6169 520.704 90.0734 525.016 99.1491L545.015 140.7L625.684 303.641L769.841 591.103L877.317 804.359L921.917 893.462L940.999 930.955L946.696 942.065C947.401 943.445 948.449 944.995 948.432 946.569L817.983 849.869C815.252 846.828 811.071 844.283 807.811 841.784L786.19 825.645C781.374 822.15 776.307 818.9 771.846 814.951C764.256 810.798 757.197 804.885 750.097 799.864L701.967 765.59L564.509 666.061L511.989 627.92C510.437 624.98 511.426 547.95 511.43 539.091L511.311 370.864L511.108 306.927L511.303 293.295C511.34 291.259 511.158 288.865 511.524 286.874C511.798 285.386 511.824 284.255 511.735 282.748L511.949 281.605L512.012 145.801L511.961 103.528C511.937 93.6141 513.128 81.6378 510.517 72.0383Z"/>
	<path fill="#F3CF8E" d="M511.949 281.605L771.846 814.951C764.256 810.798 757.197 804.885 750.097 799.864L701.967 765.59L564.509 666.061L511.989 627.92C510.437 624.98 511.426 547.95 511.43 539.091L511.311 370.864L511.108 306.927L511.303 293.295C511.34 291.259 511.158 288.865 511.524 286.874C511.798 285.386 511.824 284.255 511.735 282.748L511.949 281.605Z"/>
	<path fill="#10857A" d="M510.517 72.0383C513.128 81.6378 511.937 93.6141 511.961 103.528L512.012 145.801L511.949 281.605L511.735 282.748C511.824 284.255 511.798 285.386 511.524 286.874C511.158 288.865 511.34 291.259 511.303 293.295L511.108 306.927L511.311 370.864L511.43 539.091C511.426 547.95 510.437 624.98 511.989 627.92C511.297 628.042 511.133 628.028 510.42 628.406C509.256 629.024 508.064 630.424 506.967 631.257L494.861 640.302L455.967 668.802L295.079 785.794L264.624 807.822C260.253 810.909 255.514 814.869 250.598 816.956L249.625 818.249L77.4321 946.015C77.085 944.702 78.3636 942.751 78.9697 941.5L85.5867 928.331L118.305 862.413L237.975 622.5L346.578 404.38L375.979 345.964L457.474 180.86L490.402 113.26L510.517 72.0383Z"/>
	<path fill="#E2524A" d="M511.735 282.748C511.824 284.255 511.798 285.386 511.524 286.874C511.158 288.865 511.34 291.259 511.303 293.295L511.108 306.927L511.311 370.864L511.43 539.091C511.426 547.95 510.437 624.98 511.989 627.92C511.297 628.042 511.133 628.028 510.42 628.406C509.256 629.024 508.064 630.424 506.967 631.257L494.861 640.302L455.967 668.802L295.079 785.794L264.624 807.822C260.253 810.909 255.514 814.869 250.598 816.956L511.735 282.748Z"/>
	<path fill="#F6A433" d="M250.598 816.956C255.514 814.869 260.253 810.909 264.624 807.822L295.079 785.794L455.967 668.802L494.861 640.302L506.967 631.257C508.064 630.424 509.256 629.024 510.42 628.406C511.133 628.028 511.297 628.042 511.989 627.92L564.509 666.061L701.967 765.59L750.097 799.864C757.197 804.885 764.256 810.798 771.846 814.951C776.307 818.9 781.374 822.15 786.19 825.645L807.811 841.784C811.071 844.283 815.252 846.828 817.983 849.869L948.432 946.569C948.794 947.392 948.771 946.972 948.5 947.829L857.156 947.513L695.119 947.514L227.752 947.521L114.047 947.594L87.088 947.615C84.0224 947.617 79.2514 948.299 76.5167 947.25L77.4321 946.015L249.625 818.249L250.598 816.956Z"/>
	<path fill="#932231" d="M250.598 816.956C255.514 814.869 260.253 810.909 264.624 807.822L295.079 785.794L455.967 668.802L494.861 640.302L506.967 631.257C508.064 630.424 509.256 629.024 510.42 628.406C511.133 628.028 511.297 628.042 511.989 627.92L564.509 666.061L701.967 765.59L750.097 799.864C757.197 804.885 764.256 810.798 771.846 814.951C776.307 818.9 781.374 822.15 786.19 825.645L807.811 841.784C811.071 844.283 815.252 846.828 817.983 849.869C814.76 848.697 811.664 845.956 808.847 844.014L780.457 823.78C778.254 822.298 775.375 819.893 772.924 819.012C770.467 818.13 766.712 818.519 764.119 818.507L747.495 818.441L683.962 818.301L392.773 818.47L300.587 818.467L249.625 818.249L250.598 816.956Z"/>
</svg>
