<svg width="238" height="238" viewBox="0 0 238 238" fill="none" xmlns="http://www.w3.org/2000/svg">
<rect width="238" height="238" fill="#68F6C3"/>
<path d="M113 54.0402L113.099 51.0418L113 54.0402ZM178.5 113.04L185.415 79.0963L152.561 90.08L178.5 113.04ZM45.9718 113.451C50.6524 79.5565 78.7041 55.9129 112.901 57.0386L113.099 51.0418C75.8313 49.8151 45.129 75.6928 40.0282 112.63L45.9718 113.451ZM112.901 57.0386C136.807 57.8254 156.546 69.9663 167.331 88.914L172.545 85.946C160.694 65.1253 139.02 51.895 113.099 51.0418L112.901 57.0386Z" fill="black"/>
<path d="M109.5 184L109.401 186.998L109.5 184ZM44 125L37.0853 158.944L69.9389 147.96L44 125ZM176.528 124.59C171.848 158.484 143.796 182.127 109.599 181.002L109.401 186.998C146.669 188.225 177.371 162.348 182.472 125.41L176.528 124.59ZM109.599 181.002C85.6926 180.215 65.9541 168.074 55.1693 149.126L49.9548 152.094C61.8057 172.915 83.4797 186.145 109.401 186.998L109.599 181.002Z" fill="black"/>
</svg>
