<?xml version="1.0" encoding="utf-8" ?>
<svg xmlns="http://www.w3.org/2000/svg" xmlns:xlink="http://www.w3.org/1999/xlink" width="1024" height="1024">
	<path fill="#1C1B3A" d="M-0 -0L1024 0L1024 1024L-0 1024L0 -0Z"/>
	<path fill="#FAFAFA" d="M664.088 188.749C669.168 192.817 673.793 198.257 678.393 202.894L634.81 242.024L626.017 249.381L664.088 188.749Z"/>
	<path fill="#FAFAFA" d="M699.587 254.224C700.812 254.062 700.26 253.921 701.25 254.626L701.134 274.331L641.85 264.85L627.148 262.5L699.587 254.224Z"/>
	<path fill="#CC1A4B" d="M682.088 795.022L711.946 830.369L711.624 903.021L339.458 902.961L320.749 884.067C318.052 881.348 312.23 876.765 311.571 873.038C315.023 873.597 318.846 873.211 322.344 873.181L341.096 873.098L412.23 873.082L681.861 873.369L682.088 795.022Z"/>
	<path fill="#E6775E" d="M404.754 346.719L310.894 274.768L362.722 231.097L442.588 164.234L476.462 135.438C481.478 131.249 486.615 126.252 492.118 122.792L545.327 122.72L564.246 122.616C567.067 122.602 570.943 122.124 573.584 122.992L605.124 153.546L604.265 793.83L681 793.894L682.088 795.022L681.861 873.369L412.23 873.082L341.096 873.098L322.344 873.181C318.846 873.211 315.023 873.597 311.571 873.038L311.475 793.819L436.805 793.846L436.85 492.274L436.804 408.661L436.679 383.523C436.638 379.537 436.983 375.038 436.283 371.126L404.754 346.719Z"/>
	<path fill="#CC1A4B" d="M404.754 346.719L436.344 316.983L436.283 371.126L404.754 346.719Z"/>
	<path fill="#CC1A4B" d="M573.584 122.992L605.124 153.546L604.265 793.83L573.414 793.861L573.584 122.992Z"/>
</svg>
