<?xml version="1.0" encoding="utf-8" ?>
<svg xmlns="http://www.w3.org/2000/svg" xmlns:xlink="http://www.w3.org/1999/xlink" width="1024" height="1024">
	<path fill="#4FB19E" d="M-0 -0L1024 0L1024 1024L-0 1024L0 -0Z"/>
	<path fill="#DFC798" d="M422.416 439.833C425.222 441.661 425.327 443.823 427.261 446.215L435.701 455.792L471.113 492.273L596.454 617.325L717.392 736.699L702.07 751.248L597.226 646.132L544.331 744.122L458.706 531.392L458.475 530.936C458.5 529.536 457.298 527.278 456.775 525.963L450.825 511.333L422.416 439.833Z"/>
	<path fill="#F4DCB2" d="M420.531 435.58C423.824 435.575 427.221 437.156 430.322 438.197L460.515 449.653L524.839 473.246L744.697 550.507L643.01 606.851L746.464 708.348L717.392 736.699L596.454 617.325L471.113 492.273L435.701 455.792L427.261 446.215C425.327 443.823 425.222 441.661 422.416 439.833L420.531 435.58Z"/>
	<path fill="#EC5547" d="M437.382 538.176C407.771 545.078 376.085 540.948 349.157 526.972C315.497 509.501 292.667 480.315 281.467 444.3C271.504 412.263 275.774 375.577 291.425 346.107C308.331 314.274 337.855 290.566 372.306 280.214C405.535 270.229 442.225 274.052 472.715 290.558C502.985 306.946 527.322 336.624 537.104 369.687C545.882 399.354 544.524 430.132 532.388 458.729C530.254 463.758 527.456 468.459 524.839 473.246L460.515 449.653L430.322 438.197C427.221 437.156 423.824 435.575 420.531 435.58L422.416 439.833L450.825 511.333L456.775 525.963C457.298 527.278 458.5 529.536 458.475 530.936L437.382 538.176Z"/>
	<path fill="#FAF8F1" d="M388.849 400.146C392.507 394.779 396.547 390.452 403.272 389.138C408.514 388.114 414.293 389.301 418.677 392.394C423.101 395.516 426.736 400.95 427.487 406.322C428.291 412.079 426.972 417.412 423.404 422.039C421.836 424.072 419.919 425.519 417.867 427.022C412.878 429.373 407.193 430.688 401.795 428.826C396.039 426.84 391.55 423.1 388.951 417.565C386.153 411.606 386.683 406.148 388.849 400.146Z"/>
	<path fill="#DE4031" d="M437.382 538.176C435.673 532.599 433.207 527.119 431.31 521.569L411.365 463.912L404.797 444.25C404.433 443.157 403.781 439.965 403.132 439.178C402.973 438.986 399.559 438.432 398.969 438.296C396.315 437.684 393.866 436.888 391.483 435.522C386.265 432.529 382.807 427.283 381.46 421.504C380.019 415.325 381.371 408.261 384.905 403C386.194 401.081 386.597 400.513 388.849 400.146C386.683 406.148 386.153 411.606 388.951 417.565C391.55 423.1 396.039 426.84 401.795 428.826C407.193 430.688 412.878 429.373 417.867 427.022C418.59 430.093 419.113 432.704 420.531 435.58L422.416 439.833L450.825 511.333L456.775 525.963C457.298 527.278 458.5 529.536 458.475 530.936L437.382 538.176Z"/>
</svg>
