<?xml version="1.0" encoding="utf-8" ?>
<svg xmlns="http://www.w3.org/2000/svg" xmlns:xlink="http://www.w3.org/1999/xlink" width="1024" height="1024">
	<path fill="#F46E23" d="M-0 -0L1024 0L1024 1024L-0 1024L0 -0Z"/>
	<defs>
		<linearGradient id="gradient_0" gradientUnits="userSpaceOnUse" x1="513.53516" y1="709.85046" x2="509.5061" y2="555.71655">
			<stop offset="0" stop-color="#FDB71D"/>
			<stop offset="1" stop-color="#F49C21"/>
		</linearGradient>
	</defs>
	<path fill="url(#gradient_0)" d="M113.97 638.968L152.338 639.057C154.941 630.708 158.169 622.581 162.723 615.08C177.898 590.086 202.434 571.423 231.006 564.577C257.796 558.158 287.867 562.769 311.374 577.265C329.221 588.27 342.836 603.539 351.987 622.37C354.393 627.321 356.867 632.627 358.113 638.001L358.236 638.562L415.917 638.675L496.607 638.565L529.515 638.66L609.546 638.594L625.614 638.774C628.294 638.803 631.591 639.203 634.189 638.645C637.04 630.491 640.084 622.533 644.413 615.025C655.254 596.219 671.936 582.163 691.284 572.773C716.94 560.321 746.037 559.723 772.724 569.129C800.691 578.986 821.67 598.389 834.293 625.115L840.151 639.029L911.244 639.045L910.994 700.647C902.05 700.779 812.37 701.245 811.121 700.572C802.383 722.089 787.196 737.232 765.7 746.248C747.987 753.677 723.135 753.935 705.304 746.517C686.684 738.772 669.572 722.556 662.039 703.75L661.392 702.035C631.85 702.257 329.634 702.279 327.652 701.324C327.098 701.677 324.954 706.913 324.372 707.92C315.606 723.098 303.878 734.948 287.808 742.25C268.941 750.824 246.928 752.074 227.465 744.713C206.514 736.79 191.006 721.298 181.884 700.978C175.538 701.943 167.612 701.073 161.138 701.071L114.044 701.087L113.97 638.968Z"/>
	<path fill="#E92523" d="M181.884 700.978C179.614 694.52 177.54 688.302 176.542 681.5C174.429 667.088 177.155 652.339 183.415 639.279C193.336 618.58 209.492 603.755 231.25 596.25C251.19 589.373 272.351 591.604 291.077 600.809C309.43 609.832 322.914 625.393 329.411 644.742C332.806 654.854 334.783 665.334 333.86 676.041C333.118 684.64 330.534 693.227 327.652 701.324C327.098 701.677 324.954 706.913 324.372 707.92C315.606 723.098 303.878 734.948 287.808 742.25C268.941 750.824 246.928 752.074 227.465 744.713C206.514 736.79 191.006 721.298 181.884 700.978Z"/>
	<path fill="#FDE39F" d="M254.003 623.203C263.865 623.473 272.321 625.48 280.599 630.992C290.723 637.732 299.073 648.959 301.493 661.001L301.683 661.974L302.437 666.5C303.375 679.166 299.252 692.673 290.821 702.29C281.499 712.922 269.777 717.363 255.876 718.202C244.081 717.886 232.689 714.37 223.534 706.709C214.86 699.451 208.333 688.067 207.448 676.681C206.465 664.016 209.72 650.705 218.157 640.943C227.227 630.447 240.288 624.23 254.003 623.203Z"/>
	<path fill="#E92523" d="M661.392 702.035C659.322 696.218 657.532 690.721 656.674 684.589C653.61 662.676 659.966 640.205 673.292 622.686C686.637 605.141 704.905 595.299 726.559 592.54C746.639 589.982 768.419 595.402 784.467 607.878C802.904 622.212 813.181 642.062 816.158 665C817.742 677.201 815.204 689.138 811.121 700.572C802.383 722.089 787.196 737.232 765.7 746.248C747.987 753.677 723.135 753.935 705.304 746.517C686.684 738.772 669.572 722.556 662.039 703.75L661.392 702.035Z"/>
	<path fill="#FDE39F" d="M734.492 624.703C744.767 623.809 756.281 627.694 764.499 633.752C774.435 641.076 781.678 652.701 783.335 665C784.935 676.873 782.123 689.564 774.827 699.163C765.627 711.266 754.17 716.473 739.443 718.507C727.582 718.724 716.629 716.379 707.145 708.916C697.463 701.297 690.551 690.434 689.154 678.065C687.703 665.225 691.275 652.742 699.367 642.646C708.466 631.292 720.377 626.287 734.492 624.703Z"/>
	<path fill="#8E2D79" d="M114.19 479.566L911.297 479.557L911.244 639.045L840.151 639.029L834.293 625.115C821.67 598.389 800.691 578.986 772.724 569.129C746.037 559.723 716.94 560.321 691.284 572.773C671.936 582.163 655.254 596.219 644.413 615.025C640.084 622.533 637.04 630.491 634.189 638.645C631.591 639.203 628.294 638.803 625.614 638.774L609.546 638.594L529.515 638.66L496.607 638.565L415.917 638.675L358.236 638.562L358.113 638.001C356.867 632.627 354.393 627.321 351.987 622.37C342.836 603.539 329.221 588.27 311.374 577.265C287.867 562.769 257.796 558.158 231.006 564.577C202.434 571.423 177.898 590.086 162.723 615.08C158.169 622.581 154.941 630.708 152.338 639.057L113.97 638.968L114.19 479.566Z"/>
	<path fill="#F46E23" d="M529.117 511.291L609.989 511.082L609.546 638.594L529.515 638.66L529.117 511.291Z"/>
	<path fill="#F46E23" d="M415.917 638.675L415.68 511.069L470.743 511.216L529.117 511.291L529.515 638.66L496.607 638.565L415.917 638.675Z"/>
	<path fill="#E92523" d="M470.743 511.216L529.117 511.291L529.515 638.66L496.607 638.565L496.967 511.436L471.338 511.266L470.743 511.216Z"/>
	<path fill="#FCB11A" d="M114.19 479.566L114.01 271.217L213.351 271.527L546.935 271.516L691.804 271.815L741.327 271.565C749.099 271.539 757.169 271.106 764.905 271.619C773.454 272.185 781.593 274.39 789.183 278.38C805.819 287.123 815.937 302.406 821.327 319.967L849.815 431.177C854.143 431.249 858.569 431.182 862.853 431.85C876.673 434.006 888.479 440.868 898.152 450.84C899.764 452.502 901.158 454.092 902.472 456L902.973 456.711C907.442 463.152 910.736 471.708 911.297 479.557L114.19 479.566Z"/>
	<path fill="#E92523" d="M751.851 319.972L821.327 319.967L849.815 431.177L766.69 431.132L751.851 319.972Z"/>
	<path fill="#FEFEFD" d="M766.69 431.132L656.973 431.138L656.975 320.083L751.851 319.972L766.69 431.132Z"/>
	<path fill="#FEFEFD" d="M202.171 320.241L367.52 320.53L367.641 431.205L361.314 431.245L195.587 431.218L195.636 320.389L202.171 320.241Z"/>
	<path fill="#FEFEFD" d="M416.917 320.469L606.212 320.402L606.114 431.265L416.928 431.228L416.917 320.469Z"/>
</svg>
