<?xml version="1.0" encoding="utf-8" ?>
<svg xmlns="http://www.w3.org/2000/svg" xmlns:xlink="http://www.w3.org/1999/xlink" width="1024" height="1024">
	<path fill="#1E294D" d="M-0 -0L1024 0L1024 1024L-0 1024L0 -0Z"/>
	<path fill="#FEFEFE" d="M292.504 409.568L292.634 254.014L303.97 254.096L304.033 261.571L304.067 321.324L303.917 409.562L292.504 409.568Z"/>
	<path fill="#C02529" d="M304.033 261.571C311.377 264.406 318.26 269.683 324.973 273.771C345.9 286.517 368.583 297.187 393.524 296.996C372.281 313.728 347.902 329.271 319.541 325.832L304.516 322.681L304.067 321.324L304.033 261.571Z"/>
	<path fill="#8EAEC2" d="M304.067 321.324L304.516 322.681L304.348 409.505L548.502 409.695L548.384 507.496L488.144 507.199L453.489 507.229L392.092 507.015L351.006 507.083L283.505 507.11L241.54 507.078L189.982 507.066L189.911 409.495L292.504 409.568L303.917 409.562L304.067 321.324Z"/>
	<path fill="#4274BB" d="M453.489 507.229L453.428 464.126L453.414 454.836C453.414 453.775 453.218 452.437 453.696 451.496L493.418 451.487L493.342 507.229L488.144 507.199L453.489 507.229Z"/>
	<path fill="#4274BB" d="M351.006 507.083L351.002 451.473L392.169 451.498L392.092 507.015L351.006 507.083Z"/>
	<path fill="#4274BB" d="M241.54 507.078L241.495 451.346L283.492 451.239L283.505 507.11L241.54 507.078Z"/>
	<path fill="#E56047" d="M189.982 507.066L241.54 507.078L283.505 507.11L351.006 507.083L392.092 507.015L453.489 507.229L488.144 507.199L548.384 507.496L609.941 507.448L625.38 507.439C627.419 507.438 630.285 507.048 632.091 507.953L632.045 508.479L632.032 535.748L543.772 561.319C541.099 561.967 538.24 562.709 535.5 562.92C532.492 563.153 529.137 562.728 526.232 563.423L532.889 563.695C527.533 565.768 521.74 566.998 516.182 568.414L485.919 575.839L376.263 600.596L332.447 609.06C322.345 610.793 311.971 612.701 301.707 612.946L264.729 612.492L170.537 612.416L139.158 612.155C134.063 612.1 128.605 611.62 123.561 612.075C114.836 597.326 108.338 580.369 102.782 564.206C96.1685 545.809 90.831 526.415 88.1302 507.022L189.982 507.066Z"/>
	<path fill="#C02529" d="M526.232 563.423L532.889 563.695C527.533 565.768 521.74 566.998 516.182 568.414L485.919 575.839L376.263 600.596L332.447 609.06C322.345 610.793 311.971 612.701 301.707 612.946L264.729 612.492L170.537 612.416L139.158 612.155C134.063 612.1 128.605 611.62 123.561 612.075C114.836 597.326 108.338 580.369 102.782 564.206L526.232 563.423Z"/>
	<path fill="#D34841" d="M632.091 507.953C632.78 510.631 632.336 514.319 632.34 517.116L632.481 535.903L664.149 526.194L709.347 512.305L827.997 475.846L897.037 455.482L924.692 447.579C927.684 446.813 930.426 445.884 933.502 445.39L873.322 490.063L786.207 550.087L747.732 572.808L698.224 599.567C636.539 629.918 570.599 653.167 503.672 668.827C451.689 680.99 398.416 688.526 345.193 692.49C309.147 695.175 273.001 696.859 236.852 696.174L202.634 696.029C199.065 696.043 192.249 695.309 189.012 696.637C162.267 672.451 140.792 643.643 123.561 612.075C128.605 611.62 134.063 612.1 139.158 612.155L170.537 612.416L264.729 612.492L301.707 612.946C311.971 612.701 322.345 610.793 332.447 609.06L376.263 600.596L485.919 575.839L516.182 568.414C521.74 566.998 527.533 565.768 532.889 563.695L526.232 563.423C529.137 562.728 532.492 563.153 535.5 562.92C538.24 562.709 541.099 561.967 543.772 561.319L632.032 535.748L632.045 508.479L632.091 507.953Z"/>
	<path fill="#FEFEFE" d="M933.502 445.39L935.75 444.929C936.211 447.711 935.344 451.162 934.958 453.954L930.787 477.867C925.186 506.194 916.831 533.955 906.75 560.985L894.849 591.392C879.878 625.593 861.005 658.065 839.281 688.398C830.57 700.562 820.977 712.199 811.011 723.35C797.505 738.461 782.551 753.138 765.58 764.36C761.806 766.856 756.951 770.224 752.536 771.359C751.037 771.744 748.844 771.469 747.294 771.475L735.076 771.498L676.25 771.351L417.57 771.255L331.97 771.473L309.493 771.495C306.689 771.495 303.156 771.928 300.426 771.417C297.625 770.893 293.576 767.972 290.914 766.599C267.285 754.412 244.594 740.957 223.198 725.119L189.012 696.637C192.249 695.309 199.065 696.043 202.634 696.029L236.852 696.174C273.001 696.859 309.147 695.175 345.193 692.49C398.416 688.526 451.689 680.99 503.672 668.827C570.599 653.167 636.539 629.918 698.224 599.567L747.732 572.808L786.207 550.087L873.322 490.063L933.502 445.39Z"/>
</svg>
