<?xml version="1.0" encoding="utf-8" ?>
<svg xmlns="http://www.w3.org/2000/svg" xmlns:xlink="http://www.w3.org/1999/xlink" width="1024" height="1024">
	<path fill="#0D876B" d="M-0 648.298L0 -0L1024 0L1024 648.874L1024 1024L-0 1024L0 648.298Z"/>
	<path fill="#085258" d="M199.037 716.149C203.406 716.325 209.755 717.057 214.006 716.19L214.255 745.216L199.063 746.246L199.037 716.149Z"/>
	<path fill="#085258" d="M166.018 762.88L204.75 768.83L278.769 778.783L420.183 787.718L619.595 786.84L700.154 781.646L755.459 777.25L780.022 773.947L822.677 768.75C835.558 766.955 848.629 764.497 861.636 763.823C857.036 772.689 850.009 780.786 843.705 788.457C818.441 819.197 789.994 845.643 757.561 868.634C666.649 933.082 550.764 960.362 440.719 941.64C354.052 926.896 272.194 884.224 211.647 820.208C194.743 802.336 180.206 782.911 166.018 762.88Z"/>
	<path fill="#F0B56C" d="M83.2519 597.548L83.5805 596.888C84.8741 594.12 85.0934 589.823 85.8235 586.75C87.0978 581.386 88.7427 576.16 90.7999 571.042C94.2628 562.429 98.0606 553.805 102.75 545.781C119.792 516.621 145.996 492.854 177.391 480.211C197.957 471.93 224.032 467.016 246.048 470.584C261.994 432.12 291.861 400.708 330.516 384.76C367.239 369.609 408.468 370.204 444.986 385.549C458.442 391.204 471.571 398.822 482.766 408.238C477.676 379.225 483.881 347.991 500.931 323.774C518.575 298.713 545.209 282.559 575.344 277.468C606.856 272.144 638.714 279.743 664.674 298.242C690.34 316.53 705.993 345.242 710.973 375.953C712.52 385.491 712.03 395.039 711.167 404.608C761.497 397.052 814.642 414.694 854.94 444.531C885.13 466.884 910.11 499.116 924.276 533.947C931.261 551.123 935.65 568.99 938.319 587.309L940.154 602.657L925.536 664.159C920.883 665.028 889.053 671.812 887.548 670.944C884.141 671.996 880.4 672.401 876.889 673.068L855.263 677.052C791.25 689.089 725.551 694.631 660.433 694.149L644.033 693.928C641.061 693.859 637.327 694.003 634.518 693.065C629.269 693.366 623.803 692.627 618.572 692.154L587.173 688.221L589.635 699.483C589.961 700.885 590.217 703.015 590.938 704.215C591.782 705.619 594.828 707.616 596.166 708.786C599.338 712.191 601.329 715.217 602.19 719.868L637.29 723.37L666.755 727.25L751.177 741.905C763.463 743.647 775.814 744.293 788.188 745.069C816.761 746.862 846.122 747.64 874.668 744.797C869.494 750.712 866.136 757.474 861.636 763.823C848.629 764.497 835.558 766.955 822.677 768.75L780.022 773.947L755.459 777.25L700.154 781.646L619.595 786.84L420.183 787.718L278.769 778.783L204.75 768.83L166.018 762.88L155.559 747.062C169.574 748.57 184.975 746.796 199.063 746.246L214.255 745.216L214.006 716.19C209.755 717.057 203.406 716.325 199.037 716.149L148.773 715.732C156.191 707.004 161.687 697.605 167.519 687.803L150.88 686.833C158.108 681.829 163.741 675.742 168.775 668.553L101.36 662.502C99.8869 657.001 97.6117 651.52 95.841 646.087C90.7286 630.399 85.5124 613.921 83.2519 597.548Z"/>
	<path fill="#03725E" d="M168.775 668.553L174.612 661.435L162.494 663.42C171.462 652.821 176.636 641.222 181.256 628.284C179.006 630.433 176.874 632.713 174 634.003L173.19 634.371C170.509 635.539 167.702 636.008 164.84 636.513C179.414 623.355 185.563 603.507 188.475 584.626C186.817 586.602 185.172 589.028 183 590.442C181.149 590.602 179.724 590.562 177.903 590.178L177.178 589.5C186.056 580.257 190.266 569.487 194.04 557.372C198.366 543.484 201.341 529.154 204.014 514.87C205.087 509.133 205.713 503.32 206.993 497.627C210.312 516.744 213.634 535.653 219.069 554.319C221.528 562.762 224.18 571.454 228.233 579.287C229.389 581.522 230.689 583.762 232.276 585.723C233.423 587.14 234.822 588.331 235.75 589.911C234.62 590.762 232.534 591.113 231.148 590.88C228.056 590.363 226.134 586.089 224.703 583.691L224 582.504C226.133 592 227.683 601.467 231.159 610.621C234.796 620.195 240.172 628.438 246.784 636.213C241.054 634.642 237.527 632.9 233.005 629.078C237.516 640.832 242.541 654.245 251.875 663.043L237.803 661.579L244.735 669.041C248.53 675.408 254.214 680.671 259.586 685.704L243.26 687.832L261.892 715.933L214.006 716.19C209.755 717.057 203.406 716.325 199.037 716.149L148.773 715.732C156.191 707.004 161.687 697.605 167.519 687.803L150.88 686.833C158.108 681.829 163.741 675.742 168.775 668.553Z"/>
	<path fill="#085258" d="M634.518 693.065L688.642 648.491C692.404 644.999 697.19 643.672 701.883 641.828C709.949 638.661 719.622 635.638 727.039 631.182C730.954 628.83 737.501 623.311 742.108 623.321L742.752 623.344C747.209 623.684 750.509 629.388 753.112 632.573L758.534 638.784C759.819 638.736 764.215 634.237 765.541 633.077L795.336 606.533C799.638 602.719 804.292 597.796 809.165 594.801C810.696 593.86 813.917 592.622 815.75 592.989C817.292 593.298 817.979 594.297 818.75 595.57C824.438 604.962 825.944 617.27 833.094 625.844C836.449 629.868 841.223 629.489 846.05 629.896C847.964 630.057 851.739 630.025 853.366 630.864C856.173 632.312 859.925 637.848 862.037 640.34L887.548 670.944C884.141 671.996 880.4 672.401 876.889 673.068L855.263 677.052C791.25 689.089 725.551 694.631 660.433 694.149L644.033 693.928C641.061 693.859 637.327 694.003 634.518 693.065Z"/>
	<path fill="#7D0A15" d="M303.689 663.392C302.729 656.592 301.481 648.701 303.332 641.989L303.548 641.182C305.649 633.574 310.937 627.708 313.629 620.344C321.093 599.925 319.011 578.724 313.625 558.113C312.589 554.15 311.615 548.65 309.686 545.053L309.425 544.632L308.891 564.986C298.969 546.637 295.841 526.221 301.865 506C307.082 488.489 317.544 475.197 333.711 466.478C360.296 452.142 392.81 457.41 421.645 458.089C432.471 458.343 443.475 457.692 454.25 456.686C468.074 455.396 481.375 453.273 494.868 449.937C506.119 447.156 517.181 443.566 528.626 441.614C545.296 438.77 562.356 439.918 578.75 435.048C586.573 432.725 593.935 428.609 600.27 423.5C607.574 417.61 614.69 410.258 623.356 406.41C610.391 400.227 596.907 394.273 591.811 379.633C588.709 370.723 589.6 361.921 592.898 353.165C593.025 364.34 593.56 373.983 602.004 382.315C605.899 386.158 610.349 388.904 615.165 391.461C616.936 392.402 618.885 393.653 620.832 394.153C616.658 383.258 616.641 375.98 621.437 365.219C620.934 375.43 620.85 383.357 628.314 391.503C632.649 396.233 637.005 397.798 643.011 399.234C646.593 392.934 648.831 388.054 650.511 381.001C651.237 387.95 650.894 394.207 649.196 400.977C662.009 403.914 672.91 408.129 682.063 417.982C685.429 421.606 688.785 426.085 692.752 429.032C696.129 431.54 700.041 433.211 703.862 434.912C711.512 438.318 719.127 440.891 727.044 443.556C728.913 444.185 731.416 445.053 732.278 447.041C733.554 449.984 731.007 454.785 729.501 457.25C725.786 463.332 720.385 466.347 713.546 467.896C703.395 470.196 693.504 469.373 683.25 470.009C677.446 470.369 671.542 471.56 665.826 472.626C661.12 473.505 655.636 474.436 651.798 477.469C646.711 481.49 642.383 488.576 638.957 494C631.391 505.974 626.238 518.887 616.442 529.468C612.234 534.013 607.765 538.043 602.733 541.66C600.058 543.584 597.186 545.192 594.324 546.816C593.392 547.344 591.259 548.244 590.683 549.157C589.756 550.628 589.486 553.668 589.186 555.433L586.884 570.065C584.376 587.405 581.628 605.123 581.056 622.656C580.346 644.449 583.208 666.824 587.173 688.221L589.635 699.483C589.961 700.885 590.217 703.015 590.938 704.215C591.782 705.619 594.828 707.616 596.166 708.786C599.338 712.191 601.329 715.217 602.19 719.868L637.29 723.37L666.755 727.25L751.177 741.905C763.463 743.647 775.814 744.293 788.188 745.069C816.761 746.862 846.122 747.64 874.668 744.797C869.494 750.712 866.136 757.474 861.636 763.823C848.629 764.497 835.558 766.955 822.677 768.75L780.022 773.947L755.459 777.25L700.154 781.646L619.595 786.84L420.183 787.718L278.769 778.783L204.75 768.83L166.018 762.88L155.559 747.062C169.574 748.57 184.975 746.796 199.063 746.246L214.255 745.216L214.006 716.19L261.892 715.933L243.26 687.832L259.586 685.704C254.214 680.671 248.53 675.408 244.735 669.041L303.689 663.392Z"/>
	<path fill="#62070F" d="M546.441 708.843C548.691 711.854 549.487 713.557 549.688 717.314C547.11 716.606 543.715 716.617 541.608 714.912C541.386 713.568 541.386 713.476 541.974 712.25C543.513 711.323 544.848 710.438 546.126 709.165L546.441 708.843Z"/>
	<path fill="#62070F" d="M596.166 708.786C599.338 712.191 601.329 715.217 602.19 719.868L593.891 718.481C593.585 717.295 593.986 715.953 594.153 714.75C594.481 712.389 594.975 710.87 596.166 708.786Z"/>
	<path fill="#F0B56C" d="M328.647 661.996C330.621 656.46 332.853 650.689 336.062 645.741C339.991 639.683 345.857 634.243 350.568 628.745L366.683 608.244L361.502 625.622C359.363 632.18 355.673 640.217 356.504 647.25C357.067 652.007 359.675 656.712 361.792 660.931L328.647 661.996Z"/>
	<path fill="#0D876B" d="M540.791 679.728L567.707 683.976C569.586 690.237 570.731 696.615 572.07 703C573.135 708.08 574.451 713.23 574.745 718.427L549.688 717.314C549.487 713.557 548.691 711.854 546.441 708.843C544.766 706.536 541.545 702.934 540.733 700.288C540.302 698.886 540.592 696.586 540.586 695.106L540.791 679.728Z"/>
	<path fill="#F0B56C" d="M540.791 679.728L547.086 586.25L556.644 640.535L562.851 665L566.042 677.793C566.532 679.685 566.89 682.215 567.707 683.976L540.791 679.728Z"/>
	<path fill="#0D876B" d="M328.647 661.996L361.792 660.931C365.079 666.551 367.674 672.626 370.653 678.42C373.178 683.334 391.203 715.272 390.265 718.94C389.821 720.675 387.799 722.011 386.29 722.74C382.355 724.639 377.725 725.54 373.5 726.555C360.663 729.637 347.878 731.201 334.85 733.105C334.023 731.295 332.449 726.666 331.09 725.451C329.055 723.629 325.979 724.2 324.733 721.216C323.139 717.399 323.397 712.281 323.386 708.187C323.347 693.241 324.637 676.419 328.647 661.996Z"/>
	<path fill="#0D876B" d="M244.735 669.041L303.689 663.392C304.631 675.113 304.622 686.746 304.481 698.5L304.15 714.134C304.087 716.796 303.71 719.882 304.402 722.476C305.629 727.073 309.026 731.994 311.346 736.188L214.255 745.216L214.006 716.19L261.892 715.933L243.26 687.832L259.586 685.704C254.214 680.671 248.53 675.408 244.735 669.041Z"/>
	<path fill="#0D876B" d="M387.654 660.976L520.257 676.275C521.157 679.117 521.182 682.79 521.483 685.806L523.046 716.529L447.773 716.657L426.006 717.881C423.106 718.082 418.455 719.065 415.727 718.195C400.11 704.421 393.152 680.431 387.654 660.976Z"/>
	<path fill="#F0B56C" d="M387.654 660.976C387.458 655.754 387.283 650.749 388.925 645.709C390.993 639.359 394.509 633.336 397.785 627.549L412.014 602.245L417.574 591.231C418.234 589.861 418.984 587.575 419.899 586.447L420.376 586.093C448.276 591.309 480.142 591.701 507.881 585.488L520.257 676.275L387.654 660.976Z"/>
	<path fill="#A0CDB4" d="M-0 648.298L0 -0L1024 0L1024 648.874L925.536 664.159L940.154 602.657L938.319 587.309C935.65 568.99 931.261 551.123 924.276 533.947C910.11 499.116 885.13 466.884 854.94 444.531C814.642 414.694 761.497 397.052 711.167 404.608C712.03 395.039 712.52 385.491 710.973 375.953C705.993 345.242 690.34 316.53 664.674 298.242C638.714 279.743 606.856 272.144 575.344 277.468C545.209 282.559 518.575 298.713 500.931 323.774C483.881 347.991 477.676 379.225 482.766 408.238C471.571 398.822 458.442 391.204 444.986 385.549C408.468 370.204 367.239 369.609 330.516 384.76C291.861 400.708 261.994 432.12 246.048 470.584C224.032 467.016 197.957 471.93 177.391 480.211C145.996 492.854 119.792 516.621 102.75 545.781C98.0606 553.805 94.2628 562.429 90.7999 571.042C88.7427 576.16 87.0978 581.386 85.8235 586.75C85.0934 589.823 84.8741 594.12 83.5805 596.888L83.2519 597.548C85.5124 613.921 90.7286 630.399 95.841 646.087C97.6117 651.52 99.8869 657.001 101.36 662.502L-0 648.298Z"/>
	<path fill="#E24F2F" d="M83.2519 597.548C79.4966 580.573 77.7574 562.656 76.535 545.32C74.6328 518.346 74.98 491.603 78.1876 464.742C85.8725 400.389 109.584 336.349 144.323 281.719C207.377 182.563 307.738 112.555 422.395 87.2029C489.255 72.4192 561.04 74.7473 626.954 93.2235C669.401 105.121 710.141 123.915 747.22 147.692C843.192 209.233 913.673 310.773 937.702 422.129C941.735 440.817 945.119 459.879 946.836 478.935C949.185 504.994 948.737 531.212 946.485 557.25C945.171 572.436 943.422 587.758 940.154 602.657L938.319 587.309C935.65 568.99 931.261 551.123 924.276 533.947C910.11 499.116 885.13 466.884 854.94 444.531C814.642 414.694 761.497 397.052 711.167 404.608C712.03 395.039 712.52 385.491 710.973 375.953C705.993 345.242 690.34 316.53 664.674 298.242C638.714 279.743 606.856 272.144 575.344 277.468C545.209 282.559 518.575 298.713 500.931 323.774C483.881 347.991 477.676 379.225 482.766 408.238C471.571 398.822 458.442 391.204 444.986 385.549C408.468 370.204 367.239 369.609 330.516 384.76C291.861 400.708 261.994 432.12 246.048 470.584C224.032 467.016 197.957 471.93 177.391 480.211C145.996 492.854 119.792 516.621 102.75 545.781C98.0606 553.805 94.2628 562.429 90.7999 571.042C88.7427 576.16 87.0978 581.386 85.8235 586.75C85.0934 589.823 84.8741 594.12 83.5805 596.888L83.2519 597.548Z"/>
</svg>
