<?xml version="1.0" encoding="utf-8" ?>
<svg xmlns="http://www.w3.org/2000/svg" xmlns:xlink="http://www.w3.org/1999/xlink" width="1024" height="1024">
	<path fill="#0793D8" d="M-0 -0L1024 0L1024 1024L-0 1024L0 -0Z"/>
	<path fill="#E33116" d="M600.956 361.824L628.842 332.17C635.748 324.607 641.828 314.565 650.478 308.922C650.308 312.94 650.14 317.144 649.121 321.049C647.982 325.417 645.937 329.457 644.621 333.76C649.343 330.022 653.478 325.482 658.027 321.505C672.413 308.927 690.391 296.775 709.377 292.911L662.637 362.43C649.965 363.841 636.31 362.945 623.533 362.974C617.147 362.988 609.464 363.85 603.25 362.81C602.327 362.656 601.749 362.288 600.956 361.824Z"/>
	<path fill="#FEB612" d="M291.643 727.907C284.058 730 274.243 730.132 266.5 729.019C240.052 725.215 218.539 706.631 203.03 685.901C165.433 635.647 155.54 565.305 164.644 504.419C169.19 474.022 178.68 444.595 194.5 418.164C204.178 401.996 215.552 387.847 230.869 376.675C241.47 368.942 254.693 362.694 267.923 361.644C275.265 361.061 282.214 361.946 289.449 363.088C296.919 365.393 304.318 368.063 311.082 372.048C330.548 383.515 346.475 405.365 356.819 425.043C381.125 471.28 388.538 524.628 383.692 576.25C382.062 593.608 379.15 611.725 373.925 628.411C362.589 664.613 342.981 702.999 307.939 721.311C302.826 723.983 297.224 726.411 291.643 727.907Z"/>
	<path fill="#F87F08" d="M264.64 401.636C280.807 400.326 295.743 404.454 308.723 414.37C317.213 420.856 324.409 429.823 330.261 438.704C346.025 462.626 353.765 489.337 357.842 517.447C359.343 527.793 359.515 538.507 359.485 548.945C359.373 588.201 351.43 628.125 327.37 660.062C315.789 675.434 300.067 688.111 280.559 690.862C264.432 693.045 249.384 687.242 236.73 677.459C228.804 671.332 222.009 663.249 216.25 655.091C199.24 630.998 189.769 602.746 186.053 573.604C179.805 524.594 189.33 469.948 219.514 430C230.222 415.827 247.158 404.804 264.64 401.636Z"/>
	<path fill="#FEB612" d="M267.426 409.189L267.919 409.118C282.466 407.895 294.485 412.916 305.809 421.674C312.38 426.756 318.097 433.355 322.987 440.04C339.83 463.064 347.907 491.376 351.393 519.397C357.386 567.566 350.589 620.173 319.745 659.164C312.809 667.932 301.832 676.672 291.263 680.423C286.968 681.947 282.554 682.507 278.049 683.032C263.555 683.176 252.016 680.066 240.302 671.057C234.023 666.227 228.537 660.087 223.681 653.85C205.827 630.922 196.134 601.848 192.541 573.219C186.833 527.731 193.54 474.538 222.473 437.484C233.687 423.123 248.874 411.466 267.426 409.189Z"/>
	<path fill="#F87F08" d="M268.473 451.182C270.727 450.817 273.464 450.963 275.695 451.315L276.5 451.45C281.241 452.196 285.819 454.025 289.894 456.559C308.855 468.346 319.862 493.859 324.382 515C327.071 527.577 327.644 540.88 327.123 553.694C326.179 576.914 321.715 599.061 308.939 618.829C301.228 630.761 291.674 639.431 277.579 642.474C266.98 643.458 258.344 640.519 250.014 633.924C229.88 617.984 220.775 587.31 217.881 562.861C214.234 532.056 219.581 494.605 239.264 469.684C246.71 460.256 256.239 452.676 268.473 451.182Z"/>
	<path fill="#FEB612" d="M269.892 496.14C274.061 495.716 278.666 496.888 282.25 499.049C291.771 504.79 296.67 517.306 299.167 527.568C303.352 544.768 301.862 566.315 292.47 581.696C288.085 588.876 283.768 593.893 275.306 595.974L268 595.958C262.421 595.296 258.046 591.524 254.702 587.265C244.351 574.077 241.102 552.698 243.314 536.392C244.599 526.926 246.654 517.651 252 509.554C256.382 502.92 261.88 497.673 269.892 496.14Z"/>
	<path fill="#9F5105" d="M289.449 363.088L323.938 362.591L378.414 362.55L542.415 362.53L586.038 362.635L596.014 362.657C596.96 362.65 598.886 362.855 599.75 362.591C600.206 362.452 600.554 362.08 600.956 361.824C601.749 362.288 602.327 362.656 603.25 362.81C609.464 363.85 617.147 362.988 623.533 362.974C636.31 362.945 649.965 363.841 662.637 362.43L716.227 362.481C726.517 362.485 737.591 361.638 747.755 362.75C772.866 365.498 795.067 378.581 812.63 396.252C850.225 434.077 865.862 491.957 865.622 544.092C865.369 599.041 847.422 657.661 807.692 697.057C792.522 712.099 771.915 723.252 750.775 726.914C743.792 728.124 736.828 727.966 729.774 727.985L702.555 728.011L611.593 728.007L408.918 728.112L296 728.089L291.643 727.907C297.224 726.411 302.826 723.983 307.939 721.311C342.981 702.999 362.589 664.613 373.925 628.411C379.15 611.725 382.062 593.608 383.692 576.25C388.538 524.628 381.125 471.28 356.819 425.043C346.475 405.365 330.548 383.515 311.082 372.048C304.318 368.063 296.919 365.393 289.449 363.088Z"/>
	<path fill="#812F06" d="M468.913 410.724L489.633 410.514L527.528 411.039C546.275 411.74 565.589 412.201 584.084 415.476C577.369 417.215 569.86 417.612 562.929 418.128L529.375 420.051C503.209 421.431 476.835 420.171 450.701 418.815C439.041 418.21 426.169 418.409 414.859 415.422L468.913 410.724Z"/>
	<path fill="#812F06" d="M671.669 484.738C705.273 484.179 738.574 485.621 771.836 490.488C758.37 493.103 744.13 493.231 730.457 493.708L696.125 495.123C685.272 495.76 674.263 495.413 663.392 495.26C640.885 494.943 618.501 494.185 596.246 490.536C601.645 488.673 607.906 488.459 613.573 487.839C632.945 485.723 652.204 485.092 671.669 484.738Z"/>
	<path fill="#812F06" d="M663.441 651.226C696.411 650.386 730.242 650.876 763.101 654.018C769.756 654.655 777.1 654.911 783.508 656.774C774.282 659.077 764.801 659.981 755.347 660.768L718.375 662.553C678.541 663.7 638.112 664.079 598.735 656.98C619.772 652.671 642.036 651.881 663.441 651.226Z"/>
	<path fill="#812F06" d="M495.224 587.765C520.014 586.956 544.964 587.753 569.722 589.098C584.626 589.907 600.275 590.594 614.91 593.473C606.714 595.373 598.121 595.953 589.75 596.682L534.875 599.313C495.703 600.094 455.514 599.941 416.818 593.491C425.385 591.787 434.065 591.119 442.75 590.322L495.224 587.765Z"/>
</svg>
