<?xml version="1.0" encoding="utf-8" ?>
<svg xmlns="http://www.w3.org/2000/svg" xmlns:xlink="http://www.w3.org/1999/xlink" width="1024" height="1024">
	<path fill="#DB301D" d="M-0 -0L1024 0L1024 1024L-0 1024L0 -0Z"/>
	<path fill="#F6B916" d="M231.9 557.227L274.784 556.869L318.497 556.938L328.219 556.926C329.658 556.924 331.641 556.697 333 557.09C333.601 557.263 334.796 558.314 335.257 558.75C336.609 560.03 336.863 562.019 336.75 563.792C336.651 565.349 335.93 566.837 334.75 567.863C330.611 571.464 312.542 568.897 306.245 569.857L234.948 569.834L233.576 569.62C231.406 569.243 229.797 568.904 228.504 566.945C227.447 565.342 227.072 563.615 227.605 561.692C228.21 559.51 230.008 558.202 231.9 557.227Z"/>
	<path d="M306.245 569.857L328.138 569.813C323.846 581.69 317.035 594.548 308.036 603.58L275.754 603.651C269.731 603.658 263.356 603.253 257.377 603.879L256.011 603.918C246.537 594.841 239.973 581.801 234.948 569.834L306.245 569.857Z"/>
	<path d="M231.9 557.227C225.614 550.99 223.679 529.712 222.872 521.217L339.632 521.245C339.164 532.782 336.673 545.881 332.296 556.634L293.082 556.684C287.101 556.71 280.685 556.225 274.784 556.869L231.9 557.227Z"/>
	<path fill="#F6B916" d="M765.556 450.996C768.664 450.982 770.507 451.133 772.757 453.443C774.014 454.735 774.432 455.831 774.665 457.623C775.08 460.821 774.82 464.262 774.795 467.485L774.65 483.433L774.579 531.664L777.051 532.257C785.046 534.314 791.497 539.945 795.508 547.062C799.673 554.453 800.571 563.5 798.293 571.649L798.046 572.5C797.12 575.778 795.793 578.81 793.798 581.585C788.072 589.548 779.61 593.467 770.119 594.929C764.535 595.2 758.774 593.973 753.747 591.541C746.274 587.926 740.46 581.188 737.926 573.283C735.44 565.526 736.001 555.905 740.009 548.75C744.599 540.556 751.382 535.666 760.283 533.245C760.681 531.792 760.287 530.023 760.195 528.509L760.072 521.084L760.001 473.936L759.999 461.73C759.999 459.74 759.783 457.168 760.494 455.281C761.372 452.951 763.437 451.97 765.556 450.996Z"/>
	<path d="M653.074 617.75L653.959 617.624C658.678 617.19 663.559 617.439 668.304 617.438L694.108 617.445L773.712 617.402L850.31 617.493L872.702 617.506C876.823 617.492 881.163 617.178 885.25 617.542C886.824 617.682 888.148 618.347 889.306 619.419C890.438 620.468 890.959 621.913 891.011 623.438C891.068 625.081 890.388 626.406 889.25 627.563C888.173 628.659 886.796 629.095 885.313 629.319C880.124 630.102 873.839 629.446 868.553 629.453L830.173 629.441C827.703 647.421 820.442 661.735 805.826 672.959C792.391 683.277 775.092 687.608 758.3 685.226C734.913 681.908 715.489 666.345 707.532 643.931C705.986 639.575 705.27 635.2 704.541 630.65C704.479 630.262 704.683 629.703 704.356 629.485C702.889 628.506 660.294 630.58 653.347 629.456C652.232 629.276 651.185 628.496 650.383 627.734C649.307 626.711 648.487 625.304 648.503 623.78C648.523 621.968 649.427 619.971 650.893 618.874C651.539 618.39 652.334 618.06 653.074 617.75Z"/>
	<path d="M624.678 903.477L710.174 903.029L840.175 903.09L888.973 903.09L903.543 903.104C905.726 903.114 908.468 902.839 910.552 903.524C912.445 904.147 913.46 905.304 914.367 907C914.59 908.94 914.61 910.588 913.444 912.255C912.158 914.093 910.505 914.919 908.322 915.239C902.412 916.104 895.157 915.366 889.111 915.361L846.66 915.294L696.776 915.378L271.037 915.096L126.606 915.439C122.757 915.44 114.213 916.525 111.25 913.893C109.985 912.77 109.121 911.01 109.02 909.327C108.91 907.506 109.321 906.116 110.617 904.814C111.563 903.863 112.7 903.411 114.019 903.264C122.066 902.366 131.085 903.1 139.219 903.114L191.962 903.23L305.648 903.146L400.182 903.469L553.479 903.779L603.853 903.672C610.518 903.633 618.095 904.288 624.678 903.477Z"/>
	<path fill="#1F1A18" d="M508.37 110.722L508.936 110.687C533.336 109.412 558.62 119.683 576.512 135.938C595.247 152.958 606.217 176.935 607.35 202.154C608.501 227.777 599.617 253.094 582.186 271.973C564.601 291.019 541.696 301.657 515.875 302.667C495.394 303.295 474.492 297.894 457.642 286.053C436.427 271.143 422.159 248.5 417.976 222.919C413.732 196.964 419.817 170.503 435.35 149.189C450.102 128.948 472.446 116.013 497 111.881L508.37 110.722Z"/>
	<path fill="#F6B916" d="M191.962 903.23L191.774 603.78L256.011 603.918L257.377 603.879L400.067 603.989L542.152 603.941L542.251 704.508L400.483 704.238L400.182 903.469L305.648 903.146L191.962 903.23Z"/>
	<path fill="#DB301D" d="M305.648 903.146C310.167 902.538 315.366 903.034 319.953 903.045L350.51 903.125L350.472 792.781L350.504 759.586C350.512 754.111 350.086 748.217 350.767 742.79C351.589 736.248 353.8 729.803 357.327 724.221C362.895 715.412 373.349 707.83 383.591 705.531L384.5 705.335C389.701 704.176 395.173 704.355 400.483 704.238L400.182 903.469L305.648 903.146Z"/>
	<path fill="#1F1A18" d="M462.107 337.619C490.232 331.727 521.272 331.559 549.64 335.778C553.51 336.354 558.132 336.651 561.835 337.881C569.536 338.698 577.64 341.834 584.95 344.313C622.758 357.137 656.119 379.411 681.341 410.534C692.587 424.413 702.375 440.611 709.517 456.976L624.431 456.847L624.678 903.477C618.095 904.288 610.518 903.633 603.853 903.672L553.479 903.779L400.182 903.469L400.483 704.238L542.251 704.508L542.152 603.941L400.067 603.989L400.46 457.057L314.825 457.508C321.733 440.859 331.314 424.599 342.637 410.581C368.526 378.529 402.985 354.497 442.593 342.696C448.727 340.869 455.77 338.29 462.107 337.619Z"/>
	<path fill="#F6B916" d="M462.107 337.619C490.232 331.727 521.272 331.559 549.64 335.778C553.51 336.354 558.132 336.651 561.835 337.881L512.722 415.35L462.107 337.619Z"/>
</svg>
