<?xml version="1.0" encoding="utf-8" ?>
<svg xmlns="http://www.w3.org/2000/svg" xmlns:xlink="http://www.w3.org/1999/xlink" width="1024" height="1024">
	<path fill="#43A9AE" d="M-0 -0L1024 0L1024 1024L-0 1024L0 -0Z"/>
	<path fill="#EA9A68" d="M567.243 888.619L509.648 893.866C490.368 893.941 470.689 892.658 451.75 888.974C398.735 878.661 350.562 852.217 312.345 814.25C293.345 795.374 276.439 775.23 261.934 752.699C250.733 735.299 241.647 716.81 233.513 697.815C208.503 639.418 196.408 577.239 196.231 513.75C195.93 405.255 231.192 292.963 308.842 214.83C361.427 161.918 433.528 128.223 508.732 128.166C588.009 128.106 661.43 159.988 717.202 216.026C793.726 292.915 827.746 402.414 827.459 509.256C825.448 508.056 823.764 505.893 822.152 504.206L811.803 493.285L794.882 476.075L671.768 351.255L634.718 312.958C633.901 312.133 633.23 311.899 632.145 311.578C627.559 306.382 623.657 300.709 618.85 295.663C611.58 288.031 604.039 280.757 595.555 274.471C574.851 259.131 548.896 248.895 523.073 247.301C510.044 246.497 496.569 246.731 483.7 249.071C458.263 253.697 434.996 266.537 415.836 283.591C387.162 309.113 369.716 345.72 367.619 384.012C366.757 399.745 367.478 415.897 367.482 431.681L367.521 524.511L367.536 597.659C367.527 618.422 366.215 639.849 370.5 660.296C375.959 686.341 387.577 710.351 405.547 730.142L427.479 750.682C428.919 753.886 432.452 756.177 434.949 758.6L454.605 777.436L527.355 848.574C540.723 861.737 554.722 874.65 567.243 888.619Z"/>
	<path fill="#173A53" d="M427.479 750.682L405.547 730.142C387.577 710.351 375.959 686.341 370.5 660.296C366.215 639.849 367.527 618.422 367.536 597.659L367.521 524.511L367.482 431.681C367.478 415.897 366.757 399.745 367.619 384.012C369.716 345.72 387.162 309.113 415.836 283.591C434.996 266.537 458.263 253.697 483.7 249.071C496.569 246.731 510.044 246.497 523.073 247.301C548.896 248.895 574.851 259.131 595.555 274.471C604.039 280.757 611.58 288.031 618.85 295.663C623.657 300.709 627.559 306.382 632.145 311.578C633.23 311.899 633.901 312.133 634.718 312.958L671.768 351.255L794.882 476.075L811.803 493.285L822.152 504.206C823.764 505.893 825.448 508.056 827.459 509.256C828.735 536.332 825.975 564.164 821.564 590.835C808.486 669.893 776.751 744.647 722.556 804.348C681.594 849.472 626.857 877.52 567.243 888.619C554.722 874.65 540.723 861.737 527.355 848.574L454.605 777.436L434.949 758.6C432.452 756.177 428.919 753.886 427.479 750.682Z"/>
	<path fill="#43A9AE" d="M509.185 328.209L519.178 328.622C535.083 330.422 550.438 338.586 560.438 351.107C567.932 360.491 572.522 371.521 574.236 383.38C574.899 387.963 574.692 392.904 574.7 397.53L574.71 420.061L574.706 496.413L574.747 592.083L574.683 621.804C574.646 627.642 574.913 633.764 574.193 639.552C572.544 652.801 568.571 664.906 559.798 675.25C548.037 689.116 532.859 695.368 515.031 696.791C499.67 697.679 483.3 692.984 471.567 682.846C458.377 671.45 450.281 654.873 449.103 637.475C447.983 620.924 448.877 603.738 448.885 587.131L448.917 490.388L448.899 421.702C448.9 408.475 447.853 394.31 450.003 381.25C451.974 369.278 456.494 358.496 464.548 349.355C476.413 335.887 491.384 329.289 509.185 328.209Z"/>
	<path fill="#DB5045" d="M632.145 311.578C633.23 311.899 633.901 312.133 634.718 312.958L671.768 351.255L794.882 476.075L811.803 493.285L822.152 504.206C823.764 505.893 825.448 508.056 827.459 509.256C828.735 536.332 825.975 564.164 821.564 590.835C808.486 669.893 776.751 744.647 722.556 804.348C681.594 849.472 626.857 877.52 567.243 888.619C554.722 874.65 540.723 861.737 527.355 848.574L454.605 777.436L434.949 758.6C432.452 756.177 428.919 753.886 427.479 750.682C444.857 761.503 461.509 771.472 481.813 775.75C516.926 783.148 557.056 776.446 587.25 756.836C610.142 741.969 629.409 721.152 641.422 696.568C647.487 684.158 651.595 670.942 654.469 657.46C657.53 643.098 657.639 629.172 657.613 614.578L657.559 581.686L657.599 484.657L657.626 420.785C657.708 404.366 658.87 387.138 656.227 370.878C653.778 355.806 649.107 340.793 641.952 327.277C639.048 321.793 635.509 316.774 632.145 311.578Z"/>
</svg>
