<svg width="61" height="65" viewBox="0 0 61 65" fill="none" xmlns="http://www.w3.org/2000/svg">
<path d="M0 32.5C0 30.9981 0.511093 29.7326 1.53329 28.7035L28.5109 1.54364C29.5883 0.514549 30.8453 0 32.2819 0C33.6909 0 34.9341 0.514549 36.0115 1.54364L39.1196 4.67265C40.1694 5.72956 40.6943 6.99508 40.6943 8.46919C40.6943 9.9433 40.1694 11.2088 39.1196 12.2657L26.9776 24.4897H56.1515C57.5881 24.4897 58.7553 25.0112 59.6532 26.0542C60.5511 27.0972 61 28.3558 61 29.8299V35.1701C61 36.6442 60.5511 37.9028 59.6532 38.9458C58.7553 39.9888 57.5881 40.5103 56.1515 40.5103H26.9776L39.1196 52.776C40.1694 53.7773 40.6943 55.0289 40.6943 56.5308C40.6943 58.0327 40.1694 59.2843 39.1196 60.2856L36.0115 63.4146C34.9617 64.4715 33.7185 65 32.2819 65C30.8177 65 29.5607 64.4715 28.5109 63.4146L1.53329 36.2548C0.511093 35.2813 0 34.0297 0 32.5Z" fill="#723DB6"/>
</svg>
