<svg width="636" height="536" viewBox="0 0 636 536" fill="none" xmlns="http://www.w3.org/2000/svg">
<g clip-path="url(#clip0_149_287)">
<rect x="0.000488281" width="636" height="535.69" rx="10" fill="#E5E2F3"/>
<path d="M369.559 -3.52136C389.808 26.8704 400.042 44.2728 435.57 44.2728C464.186 44.2728 482.742 4.22955 507.11 5.64308C536.793 7.3649 523.601 60.4316 531.119 102.344C544.626 177.646 640.051 74.791 640.051 74.791" stroke="#589BFF" stroke-width="10"/>
<path d="M575.691 540.813C575.691 540.813 574.183 515.011 532.841 484.175C484.145 447.852 419.341 452.783 364.034 475.086C308.465 497.495 266.181 553.765 216.893 519.559C184.41 497.016 202.431 454.445 174.379 426.384C103.661 355.643 -3.42391 449.28 -3.42391 449.28" stroke="#2FC547" stroke-width="10"/>
</g>
<defs>
<clipPath id="clip0_149_287">
<rect x="0.000488281" width="636" height="535.69" rx="10" fill="white"/>
</clipPath>
</defs>
</svg>
