<svg width="1440" height="1024" viewBox="0 0 1440 1024" fill="none" xmlns="http://www.w3.org/2000/svg">
<g clip-path="url(#clip0_48_343)">
<rect width="1440" height="1024" fill="white"/>
<path d="M923 -48C923 -48 1007.59 -37.3299 1042.5 13C1084.25 73.1861 1053.25 141.5 1126.5 141.5C1185.5 141.5 1194.76 63.2007 1245 66C1306.2 69.4098 1306.5 241.5 1322 324.5C1349.85 473.624 1531.5 283.5 1531.5 283.5" stroke="#589BFF" stroke-width="10"/>
<path d="M125.022 -95.3858C125.022 -95.3858 49.7925 15.858 47.8616 95.2215C45.8442 178.139 55.9255 242.489 122.212 293.043C173.735 332.338 219.974 341.059 285.881 332.608C479.011 307.846 597.776 272.141 723.5 229C825.5 194 984.714 194.841 892 332.609C807.512 458.153 554.279 503.198 617.443 685.726C657.318 800.951 987.037 561.839 1084.86 636.769C1194.38 720.663 1248.98 784.491 1374.69 768.946C1445.21 760.226 1541.55 695.442 1541.55 695.442" stroke="#FFEE58" stroke-width="10"/>
<path d="M622.188 1157.28C622.188 1157.28 662.922 1069.42 655.508 1013.72C647.542 953.87 638.789 904.46 594.5 870C542.332 829.41 473.447 821.286 414.015 851.402C363.5 877 303.823 946.607 250.931 908.505C216.072 883.393 237.359 833.131 207.56 801.431C132.436 721.513 -62.0001 901.952 -62.0001 901.952" stroke="#2FC547" stroke-width="10"/>
</g>
<defs>
<clipPath id="clip0_48_343">
<rect width="1440" height="1024" fill="white"/>
</clipPath>
</defs>
</svg>
