<svg width="1440" height="1024" viewBox="0 0 1440 1024" fill="none" xmlns="http://www.w3.org/2000/svg">
<g clip-path="url(#clip0_43_243)">
<rect width="1440" height="1024" fill="white"/>
<path d="M-213.947 926.936C-240.502 984.005 -222.915 1039.38 -276.982 1075.05C-288.953 1082.94 -310 1091.61 -310 1091.61L-276.982 1325.84L53.201 1376C53.201 1376 66.5576 1328.02 73.7123 1296.98C100.73 1179.73 26.7618 1081.29 111.233 991.764C184.539 914.07 300.751 981.376 378.881 908.009C455.921 835.665 469.932 659.58 469.932 659.58C469.932 659.58 497.086 566.222 469.932 516.675C427.013 438.364 311.344 440.49 240.305 454.686C169.265 468.882 49.5459 528.252 -39.8505 614.627C-141.825 713.154 -155.225 800.739 -213.947 926.936Z" stroke="#C93E3E" stroke-width="10"/>
<path d="M325.96 -100.822C325.96 -100.822 238.661 -12.7874 222.613 60.2923C205.845 136.645 203.24 198.212 253.347 258.171C292.295 304.775 335.82 305.607 392.456 327.295C506.862 371.106 862.716 191.313 973.5 243.671C1021.46 266.337 1114.71 365.386 1007 474.5C908.846 573.933 601.5 538.5 625 720C639.835 834.577 977.616 678.716 1051.5 767.5C1134.22 866.905 1171.5 936.831 1286.63 947.405C1351.22 953.336 1449 912.5 1449 912.5" stroke="#FFEE58" stroke-width="10"/>
<path d="M910 -47.5C910 -47.5 924.087 51.1701 959 101.5C1000.75 161.686 1038.75 210 1112 210C1171 210 1209.26 130.701 1259.5 133.5C1320.7 136.91 1293.5 242 1309 325C1336.85 474.124 1518.5 284 1518.5 284" stroke="#589BFF" stroke-width="10"/>
<path d="M611.892 -69C611.892 -69 605.026 10.9405 629.392 52C655.573 96.1174 687.513 113.591 736.892 127.5C795.056 143.884 834.4 130.723 890.392 108C945.721 85.5462 954.905 2.25511 1012.89 16.5C1051.11 25.888 1048.92 71.0367 1084.89 87C1175.57 127.244 1285.39 -69 1285.39 -69" stroke="#2FC547" stroke-width="10"/>
</g>
<defs>
<clipPath id="clip0_43_243">
<rect width="1440" height="1024" fill="white"/>
</clipPath>
</defs>
</svg>
