<svg width="1440" height="1024" viewBox="0 0 1440 1024" fill="none" xmlns="http://www.w3.org/2000/svg">
<g clip-path="url(#clip0_55_268)">
<rect width="1440" height="1024" fill="white"/>
<path d="M130.022 -146.386C130.022 -146.386 54.7925 -35.142 52.8616 44.2215C50.8442 127.139 60.9256 191.489 127.212 242.043C178.735 281.338 224.974 290.059 290.881 281.608C484.011 256.846 766.86 32.595 896.64 61.3162C952.825 73.7503 1073.56 154.853 980.848 292.621C896.359 418.165 559.279 452.198 622.443 634.726C662.318 749.951 992.037 510.839 1089.86 585.769C1199.38 669.663 1253.98 733.491 1379.69 717.946C1450.21 709.226 1546.55 644.442 1546.55 644.442" stroke="#FFEE58" stroke-width="10"/>
<path d="M463.994 1086.43C463.994 1086.43 498.377 1013.93 489.904 966.944C480.8 916.458 456.985 888.92 415.585 858.624C366.821 822.939 325.358 821.513 264.955 823.226C205.268 824.918 167.542 899.741 118.195 866.121C85.6733 843.964 103.506 802.429 75.3882 774.897C4.50198 705.489 -167 850.952 -167 850.952" stroke="#2FC547" stroke-width="10"/>
</g>
<defs>
<clipPath id="clip0_55_268">
<rect width="1440" height="1024" fill="white"/>
</clipPath>
</defs>
</svg>
