<svg width="39" height="39" viewBox="0 0 39 39" fill="none" xmlns="http://www.w3.org/2000/svg">
<path d="M19.5 0C20.4012 0 21.1605 0.326767 21.7779 0.980301L38.0738 18.2283C38.6913 18.9171 39 19.7208 39 20.6393C39 21.5401 38.6913 22.3349 38.0738 23.0238L36.1964 25.0109C35.5623 25.6821 34.803 26.0177 33.9185 26.0177C33.034 26.0177 32.2747 25.6821 31.6406 25.0109L24.3062 17.248L24.3062 35.9001C24.3062 36.8186 23.9933 37.5649 23.3675 38.1389C22.7417 38.713 21.9865 39 21.1021 39L17.8979 39C17.0135 39 16.2583 38.713 15.6325 38.1389C15.0067 37.5649 14.6938 36.8186 14.6938 35.9001L14.6938 17.248L7.3344 25.0109C6.73363 25.6821 5.98267 26.0177 5.08151 26.0177C4.18036 26.0177 3.4294 25.6821 2.82863 25.0109L0.951219 23.0238C0.317073 22.3526 0 21.5577 0 20.6393C0 19.7031 0.317073 18.8995 0.951219 18.2283L17.2471 0.980301C17.8312 0.326767 18.5822 0 19.5 0Z" fill="#723DB6"/>
</svg>
